M48
; DRILL file {KiCad 8.0.6} date 2025-05-10T14:30:05+1000
; FORMAT={-:-/ absolute / metric / decimal}
; #@! TF.CreationDate,2025-05-10T14:30:05+10:00
; #@! TF.GenerationSoftware,Kicad,Pcbnew,8.0.6
; #@! TF.FileFunction,Plated,1,4,PTH
FMAT,2
METRIC
; #@! TA.AperFunction,Plated,PTH,ViaDrill
T1C0.300
; #@! TA.AperFunction,Plated,PTH,ViaDrill
T2C0.400
; #@! TA.AperFunction,Plated,PTH,ComponentDrill
T3C0.600
; #@! TA.AperFunction,Plated,PTH,ComponentDrill
T4C0.600
; #@! TA.AperFunction,Plated,PTH,ComponentDrill
T5C1.000
; #@! TA.AperFunction,Plated,PTH,ViaDrill
T6C1.000
; #@! TA.AperFunction,Plated,PTH,ComponentDrill
T7C1.000
; #@! TA.AperFunction,Plated,PTH,ComponentDrill
T8C1.200
; #@! TA.AperFunction,Plated,PTH,ComponentDrill
T9C2.900
; #@! TA.AperFunction,Plated,PTH,ComponentDrill
T10C3.000
%
G90
G05
T1
X85.7Y-89.05
X86.09Y-91.805
X86.15Y-63.7
X86.3Y-65.6
X87.045Y-69.745
X87.1Y-63.8
X87.3Y-89.0
X87.43Y-92.1
X87.8Y-72.5
X87.9Y-76.9
X88.0Y-83.5
X88.15Y-71.35
X89.1Y-82.5
X89.75Y-71.75
X90.75Y-70.35
X90.8Y-77.4
X95.9Y-72.05
X106.1Y-96.2
X107.9Y-70.75
X110.13Y-120.28
X111.75Y-125.75
X111.8Y-83.4
X111.81Y-72.09
X112.53Y-126.32
X113.25Y-124.5
X113.82Y-125.38
X114.43Y-114.28
X114.961Y-90.561
X115.161Y-94.861
X115.2Y-74.6
X115.38Y-141.7
X116.761Y-95.861
X121.6Y-140.9
X122.25Y-115.75
X123.145Y-116.055
X123.81Y-116.71
X124.5Y-115.5
X126.2Y-71.8
X136.6Y-126.7
X138.0Y-94.0
X139.0Y-94.0
X139.593Y-122.007
X141.3Y-69.95
X141.5Y-94.0
X141.775Y-92.05
X142.152Y-90.398
X142.4Y-113.75
X142.5Y-94.0
X143.073Y-89.552
X143.2Y-139.0
X143.3Y-92.0
X143.5Y-94.0
X144.0Y-69.95
X145.8Y-72.9
X146.0Y-133.35
X148.1Y-82.8
X148.15Y-142.55
X148.2Y-89.5
X150.014Y-133.386
X150.022Y-141.717
X150.184Y-130.35
X150.2Y-95.4
X150.75Y-128.75
X150.75Y-129.75
X150.84Y-134.186
X150.88Y-131.0
X150.93Y-138.09
X151.18Y-141.434
X151.5Y-138.7
X151.55Y-116.75
X151.954Y-142.21
X152.16Y-116.11
X152.45Y-139.84
X152.733Y-140.938
X152.79Y-117.92
X152.95Y-95.9
X153.0Y-119.65
X153.159Y-117.1
X153.191Y-140.214
X153.39Y-130.35
X153.5Y-134.0
X153.5Y-135.0
X153.75Y-128.25
X153.885Y-129.25
X153.9Y-89.8
X154.186Y-140.96
X154.5Y-134.0
X154.5Y-135.0
X154.5Y-136.0
X154.59Y-129.8
X154.64Y-141.68
X155.09Y-122.15
X155.427Y-141.825
X155.5Y-134.0
X155.5Y-135.0
X155.5Y-136.0
X155.5Y-137.0
X156.0Y-141.1
X156.5Y-134.0
X156.5Y-135.0
X156.5Y-136.0
X156.5Y-137.0
X156.99Y-130.8
X157.89Y-131.89
X157.9Y-144.35
X158.3Y-139.3
X158.73Y-140.8
X158.77Y-141.75
X158.91Y-130.7
X159.0Y-144.3
X159.3Y-138.9
X159.34Y-135.35
X159.8Y-139.55
X159.94Y-129.53
X159.991Y-132.831
X160.0Y-131.5
X160.1Y-138.8
X160.3Y-138.0
X160.75Y-139.55
X161.1Y-136.2
X161.2Y-133.05
X161.2Y-137.6
X161.23Y-135.21
X161.25Y-138.75
X161.424Y-142.124
X161.55Y-139.5
X162.0Y-138.0
X162.8Y-138.3
X163.4Y-137.75
X164.855Y-139.145
X165.35Y-112.53
X167.25Y-132.75
X168.35Y-132.85
X168.65Y-85.05
X169.25Y-133.45
X170.0Y-132.75
X170.1Y-78.7
X170.2Y-86.45
X170.4Y-138.45
X170.45Y-133.8
X170.984Y-79.584
X172.35Y-87.8
X172.475Y-83.775
X172.525Y-91.16
X172.625Y-95.75
X173.0Y-97.0
X173.04Y-113.94
X173.05Y-108.64
X173.7Y-134.35
X173.75Y-137.35
X174.0Y-94.0
X174.41Y-108.8
X174.41Y-112.18
X174.5Y-90.0
X174.6Y-97.0
X174.8Y-83.3
X174.8Y-84.35
X174.8Y-88.0
X174.95Y-132.45
X174.95Y-139.3
X175.25Y-90.5
X175.25Y-98.85
X175.52Y-113.94
X175.85Y-92.24
X175.875Y-108.63
X177.0Y-82.3
X177.25Y-115.71
T2
X81.25Y-75.75
X81.25Y-76.75
X81.25Y-77.75
X81.25Y-78.75
X81.25Y-79.75
X81.25Y-80.75
X81.25Y-81.75
X81.25Y-82.75
X81.25Y-83.75
X81.25Y-84.75
X81.25Y-85.75
X81.25Y-86.75
X81.25Y-87.75
X82.25Y-75.75
X82.25Y-76.75
X82.25Y-77.75
X82.25Y-78.75
X82.25Y-79.75
X82.25Y-80.75
X82.25Y-81.75
X82.25Y-82.75
X82.25Y-83.75
X82.25Y-84.75
X82.25Y-85.75
X82.25Y-86.75
X82.25Y-87.75
X82.5Y-131.5
X82.5Y-134.5
X82.5Y-137.5
X82.5Y-140.5
X83.25Y-76.75
X83.25Y-77.75
X83.25Y-78.75
X83.25Y-79.75
X83.25Y-80.75
X83.25Y-81.75
X83.25Y-82.75
X83.25Y-83.75
X83.25Y-84.75
X83.25Y-85.75
X83.25Y-86.75
X83.25Y-87.75
X84.0Y-133.0
X84.0Y-136.0
X84.0Y-139.0
X85.5Y-131.5
X85.5Y-134.5
X85.5Y-137.5
X85.5Y-140.5
X87.0Y-133.0
X87.0Y-136.0
X87.0Y-139.0
X88.1Y-67.7
X88.5Y-79.7
X88.5Y-131.5
X88.5Y-134.5
X88.5Y-137.5
X88.5Y-140.5
X89.2Y-75.45
X90.0Y-133.0
X90.0Y-136.0
X90.0Y-139.0
X91.5Y-131.5
X91.5Y-134.5
X91.5Y-137.5
X91.5Y-140.5
X93.0Y-133.0
X93.0Y-136.0
X93.0Y-139.0
X94.5Y-131.5
X94.5Y-134.5
X94.5Y-137.5
X94.5Y-140.5
X96.0Y-133.0
X96.0Y-136.0
X96.0Y-139.0
X97.5Y-72.05
X97.5Y-73.05
X97.5Y-74.05
X97.5Y-131.5
X97.5Y-134.5
X97.5Y-137.5
X97.5Y-140.5
X98.0Y-65.0
X98.0Y-66.0
X98.0Y-67.0
X98.0Y-93.0
X98.0Y-94.0
X98.0Y-95.0
X99.0Y-133.0
X99.0Y-136.0
X99.0Y-139.0
X100.0Y-88.1
X100.0Y-91.0
X100.0Y-92.0
X100.0Y-93.0
X100.0Y-94.0
X100.0Y-95.0
X100.1Y-78.5
X100.4Y-106.4
X100.4Y-116.4
X100.5Y-71.55
X100.5Y-72.55
X100.5Y-73.55
X100.5Y-74.55
X100.5Y-75.55
X100.5Y-131.5
X100.5Y-134.5
X100.5Y-137.5
X100.5Y-140.5
X101.0Y-88.1
X101.0Y-91.0
X101.0Y-92.0
X101.0Y-93.0
X101.0Y-94.0
X101.0Y-95.0
X101.1Y-78.5
X101.5Y-71.55
X101.5Y-72.55
X101.5Y-73.55
X101.5Y-74.55
X101.5Y-75.55
X101.7Y-100.527
X102.0Y-65.0
X102.0Y-66.0
X102.0Y-67.0
X102.0Y-88.1
X102.0Y-91.0
X102.0Y-92.0
X102.0Y-93.0
X102.0Y-94.0
X102.0Y-133.0
X102.0Y-136.0
X102.0Y-139.0
X102.1Y-78.5
X103.1Y-107.2
X103.4Y-100.1
X103.5Y-131.5
X103.5Y-134.5
X103.5Y-137.5
X103.5Y-140.5
X104.5Y-71.5
X104.5Y-72.5
X104.5Y-73.5
X104.5Y-74.5
X105.0Y-56.0
X105.0Y-59.0
X105.0Y-65.0
X105.0Y-133.0
X105.0Y-136.0
X105.0Y-139.0
X105.3Y-109.8
X105.3Y-110.8
X105.4Y-106.2
X106.0Y-76.9
X106.1Y-109.3
X106.1Y-110.3
X106.1Y-111.3
X106.5Y-57.5
X106.5Y-60.5
X106.5Y-63.5
X106.5Y-131.5
X106.5Y-134.5
X106.5Y-137.5
X106.5Y-140.5
X106.9Y-109.8
X106.9Y-110.8
X108.0Y-56.0
X108.0Y-59.0
X108.0Y-62.0
X108.0Y-65.0
X108.0Y-133.0
X108.0Y-136.0
X108.0Y-139.0
X108.91Y-127.56
X109.5Y-57.5
X109.5Y-60.5
X109.5Y-63.5
X109.5Y-131.5
X109.5Y-134.5
X109.5Y-137.5
X109.5Y-140.5
X111.0Y-56.0
X111.0Y-59.0
X111.0Y-62.0
X111.0Y-65.0
X111.7Y-77.1
X112.5Y-57.5
X112.5Y-60.5
X112.5Y-63.5
X112.561Y-97.861
X113.2Y-112.8
X114.0Y-62.0
X114.5Y-56.0
X114.5Y-59.0
X117.78Y-114.28
X118.361Y-97.661
X119.6Y-100.7
X120.4Y-66.4
X120.9Y-103.3
X121.0Y-69.9
X121.67Y-68.83
X121.75Y-97.44
X122.5Y-99.25
X126.1Y-62.5
X127.1Y-68.7
X128.4Y-70.2
X129.8Y-99.3
X130.2Y-69.0
X130.2Y-77.6
X130.2Y-96.6
X130.25Y-135.1
X131.4Y-136.0
X132.2Y-132.0
X132.8Y-96.6
X133.0Y-103.2
X133.0Y-104.5
X133.0Y-105.75
X133.0Y-107.0
X133.0Y-108.25
X133.35Y-133.05
X134.25Y-104.5
X134.25Y-105.75
X134.25Y-107.0
X134.25Y-108.25
X135.3Y-99.8
X137.8Y-55.25
X137.9Y-95.8
X138.0Y-58.0
X138.0Y-105.0
X138.0Y-106.5
X138.75Y-119.75
X139.0Y-105.75
X140.0Y-105.0
X141.0Y-103.9
X142.0Y-103.0
X142.08Y-101.12
X142.6Y-96.8
X143.4Y-67.6
X146.0Y-97.4
X147.2Y-68.0
X147.6Y-97.4
X148.55Y-138.02
X148.8Y-97.775
X149.0Y-139.04
X151.6Y-97.9
X152.792Y-143.672
X153.4Y-97.3
X153.4Y-109.6
X153.9Y-108.8
X153.9Y-110.4
X153.95Y-70.7
X154.4Y-109.6
X154.9Y-108.8
X154.9Y-110.4
X155.075Y-114.7
X155.2Y-73.2
X155.2Y-91.6
X155.2Y-92.6
X155.2Y-93.6
X155.2Y-94.6
X155.3Y-104.5
X155.4Y-109.6
X155.5Y-79.0
X156.0Y-87.5
X156.2Y-91.6
X156.2Y-92.6
X156.2Y-93.6
X156.2Y-94.6
X156.5Y-74.2
X156.5Y-75.2
X156.5Y-76.2
X156.5Y-79.0
X157.0Y-87.5
X157.2Y-91.6
X157.2Y-92.6
X157.2Y-93.6
X157.2Y-94.6
X157.5Y-72.2
X157.5Y-73.2
X157.5Y-74.2
X157.5Y-75.2
X157.5Y-76.2
X157.5Y-79.0
X157.7Y-90.6
X157.8Y-105.8
X158.0Y-66.0
X158.0Y-67.0
X158.0Y-68.0
X158.0Y-87.5
X158.5Y-72.2
X158.5Y-73.2
X158.5Y-74.2
X158.5Y-75.2
X158.5Y-76.2
X158.7Y-90.6
X159.0Y-92.0
X159.0Y-93.0
X159.0Y-94.0
X160.1Y-100.1
X160.5Y-116.5
X160.5Y-119.5
X160.5Y-123.0
X161.0Y-66.0
X161.0Y-67.0
X161.0Y-68.0
X161.3Y-72.5
X161.3Y-73.5
X161.3Y-74.5
X162.0Y-92.0
X162.0Y-93.0
X162.0Y-94.0
X162.0Y-114.5
X162.0Y-118.0
X162.0Y-121.0
X163.0Y-128.5
X163.0Y-130.0
X163.0Y-131.5
X163.5Y-113.0
X163.5Y-116.5
X163.5Y-119.5
X163.6Y-100.1
X164.0Y-134.5
X165.0Y-133.5
X166.0Y-132.5
X166.5Y-116.5
X166.5Y-119.0
X171.0Y-76.5
X172.0Y-74.5
X172.0Y-75.5
X172.0Y-76.5
X173.0Y-75.5
X173.0Y-76.5
X173.0Y-80.5
X174.0Y-75.5
X174.0Y-76.5
X174.0Y-77.5
X174.0Y-78.5
X174.0Y-79.5
X174.0Y-80.5
X174.0Y-119.0
X174.0Y-121.0
X174.0Y-123.0
X174.0Y-125.0
X174.0Y-127.0
X174.0Y-129.0
X175.0Y-76.5
X175.0Y-77.5
X175.0Y-78.5
X175.0Y-79.5
X175.0Y-80.5
X175.5Y-120.0
X175.5Y-122.0
X175.5Y-124.0
X175.5Y-126.0
X175.5Y-128.0
X175.5Y-130.0
X176.77Y-86.56
X177.0Y-119.0
X177.0Y-121.0
X177.0Y-123.0
X177.0Y-125.0
X177.0Y-127.0
X177.0Y-129.0
T5
X109.09Y-149.2
X111.63Y-149.2
X114.17Y-149.2
X116.71Y-149.2
T6
X144.8Y-125.9
X146.15Y-127.15
X147.5Y-128.45
X150.539Y-114.251
X151.82Y-112.88
T7
X121.4Y-150.5
X123.94Y-150.5
X141.66Y-111.6
X144.2Y-111.6
X167.5Y-139.5
X167.5Y-142.04
X167.5Y-144.58
X167.5Y-147.12
X167.5Y-149.66
T8
X93.3Y-94.3
X93.3Y-101.8
X95.2Y-58.55
X95.2Y-66.05
X164.9Y-60.3
X164.9Y-67.8
X165.4Y-95.2
X165.4Y-102.7
T9
X95.905Y-77.1
X95.905Y-84.3
X163.695Y-78.0
X163.695Y-85.2
T10
X84.8Y-58.5
X84.8Y-147.5
X97.7Y-120.2
X97.7Y-148.7
X121.575Y-79.075
X121.7Y-87.5
X128.1Y-120.2
X128.1Y-148.7
X135.075Y-79.075
X135.2Y-87.5
X175.0Y-58.5
X175.0Y-147.5
T3
X89.405Y-73.95G85X90.405Y-73.95
G05
X89.405Y-87.45G85X90.405Y-87.45
G05
X170.195Y-74.85G85X169.195Y-74.85
G05
X170.195Y-88.35G85X169.195Y-88.35
G05
T4
X172.035Y-131.783G85X173.135Y-131.783
G05
X172.035Y-140.423G85X173.135Y-140.423
G05
X176.465Y-131.783G85X177.065Y-131.783
G05
X176.465Y-140.423G85X177.065Y-140.423
G05
M30
