G04 #@! TF.GenerationSoftware,KiCad,Pcbnew,8.0.6*
G04 #@! TF.CreationDate,2025-01-07T14:18:53+11:00*
G04 #@! TF.ProjectId,MPPT_V3,4d505054-5f56-4332-9e6b-696361645f70,rev?*
G04 #@! TF.SameCoordinates,Original*
G04 #@! TF.FileFunction,Legend,Bot*
G04 #@! TF.FilePolarity,Positive*
%FSLAX46Y46*%
G04 Gerber Fmt 4.6, Leading zero omitted, Abs format (unit mm)*
G04 Created by KiCad (PCBNEW 8.0.6) date 2025-01-07 14:18:53*
%MOMM*%
%LPD*%
G01*
G04 APERTURE LIST*
G04 Aperture macros list*
%AMRoundRect*
0 Rectangle with rounded corners*
0 $1 Rounding radius*
0 $2 $3 $4 $5 $6 $7 $8 $9 X,Y pos of 4 corners*
0 Add a 4 corners polygon primitive as box body*
4,1,4,$2,$3,$4,$5,$6,$7,$8,$9,$2,$3,0*
0 Add four circle primitives for the rounded corners*
1,1,$1+$1,$2,$3*
1,1,$1+$1,$4,$5*
1,1,$1+$1,$6,$7*
1,1,$1+$1,$8,$9*
0 Add four rect primitives between the rounded corners*
20,1,$1+$1,$2,$3,$4,$5,0*
20,1,$1+$1,$4,$5,$6,$7,0*
20,1,$1+$1,$6,$7,$8,$9,0*
20,1,$1+$1,$8,$9,$2,$3,0*%
G04 Aperture macros list end*
%ADD10C,0.150000*%
%ADD11C,0.120000*%
%ADD12C,0.200000*%
%ADD13C,0.300000*%
%ADD14C,0.250000*%
%ADD15R,0.780000X0.500000*%
%ADD16C,5.000000*%
%ADD17C,6.000000*%
%ADD18C,2.200000*%
%ADD19C,0.650000*%
%ADD20O,2.100000X1.000000*%
%ADD21O,1.600000X1.000000*%
%ADD22C,3.000000*%
%ADD23C,1.600000*%
%ADD24R,1.700000X1.700000*%
%ADD25O,1.700000X1.700000*%
%ADD26C,3.800000*%
%ADD27O,2.200000X1.200000*%
%ADD28RoundRect,0.250000X-0.250000X-0.475000X0.250000X-0.475000X0.250000X0.475000X-0.250000X0.475000X0*%
%ADD29RoundRect,0.225000X-0.225000X-0.375000X0.225000X-0.375000X0.225000X0.375000X-0.225000X0.375000X0*%
%ADD30R,0.300000X1.300000*%
%ADD31RoundRect,0.140000X0.170000X-0.140000X0.170000X0.140000X-0.170000X0.140000X-0.170000X-0.140000X0*%
%ADD32RoundRect,0.200000X-0.200000X-0.275000X0.200000X-0.275000X0.200000X0.275000X-0.200000X0.275000X0*%
%ADD33RoundRect,0.250000X0.325000X1.100000X-0.325000X1.100000X-0.325000X-1.100000X0.325000X-1.100000X0*%
%ADD34O,2.050000X0.590000*%
%ADD35RoundRect,0.250000X-1.100000X0.325000X-1.100000X-0.325000X1.100000X-0.325000X1.100000X0.325000X0*%
%ADD36RoundRect,0.140000X0.140000X0.170000X-0.140000X0.170000X-0.140000X-0.170000X0.140000X-0.170000X0*%
%ADD37RoundRect,0.250000X0.262500X0.450000X-0.262500X0.450000X-0.262500X-0.450000X0.262500X-0.450000X0*%
%ADD38RoundRect,0.135000X-0.135000X-0.185000X0.135000X-0.185000X0.135000X0.185000X-0.135000X0.185000X0*%
%ADD39RoundRect,0.135000X0.135000X0.185000X-0.135000X0.185000X-0.135000X-0.185000X0.135000X-0.185000X0*%
%ADD40RoundRect,0.150000X-0.825000X-0.150000X0.825000X-0.150000X0.825000X0.150000X-0.825000X0.150000X0*%
%ADD41RoundRect,0.140000X-0.170000X0.140000X-0.170000X-0.140000X0.170000X-0.140000X0.170000X0.140000X0*%
%ADD42RoundRect,0.140000X-0.140000X-0.170000X0.140000X-0.170000X0.140000X0.170000X-0.140000X0.170000X0*%
%ADD43RoundRect,0.135000X0.185000X-0.135000X0.185000X0.135000X-0.185000X0.135000X-0.185000X-0.135000X0*%
%ADD44R,0.500000X0.780000*%
%ADD45RoundRect,0.250000X0.362500X1.425000X-0.362500X1.425000X-0.362500X-1.425000X0.362500X-1.425000X0*%
%ADD46RoundRect,0.200000X0.200000X0.275000X-0.200000X0.275000X-0.200000X-0.275000X0.200000X-0.275000X0*%
%ADD47RoundRect,0.225000X-0.375000X0.225000X-0.375000X-0.225000X0.375000X-0.225000X0.375000X0.225000X0*%
%ADD48R,0.400000X0.800000*%
%ADD49RoundRect,0.250000X-0.362500X-1.425000X0.362500X-1.425000X0.362500X1.425000X-0.362500X1.425000X0*%
%ADD50RoundRect,0.250000X1.100000X-0.325000X1.100000X0.325000X-1.100000X0.325000X-1.100000X-0.325000X0*%
%ADD51RoundRect,0.250000X-0.262500X-0.450000X0.262500X-0.450000X0.262500X0.450000X-0.262500X0.450000X0*%
%ADD52RoundRect,0.135000X-0.185000X0.135000X-0.185000X-0.135000X0.185000X-0.135000X0.185000X0.135000X0*%
%ADD53RoundRect,0.225000X0.225000X0.375000X-0.225000X0.375000X-0.225000X-0.375000X0.225000X-0.375000X0*%
%ADD54O,0.590000X2.050000*%
%ADD55RoundRect,0.250000X-0.450000X0.262500X-0.450000X-0.262500X0.450000X-0.262500X0.450000X0.262500X0*%
%ADD56RoundRect,0.250000X-0.325000X-1.100000X0.325000X-1.100000X0.325000X1.100000X-0.325000X1.100000X0*%
%ADD57RoundRect,0.140000X0.219203X0.021213X0.021213X0.219203X-0.219203X-0.021213X-0.021213X-0.219203X0*%
%ADD58RoundRect,0.150000X0.825000X0.150000X-0.825000X0.150000X-0.825000X-0.150000X0.825000X-0.150000X0*%
G04 APERTURE END LIST*
D10*
X122198094Y-103704819D02*
X122198094Y-102704819D01*
X122198094Y-102704819D02*
X121959999Y-102704819D01*
X121959999Y-102704819D02*
X121817142Y-102752438D01*
X121817142Y-102752438D02*
X121721904Y-102847676D01*
X121721904Y-102847676D02*
X121674285Y-102942914D01*
X121674285Y-102942914D02*
X121626666Y-103133390D01*
X121626666Y-103133390D02*
X121626666Y-103276247D01*
X121626666Y-103276247D02*
X121674285Y-103466723D01*
X121674285Y-103466723D02*
X121721904Y-103561961D01*
X121721904Y-103561961D02*
X121817142Y-103657200D01*
X121817142Y-103657200D02*
X121959999Y-103704819D01*
X121959999Y-103704819D02*
X122198094Y-103704819D01*
X121293332Y-102704819D02*
X120674285Y-102704819D01*
X120674285Y-102704819D02*
X121007618Y-103085771D01*
X121007618Y-103085771D02*
X120864761Y-103085771D01*
X120864761Y-103085771D02*
X120769523Y-103133390D01*
X120769523Y-103133390D02*
X120721904Y-103181009D01*
X120721904Y-103181009D02*
X120674285Y-103276247D01*
X120674285Y-103276247D02*
X120674285Y-103514342D01*
X120674285Y-103514342D02*
X120721904Y-103609580D01*
X120721904Y-103609580D02*
X120769523Y-103657200D01*
X120769523Y-103657200D02*
X120864761Y-103704819D01*
X120864761Y-103704819D02*
X121150475Y-103704819D01*
X121150475Y-103704819D02*
X121245713Y-103657200D01*
X121245713Y-103657200D02*
X121293332Y-103609580D01*
X148992857Y-142509580D02*
X149040476Y-142557200D01*
X149040476Y-142557200D02*
X149183333Y-142604819D01*
X149183333Y-142604819D02*
X149278571Y-142604819D01*
X149278571Y-142604819D02*
X149421428Y-142557200D01*
X149421428Y-142557200D02*
X149516666Y-142461961D01*
X149516666Y-142461961D02*
X149564285Y-142366723D01*
X149564285Y-142366723D02*
X149611904Y-142176247D01*
X149611904Y-142176247D02*
X149611904Y-142033390D01*
X149611904Y-142033390D02*
X149564285Y-141842914D01*
X149564285Y-141842914D02*
X149516666Y-141747676D01*
X149516666Y-141747676D02*
X149421428Y-141652438D01*
X149421428Y-141652438D02*
X149278571Y-141604819D01*
X149278571Y-141604819D02*
X149183333Y-141604819D01*
X149183333Y-141604819D02*
X149040476Y-141652438D01*
X149040476Y-141652438D02*
X148992857Y-141700057D01*
X148659523Y-141604819D02*
X148040476Y-141604819D01*
X148040476Y-141604819D02*
X148373809Y-141985771D01*
X148373809Y-141985771D02*
X148230952Y-141985771D01*
X148230952Y-141985771D02*
X148135714Y-142033390D01*
X148135714Y-142033390D02*
X148088095Y-142081009D01*
X148088095Y-142081009D02*
X148040476Y-142176247D01*
X148040476Y-142176247D02*
X148040476Y-142414342D01*
X148040476Y-142414342D02*
X148088095Y-142509580D01*
X148088095Y-142509580D02*
X148135714Y-142557200D01*
X148135714Y-142557200D02*
X148230952Y-142604819D01*
X148230952Y-142604819D02*
X148516666Y-142604819D01*
X148516666Y-142604819D02*
X148611904Y-142557200D01*
X148611904Y-142557200D02*
X148659523Y-142509580D01*
X147183333Y-141938152D02*
X147183333Y-142604819D01*
X147421428Y-141557200D02*
X147659523Y-142271485D01*
X147659523Y-142271485D02*
X147040476Y-142271485D01*
X123766666Y-61459580D02*
X123814285Y-61507200D01*
X123814285Y-61507200D02*
X123957142Y-61554819D01*
X123957142Y-61554819D02*
X124052380Y-61554819D01*
X124052380Y-61554819D02*
X124195237Y-61507200D01*
X124195237Y-61507200D02*
X124290475Y-61411961D01*
X124290475Y-61411961D02*
X124338094Y-61316723D01*
X124338094Y-61316723D02*
X124385713Y-61126247D01*
X124385713Y-61126247D02*
X124385713Y-60983390D01*
X124385713Y-60983390D02*
X124338094Y-60792914D01*
X124338094Y-60792914D02*
X124290475Y-60697676D01*
X124290475Y-60697676D02*
X124195237Y-60602438D01*
X124195237Y-60602438D02*
X124052380Y-60554819D01*
X124052380Y-60554819D02*
X123957142Y-60554819D01*
X123957142Y-60554819D02*
X123814285Y-60602438D01*
X123814285Y-60602438D02*
X123766666Y-60650057D01*
X123290475Y-61554819D02*
X123099999Y-61554819D01*
X123099999Y-61554819D02*
X123004761Y-61507200D01*
X123004761Y-61507200D02*
X122957142Y-61459580D01*
X122957142Y-61459580D02*
X122861904Y-61316723D01*
X122861904Y-61316723D02*
X122814285Y-61126247D01*
X122814285Y-61126247D02*
X122814285Y-60745295D01*
X122814285Y-60745295D02*
X122861904Y-60650057D01*
X122861904Y-60650057D02*
X122909523Y-60602438D01*
X122909523Y-60602438D02*
X123004761Y-60554819D01*
X123004761Y-60554819D02*
X123195237Y-60554819D01*
X123195237Y-60554819D02*
X123290475Y-60602438D01*
X123290475Y-60602438D02*
X123338094Y-60650057D01*
X123338094Y-60650057D02*
X123385713Y-60745295D01*
X123385713Y-60745295D02*
X123385713Y-60983390D01*
X123385713Y-60983390D02*
X123338094Y-61078628D01*
X123338094Y-61078628D02*
X123290475Y-61126247D01*
X123290475Y-61126247D02*
X123195237Y-61173866D01*
X123195237Y-61173866D02*
X123004761Y-61173866D01*
X123004761Y-61173866D02*
X122909523Y-61126247D01*
X122909523Y-61126247D02*
X122861904Y-61078628D01*
X122861904Y-61078628D02*
X122814285Y-60983390D01*
X134188094Y-68154819D02*
X134188094Y-67154819D01*
X134188094Y-67154819D02*
X133949999Y-67154819D01*
X133949999Y-67154819D02*
X133807142Y-67202438D01*
X133807142Y-67202438D02*
X133711904Y-67297676D01*
X133711904Y-67297676D02*
X133664285Y-67392914D01*
X133664285Y-67392914D02*
X133616666Y-67583390D01*
X133616666Y-67583390D02*
X133616666Y-67726247D01*
X133616666Y-67726247D02*
X133664285Y-67916723D01*
X133664285Y-67916723D02*
X133711904Y-68011961D01*
X133711904Y-68011961D02*
X133807142Y-68107200D01*
X133807142Y-68107200D02*
X133949999Y-68154819D01*
X133949999Y-68154819D02*
X134188094Y-68154819D01*
X133045237Y-67583390D02*
X133140475Y-67535771D01*
X133140475Y-67535771D02*
X133188094Y-67488152D01*
X133188094Y-67488152D02*
X133235713Y-67392914D01*
X133235713Y-67392914D02*
X133235713Y-67345295D01*
X133235713Y-67345295D02*
X133188094Y-67250057D01*
X133188094Y-67250057D02*
X133140475Y-67202438D01*
X133140475Y-67202438D02*
X133045237Y-67154819D01*
X133045237Y-67154819D02*
X132854761Y-67154819D01*
X132854761Y-67154819D02*
X132759523Y-67202438D01*
X132759523Y-67202438D02*
X132711904Y-67250057D01*
X132711904Y-67250057D02*
X132664285Y-67345295D01*
X132664285Y-67345295D02*
X132664285Y-67392914D01*
X132664285Y-67392914D02*
X132711904Y-67488152D01*
X132711904Y-67488152D02*
X132759523Y-67535771D01*
X132759523Y-67535771D02*
X132854761Y-67583390D01*
X132854761Y-67583390D02*
X133045237Y-67583390D01*
X133045237Y-67583390D02*
X133140475Y-67631009D01*
X133140475Y-67631009D02*
X133188094Y-67678628D01*
X133188094Y-67678628D02*
X133235713Y-67773866D01*
X133235713Y-67773866D02*
X133235713Y-67964342D01*
X133235713Y-67964342D02*
X133188094Y-68059580D01*
X133188094Y-68059580D02*
X133140475Y-68107200D01*
X133140475Y-68107200D02*
X133045237Y-68154819D01*
X133045237Y-68154819D02*
X132854761Y-68154819D01*
X132854761Y-68154819D02*
X132759523Y-68107200D01*
X132759523Y-68107200D02*
X132711904Y-68059580D01*
X132711904Y-68059580D02*
X132664285Y-67964342D01*
X132664285Y-67964342D02*
X132664285Y-67773866D01*
X132664285Y-67773866D02*
X132711904Y-67678628D01*
X132711904Y-67678628D02*
X132759523Y-67631009D01*
X132759523Y-67631009D02*
X132854761Y-67583390D01*
X173738094Y-91054819D02*
X173738094Y-91864342D01*
X173738094Y-91864342D02*
X173690475Y-91959580D01*
X173690475Y-91959580D02*
X173642856Y-92007200D01*
X173642856Y-92007200D02*
X173547618Y-92054819D01*
X173547618Y-92054819D02*
X173357142Y-92054819D01*
X173357142Y-92054819D02*
X173261904Y-92007200D01*
X173261904Y-92007200D02*
X173214285Y-91959580D01*
X173214285Y-91959580D02*
X173166666Y-91864342D01*
X173166666Y-91864342D02*
X173166666Y-91054819D01*
X172166666Y-92054819D02*
X172738094Y-92054819D01*
X172452380Y-92054819D02*
X172452380Y-91054819D01*
X172452380Y-91054819D02*
X172547618Y-91197676D01*
X172547618Y-91197676D02*
X172642856Y-91292914D01*
X172642856Y-91292914D02*
X172738094Y-91340533D01*
X171785713Y-91150057D02*
X171738094Y-91102438D01*
X171738094Y-91102438D02*
X171642856Y-91054819D01*
X171642856Y-91054819D02*
X171404761Y-91054819D01*
X171404761Y-91054819D02*
X171309523Y-91102438D01*
X171309523Y-91102438D02*
X171261904Y-91150057D01*
X171261904Y-91150057D02*
X171214285Y-91245295D01*
X171214285Y-91245295D02*
X171214285Y-91340533D01*
X171214285Y-91340533D02*
X171261904Y-91483390D01*
X171261904Y-91483390D02*
X171833332Y-92054819D01*
X171833332Y-92054819D02*
X171214285Y-92054819D01*
X105859580Y-91757142D02*
X105907200Y-91709523D01*
X105907200Y-91709523D02*
X105954819Y-91566666D01*
X105954819Y-91566666D02*
X105954819Y-91471428D01*
X105954819Y-91471428D02*
X105907200Y-91328571D01*
X105907200Y-91328571D02*
X105811961Y-91233333D01*
X105811961Y-91233333D02*
X105716723Y-91185714D01*
X105716723Y-91185714D02*
X105526247Y-91138095D01*
X105526247Y-91138095D02*
X105383390Y-91138095D01*
X105383390Y-91138095D02*
X105192914Y-91185714D01*
X105192914Y-91185714D02*
X105097676Y-91233333D01*
X105097676Y-91233333D02*
X105002438Y-91328571D01*
X105002438Y-91328571D02*
X104954819Y-91471428D01*
X104954819Y-91471428D02*
X104954819Y-91566666D01*
X104954819Y-91566666D02*
X105002438Y-91709523D01*
X105002438Y-91709523D02*
X105050057Y-91757142D01*
X104954819Y-92614285D02*
X104954819Y-92423809D01*
X104954819Y-92423809D02*
X105002438Y-92328571D01*
X105002438Y-92328571D02*
X105050057Y-92280952D01*
X105050057Y-92280952D02*
X105192914Y-92185714D01*
X105192914Y-92185714D02*
X105383390Y-92138095D01*
X105383390Y-92138095D02*
X105764342Y-92138095D01*
X105764342Y-92138095D02*
X105859580Y-92185714D01*
X105859580Y-92185714D02*
X105907200Y-92233333D01*
X105907200Y-92233333D02*
X105954819Y-92328571D01*
X105954819Y-92328571D02*
X105954819Y-92519047D01*
X105954819Y-92519047D02*
X105907200Y-92614285D01*
X105907200Y-92614285D02*
X105859580Y-92661904D01*
X105859580Y-92661904D02*
X105764342Y-92709523D01*
X105764342Y-92709523D02*
X105526247Y-92709523D01*
X105526247Y-92709523D02*
X105431009Y-92661904D01*
X105431009Y-92661904D02*
X105383390Y-92614285D01*
X105383390Y-92614285D02*
X105335771Y-92519047D01*
X105335771Y-92519047D02*
X105335771Y-92328571D01*
X105335771Y-92328571D02*
X105383390Y-92233333D01*
X105383390Y-92233333D02*
X105431009Y-92185714D01*
X105431009Y-92185714D02*
X105526247Y-92138095D01*
X105383390Y-93280952D02*
X105335771Y-93185714D01*
X105335771Y-93185714D02*
X105288152Y-93138095D01*
X105288152Y-93138095D02*
X105192914Y-93090476D01*
X105192914Y-93090476D02*
X105145295Y-93090476D01*
X105145295Y-93090476D02*
X105050057Y-93138095D01*
X105050057Y-93138095D02*
X105002438Y-93185714D01*
X105002438Y-93185714D02*
X104954819Y-93280952D01*
X104954819Y-93280952D02*
X104954819Y-93471428D01*
X104954819Y-93471428D02*
X105002438Y-93566666D01*
X105002438Y-93566666D02*
X105050057Y-93614285D01*
X105050057Y-93614285D02*
X105145295Y-93661904D01*
X105145295Y-93661904D02*
X105192914Y-93661904D01*
X105192914Y-93661904D02*
X105288152Y-93614285D01*
X105288152Y-93614285D02*
X105335771Y-93566666D01*
X105335771Y-93566666D02*
X105383390Y-93471428D01*
X105383390Y-93471428D02*
X105383390Y-93280952D01*
X105383390Y-93280952D02*
X105431009Y-93185714D01*
X105431009Y-93185714D02*
X105478628Y-93138095D01*
X105478628Y-93138095D02*
X105573866Y-93090476D01*
X105573866Y-93090476D02*
X105764342Y-93090476D01*
X105764342Y-93090476D02*
X105859580Y-93138095D01*
X105859580Y-93138095D02*
X105907200Y-93185714D01*
X105907200Y-93185714D02*
X105954819Y-93280952D01*
X105954819Y-93280952D02*
X105954819Y-93471428D01*
X105954819Y-93471428D02*
X105907200Y-93566666D01*
X105907200Y-93566666D02*
X105859580Y-93614285D01*
X105859580Y-93614285D02*
X105764342Y-93661904D01*
X105764342Y-93661904D02*
X105573866Y-93661904D01*
X105573866Y-93661904D02*
X105478628Y-93614285D01*
X105478628Y-93614285D02*
X105431009Y-93566666D01*
X105431009Y-93566666D02*
X105383390Y-93471428D01*
X152892857Y-88954819D02*
X153226190Y-88478628D01*
X153464285Y-88954819D02*
X153464285Y-87954819D01*
X153464285Y-87954819D02*
X153083333Y-87954819D01*
X153083333Y-87954819D02*
X152988095Y-88002438D01*
X152988095Y-88002438D02*
X152940476Y-88050057D01*
X152940476Y-88050057D02*
X152892857Y-88145295D01*
X152892857Y-88145295D02*
X152892857Y-88288152D01*
X152892857Y-88288152D02*
X152940476Y-88383390D01*
X152940476Y-88383390D02*
X152988095Y-88431009D01*
X152988095Y-88431009D02*
X153083333Y-88478628D01*
X153083333Y-88478628D02*
X153464285Y-88478628D01*
X152559523Y-87954819D02*
X151940476Y-87954819D01*
X151940476Y-87954819D02*
X152273809Y-88335771D01*
X152273809Y-88335771D02*
X152130952Y-88335771D01*
X152130952Y-88335771D02*
X152035714Y-88383390D01*
X152035714Y-88383390D02*
X151988095Y-88431009D01*
X151988095Y-88431009D02*
X151940476Y-88526247D01*
X151940476Y-88526247D02*
X151940476Y-88764342D01*
X151940476Y-88764342D02*
X151988095Y-88859580D01*
X151988095Y-88859580D02*
X152035714Y-88907200D01*
X152035714Y-88907200D02*
X152130952Y-88954819D01*
X152130952Y-88954819D02*
X152416666Y-88954819D01*
X152416666Y-88954819D02*
X152511904Y-88907200D01*
X152511904Y-88907200D02*
X152559523Y-88859580D01*
X150988095Y-88954819D02*
X151559523Y-88954819D01*
X151273809Y-88954819D02*
X151273809Y-87954819D01*
X151273809Y-87954819D02*
X151369047Y-88097676D01*
X151369047Y-88097676D02*
X151464285Y-88192914D01*
X151464285Y-88192914D02*
X151559523Y-88240533D01*
X99667857Y-71059580D02*
X99715476Y-71107200D01*
X99715476Y-71107200D02*
X99858333Y-71154819D01*
X99858333Y-71154819D02*
X99953571Y-71154819D01*
X99953571Y-71154819D02*
X100096428Y-71107200D01*
X100096428Y-71107200D02*
X100191666Y-71011961D01*
X100191666Y-71011961D02*
X100239285Y-70916723D01*
X100239285Y-70916723D02*
X100286904Y-70726247D01*
X100286904Y-70726247D02*
X100286904Y-70583390D01*
X100286904Y-70583390D02*
X100239285Y-70392914D01*
X100239285Y-70392914D02*
X100191666Y-70297676D01*
X100191666Y-70297676D02*
X100096428Y-70202438D01*
X100096428Y-70202438D02*
X99953571Y-70154819D01*
X99953571Y-70154819D02*
X99858333Y-70154819D01*
X99858333Y-70154819D02*
X99715476Y-70202438D01*
X99715476Y-70202438D02*
X99667857Y-70250057D01*
X98810714Y-70488152D02*
X98810714Y-71154819D01*
X99048809Y-70107200D02*
X99286904Y-70821485D01*
X99286904Y-70821485D02*
X98667857Y-70821485D01*
X98239285Y-71154819D02*
X98048809Y-71154819D01*
X98048809Y-71154819D02*
X97953571Y-71107200D01*
X97953571Y-71107200D02*
X97905952Y-71059580D01*
X97905952Y-71059580D02*
X97810714Y-70916723D01*
X97810714Y-70916723D02*
X97763095Y-70726247D01*
X97763095Y-70726247D02*
X97763095Y-70345295D01*
X97763095Y-70345295D02*
X97810714Y-70250057D01*
X97810714Y-70250057D02*
X97858333Y-70202438D01*
X97858333Y-70202438D02*
X97953571Y-70154819D01*
X97953571Y-70154819D02*
X98144047Y-70154819D01*
X98144047Y-70154819D02*
X98239285Y-70202438D01*
X98239285Y-70202438D02*
X98286904Y-70250057D01*
X98286904Y-70250057D02*
X98334523Y-70345295D01*
X98334523Y-70345295D02*
X98334523Y-70583390D01*
X98334523Y-70583390D02*
X98286904Y-70678628D01*
X98286904Y-70678628D02*
X98239285Y-70726247D01*
X98239285Y-70726247D02*
X98144047Y-70773866D01*
X98144047Y-70773866D02*
X97953571Y-70773866D01*
X97953571Y-70773866D02*
X97858333Y-70726247D01*
X97858333Y-70726247D02*
X97810714Y-70678628D01*
X97810714Y-70678628D02*
X97763095Y-70583390D01*
X132684819Y-71761905D02*
X133494342Y-71761905D01*
X133494342Y-71761905D02*
X133589580Y-71809524D01*
X133589580Y-71809524D02*
X133637200Y-71857143D01*
X133637200Y-71857143D02*
X133684819Y-71952381D01*
X133684819Y-71952381D02*
X133684819Y-72142857D01*
X133684819Y-72142857D02*
X133637200Y-72238095D01*
X133637200Y-72238095D02*
X133589580Y-72285714D01*
X133589580Y-72285714D02*
X133494342Y-72333333D01*
X133494342Y-72333333D02*
X132684819Y-72333333D01*
X133684819Y-73333333D02*
X133684819Y-72761905D01*
X133684819Y-73047619D02*
X132684819Y-73047619D01*
X132684819Y-73047619D02*
X132827676Y-72952381D01*
X132827676Y-72952381D02*
X132922914Y-72857143D01*
X132922914Y-72857143D02*
X132970533Y-72761905D01*
X132684819Y-73666667D02*
X132684819Y-74333333D01*
X132684819Y-74333333D02*
X133684819Y-73904762D01*
X101059580Y-76332142D02*
X101107200Y-76284523D01*
X101107200Y-76284523D02*
X101154819Y-76141666D01*
X101154819Y-76141666D02*
X101154819Y-76046428D01*
X101154819Y-76046428D02*
X101107200Y-75903571D01*
X101107200Y-75903571D02*
X101011961Y-75808333D01*
X101011961Y-75808333D02*
X100916723Y-75760714D01*
X100916723Y-75760714D02*
X100726247Y-75713095D01*
X100726247Y-75713095D02*
X100583390Y-75713095D01*
X100583390Y-75713095D02*
X100392914Y-75760714D01*
X100392914Y-75760714D02*
X100297676Y-75808333D01*
X100297676Y-75808333D02*
X100202438Y-75903571D01*
X100202438Y-75903571D02*
X100154819Y-76046428D01*
X100154819Y-76046428D02*
X100154819Y-76141666D01*
X100154819Y-76141666D02*
X100202438Y-76284523D01*
X100202438Y-76284523D02*
X100250057Y-76332142D01*
X100154819Y-77236904D02*
X100154819Y-76760714D01*
X100154819Y-76760714D02*
X100631009Y-76713095D01*
X100631009Y-76713095D02*
X100583390Y-76760714D01*
X100583390Y-76760714D02*
X100535771Y-76855952D01*
X100535771Y-76855952D02*
X100535771Y-77094047D01*
X100535771Y-77094047D02*
X100583390Y-77189285D01*
X100583390Y-77189285D02*
X100631009Y-77236904D01*
X100631009Y-77236904D02*
X100726247Y-77284523D01*
X100726247Y-77284523D02*
X100964342Y-77284523D01*
X100964342Y-77284523D02*
X101059580Y-77236904D01*
X101059580Y-77236904D02*
X101107200Y-77189285D01*
X101107200Y-77189285D02*
X101154819Y-77094047D01*
X101154819Y-77094047D02*
X101154819Y-76855952D01*
X101154819Y-76855952D02*
X101107200Y-76760714D01*
X101107200Y-76760714D02*
X101059580Y-76713095D01*
X101154819Y-78236904D02*
X101154819Y-77665476D01*
X101154819Y-77951190D02*
X100154819Y-77951190D01*
X100154819Y-77951190D02*
X100297676Y-77855952D01*
X100297676Y-77855952D02*
X100392914Y-77760714D01*
X100392914Y-77760714D02*
X100440533Y-77665476D01*
X140142857Y-105609580D02*
X140190476Y-105657200D01*
X140190476Y-105657200D02*
X140333333Y-105704819D01*
X140333333Y-105704819D02*
X140428571Y-105704819D01*
X140428571Y-105704819D02*
X140571428Y-105657200D01*
X140571428Y-105657200D02*
X140666666Y-105561961D01*
X140666666Y-105561961D02*
X140714285Y-105466723D01*
X140714285Y-105466723D02*
X140761904Y-105276247D01*
X140761904Y-105276247D02*
X140761904Y-105133390D01*
X140761904Y-105133390D02*
X140714285Y-104942914D01*
X140714285Y-104942914D02*
X140666666Y-104847676D01*
X140666666Y-104847676D02*
X140571428Y-104752438D01*
X140571428Y-104752438D02*
X140428571Y-104704819D01*
X140428571Y-104704819D02*
X140333333Y-104704819D01*
X140333333Y-104704819D02*
X140190476Y-104752438D01*
X140190476Y-104752438D02*
X140142857Y-104800057D01*
X139285714Y-105038152D02*
X139285714Y-105704819D01*
X139523809Y-104657200D02*
X139761904Y-105371485D01*
X139761904Y-105371485D02*
X139142857Y-105371485D01*
X138619047Y-105133390D02*
X138714285Y-105085771D01*
X138714285Y-105085771D02*
X138761904Y-105038152D01*
X138761904Y-105038152D02*
X138809523Y-104942914D01*
X138809523Y-104942914D02*
X138809523Y-104895295D01*
X138809523Y-104895295D02*
X138761904Y-104800057D01*
X138761904Y-104800057D02*
X138714285Y-104752438D01*
X138714285Y-104752438D02*
X138619047Y-104704819D01*
X138619047Y-104704819D02*
X138428571Y-104704819D01*
X138428571Y-104704819D02*
X138333333Y-104752438D01*
X138333333Y-104752438D02*
X138285714Y-104800057D01*
X138285714Y-104800057D02*
X138238095Y-104895295D01*
X138238095Y-104895295D02*
X138238095Y-104942914D01*
X138238095Y-104942914D02*
X138285714Y-105038152D01*
X138285714Y-105038152D02*
X138333333Y-105085771D01*
X138333333Y-105085771D02*
X138428571Y-105133390D01*
X138428571Y-105133390D02*
X138619047Y-105133390D01*
X138619047Y-105133390D02*
X138714285Y-105181009D01*
X138714285Y-105181009D02*
X138761904Y-105228628D01*
X138761904Y-105228628D02*
X138809523Y-105323866D01*
X138809523Y-105323866D02*
X138809523Y-105514342D01*
X138809523Y-105514342D02*
X138761904Y-105609580D01*
X138761904Y-105609580D02*
X138714285Y-105657200D01*
X138714285Y-105657200D02*
X138619047Y-105704819D01*
X138619047Y-105704819D02*
X138428571Y-105704819D01*
X138428571Y-105704819D02*
X138333333Y-105657200D01*
X138333333Y-105657200D02*
X138285714Y-105609580D01*
X138285714Y-105609580D02*
X138238095Y-105514342D01*
X138238095Y-105514342D02*
X138238095Y-105323866D01*
X138238095Y-105323866D02*
X138285714Y-105228628D01*
X138285714Y-105228628D02*
X138333333Y-105181009D01*
X138333333Y-105181009D02*
X138428571Y-105133390D01*
X149214285Y-93204819D02*
X149214285Y-92204819D01*
X149214285Y-92204819D02*
X148976190Y-92204819D01*
X148976190Y-92204819D02*
X148833333Y-92252438D01*
X148833333Y-92252438D02*
X148738095Y-92347676D01*
X148738095Y-92347676D02*
X148690476Y-92442914D01*
X148690476Y-92442914D02*
X148642857Y-92633390D01*
X148642857Y-92633390D02*
X148642857Y-92776247D01*
X148642857Y-92776247D02*
X148690476Y-92966723D01*
X148690476Y-92966723D02*
X148738095Y-93061961D01*
X148738095Y-93061961D02*
X148833333Y-93157200D01*
X148833333Y-93157200D02*
X148976190Y-93204819D01*
X148976190Y-93204819D02*
X149214285Y-93204819D01*
X148261904Y-92300057D02*
X148214285Y-92252438D01*
X148214285Y-92252438D02*
X148119047Y-92204819D01*
X148119047Y-92204819D02*
X147880952Y-92204819D01*
X147880952Y-92204819D02*
X147785714Y-92252438D01*
X147785714Y-92252438D02*
X147738095Y-92300057D01*
X147738095Y-92300057D02*
X147690476Y-92395295D01*
X147690476Y-92395295D02*
X147690476Y-92490533D01*
X147690476Y-92490533D02*
X147738095Y-92633390D01*
X147738095Y-92633390D02*
X148309523Y-93204819D01*
X148309523Y-93204819D02*
X147690476Y-93204819D01*
X146833333Y-92204819D02*
X147023809Y-92204819D01*
X147023809Y-92204819D02*
X147119047Y-92252438D01*
X147119047Y-92252438D02*
X147166666Y-92300057D01*
X147166666Y-92300057D02*
X147261904Y-92442914D01*
X147261904Y-92442914D02*
X147309523Y-92633390D01*
X147309523Y-92633390D02*
X147309523Y-93014342D01*
X147309523Y-93014342D02*
X147261904Y-93109580D01*
X147261904Y-93109580D02*
X147214285Y-93157200D01*
X147214285Y-93157200D02*
X147119047Y-93204819D01*
X147119047Y-93204819D02*
X146928571Y-93204819D01*
X146928571Y-93204819D02*
X146833333Y-93157200D01*
X146833333Y-93157200D02*
X146785714Y-93109580D01*
X146785714Y-93109580D02*
X146738095Y-93014342D01*
X146738095Y-93014342D02*
X146738095Y-92776247D01*
X146738095Y-92776247D02*
X146785714Y-92681009D01*
X146785714Y-92681009D02*
X146833333Y-92633390D01*
X146833333Y-92633390D02*
X146928571Y-92585771D01*
X146928571Y-92585771D02*
X147119047Y-92585771D01*
X147119047Y-92585771D02*
X147214285Y-92633390D01*
X147214285Y-92633390D02*
X147261904Y-92681009D01*
X147261904Y-92681009D02*
X147309523Y-92776247D01*
X93842857Y-75404819D02*
X94176190Y-74928628D01*
X94414285Y-75404819D02*
X94414285Y-74404819D01*
X94414285Y-74404819D02*
X94033333Y-74404819D01*
X94033333Y-74404819D02*
X93938095Y-74452438D01*
X93938095Y-74452438D02*
X93890476Y-74500057D01*
X93890476Y-74500057D02*
X93842857Y-74595295D01*
X93842857Y-74595295D02*
X93842857Y-74738152D01*
X93842857Y-74738152D02*
X93890476Y-74833390D01*
X93890476Y-74833390D02*
X93938095Y-74881009D01*
X93938095Y-74881009D02*
X94033333Y-74928628D01*
X94033333Y-74928628D02*
X94414285Y-74928628D01*
X93461904Y-74500057D02*
X93414285Y-74452438D01*
X93414285Y-74452438D02*
X93319047Y-74404819D01*
X93319047Y-74404819D02*
X93080952Y-74404819D01*
X93080952Y-74404819D02*
X92985714Y-74452438D01*
X92985714Y-74452438D02*
X92938095Y-74500057D01*
X92938095Y-74500057D02*
X92890476Y-74595295D01*
X92890476Y-74595295D02*
X92890476Y-74690533D01*
X92890476Y-74690533D02*
X92938095Y-74833390D01*
X92938095Y-74833390D02*
X93509523Y-75404819D01*
X93509523Y-75404819D02*
X92890476Y-75404819D01*
X92033333Y-74404819D02*
X92223809Y-74404819D01*
X92223809Y-74404819D02*
X92319047Y-74452438D01*
X92319047Y-74452438D02*
X92366666Y-74500057D01*
X92366666Y-74500057D02*
X92461904Y-74642914D01*
X92461904Y-74642914D02*
X92509523Y-74833390D01*
X92509523Y-74833390D02*
X92509523Y-75214342D01*
X92509523Y-75214342D02*
X92461904Y-75309580D01*
X92461904Y-75309580D02*
X92414285Y-75357200D01*
X92414285Y-75357200D02*
X92319047Y-75404819D01*
X92319047Y-75404819D02*
X92128571Y-75404819D01*
X92128571Y-75404819D02*
X92033333Y-75357200D01*
X92033333Y-75357200D02*
X91985714Y-75309580D01*
X91985714Y-75309580D02*
X91938095Y-75214342D01*
X91938095Y-75214342D02*
X91938095Y-74976247D01*
X91938095Y-74976247D02*
X91985714Y-74881009D01*
X91985714Y-74881009D02*
X92033333Y-74833390D01*
X92033333Y-74833390D02*
X92128571Y-74785771D01*
X92128571Y-74785771D02*
X92319047Y-74785771D01*
X92319047Y-74785771D02*
X92414285Y-74833390D01*
X92414285Y-74833390D02*
X92461904Y-74881009D01*
X92461904Y-74881009D02*
X92509523Y-74976247D01*
X110714285Y-93704819D02*
X110714285Y-92704819D01*
X110714285Y-92704819D02*
X110476190Y-92704819D01*
X110476190Y-92704819D02*
X110333333Y-92752438D01*
X110333333Y-92752438D02*
X110238095Y-92847676D01*
X110238095Y-92847676D02*
X110190476Y-92942914D01*
X110190476Y-92942914D02*
X110142857Y-93133390D01*
X110142857Y-93133390D02*
X110142857Y-93276247D01*
X110142857Y-93276247D02*
X110190476Y-93466723D01*
X110190476Y-93466723D02*
X110238095Y-93561961D01*
X110238095Y-93561961D02*
X110333333Y-93657200D01*
X110333333Y-93657200D02*
X110476190Y-93704819D01*
X110476190Y-93704819D02*
X110714285Y-93704819D01*
X109761904Y-92800057D02*
X109714285Y-92752438D01*
X109714285Y-92752438D02*
X109619047Y-92704819D01*
X109619047Y-92704819D02*
X109380952Y-92704819D01*
X109380952Y-92704819D02*
X109285714Y-92752438D01*
X109285714Y-92752438D02*
X109238095Y-92800057D01*
X109238095Y-92800057D02*
X109190476Y-92895295D01*
X109190476Y-92895295D02*
X109190476Y-92990533D01*
X109190476Y-92990533D02*
X109238095Y-93133390D01*
X109238095Y-93133390D02*
X109809523Y-93704819D01*
X109809523Y-93704819D02*
X109190476Y-93704819D01*
X108809523Y-92800057D02*
X108761904Y-92752438D01*
X108761904Y-92752438D02*
X108666666Y-92704819D01*
X108666666Y-92704819D02*
X108428571Y-92704819D01*
X108428571Y-92704819D02*
X108333333Y-92752438D01*
X108333333Y-92752438D02*
X108285714Y-92800057D01*
X108285714Y-92800057D02*
X108238095Y-92895295D01*
X108238095Y-92895295D02*
X108238095Y-92990533D01*
X108238095Y-92990533D02*
X108285714Y-93133390D01*
X108285714Y-93133390D02*
X108857142Y-93704819D01*
X108857142Y-93704819D02*
X108238095Y-93704819D01*
X87142857Y-89304819D02*
X87476190Y-88828628D01*
X87714285Y-89304819D02*
X87714285Y-88304819D01*
X87714285Y-88304819D02*
X87333333Y-88304819D01*
X87333333Y-88304819D02*
X87238095Y-88352438D01*
X87238095Y-88352438D02*
X87190476Y-88400057D01*
X87190476Y-88400057D02*
X87142857Y-88495295D01*
X87142857Y-88495295D02*
X87142857Y-88638152D01*
X87142857Y-88638152D02*
X87190476Y-88733390D01*
X87190476Y-88733390D02*
X87238095Y-88781009D01*
X87238095Y-88781009D02*
X87333333Y-88828628D01*
X87333333Y-88828628D02*
X87714285Y-88828628D01*
X86190476Y-89304819D02*
X86761904Y-89304819D01*
X86476190Y-89304819D02*
X86476190Y-88304819D01*
X86476190Y-88304819D02*
X86571428Y-88447676D01*
X86571428Y-88447676D02*
X86666666Y-88542914D01*
X86666666Y-88542914D02*
X86761904Y-88590533D01*
X85857142Y-88304819D02*
X85190476Y-88304819D01*
X85190476Y-88304819D02*
X85619047Y-89304819D01*
X119454819Y-71761905D02*
X120264342Y-71761905D01*
X120264342Y-71761905D02*
X120359580Y-71809524D01*
X120359580Y-71809524D02*
X120407200Y-71857143D01*
X120407200Y-71857143D02*
X120454819Y-71952381D01*
X120454819Y-71952381D02*
X120454819Y-72142857D01*
X120454819Y-72142857D02*
X120407200Y-72238095D01*
X120407200Y-72238095D02*
X120359580Y-72285714D01*
X120359580Y-72285714D02*
X120264342Y-72333333D01*
X120264342Y-72333333D02*
X119454819Y-72333333D01*
X120454819Y-73333333D02*
X120454819Y-72761905D01*
X120454819Y-73047619D02*
X119454819Y-73047619D01*
X119454819Y-73047619D02*
X119597676Y-72952381D01*
X119597676Y-72952381D02*
X119692914Y-72857143D01*
X119692914Y-72857143D02*
X119740533Y-72761905D01*
X119454819Y-73666667D02*
X119454819Y-74285714D01*
X119454819Y-74285714D02*
X119835771Y-73952381D01*
X119835771Y-73952381D02*
X119835771Y-74095238D01*
X119835771Y-74095238D02*
X119883390Y-74190476D01*
X119883390Y-74190476D02*
X119931009Y-74238095D01*
X119931009Y-74238095D02*
X120026247Y-74285714D01*
X120026247Y-74285714D02*
X120264342Y-74285714D01*
X120264342Y-74285714D02*
X120359580Y-74238095D01*
X120359580Y-74238095D02*
X120407200Y-74190476D01*
X120407200Y-74190476D02*
X120454819Y-74095238D01*
X120454819Y-74095238D02*
X120454819Y-73809524D01*
X120454819Y-73809524D02*
X120407200Y-73714286D01*
X120407200Y-73714286D02*
X120359580Y-73666667D01*
X86952857Y-65889580D02*
X87000476Y-65937200D01*
X87000476Y-65937200D02*
X87143333Y-65984819D01*
X87143333Y-65984819D02*
X87238571Y-65984819D01*
X87238571Y-65984819D02*
X87381428Y-65937200D01*
X87381428Y-65937200D02*
X87476666Y-65841961D01*
X87476666Y-65841961D02*
X87524285Y-65746723D01*
X87524285Y-65746723D02*
X87571904Y-65556247D01*
X87571904Y-65556247D02*
X87571904Y-65413390D01*
X87571904Y-65413390D02*
X87524285Y-65222914D01*
X87524285Y-65222914D02*
X87476666Y-65127676D01*
X87476666Y-65127676D02*
X87381428Y-65032438D01*
X87381428Y-65032438D02*
X87238571Y-64984819D01*
X87238571Y-64984819D02*
X87143333Y-64984819D01*
X87143333Y-64984819D02*
X87000476Y-65032438D01*
X87000476Y-65032438D02*
X86952857Y-65080057D01*
X86571904Y-65080057D02*
X86524285Y-65032438D01*
X86524285Y-65032438D02*
X86429047Y-64984819D01*
X86429047Y-64984819D02*
X86190952Y-64984819D01*
X86190952Y-64984819D02*
X86095714Y-65032438D01*
X86095714Y-65032438D02*
X86048095Y-65080057D01*
X86048095Y-65080057D02*
X86000476Y-65175295D01*
X86000476Y-65175295D02*
X86000476Y-65270533D01*
X86000476Y-65270533D02*
X86048095Y-65413390D01*
X86048095Y-65413390D02*
X86619523Y-65984819D01*
X86619523Y-65984819D02*
X86000476Y-65984819D01*
X85143333Y-65318152D02*
X85143333Y-65984819D01*
X85381428Y-64937200D02*
X85619523Y-65651485D01*
X85619523Y-65651485D02*
X85000476Y-65651485D01*
X143738094Y-66224819D02*
X143738094Y-67034342D01*
X143738094Y-67034342D02*
X143690475Y-67129580D01*
X143690475Y-67129580D02*
X143642856Y-67177200D01*
X143642856Y-67177200D02*
X143547618Y-67224819D01*
X143547618Y-67224819D02*
X143357142Y-67224819D01*
X143357142Y-67224819D02*
X143261904Y-67177200D01*
X143261904Y-67177200D02*
X143214285Y-67129580D01*
X143214285Y-67129580D02*
X143166666Y-67034342D01*
X143166666Y-67034342D02*
X143166666Y-66224819D01*
X142738094Y-66320057D02*
X142690475Y-66272438D01*
X142690475Y-66272438D02*
X142595237Y-66224819D01*
X142595237Y-66224819D02*
X142357142Y-66224819D01*
X142357142Y-66224819D02*
X142261904Y-66272438D01*
X142261904Y-66272438D02*
X142214285Y-66320057D01*
X142214285Y-66320057D02*
X142166666Y-66415295D01*
X142166666Y-66415295D02*
X142166666Y-66510533D01*
X142166666Y-66510533D02*
X142214285Y-66653390D01*
X142214285Y-66653390D02*
X142785713Y-67224819D01*
X142785713Y-67224819D02*
X142166666Y-67224819D01*
X141214285Y-67224819D02*
X141785713Y-67224819D01*
X141499999Y-67224819D02*
X141499999Y-66224819D01*
X141499999Y-66224819D02*
X141595237Y-66367676D01*
X141595237Y-66367676D02*
X141690475Y-66462914D01*
X141690475Y-66462914D02*
X141785713Y-66510533D01*
X137999580Y-98157142D02*
X138047200Y-98109523D01*
X138047200Y-98109523D02*
X138094819Y-97966666D01*
X138094819Y-97966666D02*
X138094819Y-97871428D01*
X138094819Y-97871428D02*
X138047200Y-97728571D01*
X138047200Y-97728571D02*
X137951961Y-97633333D01*
X137951961Y-97633333D02*
X137856723Y-97585714D01*
X137856723Y-97585714D02*
X137666247Y-97538095D01*
X137666247Y-97538095D02*
X137523390Y-97538095D01*
X137523390Y-97538095D02*
X137332914Y-97585714D01*
X137332914Y-97585714D02*
X137237676Y-97633333D01*
X137237676Y-97633333D02*
X137142438Y-97728571D01*
X137142438Y-97728571D02*
X137094819Y-97871428D01*
X137094819Y-97871428D02*
X137094819Y-97966666D01*
X137094819Y-97966666D02*
X137142438Y-98109523D01*
X137142438Y-98109523D02*
X137190057Y-98157142D01*
X138094819Y-99109523D02*
X138094819Y-98538095D01*
X138094819Y-98823809D02*
X137094819Y-98823809D01*
X137094819Y-98823809D02*
X137237676Y-98728571D01*
X137237676Y-98728571D02*
X137332914Y-98633333D01*
X137332914Y-98633333D02*
X137380533Y-98538095D01*
X137094819Y-99442857D02*
X137094819Y-100109523D01*
X137094819Y-100109523D02*
X138094819Y-99680952D01*
X88912857Y-78919580D02*
X88960476Y-78967200D01*
X88960476Y-78967200D02*
X89103333Y-79014819D01*
X89103333Y-79014819D02*
X89198571Y-79014819D01*
X89198571Y-79014819D02*
X89341428Y-78967200D01*
X89341428Y-78967200D02*
X89436666Y-78871961D01*
X89436666Y-78871961D02*
X89484285Y-78776723D01*
X89484285Y-78776723D02*
X89531904Y-78586247D01*
X89531904Y-78586247D02*
X89531904Y-78443390D01*
X89531904Y-78443390D02*
X89484285Y-78252914D01*
X89484285Y-78252914D02*
X89436666Y-78157676D01*
X89436666Y-78157676D02*
X89341428Y-78062438D01*
X89341428Y-78062438D02*
X89198571Y-78014819D01*
X89198571Y-78014819D02*
X89103333Y-78014819D01*
X89103333Y-78014819D02*
X88960476Y-78062438D01*
X88960476Y-78062438D02*
X88912857Y-78110057D01*
X87960476Y-79014819D02*
X88531904Y-79014819D01*
X88246190Y-79014819D02*
X88246190Y-78014819D01*
X88246190Y-78014819D02*
X88341428Y-78157676D01*
X88341428Y-78157676D02*
X88436666Y-78252914D01*
X88436666Y-78252914D02*
X88531904Y-78300533D01*
X87341428Y-78014819D02*
X87246190Y-78014819D01*
X87246190Y-78014819D02*
X87150952Y-78062438D01*
X87150952Y-78062438D02*
X87103333Y-78110057D01*
X87103333Y-78110057D02*
X87055714Y-78205295D01*
X87055714Y-78205295D02*
X87008095Y-78395771D01*
X87008095Y-78395771D02*
X87008095Y-78633866D01*
X87008095Y-78633866D02*
X87055714Y-78824342D01*
X87055714Y-78824342D02*
X87103333Y-78919580D01*
X87103333Y-78919580D02*
X87150952Y-78967200D01*
X87150952Y-78967200D02*
X87246190Y-79014819D01*
X87246190Y-79014819D02*
X87341428Y-79014819D01*
X87341428Y-79014819D02*
X87436666Y-78967200D01*
X87436666Y-78967200D02*
X87484285Y-78919580D01*
X87484285Y-78919580D02*
X87531904Y-78824342D01*
X87531904Y-78824342D02*
X87579523Y-78633866D01*
X87579523Y-78633866D02*
X87579523Y-78395771D01*
X87579523Y-78395771D02*
X87531904Y-78205295D01*
X87531904Y-78205295D02*
X87484285Y-78110057D01*
X87484285Y-78110057D02*
X87436666Y-78062438D01*
X87436666Y-78062438D02*
X87341428Y-78014819D01*
X131114285Y-70554819D02*
X131114285Y-69554819D01*
X131114285Y-69554819D02*
X130876190Y-69554819D01*
X130876190Y-69554819D02*
X130733333Y-69602438D01*
X130733333Y-69602438D02*
X130638095Y-69697676D01*
X130638095Y-69697676D02*
X130590476Y-69792914D01*
X130590476Y-69792914D02*
X130542857Y-69983390D01*
X130542857Y-69983390D02*
X130542857Y-70126247D01*
X130542857Y-70126247D02*
X130590476Y-70316723D01*
X130590476Y-70316723D02*
X130638095Y-70411961D01*
X130638095Y-70411961D02*
X130733333Y-70507200D01*
X130733333Y-70507200D02*
X130876190Y-70554819D01*
X130876190Y-70554819D02*
X131114285Y-70554819D01*
X129590476Y-70554819D02*
X130161904Y-70554819D01*
X129876190Y-70554819D02*
X129876190Y-69554819D01*
X129876190Y-69554819D02*
X129971428Y-69697676D01*
X129971428Y-69697676D02*
X130066666Y-69792914D01*
X130066666Y-69792914D02*
X130161904Y-69840533D01*
X129019047Y-69983390D02*
X129114285Y-69935771D01*
X129114285Y-69935771D02*
X129161904Y-69888152D01*
X129161904Y-69888152D02*
X129209523Y-69792914D01*
X129209523Y-69792914D02*
X129209523Y-69745295D01*
X129209523Y-69745295D02*
X129161904Y-69650057D01*
X129161904Y-69650057D02*
X129114285Y-69602438D01*
X129114285Y-69602438D02*
X129019047Y-69554819D01*
X129019047Y-69554819D02*
X128828571Y-69554819D01*
X128828571Y-69554819D02*
X128733333Y-69602438D01*
X128733333Y-69602438D02*
X128685714Y-69650057D01*
X128685714Y-69650057D02*
X128638095Y-69745295D01*
X128638095Y-69745295D02*
X128638095Y-69792914D01*
X128638095Y-69792914D02*
X128685714Y-69888152D01*
X128685714Y-69888152D02*
X128733333Y-69935771D01*
X128733333Y-69935771D02*
X128828571Y-69983390D01*
X128828571Y-69983390D02*
X129019047Y-69983390D01*
X129019047Y-69983390D02*
X129114285Y-70031009D01*
X129114285Y-70031009D02*
X129161904Y-70078628D01*
X129161904Y-70078628D02*
X129209523Y-70173866D01*
X129209523Y-70173866D02*
X129209523Y-70364342D01*
X129209523Y-70364342D02*
X129161904Y-70459580D01*
X129161904Y-70459580D02*
X129114285Y-70507200D01*
X129114285Y-70507200D02*
X129019047Y-70554819D01*
X129019047Y-70554819D02*
X128828571Y-70554819D01*
X128828571Y-70554819D02*
X128733333Y-70507200D01*
X128733333Y-70507200D02*
X128685714Y-70459580D01*
X128685714Y-70459580D02*
X128638095Y-70364342D01*
X128638095Y-70364342D02*
X128638095Y-70173866D01*
X128638095Y-70173866D02*
X128685714Y-70078628D01*
X128685714Y-70078628D02*
X128733333Y-70031009D01*
X128733333Y-70031009D02*
X128828571Y-69983390D01*
X108519580Y-74237142D02*
X108567200Y-74189523D01*
X108567200Y-74189523D02*
X108614819Y-74046666D01*
X108614819Y-74046666D02*
X108614819Y-73951428D01*
X108614819Y-73951428D02*
X108567200Y-73808571D01*
X108567200Y-73808571D02*
X108471961Y-73713333D01*
X108471961Y-73713333D02*
X108376723Y-73665714D01*
X108376723Y-73665714D02*
X108186247Y-73618095D01*
X108186247Y-73618095D02*
X108043390Y-73618095D01*
X108043390Y-73618095D02*
X107852914Y-73665714D01*
X107852914Y-73665714D02*
X107757676Y-73713333D01*
X107757676Y-73713333D02*
X107662438Y-73808571D01*
X107662438Y-73808571D02*
X107614819Y-73951428D01*
X107614819Y-73951428D02*
X107614819Y-74046666D01*
X107614819Y-74046666D02*
X107662438Y-74189523D01*
X107662438Y-74189523D02*
X107710057Y-74237142D01*
X107614819Y-75094285D02*
X107614819Y-74903809D01*
X107614819Y-74903809D02*
X107662438Y-74808571D01*
X107662438Y-74808571D02*
X107710057Y-74760952D01*
X107710057Y-74760952D02*
X107852914Y-74665714D01*
X107852914Y-74665714D02*
X108043390Y-74618095D01*
X108043390Y-74618095D02*
X108424342Y-74618095D01*
X108424342Y-74618095D02*
X108519580Y-74665714D01*
X108519580Y-74665714D02*
X108567200Y-74713333D01*
X108567200Y-74713333D02*
X108614819Y-74808571D01*
X108614819Y-74808571D02*
X108614819Y-74999047D01*
X108614819Y-74999047D02*
X108567200Y-75094285D01*
X108567200Y-75094285D02*
X108519580Y-75141904D01*
X108519580Y-75141904D02*
X108424342Y-75189523D01*
X108424342Y-75189523D02*
X108186247Y-75189523D01*
X108186247Y-75189523D02*
X108091009Y-75141904D01*
X108091009Y-75141904D02*
X108043390Y-75094285D01*
X108043390Y-75094285D02*
X107995771Y-74999047D01*
X107995771Y-74999047D02*
X107995771Y-74808571D01*
X107995771Y-74808571D02*
X108043390Y-74713333D01*
X108043390Y-74713333D02*
X108091009Y-74665714D01*
X108091009Y-74665714D02*
X108186247Y-74618095D01*
X108614819Y-75665714D02*
X108614819Y-75856190D01*
X108614819Y-75856190D02*
X108567200Y-75951428D01*
X108567200Y-75951428D02*
X108519580Y-75999047D01*
X108519580Y-75999047D02*
X108376723Y-76094285D01*
X108376723Y-76094285D02*
X108186247Y-76141904D01*
X108186247Y-76141904D02*
X107805295Y-76141904D01*
X107805295Y-76141904D02*
X107710057Y-76094285D01*
X107710057Y-76094285D02*
X107662438Y-76046666D01*
X107662438Y-76046666D02*
X107614819Y-75951428D01*
X107614819Y-75951428D02*
X107614819Y-75760952D01*
X107614819Y-75760952D02*
X107662438Y-75665714D01*
X107662438Y-75665714D02*
X107710057Y-75618095D01*
X107710057Y-75618095D02*
X107805295Y-75570476D01*
X107805295Y-75570476D02*
X108043390Y-75570476D01*
X108043390Y-75570476D02*
X108138628Y-75618095D01*
X108138628Y-75618095D02*
X108186247Y-75665714D01*
X108186247Y-75665714D02*
X108233866Y-75760952D01*
X108233866Y-75760952D02*
X108233866Y-75951428D01*
X108233866Y-75951428D02*
X108186247Y-76046666D01*
X108186247Y-76046666D02*
X108138628Y-76094285D01*
X108138628Y-76094285D02*
X108043390Y-76141904D01*
X109954819Y-99357142D02*
X109478628Y-99023809D01*
X109954819Y-98785714D02*
X108954819Y-98785714D01*
X108954819Y-98785714D02*
X108954819Y-99166666D01*
X108954819Y-99166666D02*
X109002438Y-99261904D01*
X109002438Y-99261904D02*
X109050057Y-99309523D01*
X109050057Y-99309523D02*
X109145295Y-99357142D01*
X109145295Y-99357142D02*
X109288152Y-99357142D01*
X109288152Y-99357142D02*
X109383390Y-99309523D01*
X109383390Y-99309523D02*
X109431009Y-99261904D01*
X109431009Y-99261904D02*
X109478628Y-99166666D01*
X109478628Y-99166666D02*
X109478628Y-98785714D01*
X109288152Y-100214285D02*
X109954819Y-100214285D01*
X108907200Y-99976190D02*
X109621485Y-99738095D01*
X109621485Y-99738095D02*
X109621485Y-100357142D01*
X108954819Y-101214285D02*
X108954819Y-100738095D01*
X108954819Y-100738095D02*
X109431009Y-100690476D01*
X109431009Y-100690476D02*
X109383390Y-100738095D01*
X109383390Y-100738095D02*
X109335771Y-100833333D01*
X109335771Y-100833333D02*
X109335771Y-101071428D01*
X109335771Y-101071428D02*
X109383390Y-101166666D01*
X109383390Y-101166666D02*
X109431009Y-101214285D01*
X109431009Y-101214285D02*
X109526247Y-101261904D01*
X109526247Y-101261904D02*
X109764342Y-101261904D01*
X109764342Y-101261904D02*
X109859580Y-101214285D01*
X109859580Y-101214285D02*
X109907200Y-101166666D01*
X109907200Y-101166666D02*
X109954819Y-101071428D01*
X109954819Y-101071428D02*
X109954819Y-100833333D01*
X109954819Y-100833333D02*
X109907200Y-100738095D01*
X109907200Y-100738095D02*
X109859580Y-100690476D01*
X126204819Y-95185714D02*
X125204819Y-95185714D01*
X125204819Y-95185714D02*
X125204819Y-95423809D01*
X125204819Y-95423809D02*
X125252438Y-95566666D01*
X125252438Y-95566666D02*
X125347676Y-95661904D01*
X125347676Y-95661904D02*
X125442914Y-95709523D01*
X125442914Y-95709523D02*
X125633390Y-95757142D01*
X125633390Y-95757142D02*
X125776247Y-95757142D01*
X125776247Y-95757142D02*
X125966723Y-95709523D01*
X125966723Y-95709523D02*
X126061961Y-95661904D01*
X126061961Y-95661904D02*
X126157200Y-95566666D01*
X126157200Y-95566666D02*
X126204819Y-95423809D01*
X126204819Y-95423809D02*
X126204819Y-95185714D01*
X126204819Y-96709523D02*
X126204819Y-96138095D01*
X126204819Y-96423809D02*
X125204819Y-96423809D01*
X125204819Y-96423809D02*
X125347676Y-96328571D01*
X125347676Y-96328571D02*
X125442914Y-96233333D01*
X125442914Y-96233333D02*
X125490533Y-96138095D01*
X125204819Y-97614285D02*
X125204819Y-97138095D01*
X125204819Y-97138095D02*
X125681009Y-97090476D01*
X125681009Y-97090476D02*
X125633390Y-97138095D01*
X125633390Y-97138095D02*
X125585771Y-97233333D01*
X125585771Y-97233333D02*
X125585771Y-97471428D01*
X125585771Y-97471428D02*
X125633390Y-97566666D01*
X125633390Y-97566666D02*
X125681009Y-97614285D01*
X125681009Y-97614285D02*
X125776247Y-97661904D01*
X125776247Y-97661904D02*
X126014342Y-97661904D01*
X126014342Y-97661904D02*
X126109580Y-97614285D01*
X126109580Y-97614285D02*
X126157200Y-97566666D01*
X126157200Y-97566666D02*
X126204819Y-97471428D01*
X126204819Y-97471428D02*
X126204819Y-97233333D01*
X126204819Y-97233333D02*
X126157200Y-97138095D01*
X126157200Y-97138095D02*
X126109580Y-97090476D01*
X124642857Y-68599580D02*
X124690476Y-68647200D01*
X124690476Y-68647200D02*
X124833333Y-68694819D01*
X124833333Y-68694819D02*
X124928571Y-68694819D01*
X124928571Y-68694819D02*
X125071428Y-68647200D01*
X125071428Y-68647200D02*
X125166666Y-68551961D01*
X125166666Y-68551961D02*
X125214285Y-68456723D01*
X125214285Y-68456723D02*
X125261904Y-68266247D01*
X125261904Y-68266247D02*
X125261904Y-68123390D01*
X125261904Y-68123390D02*
X125214285Y-67932914D01*
X125214285Y-67932914D02*
X125166666Y-67837676D01*
X125166666Y-67837676D02*
X125071428Y-67742438D01*
X125071428Y-67742438D02*
X124928571Y-67694819D01*
X124928571Y-67694819D02*
X124833333Y-67694819D01*
X124833333Y-67694819D02*
X124690476Y-67742438D01*
X124690476Y-67742438D02*
X124642857Y-67790057D01*
X123690476Y-68694819D02*
X124261904Y-68694819D01*
X123976190Y-68694819D02*
X123976190Y-67694819D01*
X123976190Y-67694819D02*
X124071428Y-67837676D01*
X124071428Y-67837676D02*
X124166666Y-67932914D01*
X124166666Y-67932914D02*
X124261904Y-67980533D01*
X122833333Y-67694819D02*
X123023809Y-67694819D01*
X123023809Y-67694819D02*
X123119047Y-67742438D01*
X123119047Y-67742438D02*
X123166666Y-67790057D01*
X123166666Y-67790057D02*
X123261904Y-67932914D01*
X123261904Y-67932914D02*
X123309523Y-68123390D01*
X123309523Y-68123390D02*
X123309523Y-68504342D01*
X123309523Y-68504342D02*
X123261904Y-68599580D01*
X123261904Y-68599580D02*
X123214285Y-68647200D01*
X123214285Y-68647200D02*
X123119047Y-68694819D01*
X123119047Y-68694819D02*
X122928571Y-68694819D01*
X122928571Y-68694819D02*
X122833333Y-68647200D01*
X122833333Y-68647200D02*
X122785714Y-68599580D01*
X122785714Y-68599580D02*
X122738095Y-68504342D01*
X122738095Y-68504342D02*
X122738095Y-68266247D01*
X122738095Y-68266247D02*
X122785714Y-68171009D01*
X122785714Y-68171009D02*
X122833333Y-68123390D01*
X122833333Y-68123390D02*
X122928571Y-68075771D01*
X122928571Y-68075771D02*
X123119047Y-68075771D01*
X123119047Y-68075771D02*
X123214285Y-68123390D01*
X123214285Y-68123390D02*
X123261904Y-68171009D01*
X123261904Y-68171009D02*
X123309523Y-68266247D01*
X116542857Y-78284819D02*
X116876190Y-77808628D01*
X117114285Y-78284819D02*
X117114285Y-77284819D01*
X117114285Y-77284819D02*
X116733333Y-77284819D01*
X116733333Y-77284819D02*
X116638095Y-77332438D01*
X116638095Y-77332438D02*
X116590476Y-77380057D01*
X116590476Y-77380057D02*
X116542857Y-77475295D01*
X116542857Y-77475295D02*
X116542857Y-77618152D01*
X116542857Y-77618152D02*
X116590476Y-77713390D01*
X116590476Y-77713390D02*
X116638095Y-77761009D01*
X116638095Y-77761009D02*
X116733333Y-77808628D01*
X116733333Y-77808628D02*
X117114285Y-77808628D01*
X115685714Y-77618152D02*
X115685714Y-78284819D01*
X115923809Y-77237200D02*
X116161904Y-77951485D01*
X116161904Y-77951485D02*
X115542857Y-77951485D01*
X114733333Y-77284819D02*
X114923809Y-77284819D01*
X114923809Y-77284819D02*
X115019047Y-77332438D01*
X115019047Y-77332438D02*
X115066666Y-77380057D01*
X115066666Y-77380057D02*
X115161904Y-77522914D01*
X115161904Y-77522914D02*
X115209523Y-77713390D01*
X115209523Y-77713390D02*
X115209523Y-78094342D01*
X115209523Y-78094342D02*
X115161904Y-78189580D01*
X115161904Y-78189580D02*
X115114285Y-78237200D01*
X115114285Y-78237200D02*
X115019047Y-78284819D01*
X115019047Y-78284819D02*
X114828571Y-78284819D01*
X114828571Y-78284819D02*
X114733333Y-78237200D01*
X114733333Y-78237200D02*
X114685714Y-78189580D01*
X114685714Y-78189580D02*
X114638095Y-78094342D01*
X114638095Y-78094342D02*
X114638095Y-77856247D01*
X114638095Y-77856247D02*
X114685714Y-77761009D01*
X114685714Y-77761009D02*
X114733333Y-77713390D01*
X114733333Y-77713390D02*
X114828571Y-77665771D01*
X114828571Y-77665771D02*
X115019047Y-77665771D01*
X115019047Y-77665771D02*
X115114285Y-77713390D01*
X115114285Y-77713390D02*
X115161904Y-77761009D01*
X115161904Y-77761009D02*
X115209523Y-77856247D01*
X136142857Y-70059580D02*
X136190476Y-70107200D01*
X136190476Y-70107200D02*
X136333333Y-70154819D01*
X136333333Y-70154819D02*
X136428571Y-70154819D01*
X136428571Y-70154819D02*
X136571428Y-70107200D01*
X136571428Y-70107200D02*
X136666666Y-70011961D01*
X136666666Y-70011961D02*
X136714285Y-69916723D01*
X136714285Y-69916723D02*
X136761904Y-69726247D01*
X136761904Y-69726247D02*
X136761904Y-69583390D01*
X136761904Y-69583390D02*
X136714285Y-69392914D01*
X136714285Y-69392914D02*
X136666666Y-69297676D01*
X136666666Y-69297676D02*
X136571428Y-69202438D01*
X136571428Y-69202438D02*
X136428571Y-69154819D01*
X136428571Y-69154819D02*
X136333333Y-69154819D01*
X136333333Y-69154819D02*
X136190476Y-69202438D01*
X136190476Y-69202438D02*
X136142857Y-69250057D01*
X135190476Y-70154819D02*
X135761904Y-70154819D01*
X135476190Y-70154819D02*
X135476190Y-69154819D01*
X135476190Y-69154819D02*
X135571428Y-69297676D01*
X135571428Y-69297676D02*
X135666666Y-69392914D01*
X135666666Y-69392914D02*
X135761904Y-69440533D01*
X134619047Y-69583390D02*
X134714285Y-69535771D01*
X134714285Y-69535771D02*
X134761904Y-69488152D01*
X134761904Y-69488152D02*
X134809523Y-69392914D01*
X134809523Y-69392914D02*
X134809523Y-69345295D01*
X134809523Y-69345295D02*
X134761904Y-69250057D01*
X134761904Y-69250057D02*
X134714285Y-69202438D01*
X134714285Y-69202438D02*
X134619047Y-69154819D01*
X134619047Y-69154819D02*
X134428571Y-69154819D01*
X134428571Y-69154819D02*
X134333333Y-69202438D01*
X134333333Y-69202438D02*
X134285714Y-69250057D01*
X134285714Y-69250057D02*
X134238095Y-69345295D01*
X134238095Y-69345295D02*
X134238095Y-69392914D01*
X134238095Y-69392914D02*
X134285714Y-69488152D01*
X134285714Y-69488152D02*
X134333333Y-69535771D01*
X134333333Y-69535771D02*
X134428571Y-69583390D01*
X134428571Y-69583390D02*
X134619047Y-69583390D01*
X134619047Y-69583390D02*
X134714285Y-69631009D01*
X134714285Y-69631009D02*
X134761904Y-69678628D01*
X134761904Y-69678628D02*
X134809523Y-69773866D01*
X134809523Y-69773866D02*
X134809523Y-69964342D01*
X134809523Y-69964342D02*
X134761904Y-70059580D01*
X134761904Y-70059580D02*
X134714285Y-70107200D01*
X134714285Y-70107200D02*
X134619047Y-70154819D01*
X134619047Y-70154819D02*
X134428571Y-70154819D01*
X134428571Y-70154819D02*
X134333333Y-70107200D01*
X134333333Y-70107200D02*
X134285714Y-70059580D01*
X134285714Y-70059580D02*
X134238095Y-69964342D01*
X134238095Y-69964342D02*
X134238095Y-69773866D01*
X134238095Y-69773866D02*
X134285714Y-69678628D01*
X134285714Y-69678628D02*
X134333333Y-69631009D01*
X134333333Y-69631009D02*
X134428571Y-69583390D01*
X89305357Y-84654819D02*
X89638690Y-84178628D01*
X89876785Y-84654819D02*
X89876785Y-83654819D01*
X89876785Y-83654819D02*
X89495833Y-83654819D01*
X89495833Y-83654819D02*
X89400595Y-83702438D01*
X89400595Y-83702438D02*
X89352976Y-83750057D01*
X89352976Y-83750057D02*
X89305357Y-83845295D01*
X89305357Y-83845295D02*
X89305357Y-83988152D01*
X89305357Y-83988152D02*
X89352976Y-84083390D01*
X89352976Y-84083390D02*
X89400595Y-84131009D01*
X89400595Y-84131009D02*
X89495833Y-84178628D01*
X89495833Y-84178628D02*
X89876785Y-84178628D01*
X88924404Y-83750057D02*
X88876785Y-83702438D01*
X88876785Y-83702438D02*
X88781547Y-83654819D01*
X88781547Y-83654819D02*
X88543452Y-83654819D01*
X88543452Y-83654819D02*
X88448214Y-83702438D01*
X88448214Y-83702438D02*
X88400595Y-83750057D01*
X88400595Y-83750057D02*
X88352976Y-83845295D01*
X88352976Y-83845295D02*
X88352976Y-83940533D01*
X88352976Y-83940533D02*
X88400595Y-84083390D01*
X88400595Y-84083390D02*
X88972023Y-84654819D01*
X88972023Y-84654819D02*
X88352976Y-84654819D01*
X87781547Y-84083390D02*
X87876785Y-84035771D01*
X87876785Y-84035771D02*
X87924404Y-83988152D01*
X87924404Y-83988152D02*
X87972023Y-83892914D01*
X87972023Y-83892914D02*
X87972023Y-83845295D01*
X87972023Y-83845295D02*
X87924404Y-83750057D01*
X87924404Y-83750057D02*
X87876785Y-83702438D01*
X87876785Y-83702438D02*
X87781547Y-83654819D01*
X87781547Y-83654819D02*
X87591071Y-83654819D01*
X87591071Y-83654819D02*
X87495833Y-83702438D01*
X87495833Y-83702438D02*
X87448214Y-83750057D01*
X87448214Y-83750057D02*
X87400595Y-83845295D01*
X87400595Y-83845295D02*
X87400595Y-83892914D01*
X87400595Y-83892914D02*
X87448214Y-83988152D01*
X87448214Y-83988152D02*
X87495833Y-84035771D01*
X87495833Y-84035771D02*
X87591071Y-84083390D01*
X87591071Y-84083390D02*
X87781547Y-84083390D01*
X87781547Y-84083390D02*
X87876785Y-84131009D01*
X87876785Y-84131009D02*
X87924404Y-84178628D01*
X87924404Y-84178628D02*
X87972023Y-84273866D01*
X87972023Y-84273866D02*
X87972023Y-84464342D01*
X87972023Y-84464342D02*
X87924404Y-84559580D01*
X87924404Y-84559580D02*
X87876785Y-84607200D01*
X87876785Y-84607200D02*
X87781547Y-84654819D01*
X87781547Y-84654819D02*
X87591071Y-84654819D01*
X87591071Y-84654819D02*
X87495833Y-84607200D01*
X87495833Y-84607200D02*
X87448214Y-84559580D01*
X87448214Y-84559580D02*
X87400595Y-84464342D01*
X87400595Y-84464342D02*
X87400595Y-84273866D01*
X87400595Y-84273866D02*
X87448214Y-84178628D01*
X87448214Y-84178628D02*
X87495833Y-84131009D01*
X87495833Y-84131009D02*
X87591071Y-84083390D01*
X133514285Y-100694819D02*
X133514285Y-99694819D01*
X133514285Y-99694819D02*
X133276190Y-99694819D01*
X133276190Y-99694819D02*
X133133333Y-99742438D01*
X133133333Y-99742438D02*
X133038095Y-99837676D01*
X133038095Y-99837676D02*
X132990476Y-99932914D01*
X132990476Y-99932914D02*
X132942857Y-100123390D01*
X132942857Y-100123390D02*
X132942857Y-100266247D01*
X132942857Y-100266247D02*
X132990476Y-100456723D01*
X132990476Y-100456723D02*
X133038095Y-100551961D01*
X133038095Y-100551961D02*
X133133333Y-100647200D01*
X133133333Y-100647200D02*
X133276190Y-100694819D01*
X133276190Y-100694819D02*
X133514285Y-100694819D01*
X131990476Y-100694819D02*
X132561904Y-100694819D01*
X132276190Y-100694819D02*
X132276190Y-99694819D01*
X132276190Y-99694819D02*
X132371428Y-99837676D01*
X132371428Y-99837676D02*
X132466666Y-99932914D01*
X132466666Y-99932914D02*
X132561904Y-99980533D01*
X131038095Y-100694819D02*
X131609523Y-100694819D01*
X131323809Y-100694819D02*
X131323809Y-99694819D01*
X131323809Y-99694819D02*
X131419047Y-99837676D01*
X131419047Y-99837676D02*
X131514285Y-99932914D01*
X131514285Y-99932914D02*
X131609523Y-99980533D01*
X113142857Y-74524819D02*
X113476190Y-74048628D01*
X113714285Y-74524819D02*
X113714285Y-73524819D01*
X113714285Y-73524819D02*
X113333333Y-73524819D01*
X113333333Y-73524819D02*
X113238095Y-73572438D01*
X113238095Y-73572438D02*
X113190476Y-73620057D01*
X113190476Y-73620057D02*
X113142857Y-73715295D01*
X113142857Y-73715295D02*
X113142857Y-73858152D01*
X113142857Y-73858152D02*
X113190476Y-73953390D01*
X113190476Y-73953390D02*
X113238095Y-74001009D01*
X113238095Y-74001009D02*
X113333333Y-74048628D01*
X113333333Y-74048628D02*
X113714285Y-74048628D01*
X112809523Y-73524819D02*
X112190476Y-73524819D01*
X112190476Y-73524819D02*
X112523809Y-73905771D01*
X112523809Y-73905771D02*
X112380952Y-73905771D01*
X112380952Y-73905771D02*
X112285714Y-73953390D01*
X112285714Y-73953390D02*
X112238095Y-74001009D01*
X112238095Y-74001009D02*
X112190476Y-74096247D01*
X112190476Y-74096247D02*
X112190476Y-74334342D01*
X112190476Y-74334342D02*
X112238095Y-74429580D01*
X112238095Y-74429580D02*
X112285714Y-74477200D01*
X112285714Y-74477200D02*
X112380952Y-74524819D01*
X112380952Y-74524819D02*
X112666666Y-74524819D01*
X112666666Y-74524819D02*
X112761904Y-74477200D01*
X112761904Y-74477200D02*
X112809523Y-74429580D01*
X111714285Y-74524819D02*
X111523809Y-74524819D01*
X111523809Y-74524819D02*
X111428571Y-74477200D01*
X111428571Y-74477200D02*
X111380952Y-74429580D01*
X111380952Y-74429580D02*
X111285714Y-74286723D01*
X111285714Y-74286723D02*
X111238095Y-74096247D01*
X111238095Y-74096247D02*
X111238095Y-73715295D01*
X111238095Y-73715295D02*
X111285714Y-73620057D01*
X111285714Y-73620057D02*
X111333333Y-73572438D01*
X111333333Y-73572438D02*
X111428571Y-73524819D01*
X111428571Y-73524819D02*
X111619047Y-73524819D01*
X111619047Y-73524819D02*
X111714285Y-73572438D01*
X111714285Y-73572438D02*
X111761904Y-73620057D01*
X111761904Y-73620057D02*
X111809523Y-73715295D01*
X111809523Y-73715295D02*
X111809523Y-73953390D01*
X111809523Y-73953390D02*
X111761904Y-74048628D01*
X111761904Y-74048628D02*
X111714285Y-74096247D01*
X111714285Y-74096247D02*
X111619047Y-74143866D01*
X111619047Y-74143866D02*
X111428571Y-74143866D01*
X111428571Y-74143866D02*
X111333333Y-74096247D01*
X111333333Y-74096247D02*
X111285714Y-74048628D01*
X111285714Y-74048628D02*
X111238095Y-73953390D01*
X120215408Y-94122494D02*
X119215408Y-94122494D01*
X119215408Y-94122494D02*
X119215408Y-94360589D01*
X119215408Y-94360589D02*
X119263027Y-94503446D01*
X119263027Y-94503446D02*
X119358265Y-94598684D01*
X119358265Y-94598684D02*
X119453503Y-94646303D01*
X119453503Y-94646303D02*
X119643979Y-94693922D01*
X119643979Y-94693922D02*
X119786836Y-94693922D01*
X119786836Y-94693922D02*
X119977312Y-94646303D01*
X119977312Y-94646303D02*
X120072550Y-94598684D01*
X120072550Y-94598684D02*
X120167789Y-94503446D01*
X120167789Y-94503446D02*
X120215408Y-94360589D01*
X120215408Y-94360589D02*
X120215408Y-94122494D01*
X119215408Y-95598684D02*
X119215408Y-95122494D01*
X119215408Y-95122494D02*
X119691598Y-95074875D01*
X119691598Y-95074875D02*
X119643979Y-95122494D01*
X119643979Y-95122494D02*
X119596360Y-95217732D01*
X119596360Y-95217732D02*
X119596360Y-95455827D01*
X119596360Y-95455827D02*
X119643979Y-95551065D01*
X119643979Y-95551065D02*
X119691598Y-95598684D01*
X119691598Y-95598684D02*
X119786836Y-95646303D01*
X119786836Y-95646303D02*
X120024931Y-95646303D01*
X120024931Y-95646303D02*
X120120169Y-95598684D01*
X120120169Y-95598684D02*
X120167789Y-95551065D01*
X120167789Y-95551065D02*
X120215408Y-95455827D01*
X120215408Y-95455827D02*
X120215408Y-95217732D01*
X120215408Y-95217732D02*
X120167789Y-95122494D01*
X120167789Y-95122494D02*
X120120169Y-95074875D01*
X89211904Y-79104819D02*
X89211904Y-79914342D01*
X89211904Y-79914342D02*
X89164285Y-80009580D01*
X89164285Y-80009580D02*
X89116666Y-80057200D01*
X89116666Y-80057200D02*
X89021428Y-80104819D01*
X89021428Y-80104819D02*
X88830952Y-80104819D01*
X88830952Y-80104819D02*
X88735714Y-80057200D01*
X88735714Y-80057200D02*
X88688095Y-80009580D01*
X88688095Y-80009580D02*
X88640476Y-79914342D01*
X88640476Y-79914342D02*
X88640476Y-79104819D01*
X88021428Y-79533390D02*
X88116666Y-79485771D01*
X88116666Y-79485771D02*
X88164285Y-79438152D01*
X88164285Y-79438152D02*
X88211904Y-79342914D01*
X88211904Y-79342914D02*
X88211904Y-79295295D01*
X88211904Y-79295295D02*
X88164285Y-79200057D01*
X88164285Y-79200057D02*
X88116666Y-79152438D01*
X88116666Y-79152438D02*
X88021428Y-79104819D01*
X88021428Y-79104819D02*
X87830952Y-79104819D01*
X87830952Y-79104819D02*
X87735714Y-79152438D01*
X87735714Y-79152438D02*
X87688095Y-79200057D01*
X87688095Y-79200057D02*
X87640476Y-79295295D01*
X87640476Y-79295295D02*
X87640476Y-79342914D01*
X87640476Y-79342914D02*
X87688095Y-79438152D01*
X87688095Y-79438152D02*
X87735714Y-79485771D01*
X87735714Y-79485771D02*
X87830952Y-79533390D01*
X87830952Y-79533390D02*
X88021428Y-79533390D01*
X88021428Y-79533390D02*
X88116666Y-79581009D01*
X88116666Y-79581009D02*
X88164285Y-79628628D01*
X88164285Y-79628628D02*
X88211904Y-79723866D01*
X88211904Y-79723866D02*
X88211904Y-79914342D01*
X88211904Y-79914342D02*
X88164285Y-80009580D01*
X88164285Y-80009580D02*
X88116666Y-80057200D01*
X88116666Y-80057200D02*
X88021428Y-80104819D01*
X88021428Y-80104819D02*
X87830952Y-80104819D01*
X87830952Y-80104819D02*
X87735714Y-80057200D01*
X87735714Y-80057200D02*
X87688095Y-80009580D01*
X87688095Y-80009580D02*
X87640476Y-79914342D01*
X87640476Y-79914342D02*
X87640476Y-79723866D01*
X87640476Y-79723866D02*
X87688095Y-79628628D01*
X87688095Y-79628628D02*
X87735714Y-79581009D01*
X87735714Y-79581009D02*
X87830952Y-79533390D01*
X176574819Y-133197142D02*
X176098628Y-132863809D01*
X176574819Y-132625714D02*
X175574819Y-132625714D01*
X175574819Y-132625714D02*
X175574819Y-133006666D01*
X175574819Y-133006666D02*
X175622438Y-133101904D01*
X175622438Y-133101904D02*
X175670057Y-133149523D01*
X175670057Y-133149523D02*
X175765295Y-133197142D01*
X175765295Y-133197142D02*
X175908152Y-133197142D01*
X175908152Y-133197142D02*
X176003390Y-133149523D01*
X176003390Y-133149523D02*
X176051009Y-133101904D01*
X176051009Y-133101904D02*
X176098628Y-133006666D01*
X176098628Y-133006666D02*
X176098628Y-132625714D01*
X176574819Y-134149523D02*
X176574819Y-133578095D01*
X176574819Y-133863809D02*
X175574819Y-133863809D01*
X175574819Y-133863809D02*
X175717676Y-133768571D01*
X175717676Y-133768571D02*
X175812914Y-133673333D01*
X175812914Y-133673333D02*
X175860533Y-133578095D01*
X175908152Y-135006666D02*
X176574819Y-135006666D01*
X175527200Y-134768571D02*
X176241485Y-134530476D01*
X176241485Y-134530476D02*
X176241485Y-135149523D01*
X171480357Y-78854819D02*
X171813690Y-78378628D01*
X172051785Y-78854819D02*
X172051785Y-77854819D01*
X172051785Y-77854819D02*
X171670833Y-77854819D01*
X171670833Y-77854819D02*
X171575595Y-77902438D01*
X171575595Y-77902438D02*
X171527976Y-77950057D01*
X171527976Y-77950057D02*
X171480357Y-78045295D01*
X171480357Y-78045295D02*
X171480357Y-78188152D01*
X171480357Y-78188152D02*
X171527976Y-78283390D01*
X171527976Y-78283390D02*
X171575595Y-78331009D01*
X171575595Y-78331009D02*
X171670833Y-78378628D01*
X171670833Y-78378628D02*
X172051785Y-78378628D01*
X171099404Y-77950057D02*
X171051785Y-77902438D01*
X171051785Y-77902438D02*
X170956547Y-77854819D01*
X170956547Y-77854819D02*
X170718452Y-77854819D01*
X170718452Y-77854819D02*
X170623214Y-77902438D01*
X170623214Y-77902438D02*
X170575595Y-77950057D01*
X170575595Y-77950057D02*
X170527976Y-78045295D01*
X170527976Y-78045295D02*
X170527976Y-78140533D01*
X170527976Y-78140533D02*
X170575595Y-78283390D01*
X170575595Y-78283390D02*
X171147023Y-78854819D01*
X171147023Y-78854819D02*
X170527976Y-78854819D01*
X169908928Y-77854819D02*
X169813690Y-77854819D01*
X169813690Y-77854819D02*
X169718452Y-77902438D01*
X169718452Y-77902438D02*
X169670833Y-77950057D01*
X169670833Y-77950057D02*
X169623214Y-78045295D01*
X169623214Y-78045295D02*
X169575595Y-78235771D01*
X169575595Y-78235771D02*
X169575595Y-78473866D01*
X169575595Y-78473866D02*
X169623214Y-78664342D01*
X169623214Y-78664342D02*
X169670833Y-78759580D01*
X169670833Y-78759580D02*
X169718452Y-78807200D01*
X169718452Y-78807200D02*
X169813690Y-78854819D01*
X169813690Y-78854819D02*
X169908928Y-78854819D01*
X169908928Y-78854819D02*
X170004166Y-78807200D01*
X170004166Y-78807200D02*
X170051785Y-78759580D01*
X170051785Y-78759580D02*
X170099404Y-78664342D01*
X170099404Y-78664342D02*
X170147023Y-78473866D01*
X170147023Y-78473866D02*
X170147023Y-78235771D01*
X170147023Y-78235771D02*
X170099404Y-78045295D01*
X170099404Y-78045295D02*
X170051785Y-77950057D01*
X170051785Y-77950057D02*
X170004166Y-77902438D01*
X170004166Y-77902438D02*
X169908928Y-77854819D01*
X104142857Y-89884580D02*
X104190476Y-89932200D01*
X104190476Y-89932200D02*
X104333333Y-89979819D01*
X104333333Y-89979819D02*
X104428571Y-89979819D01*
X104428571Y-89979819D02*
X104571428Y-89932200D01*
X104571428Y-89932200D02*
X104666666Y-89836961D01*
X104666666Y-89836961D02*
X104714285Y-89741723D01*
X104714285Y-89741723D02*
X104761904Y-89551247D01*
X104761904Y-89551247D02*
X104761904Y-89408390D01*
X104761904Y-89408390D02*
X104714285Y-89217914D01*
X104714285Y-89217914D02*
X104666666Y-89122676D01*
X104666666Y-89122676D02*
X104571428Y-89027438D01*
X104571428Y-89027438D02*
X104428571Y-88979819D01*
X104428571Y-88979819D02*
X104333333Y-88979819D01*
X104333333Y-88979819D02*
X104190476Y-89027438D01*
X104190476Y-89027438D02*
X104142857Y-89075057D01*
X103285714Y-89313152D02*
X103285714Y-89979819D01*
X103523809Y-88932200D02*
X103761904Y-89646485D01*
X103761904Y-89646485D02*
X103142857Y-89646485D01*
X102857142Y-88979819D02*
X102190476Y-88979819D01*
X102190476Y-88979819D02*
X102619047Y-89979819D01*
X177754819Y-95707142D02*
X177278628Y-95373809D01*
X177754819Y-95135714D02*
X176754819Y-95135714D01*
X176754819Y-95135714D02*
X176754819Y-95516666D01*
X176754819Y-95516666D02*
X176802438Y-95611904D01*
X176802438Y-95611904D02*
X176850057Y-95659523D01*
X176850057Y-95659523D02*
X176945295Y-95707142D01*
X176945295Y-95707142D02*
X177088152Y-95707142D01*
X177088152Y-95707142D02*
X177183390Y-95659523D01*
X177183390Y-95659523D02*
X177231009Y-95611904D01*
X177231009Y-95611904D02*
X177278628Y-95516666D01*
X177278628Y-95516666D02*
X177278628Y-95135714D01*
X176754819Y-96040476D02*
X176754819Y-96659523D01*
X176754819Y-96659523D02*
X177135771Y-96326190D01*
X177135771Y-96326190D02*
X177135771Y-96469047D01*
X177135771Y-96469047D02*
X177183390Y-96564285D01*
X177183390Y-96564285D02*
X177231009Y-96611904D01*
X177231009Y-96611904D02*
X177326247Y-96659523D01*
X177326247Y-96659523D02*
X177564342Y-96659523D01*
X177564342Y-96659523D02*
X177659580Y-96611904D01*
X177659580Y-96611904D02*
X177707200Y-96564285D01*
X177707200Y-96564285D02*
X177754819Y-96469047D01*
X177754819Y-96469047D02*
X177754819Y-96183333D01*
X177754819Y-96183333D02*
X177707200Y-96088095D01*
X177707200Y-96088095D02*
X177659580Y-96040476D01*
X177088152Y-97516666D02*
X177754819Y-97516666D01*
X176707200Y-97278571D02*
X177421485Y-97040476D01*
X177421485Y-97040476D02*
X177421485Y-97659523D01*
X146892857Y-88704819D02*
X147226190Y-88228628D01*
X147464285Y-88704819D02*
X147464285Y-87704819D01*
X147464285Y-87704819D02*
X147083333Y-87704819D01*
X147083333Y-87704819D02*
X146988095Y-87752438D01*
X146988095Y-87752438D02*
X146940476Y-87800057D01*
X146940476Y-87800057D02*
X146892857Y-87895295D01*
X146892857Y-87895295D02*
X146892857Y-88038152D01*
X146892857Y-88038152D02*
X146940476Y-88133390D01*
X146940476Y-88133390D02*
X146988095Y-88181009D01*
X146988095Y-88181009D02*
X147083333Y-88228628D01*
X147083333Y-88228628D02*
X147464285Y-88228628D01*
X146559523Y-87704819D02*
X145940476Y-87704819D01*
X145940476Y-87704819D02*
X146273809Y-88085771D01*
X146273809Y-88085771D02*
X146130952Y-88085771D01*
X146130952Y-88085771D02*
X146035714Y-88133390D01*
X146035714Y-88133390D02*
X145988095Y-88181009D01*
X145988095Y-88181009D02*
X145940476Y-88276247D01*
X145940476Y-88276247D02*
X145940476Y-88514342D01*
X145940476Y-88514342D02*
X145988095Y-88609580D01*
X145988095Y-88609580D02*
X146035714Y-88657200D01*
X146035714Y-88657200D02*
X146130952Y-88704819D01*
X146130952Y-88704819D02*
X146416666Y-88704819D01*
X146416666Y-88704819D02*
X146511904Y-88657200D01*
X146511904Y-88657200D02*
X146559523Y-88609580D01*
X145607142Y-87704819D02*
X144988095Y-87704819D01*
X144988095Y-87704819D02*
X145321428Y-88085771D01*
X145321428Y-88085771D02*
X145178571Y-88085771D01*
X145178571Y-88085771D02*
X145083333Y-88133390D01*
X145083333Y-88133390D02*
X145035714Y-88181009D01*
X145035714Y-88181009D02*
X144988095Y-88276247D01*
X144988095Y-88276247D02*
X144988095Y-88514342D01*
X144988095Y-88514342D02*
X145035714Y-88609580D01*
X145035714Y-88609580D02*
X145083333Y-88657200D01*
X145083333Y-88657200D02*
X145178571Y-88704819D01*
X145178571Y-88704819D02*
X145464285Y-88704819D01*
X145464285Y-88704819D02*
X145559523Y-88657200D01*
X145559523Y-88657200D02*
X145607142Y-88609580D01*
X87242857Y-92874819D02*
X87576190Y-92398628D01*
X87814285Y-92874819D02*
X87814285Y-91874819D01*
X87814285Y-91874819D02*
X87433333Y-91874819D01*
X87433333Y-91874819D02*
X87338095Y-91922438D01*
X87338095Y-91922438D02*
X87290476Y-91970057D01*
X87290476Y-91970057D02*
X87242857Y-92065295D01*
X87242857Y-92065295D02*
X87242857Y-92208152D01*
X87242857Y-92208152D02*
X87290476Y-92303390D01*
X87290476Y-92303390D02*
X87338095Y-92351009D01*
X87338095Y-92351009D02*
X87433333Y-92398628D01*
X87433333Y-92398628D02*
X87814285Y-92398628D01*
X86290476Y-92874819D02*
X86861904Y-92874819D01*
X86576190Y-92874819D02*
X86576190Y-91874819D01*
X86576190Y-91874819D02*
X86671428Y-92017676D01*
X86671428Y-92017676D02*
X86766666Y-92112914D01*
X86766666Y-92112914D02*
X86861904Y-92160533D01*
X85719047Y-92303390D02*
X85814285Y-92255771D01*
X85814285Y-92255771D02*
X85861904Y-92208152D01*
X85861904Y-92208152D02*
X85909523Y-92112914D01*
X85909523Y-92112914D02*
X85909523Y-92065295D01*
X85909523Y-92065295D02*
X85861904Y-91970057D01*
X85861904Y-91970057D02*
X85814285Y-91922438D01*
X85814285Y-91922438D02*
X85719047Y-91874819D01*
X85719047Y-91874819D02*
X85528571Y-91874819D01*
X85528571Y-91874819D02*
X85433333Y-91922438D01*
X85433333Y-91922438D02*
X85385714Y-91970057D01*
X85385714Y-91970057D02*
X85338095Y-92065295D01*
X85338095Y-92065295D02*
X85338095Y-92112914D01*
X85338095Y-92112914D02*
X85385714Y-92208152D01*
X85385714Y-92208152D02*
X85433333Y-92255771D01*
X85433333Y-92255771D02*
X85528571Y-92303390D01*
X85528571Y-92303390D02*
X85719047Y-92303390D01*
X85719047Y-92303390D02*
X85814285Y-92351009D01*
X85814285Y-92351009D02*
X85861904Y-92398628D01*
X85861904Y-92398628D02*
X85909523Y-92493866D01*
X85909523Y-92493866D02*
X85909523Y-92684342D01*
X85909523Y-92684342D02*
X85861904Y-92779580D01*
X85861904Y-92779580D02*
X85814285Y-92827200D01*
X85814285Y-92827200D02*
X85719047Y-92874819D01*
X85719047Y-92874819D02*
X85528571Y-92874819D01*
X85528571Y-92874819D02*
X85433333Y-92827200D01*
X85433333Y-92827200D02*
X85385714Y-92779580D01*
X85385714Y-92779580D02*
X85338095Y-92684342D01*
X85338095Y-92684342D02*
X85338095Y-92493866D01*
X85338095Y-92493866D02*
X85385714Y-92398628D01*
X85385714Y-92398628D02*
X85433333Y-92351009D01*
X85433333Y-92351009D02*
X85528571Y-92303390D01*
X89199580Y-78637142D02*
X89247200Y-78589523D01*
X89247200Y-78589523D02*
X89294819Y-78446666D01*
X89294819Y-78446666D02*
X89294819Y-78351428D01*
X89294819Y-78351428D02*
X89247200Y-78208571D01*
X89247200Y-78208571D02*
X89151961Y-78113333D01*
X89151961Y-78113333D02*
X89056723Y-78065714D01*
X89056723Y-78065714D02*
X88866247Y-78018095D01*
X88866247Y-78018095D02*
X88723390Y-78018095D01*
X88723390Y-78018095D02*
X88532914Y-78065714D01*
X88532914Y-78065714D02*
X88437676Y-78113333D01*
X88437676Y-78113333D02*
X88342438Y-78208571D01*
X88342438Y-78208571D02*
X88294819Y-78351428D01*
X88294819Y-78351428D02*
X88294819Y-78446666D01*
X88294819Y-78446666D02*
X88342438Y-78589523D01*
X88342438Y-78589523D02*
X88390057Y-78637142D01*
X88628152Y-79494285D02*
X89294819Y-79494285D01*
X88247200Y-79256190D02*
X88961485Y-79018095D01*
X88961485Y-79018095D02*
X88961485Y-79637142D01*
X88294819Y-80494285D02*
X88294819Y-80018095D01*
X88294819Y-80018095D02*
X88771009Y-79970476D01*
X88771009Y-79970476D02*
X88723390Y-80018095D01*
X88723390Y-80018095D02*
X88675771Y-80113333D01*
X88675771Y-80113333D02*
X88675771Y-80351428D01*
X88675771Y-80351428D02*
X88723390Y-80446666D01*
X88723390Y-80446666D02*
X88771009Y-80494285D01*
X88771009Y-80494285D02*
X88866247Y-80541904D01*
X88866247Y-80541904D02*
X89104342Y-80541904D01*
X89104342Y-80541904D02*
X89199580Y-80494285D01*
X89199580Y-80494285D02*
X89247200Y-80446666D01*
X89247200Y-80446666D02*
X89294819Y-80351428D01*
X89294819Y-80351428D02*
X89294819Y-80113333D01*
X89294819Y-80113333D02*
X89247200Y-80018095D01*
X89247200Y-80018095D02*
X89199580Y-79970476D01*
X169559580Y-80057142D02*
X169607200Y-80009523D01*
X169607200Y-80009523D02*
X169654819Y-79866666D01*
X169654819Y-79866666D02*
X169654819Y-79771428D01*
X169654819Y-79771428D02*
X169607200Y-79628571D01*
X169607200Y-79628571D02*
X169511961Y-79533333D01*
X169511961Y-79533333D02*
X169416723Y-79485714D01*
X169416723Y-79485714D02*
X169226247Y-79438095D01*
X169226247Y-79438095D02*
X169083390Y-79438095D01*
X169083390Y-79438095D02*
X168892914Y-79485714D01*
X168892914Y-79485714D02*
X168797676Y-79533333D01*
X168797676Y-79533333D02*
X168702438Y-79628571D01*
X168702438Y-79628571D02*
X168654819Y-79771428D01*
X168654819Y-79771428D02*
X168654819Y-79866666D01*
X168654819Y-79866666D02*
X168702438Y-80009523D01*
X168702438Y-80009523D02*
X168750057Y-80057142D01*
X168988152Y-80914285D02*
X169654819Y-80914285D01*
X168607200Y-80676190D02*
X169321485Y-80438095D01*
X169321485Y-80438095D02*
X169321485Y-81057142D01*
X168750057Y-81390476D02*
X168702438Y-81438095D01*
X168702438Y-81438095D02*
X168654819Y-81533333D01*
X168654819Y-81533333D02*
X168654819Y-81771428D01*
X168654819Y-81771428D02*
X168702438Y-81866666D01*
X168702438Y-81866666D02*
X168750057Y-81914285D01*
X168750057Y-81914285D02*
X168845295Y-81961904D01*
X168845295Y-81961904D02*
X168940533Y-81961904D01*
X168940533Y-81961904D02*
X169083390Y-81914285D01*
X169083390Y-81914285D02*
X169654819Y-81342857D01*
X169654819Y-81342857D02*
X169654819Y-81961904D01*
X152567857Y-72534819D02*
X152901190Y-72058628D01*
X153139285Y-72534819D02*
X153139285Y-71534819D01*
X153139285Y-71534819D02*
X152758333Y-71534819D01*
X152758333Y-71534819D02*
X152663095Y-71582438D01*
X152663095Y-71582438D02*
X152615476Y-71630057D01*
X152615476Y-71630057D02*
X152567857Y-71725295D01*
X152567857Y-71725295D02*
X152567857Y-71868152D01*
X152567857Y-71868152D02*
X152615476Y-71963390D01*
X152615476Y-71963390D02*
X152663095Y-72011009D01*
X152663095Y-72011009D02*
X152758333Y-72058628D01*
X152758333Y-72058628D02*
X153139285Y-72058628D01*
X152234523Y-71534819D02*
X151615476Y-71534819D01*
X151615476Y-71534819D02*
X151948809Y-71915771D01*
X151948809Y-71915771D02*
X151805952Y-71915771D01*
X151805952Y-71915771D02*
X151710714Y-71963390D01*
X151710714Y-71963390D02*
X151663095Y-72011009D01*
X151663095Y-72011009D02*
X151615476Y-72106247D01*
X151615476Y-72106247D02*
X151615476Y-72344342D01*
X151615476Y-72344342D02*
X151663095Y-72439580D01*
X151663095Y-72439580D02*
X151710714Y-72487200D01*
X151710714Y-72487200D02*
X151805952Y-72534819D01*
X151805952Y-72534819D02*
X152091666Y-72534819D01*
X152091666Y-72534819D02*
X152186904Y-72487200D01*
X152186904Y-72487200D02*
X152234523Y-72439580D01*
X151234523Y-71630057D02*
X151186904Y-71582438D01*
X151186904Y-71582438D02*
X151091666Y-71534819D01*
X151091666Y-71534819D02*
X150853571Y-71534819D01*
X150853571Y-71534819D02*
X150758333Y-71582438D01*
X150758333Y-71582438D02*
X150710714Y-71630057D01*
X150710714Y-71630057D02*
X150663095Y-71725295D01*
X150663095Y-71725295D02*
X150663095Y-71820533D01*
X150663095Y-71820533D02*
X150710714Y-71963390D01*
X150710714Y-71963390D02*
X151282142Y-72534819D01*
X151282142Y-72534819D02*
X150663095Y-72534819D01*
X127138094Y-71154819D02*
X127138094Y-70154819D01*
X127138094Y-70154819D02*
X126899999Y-70154819D01*
X126899999Y-70154819D02*
X126757142Y-70202438D01*
X126757142Y-70202438D02*
X126661904Y-70297676D01*
X126661904Y-70297676D02*
X126614285Y-70392914D01*
X126614285Y-70392914D02*
X126566666Y-70583390D01*
X126566666Y-70583390D02*
X126566666Y-70726247D01*
X126566666Y-70726247D02*
X126614285Y-70916723D01*
X126614285Y-70916723D02*
X126661904Y-71011961D01*
X126661904Y-71011961D02*
X126757142Y-71107200D01*
X126757142Y-71107200D02*
X126899999Y-71154819D01*
X126899999Y-71154819D02*
X127138094Y-71154819D01*
X125709523Y-70488152D02*
X125709523Y-71154819D01*
X125947618Y-70107200D02*
X126185713Y-70821485D01*
X126185713Y-70821485D02*
X125566666Y-70821485D01*
X111109580Y-94857142D02*
X111157200Y-94809523D01*
X111157200Y-94809523D02*
X111204819Y-94666666D01*
X111204819Y-94666666D02*
X111204819Y-94571428D01*
X111204819Y-94571428D02*
X111157200Y-94428571D01*
X111157200Y-94428571D02*
X111061961Y-94333333D01*
X111061961Y-94333333D02*
X110966723Y-94285714D01*
X110966723Y-94285714D02*
X110776247Y-94238095D01*
X110776247Y-94238095D02*
X110633390Y-94238095D01*
X110633390Y-94238095D02*
X110442914Y-94285714D01*
X110442914Y-94285714D02*
X110347676Y-94333333D01*
X110347676Y-94333333D02*
X110252438Y-94428571D01*
X110252438Y-94428571D02*
X110204819Y-94571428D01*
X110204819Y-94571428D02*
X110204819Y-94666666D01*
X110204819Y-94666666D02*
X110252438Y-94809523D01*
X110252438Y-94809523D02*
X110300057Y-94857142D01*
X111204819Y-95809523D02*
X111204819Y-95238095D01*
X111204819Y-95523809D02*
X110204819Y-95523809D01*
X110204819Y-95523809D02*
X110347676Y-95428571D01*
X110347676Y-95428571D02*
X110442914Y-95333333D01*
X110442914Y-95333333D02*
X110490533Y-95238095D01*
X110300057Y-96190476D02*
X110252438Y-96238095D01*
X110252438Y-96238095D02*
X110204819Y-96333333D01*
X110204819Y-96333333D02*
X110204819Y-96571428D01*
X110204819Y-96571428D02*
X110252438Y-96666666D01*
X110252438Y-96666666D02*
X110300057Y-96714285D01*
X110300057Y-96714285D02*
X110395295Y-96761904D01*
X110395295Y-96761904D02*
X110490533Y-96761904D01*
X110490533Y-96761904D02*
X110633390Y-96714285D01*
X110633390Y-96714285D02*
X111204819Y-96142857D01*
X111204819Y-96142857D02*
X111204819Y-96761904D01*
X132714285Y-96204819D02*
X132714285Y-95204819D01*
X132714285Y-95204819D02*
X132476190Y-95204819D01*
X132476190Y-95204819D02*
X132333333Y-95252438D01*
X132333333Y-95252438D02*
X132238095Y-95347676D01*
X132238095Y-95347676D02*
X132190476Y-95442914D01*
X132190476Y-95442914D02*
X132142857Y-95633390D01*
X132142857Y-95633390D02*
X132142857Y-95776247D01*
X132142857Y-95776247D02*
X132190476Y-95966723D01*
X132190476Y-95966723D02*
X132238095Y-96061961D01*
X132238095Y-96061961D02*
X132333333Y-96157200D01*
X132333333Y-96157200D02*
X132476190Y-96204819D01*
X132476190Y-96204819D02*
X132714285Y-96204819D01*
X131190476Y-96204819D02*
X131761904Y-96204819D01*
X131476190Y-96204819D02*
X131476190Y-95204819D01*
X131476190Y-95204819D02*
X131571428Y-95347676D01*
X131571428Y-95347676D02*
X131666666Y-95442914D01*
X131666666Y-95442914D02*
X131761904Y-95490533D01*
X130857142Y-95204819D02*
X130190476Y-95204819D01*
X130190476Y-95204819D02*
X130619047Y-96204819D01*
X118414285Y-68754819D02*
X118414285Y-67754819D01*
X118414285Y-67754819D02*
X118176190Y-67754819D01*
X118176190Y-67754819D02*
X118033333Y-67802438D01*
X118033333Y-67802438D02*
X117938095Y-67897676D01*
X117938095Y-67897676D02*
X117890476Y-67992914D01*
X117890476Y-67992914D02*
X117842857Y-68183390D01*
X117842857Y-68183390D02*
X117842857Y-68326247D01*
X117842857Y-68326247D02*
X117890476Y-68516723D01*
X117890476Y-68516723D02*
X117938095Y-68611961D01*
X117938095Y-68611961D02*
X118033333Y-68707200D01*
X118033333Y-68707200D02*
X118176190Y-68754819D01*
X118176190Y-68754819D02*
X118414285Y-68754819D01*
X116890476Y-68754819D02*
X117461904Y-68754819D01*
X117176190Y-68754819D02*
X117176190Y-67754819D01*
X117176190Y-67754819D02*
X117271428Y-67897676D01*
X117271428Y-67897676D02*
X117366666Y-67992914D01*
X117366666Y-67992914D02*
X117461904Y-68040533D01*
X116033333Y-67754819D02*
X116223809Y-67754819D01*
X116223809Y-67754819D02*
X116319047Y-67802438D01*
X116319047Y-67802438D02*
X116366666Y-67850057D01*
X116366666Y-67850057D02*
X116461904Y-67992914D01*
X116461904Y-67992914D02*
X116509523Y-68183390D01*
X116509523Y-68183390D02*
X116509523Y-68564342D01*
X116509523Y-68564342D02*
X116461904Y-68659580D01*
X116461904Y-68659580D02*
X116414285Y-68707200D01*
X116414285Y-68707200D02*
X116319047Y-68754819D01*
X116319047Y-68754819D02*
X116128571Y-68754819D01*
X116128571Y-68754819D02*
X116033333Y-68707200D01*
X116033333Y-68707200D02*
X115985714Y-68659580D01*
X115985714Y-68659580D02*
X115938095Y-68564342D01*
X115938095Y-68564342D02*
X115938095Y-68326247D01*
X115938095Y-68326247D02*
X115985714Y-68231009D01*
X115985714Y-68231009D02*
X116033333Y-68183390D01*
X116033333Y-68183390D02*
X116128571Y-68135771D01*
X116128571Y-68135771D02*
X116319047Y-68135771D01*
X116319047Y-68135771D02*
X116414285Y-68183390D01*
X116414285Y-68183390D02*
X116461904Y-68231009D01*
X116461904Y-68231009D02*
X116509523Y-68326247D01*
X166854819Y-140585714D02*
X165854819Y-140585714D01*
X165854819Y-140585714D02*
X165854819Y-140823809D01*
X165854819Y-140823809D02*
X165902438Y-140966666D01*
X165902438Y-140966666D02*
X165997676Y-141061904D01*
X165997676Y-141061904D02*
X166092914Y-141109523D01*
X166092914Y-141109523D02*
X166283390Y-141157142D01*
X166283390Y-141157142D02*
X166426247Y-141157142D01*
X166426247Y-141157142D02*
X166616723Y-141109523D01*
X166616723Y-141109523D02*
X166711961Y-141061904D01*
X166711961Y-141061904D02*
X166807200Y-140966666D01*
X166807200Y-140966666D02*
X166854819Y-140823809D01*
X166854819Y-140823809D02*
X166854819Y-140585714D01*
X166854819Y-142109523D02*
X166854819Y-141538095D01*
X166854819Y-141823809D02*
X165854819Y-141823809D01*
X165854819Y-141823809D02*
X165997676Y-141728571D01*
X165997676Y-141728571D02*
X166092914Y-141633333D01*
X166092914Y-141633333D02*
X166140533Y-141538095D01*
X166854819Y-142585714D02*
X166854819Y-142776190D01*
X166854819Y-142776190D02*
X166807200Y-142871428D01*
X166807200Y-142871428D02*
X166759580Y-142919047D01*
X166759580Y-142919047D02*
X166616723Y-143014285D01*
X166616723Y-143014285D02*
X166426247Y-143061904D01*
X166426247Y-143061904D02*
X166045295Y-143061904D01*
X166045295Y-143061904D02*
X165950057Y-143014285D01*
X165950057Y-143014285D02*
X165902438Y-142966666D01*
X165902438Y-142966666D02*
X165854819Y-142871428D01*
X165854819Y-142871428D02*
X165854819Y-142680952D01*
X165854819Y-142680952D02*
X165902438Y-142585714D01*
X165902438Y-142585714D02*
X165950057Y-142538095D01*
X165950057Y-142538095D02*
X166045295Y-142490476D01*
X166045295Y-142490476D02*
X166283390Y-142490476D01*
X166283390Y-142490476D02*
X166378628Y-142538095D01*
X166378628Y-142538095D02*
X166426247Y-142585714D01*
X166426247Y-142585714D02*
X166473866Y-142680952D01*
X166473866Y-142680952D02*
X166473866Y-142871428D01*
X166473866Y-142871428D02*
X166426247Y-142966666D01*
X166426247Y-142966666D02*
X166378628Y-143014285D01*
X166378628Y-143014285D02*
X166283390Y-143061904D01*
X132814285Y-62054819D02*
X132814285Y-61054819D01*
X132814285Y-61054819D02*
X132576190Y-61054819D01*
X132576190Y-61054819D02*
X132433333Y-61102438D01*
X132433333Y-61102438D02*
X132338095Y-61197676D01*
X132338095Y-61197676D02*
X132290476Y-61292914D01*
X132290476Y-61292914D02*
X132242857Y-61483390D01*
X132242857Y-61483390D02*
X132242857Y-61626247D01*
X132242857Y-61626247D02*
X132290476Y-61816723D01*
X132290476Y-61816723D02*
X132338095Y-61911961D01*
X132338095Y-61911961D02*
X132433333Y-62007200D01*
X132433333Y-62007200D02*
X132576190Y-62054819D01*
X132576190Y-62054819D02*
X132814285Y-62054819D01*
X131290476Y-62054819D02*
X131861904Y-62054819D01*
X131576190Y-62054819D02*
X131576190Y-61054819D01*
X131576190Y-61054819D02*
X131671428Y-61197676D01*
X131671428Y-61197676D02*
X131766666Y-61292914D01*
X131766666Y-61292914D02*
X131861904Y-61340533D01*
X130957142Y-61054819D02*
X130338095Y-61054819D01*
X130338095Y-61054819D02*
X130671428Y-61435771D01*
X130671428Y-61435771D02*
X130528571Y-61435771D01*
X130528571Y-61435771D02*
X130433333Y-61483390D01*
X130433333Y-61483390D02*
X130385714Y-61531009D01*
X130385714Y-61531009D02*
X130338095Y-61626247D01*
X130338095Y-61626247D02*
X130338095Y-61864342D01*
X130338095Y-61864342D02*
X130385714Y-61959580D01*
X130385714Y-61959580D02*
X130433333Y-62007200D01*
X130433333Y-62007200D02*
X130528571Y-62054819D01*
X130528571Y-62054819D02*
X130814285Y-62054819D01*
X130814285Y-62054819D02*
X130909523Y-62007200D01*
X130909523Y-62007200D02*
X130957142Y-61959580D01*
X166242857Y-80954819D02*
X166576190Y-80478628D01*
X166814285Y-80954819D02*
X166814285Y-79954819D01*
X166814285Y-79954819D02*
X166433333Y-79954819D01*
X166433333Y-79954819D02*
X166338095Y-80002438D01*
X166338095Y-80002438D02*
X166290476Y-80050057D01*
X166290476Y-80050057D02*
X166242857Y-80145295D01*
X166242857Y-80145295D02*
X166242857Y-80288152D01*
X166242857Y-80288152D02*
X166290476Y-80383390D01*
X166290476Y-80383390D02*
X166338095Y-80431009D01*
X166338095Y-80431009D02*
X166433333Y-80478628D01*
X166433333Y-80478628D02*
X166814285Y-80478628D01*
X165861904Y-80050057D02*
X165814285Y-80002438D01*
X165814285Y-80002438D02*
X165719047Y-79954819D01*
X165719047Y-79954819D02*
X165480952Y-79954819D01*
X165480952Y-79954819D02*
X165385714Y-80002438D01*
X165385714Y-80002438D02*
X165338095Y-80050057D01*
X165338095Y-80050057D02*
X165290476Y-80145295D01*
X165290476Y-80145295D02*
X165290476Y-80240533D01*
X165290476Y-80240533D02*
X165338095Y-80383390D01*
X165338095Y-80383390D02*
X165909523Y-80954819D01*
X165909523Y-80954819D02*
X165290476Y-80954819D01*
X164433333Y-80288152D02*
X164433333Y-80954819D01*
X164671428Y-79907200D02*
X164909523Y-80621485D01*
X164909523Y-80621485D02*
X164290476Y-80621485D01*
X174142857Y-87459580D02*
X174190476Y-87507200D01*
X174190476Y-87507200D02*
X174333333Y-87554819D01*
X174333333Y-87554819D02*
X174428571Y-87554819D01*
X174428571Y-87554819D02*
X174571428Y-87507200D01*
X174571428Y-87507200D02*
X174666666Y-87411961D01*
X174666666Y-87411961D02*
X174714285Y-87316723D01*
X174714285Y-87316723D02*
X174761904Y-87126247D01*
X174761904Y-87126247D02*
X174761904Y-86983390D01*
X174761904Y-86983390D02*
X174714285Y-86792914D01*
X174714285Y-86792914D02*
X174666666Y-86697676D01*
X174666666Y-86697676D02*
X174571428Y-86602438D01*
X174571428Y-86602438D02*
X174428571Y-86554819D01*
X174428571Y-86554819D02*
X174333333Y-86554819D01*
X174333333Y-86554819D02*
X174190476Y-86602438D01*
X174190476Y-86602438D02*
X174142857Y-86650057D01*
X173238095Y-86554819D02*
X173714285Y-86554819D01*
X173714285Y-86554819D02*
X173761904Y-87031009D01*
X173761904Y-87031009D02*
X173714285Y-86983390D01*
X173714285Y-86983390D02*
X173619047Y-86935771D01*
X173619047Y-86935771D02*
X173380952Y-86935771D01*
X173380952Y-86935771D02*
X173285714Y-86983390D01*
X173285714Y-86983390D02*
X173238095Y-87031009D01*
X173238095Y-87031009D02*
X173190476Y-87126247D01*
X173190476Y-87126247D02*
X173190476Y-87364342D01*
X173190476Y-87364342D02*
X173238095Y-87459580D01*
X173238095Y-87459580D02*
X173285714Y-87507200D01*
X173285714Y-87507200D02*
X173380952Y-87554819D01*
X173380952Y-87554819D02*
X173619047Y-87554819D01*
X173619047Y-87554819D02*
X173714285Y-87507200D01*
X173714285Y-87507200D02*
X173761904Y-87459580D01*
X172571428Y-86554819D02*
X172476190Y-86554819D01*
X172476190Y-86554819D02*
X172380952Y-86602438D01*
X172380952Y-86602438D02*
X172333333Y-86650057D01*
X172333333Y-86650057D02*
X172285714Y-86745295D01*
X172285714Y-86745295D02*
X172238095Y-86935771D01*
X172238095Y-86935771D02*
X172238095Y-87173866D01*
X172238095Y-87173866D02*
X172285714Y-87364342D01*
X172285714Y-87364342D02*
X172333333Y-87459580D01*
X172333333Y-87459580D02*
X172380952Y-87507200D01*
X172380952Y-87507200D02*
X172476190Y-87554819D01*
X172476190Y-87554819D02*
X172571428Y-87554819D01*
X172571428Y-87554819D02*
X172666666Y-87507200D01*
X172666666Y-87507200D02*
X172714285Y-87459580D01*
X172714285Y-87459580D02*
X172761904Y-87364342D01*
X172761904Y-87364342D02*
X172809523Y-87173866D01*
X172809523Y-87173866D02*
X172809523Y-86935771D01*
X172809523Y-86935771D02*
X172761904Y-86745295D01*
X172761904Y-86745295D02*
X172714285Y-86650057D01*
X172714285Y-86650057D02*
X172666666Y-86602438D01*
X172666666Y-86602438D02*
X172571428Y-86554819D01*
X174234819Y-137207142D02*
X173758628Y-136873809D01*
X174234819Y-136635714D02*
X173234819Y-136635714D01*
X173234819Y-136635714D02*
X173234819Y-137016666D01*
X173234819Y-137016666D02*
X173282438Y-137111904D01*
X173282438Y-137111904D02*
X173330057Y-137159523D01*
X173330057Y-137159523D02*
X173425295Y-137207142D01*
X173425295Y-137207142D02*
X173568152Y-137207142D01*
X173568152Y-137207142D02*
X173663390Y-137159523D01*
X173663390Y-137159523D02*
X173711009Y-137111904D01*
X173711009Y-137111904D02*
X173758628Y-137016666D01*
X173758628Y-137016666D02*
X173758628Y-136635714D01*
X174234819Y-138159523D02*
X174234819Y-137588095D01*
X174234819Y-137873809D02*
X173234819Y-137873809D01*
X173234819Y-137873809D02*
X173377676Y-137778571D01*
X173377676Y-137778571D02*
X173472914Y-137683333D01*
X173472914Y-137683333D02*
X173520533Y-137588095D01*
X173234819Y-138492857D02*
X173234819Y-139111904D01*
X173234819Y-139111904D02*
X173615771Y-138778571D01*
X173615771Y-138778571D02*
X173615771Y-138921428D01*
X173615771Y-138921428D02*
X173663390Y-139016666D01*
X173663390Y-139016666D02*
X173711009Y-139064285D01*
X173711009Y-139064285D02*
X173806247Y-139111904D01*
X173806247Y-139111904D02*
X174044342Y-139111904D01*
X174044342Y-139111904D02*
X174139580Y-139064285D01*
X174139580Y-139064285D02*
X174187200Y-139016666D01*
X174187200Y-139016666D02*
X174234819Y-138921428D01*
X174234819Y-138921428D02*
X174234819Y-138635714D01*
X174234819Y-138635714D02*
X174187200Y-138540476D01*
X174187200Y-138540476D02*
X174139580Y-138492857D01*
X142014285Y-102204819D02*
X142014285Y-101204819D01*
X142014285Y-101204819D02*
X141776190Y-101204819D01*
X141776190Y-101204819D02*
X141633333Y-101252438D01*
X141633333Y-101252438D02*
X141538095Y-101347676D01*
X141538095Y-101347676D02*
X141490476Y-101442914D01*
X141490476Y-101442914D02*
X141442857Y-101633390D01*
X141442857Y-101633390D02*
X141442857Y-101776247D01*
X141442857Y-101776247D02*
X141490476Y-101966723D01*
X141490476Y-101966723D02*
X141538095Y-102061961D01*
X141538095Y-102061961D02*
X141633333Y-102157200D01*
X141633333Y-102157200D02*
X141776190Y-102204819D01*
X141776190Y-102204819D02*
X142014285Y-102204819D01*
X140490476Y-102204819D02*
X141061904Y-102204819D01*
X140776190Y-102204819D02*
X140776190Y-101204819D01*
X140776190Y-101204819D02*
X140871428Y-101347676D01*
X140871428Y-101347676D02*
X140966666Y-101442914D01*
X140966666Y-101442914D02*
X141061904Y-101490533D01*
X140109523Y-101300057D02*
X140061904Y-101252438D01*
X140061904Y-101252438D02*
X139966666Y-101204819D01*
X139966666Y-101204819D02*
X139728571Y-101204819D01*
X139728571Y-101204819D02*
X139633333Y-101252438D01*
X139633333Y-101252438D02*
X139585714Y-101300057D01*
X139585714Y-101300057D02*
X139538095Y-101395295D01*
X139538095Y-101395295D02*
X139538095Y-101490533D01*
X139538095Y-101490533D02*
X139585714Y-101633390D01*
X139585714Y-101633390D02*
X140157142Y-102204819D01*
X140157142Y-102204819D02*
X139538095Y-102204819D01*
X174542857Y-97554819D02*
X174876190Y-97078628D01*
X175114285Y-97554819D02*
X175114285Y-96554819D01*
X175114285Y-96554819D02*
X174733333Y-96554819D01*
X174733333Y-96554819D02*
X174638095Y-96602438D01*
X174638095Y-96602438D02*
X174590476Y-96650057D01*
X174590476Y-96650057D02*
X174542857Y-96745295D01*
X174542857Y-96745295D02*
X174542857Y-96888152D01*
X174542857Y-96888152D02*
X174590476Y-96983390D01*
X174590476Y-96983390D02*
X174638095Y-97031009D01*
X174638095Y-97031009D02*
X174733333Y-97078628D01*
X174733333Y-97078628D02*
X175114285Y-97078628D01*
X174161904Y-96650057D02*
X174114285Y-96602438D01*
X174114285Y-96602438D02*
X174019047Y-96554819D01*
X174019047Y-96554819D02*
X173780952Y-96554819D01*
X173780952Y-96554819D02*
X173685714Y-96602438D01*
X173685714Y-96602438D02*
X173638095Y-96650057D01*
X173638095Y-96650057D02*
X173590476Y-96745295D01*
X173590476Y-96745295D02*
X173590476Y-96840533D01*
X173590476Y-96840533D02*
X173638095Y-96983390D01*
X173638095Y-96983390D02*
X174209523Y-97554819D01*
X174209523Y-97554819D02*
X173590476Y-97554819D01*
X173114285Y-97554819D02*
X172923809Y-97554819D01*
X172923809Y-97554819D02*
X172828571Y-97507200D01*
X172828571Y-97507200D02*
X172780952Y-97459580D01*
X172780952Y-97459580D02*
X172685714Y-97316723D01*
X172685714Y-97316723D02*
X172638095Y-97126247D01*
X172638095Y-97126247D02*
X172638095Y-96745295D01*
X172638095Y-96745295D02*
X172685714Y-96650057D01*
X172685714Y-96650057D02*
X172733333Y-96602438D01*
X172733333Y-96602438D02*
X172828571Y-96554819D01*
X172828571Y-96554819D02*
X173019047Y-96554819D01*
X173019047Y-96554819D02*
X173114285Y-96602438D01*
X173114285Y-96602438D02*
X173161904Y-96650057D01*
X173161904Y-96650057D02*
X173209523Y-96745295D01*
X173209523Y-96745295D02*
X173209523Y-96983390D01*
X173209523Y-96983390D02*
X173161904Y-97078628D01*
X173161904Y-97078628D02*
X173114285Y-97126247D01*
X173114285Y-97126247D02*
X173019047Y-97173866D01*
X173019047Y-97173866D02*
X172828571Y-97173866D01*
X172828571Y-97173866D02*
X172733333Y-97126247D01*
X172733333Y-97126247D02*
X172685714Y-97078628D01*
X172685714Y-97078628D02*
X172638095Y-96983390D01*
X150454819Y-90285714D02*
X149454819Y-90285714D01*
X149454819Y-90285714D02*
X149454819Y-90523809D01*
X149454819Y-90523809D02*
X149502438Y-90666666D01*
X149502438Y-90666666D02*
X149597676Y-90761904D01*
X149597676Y-90761904D02*
X149692914Y-90809523D01*
X149692914Y-90809523D02*
X149883390Y-90857142D01*
X149883390Y-90857142D02*
X150026247Y-90857142D01*
X150026247Y-90857142D02*
X150216723Y-90809523D01*
X150216723Y-90809523D02*
X150311961Y-90761904D01*
X150311961Y-90761904D02*
X150407200Y-90666666D01*
X150407200Y-90666666D02*
X150454819Y-90523809D01*
X150454819Y-90523809D02*
X150454819Y-90285714D01*
X149550057Y-91238095D02*
X149502438Y-91285714D01*
X149502438Y-91285714D02*
X149454819Y-91380952D01*
X149454819Y-91380952D02*
X149454819Y-91619047D01*
X149454819Y-91619047D02*
X149502438Y-91714285D01*
X149502438Y-91714285D02*
X149550057Y-91761904D01*
X149550057Y-91761904D02*
X149645295Y-91809523D01*
X149645295Y-91809523D02*
X149740533Y-91809523D01*
X149740533Y-91809523D02*
X149883390Y-91761904D01*
X149883390Y-91761904D02*
X150454819Y-91190476D01*
X150454819Y-91190476D02*
X150454819Y-91809523D01*
X149454819Y-92428571D02*
X149454819Y-92523809D01*
X149454819Y-92523809D02*
X149502438Y-92619047D01*
X149502438Y-92619047D02*
X149550057Y-92666666D01*
X149550057Y-92666666D02*
X149645295Y-92714285D01*
X149645295Y-92714285D02*
X149835771Y-92761904D01*
X149835771Y-92761904D02*
X150073866Y-92761904D01*
X150073866Y-92761904D02*
X150264342Y-92714285D01*
X150264342Y-92714285D02*
X150359580Y-92666666D01*
X150359580Y-92666666D02*
X150407200Y-92619047D01*
X150407200Y-92619047D02*
X150454819Y-92523809D01*
X150454819Y-92523809D02*
X150454819Y-92428571D01*
X150454819Y-92428571D02*
X150407200Y-92333333D01*
X150407200Y-92333333D02*
X150359580Y-92285714D01*
X150359580Y-92285714D02*
X150264342Y-92238095D01*
X150264342Y-92238095D02*
X150073866Y-92190476D01*
X150073866Y-92190476D02*
X149835771Y-92190476D01*
X149835771Y-92190476D02*
X149645295Y-92238095D01*
X149645295Y-92238095D02*
X149550057Y-92285714D01*
X149550057Y-92285714D02*
X149502438Y-92333333D01*
X149502438Y-92333333D02*
X149454819Y-92428571D01*
X151359580Y-140257142D02*
X151407200Y-140209523D01*
X151407200Y-140209523D02*
X151454819Y-140066666D01*
X151454819Y-140066666D02*
X151454819Y-139971428D01*
X151454819Y-139971428D02*
X151407200Y-139828571D01*
X151407200Y-139828571D02*
X151311961Y-139733333D01*
X151311961Y-139733333D02*
X151216723Y-139685714D01*
X151216723Y-139685714D02*
X151026247Y-139638095D01*
X151026247Y-139638095D02*
X150883390Y-139638095D01*
X150883390Y-139638095D02*
X150692914Y-139685714D01*
X150692914Y-139685714D02*
X150597676Y-139733333D01*
X150597676Y-139733333D02*
X150502438Y-139828571D01*
X150502438Y-139828571D02*
X150454819Y-139971428D01*
X150454819Y-139971428D02*
X150454819Y-140066666D01*
X150454819Y-140066666D02*
X150502438Y-140209523D01*
X150502438Y-140209523D02*
X150550057Y-140257142D01*
X150550057Y-140638095D02*
X150502438Y-140685714D01*
X150502438Y-140685714D02*
X150454819Y-140780952D01*
X150454819Y-140780952D02*
X150454819Y-141019047D01*
X150454819Y-141019047D02*
X150502438Y-141114285D01*
X150502438Y-141114285D02*
X150550057Y-141161904D01*
X150550057Y-141161904D02*
X150645295Y-141209523D01*
X150645295Y-141209523D02*
X150740533Y-141209523D01*
X150740533Y-141209523D02*
X150883390Y-141161904D01*
X150883390Y-141161904D02*
X151454819Y-140590476D01*
X151454819Y-140590476D02*
X151454819Y-141209523D01*
X151454819Y-141685714D02*
X151454819Y-141876190D01*
X151454819Y-141876190D02*
X151407200Y-141971428D01*
X151407200Y-141971428D02*
X151359580Y-142019047D01*
X151359580Y-142019047D02*
X151216723Y-142114285D01*
X151216723Y-142114285D02*
X151026247Y-142161904D01*
X151026247Y-142161904D02*
X150645295Y-142161904D01*
X150645295Y-142161904D02*
X150550057Y-142114285D01*
X150550057Y-142114285D02*
X150502438Y-142066666D01*
X150502438Y-142066666D02*
X150454819Y-141971428D01*
X150454819Y-141971428D02*
X150454819Y-141780952D01*
X150454819Y-141780952D02*
X150502438Y-141685714D01*
X150502438Y-141685714D02*
X150550057Y-141638095D01*
X150550057Y-141638095D02*
X150645295Y-141590476D01*
X150645295Y-141590476D02*
X150883390Y-141590476D01*
X150883390Y-141590476D02*
X150978628Y-141638095D01*
X150978628Y-141638095D02*
X151026247Y-141685714D01*
X151026247Y-141685714D02*
X151073866Y-141780952D01*
X151073866Y-141780952D02*
X151073866Y-141971428D01*
X151073866Y-141971428D02*
X151026247Y-142066666D01*
X151026247Y-142066666D02*
X150978628Y-142114285D01*
X150978628Y-142114285D02*
X150883390Y-142161904D01*
X114042857Y-82424819D02*
X114376190Y-81948628D01*
X114614285Y-82424819D02*
X114614285Y-81424819D01*
X114614285Y-81424819D02*
X114233333Y-81424819D01*
X114233333Y-81424819D02*
X114138095Y-81472438D01*
X114138095Y-81472438D02*
X114090476Y-81520057D01*
X114090476Y-81520057D02*
X114042857Y-81615295D01*
X114042857Y-81615295D02*
X114042857Y-81758152D01*
X114042857Y-81758152D02*
X114090476Y-81853390D01*
X114090476Y-81853390D02*
X114138095Y-81901009D01*
X114138095Y-81901009D02*
X114233333Y-81948628D01*
X114233333Y-81948628D02*
X114614285Y-81948628D01*
X113661904Y-81520057D02*
X113614285Y-81472438D01*
X113614285Y-81472438D02*
X113519047Y-81424819D01*
X113519047Y-81424819D02*
X113280952Y-81424819D01*
X113280952Y-81424819D02*
X113185714Y-81472438D01*
X113185714Y-81472438D02*
X113138095Y-81520057D01*
X113138095Y-81520057D02*
X113090476Y-81615295D01*
X113090476Y-81615295D02*
X113090476Y-81710533D01*
X113090476Y-81710533D02*
X113138095Y-81853390D01*
X113138095Y-81853390D02*
X113709523Y-82424819D01*
X113709523Y-82424819D02*
X113090476Y-82424819D01*
X112138095Y-82424819D02*
X112709523Y-82424819D01*
X112423809Y-82424819D02*
X112423809Y-81424819D01*
X112423809Y-81424819D02*
X112519047Y-81567676D01*
X112519047Y-81567676D02*
X112614285Y-81662914D01*
X112614285Y-81662914D02*
X112709523Y-81710533D01*
X90138094Y-60804819D02*
X90138094Y-61614342D01*
X90138094Y-61614342D02*
X90090475Y-61709580D01*
X90090475Y-61709580D02*
X90042856Y-61757200D01*
X90042856Y-61757200D02*
X89947618Y-61804819D01*
X89947618Y-61804819D02*
X89757142Y-61804819D01*
X89757142Y-61804819D02*
X89661904Y-61757200D01*
X89661904Y-61757200D02*
X89614285Y-61709580D01*
X89614285Y-61709580D02*
X89566666Y-61614342D01*
X89566666Y-61614342D02*
X89566666Y-60804819D01*
X89138094Y-60900057D02*
X89090475Y-60852438D01*
X89090475Y-60852438D02*
X88995237Y-60804819D01*
X88995237Y-60804819D02*
X88757142Y-60804819D01*
X88757142Y-60804819D02*
X88661904Y-60852438D01*
X88661904Y-60852438D02*
X88614285Y-60900057D01*
X88614285Y-60900057D02*
X88566666Y-60995295D01*
X88566666Y-60995295D02*
X88566666Y-61090533D01*
X88566666Y-61090533D02*
X88614285Y-61233390D01*
X88614285Y-61233390D02*
X89185713Y-61804819D01*
X89185713Y-61804819D02*
X88566666Y-61804819D01*
X87947618Y-60804819D02*
X87852380Y-60804819D01*
X87852380Y-60804819D02*
X87757142Y-60852438D01*
X87757142Y-60852438D02*
X87709523Y-60900057D01*
X87709523Y-60900057D02*
X87661904Y-60995295D01*
X87661904Y-60995295D02*
X87614285Y-61185771D01*
X87614285Y-61185771D02*
X87614285Y-61423866D01*
X87614285Y-61423866D02*
X87661904Y-61614342D01*
X87661904Y-61614342D02*
X87709523Y-61709580D01*
X87709523Y-61709580D02*
X87757142Y-61757200D01*
X87757142Y-61757200D02*
X87852380Y-61804819D01*
X87852380Y-61804819D02*
X87947618Y-61804819D01*
X87947618Y-61804819D02*
X88042856Y-61757200D01*
X88042856Y-61757200D02*
X88090475Y-61709580D01*
X88090475Y-61709580D02*
X88138094Y-61614342D01*
X88138094Y-61614342D02*
X88185713Y-61423866D01*
X88185713Y-61423866D02*
X88185713Y-61185771D01*
X88185713Y-61185771D02*
X88138094Y-60995295D01*
X88138094Y-60995295D02*
X88090475Y-60900057D01*
X88090475Y-60900057D02*
X88042856Y-60852438D01*
X88042856Y-60852438D02*
X87947618Y-60804819D01*
X172188094Y-82504819D02*
X172188094Y-83314342D01*
X172188094Y-83314342D02*
X172140475Y-83409580D01*
X172140475Y-83409580D02*
X172092856Y-83457200D01*
X172092856Y-83457200D02*
X171997618Y-83504819D01*
X171997618Y-83504819D02*
X171807142Y-83504819D01*
X171807142Y-83504819D02*
X171711904Y-83457200D01*
X171711904Y-83457200D02*
X171664285Y-83409580D01*
X171664285Y-83409580D02*
X171616666Y-83314342D01*
X171616666Y-83314342D02*
X171616666Y-82504819D01*
X170616666Y-83504819D02*
X171188094Y-83504819D01*
X170902380Y-83504819D02*
X170902380Y-82504819D01*
X170902380Y-82504819D02*
X170997618Y-82647676D01*
X170997618Y-82647676D02*
X171092856Y-82742914D01*
X171092856Y-82742914D02*
X171188094Y-82790533D01*
X169711904Y-82504819D02*
X170188094Y-82504819D01*
X170188094Y-82504819D02*
X170235713Y-82981009D01*
X170235713Y-82981009D02*
X170188094Y-82933390D01*
X170188094Y-82933390D02*
X170092856Y-82885771D01*
X170092856Y-82885771D02*
X169854761Y-82885771D01*
X169854761Y-82885771D02*
X169759523Y-82933390D01*
X169759523Y-82933390D02*
X169711904Y-82981009D01*
X169711904Y-82981009D02*
X169664285Y-83076247D01*
X169664285Y-83076247D02*
X169664285Y-83314342D01*
X169664285Y-83314342D02*
X169711904Y-83409580D01*
X169711904Y-83409580D02*
X169759523Y-83457200D01*
X169759523Y-83457200D02*
X169854761Y-83504819D01*
X169854761Y-83504819D02*
X170092856Y-83504819D01*
X170092856Y-83504819D02*
X170188094Y-83457200D01*
X170188094Y-83457200D02*
X170235713Y-83409580D01*
X159659580Y-88332142D02*
X159707200Y-88284523D01*
X159707200Y-88284523D02*
X159754819Y-88141666D01*
X159754819Y-88141666D02*
X159754819Y-88046428D01*
X159754819Y-88046428D02*
X159707200Y-87903571D01*
X159707200Y-87903571D02*
X159611961Y-87808333D01*
X159611961Y-87808333D02*
X159516723Y-87760714D01*
X159516723Y-87760714D02*
X159326247Y-87713095D01*
X159326247Y-87713095D02*
X159183390Y-87713095D01*
X159183390Y-87713095D02*
X158992914Y-87760714D01*
X158992914Y-87760714D02*
X158897676Y-87808333D01*
X158897676Y-87808333D02*
X158802438Y-87903571D01*
X158802438Y-87903571D02*
X158754819Y-88046428D01*
X158754819Y-88046428D02*
X158754819Y-88141666D01*
X158754819Y-88141666D02*
X158802438Y-88284523D01*
X158802438Y-88284523D02*
X158850057Y-88332142D01*
X158754819Y-89236904D02*
X158754819Y-88760714D01*
X158754819Y-88760714D02*
X159231009Y-88713095D01*
X159231009Y-88713095D02*
X159183390Y-88760714D01*
X159183390Y-88760714D02*
X159135771Y-88855952D01*
X159135771Y-88855952D02*
X159135771Y-89094047D01*
X159135771Y-89094047D02*
X159183390Y-89189285D01*
X159183390Y-89189285D02*
X159231009Y-89236904D01*
X159231009Y-89236904D02*
X159326247Y-89284523D01*
X159326247Y-89284523D02*
X159564342Y-89284523D01*
X159564342Y-89284523D02*
X159659580Y-89236904D01*
X159659580Y-89236904D02*
X159707200Y-89189285D01*
X159707200Y-89189285D02*
X159754819Y-89094047D01*
X159754819Y-89094047D02*
X159754819Y-88855952D01*
X159754819Y-88855952D02*
X159707200Y-88760714D01*
X159707200Y-88760714D02*
X159659580Y-88713095D01*
X158754819Y-89617857D02*
X158754819Y-90284523D01*
X158754819Y-90284523D02*
X159754819Y-89855952D01*
X152199580Y-72157142D02*
X152247200Y-72109523D01*
X152247200Y-72109523D02*
X152294819Y-71966666D01*
X152294819Y-71966666D02*
X152294819Y-71871428D01*
X152294819Y-71871428D02*
X152247200Y-71728571D01*
X152247200Y-71728571D02*
X152151961Y-71633333D01*
X152151961Y-71633333D02*
X152056723Y-71585714D01*
X152056723Y-71585714D02*
X151866247Y-71538095D01*
X151866247Y-71538095D02*
X151723390Y-71538095D01*
X151723390Y-71538095D02*
X151532914Y-71585714D01*
X151532914Y-71585714D02*
X151437676Y-71633333D01*
X151437676Y-71633333D02*
X151342438Y-71728571D01*
X151342438Y-71728571D02*
X151294819Y-71871428D01*
X151294819Y-71871428D02*
X151294819Y-71966666D01*
X151294819Y-71966666D02*
X151342438Y-72109523D01*
X151342438Y-72109523D02*
X151390057Y-72157142D01*
X151294819Y-72490476D02*
X151294819Y-73157142D01*
X151294819Y-73157142D02*
X152294819Y-72728571D01*
X152294819Y-74061904D02*
X152294819Y-73490476D01*
X152294819Y-73776190D02*
X151294819Y-73776190D01*
X151294819Y-73776190D02*
X151437676Y-73680952D01*
X151437676Y-73680952D02*
X151532914Y-73585714D01*
X151532914Y-73585714D02*
X151580533Y-73490476D01*
X167859580Y-82107142D02*
X167907200Y-82059523D01*
X167907200Y-82059523D02*
X167954819Y-81916666D01*
X167954819Y-81916666D02*
X167954819Y-81821428D01*
X167954819Y-81821428D02*
X167907200Y-81678571D01*
X167907200Y-81678571D02*
X167811961Y-81583333D01*
X167811961Y-81583333D02*
X167716723Y-81535714D01*
X167716723Y-81535714D02*
X167526247Y-81488095D01*
X167526247Y-81488095D02*
X167383390Y-81488095D01*
X167383390Y-81488095D02*
X167192914Y-81535714D01*
X167192914Y-81535714D02*
X167097676Y-81583333D01*
X167097676Y-81583333D02*
X167002438Y-81678571D01*
X167002438Y-81678571D02*
X166954819Y-81821428D01*
X166954819Y-81821428D02*
X166954819Y-81916666D01*
X166954819Y-81916666D02*
X167002438Y-82059523D01*
X167002438Y-82059523D02*
X167050057Y-82107142D01*
X167288152Y-82964285D02*
X167954819Y-82964285D01*
X166907200Y-82726190D02*
X167621485Y-82488095D01*
X167621485Y-82488095D02*
X167621485Y-83107142D01*
X166954819Y-83392857D02*
X166954819Y-84011904D01*
X166954819Y-84011904D02*
X167335771Y-83678571D01*
X167335771Y-83678571D02*
X167335771Y-83821428D01*
X167335771Y-83821428D02*
X167383390Y-83916666D01*
X167383390Y-83916666D02*
X167431009Y-83964285D01*
X167431009Y-83964285D02*
X167526247Y-84011904D01*
X167526247Y-84011904D02*
X167764342Y-84011904D01*
X167764342Y-84011904D02*
X167859580Y-83964285D01*
X167859580Y-83964285D02*
X167907200Y-83916666D01*
X167907200Y-83916666D02*
X167954819Y-83821428D01*
X167954819Y-83821428D02*
X167954819Y-83535714D01*
X167954819Y-83535714D02*
X167907200Y-83440476D01*
X167907200Y-83440476D02*
X167859580Y-83392857D01*
X107392857Y-98204819D02*
X107726190Y-97728628D01*
X107964285Y-98204819D02*
X107964285Y-97204819D01*
X107964285Y-97204819D02*
X107583333Y-97204819D01*
X107583333Y-97204819D02*
X107488095Y-97252438D01*
X107488095Y-97252438D02*
X107440476Y-97300057D01*
X107440476Y-97300057D02*
X107392857Y-97395295D01*
X107392857Y-97395295D02*
X107392857Y-97538152D01*
X107392857Y-97538152D02*
X107440476Y-97633390D01*
X107440476Y-97633390D02*
X107488095Y-97681009D01*
X107488095Y-97681009D02*
X107583333Y-97728628D01*
X107583333Y-97728628D02*
X107964285Y-97728628D01*
X107011904Y-97300057D02*
X106964285Y-97252438D01*
X106964285Y-97252438D02*
X106869047Y-97204819D01*
X106869047Y-97204819D02*
X106630952Y-97204819D01*
X106630952Y-97204819D02*
X106535714Y-97252438D01*
X106535714Y-97252438D02*
X106488095Y-97300057D01*
X106488095Y-97300057D02*
X106440476Y-97395295D01*
X106440476Y-97395295D02*
X106440476Y-97490533D01*
X106440476Y-97490533D02*
X106488095Y-97633390D01*
X106488095Y-97633390D02*
X107059523Y-98204819D01*
X107059523Y-98204819D02*
X106440476Y-98204819D01*
X106059523Y-97300057D02*
X106011904Y-97252438D01*
X106011904Y-97252438D02*
X105916666Y-97204819D01*
X105916666Y-97204819D02*
X105678571Y-97204819D01*
X105678571Y-97204819D02*
X105583333Y-97252438D01*
X105583333Y-97252438D02*
X105535714Y-97300057D01*
X105535714Y-97300057D02*
X105488095Y-97395295D01*
X105488095Y-97395295D02*
X105488095Y-97490533D01*
X105488095Y-97490533D02*
X105535714Y-97633390D01*
X105535714Y-97633390D02*
X106107142Y-98204819D01*
X106107142Y-98204819D02*
X105488095Y-98204819D01*
X127954819Y-95322494D02*
X126954819Y-95322494D01*
X126954819Y-95322494D02*
X126954819Y-95560589D01*
X126954819Y-95560589D02*
X127002438Y-95703446D01*
X127002438Y-95703446D02*
X127097676Y-95798684D01*
X127097676Y-95798684D02*
X127192914Y-95846303D01*
X127192914Y-95846303D02*
X127383390Y-95893922D01*
X127383390Y-95893922D02*
X127526247Y-95893922D01*
X127526247Y-95893922D02*
X127716723Y-95846303D01*
X127716723Y-95846303D02*
X127811961Y-95798684D01*
X127811961Y-95798684D02*
X127907200Y-95703446D01*
X127907200Y-95703446D02*
X127954819Y-95560589D01*
X127954819Y-95560589D02*
X127954819Y-95322494D01*
X127954819Y-96370113D02*
X127954819Y-96560589D01*
X127954819Y-96560589D02*
X127907200Y-96655827D01*
X127907200Y-96655827D02*
X127859580Y-96703446D01*
X127859580Y-96703446D02*
X127716723Y-96798684D01*
X127716723Y-96798684D02*
X127526247Y-96846303D01*
X127526247Y-96846303D02*
X127145295Y-96846303D01*
X127145295Y-96846303D02*
X127050057Y-96798684D01*
X127050057Y-96798684D02*
X127002438Y-96751065D01*
X127002438Y-96751065D02*
X126954819Y-96655827D01*
X126954819Y-96655827D02*
X126954819Y-96465351D01*
X126954819Y-96465351D02*
X127002438Y-96370113D01*
X127002438Y-96370113D02*
X127050057Y-96322494D01*
X127050057Y-96322494D02*
X127145295Y-96274875D01*
X127145295Y-96274875D02*
X127383390Y-96274875D01*
X127383390Y-96274875D02*
X127478628Y-96322494D01*
X127478628Y-96322494D02*
X127526247Y-96370113D01*
X127526247Y-96370113D02*
X127573866Y-96465351D01*
X127573866Y-96465351D02*
X127573866Y-96655827D01*
X127573866Y-96655827D02*
X127526247Y-96751065D01*
X127526247Y-96751065D02*
X127478628Y-96798684D01*
X127478628Y-96798684D02*
X127383390Y-96846303D01*
X152399580Y-93357142D02*
X152447200Y-93309523D01*
X152447200Y-93309523D02*
X152494819Y-93166666D01*
X152494819Y-93166666D02*
X152494819Y-93071428D01*
X152494819Y-93071428D02*
X152447200Y-92928571D01*
X152447200Y-92928571D02*
X152351961Y-92833333D01*
X152351961Y-92833333D02*
X152256723Y-92785714D01*
X152256723Y-92785714D02*
X152066247Y-92738095D01*
X152066247Y-92738095D02*
X151923390Y-92738095D01*
X151923390Y-92738095D02*
X151732914Y-92785714D01*
X151732914Y-92785714D02*
X151637676Y-92833333D01*
X151637676Y-92833333D02*
X151542438Y-92928571D01*
X151542438Y-92928571D02*
X151494819Y-93071428D01*
X151494819Y-93071428D02*
X151494819Y-93166666D01*
X151494819Y-93166666D02*
X151542438Y-93309523D01*
X151542438Y-93309523D02*
X151590057Y-93357142D01*
X151494819Y-93690476D02*
X151494819Y-94357142D01*
X151494819Y-94357142D02*
X152494819Y-93928571D01*
X151494819Y-94928571D02*
X151494819Y-95023809D01*
X151494819Y-95023809D02*
X151542438Y-95119047D01*
X151542438Y-95119047D02*
X151590057Y-95166666D01*
X151590057Y-95166666D02*
X151685295Y-95214285D01*
X151685295Y-95214285D02*
X151875771Y-95261904D01*
X151875771Y-95261904D02*
X152113866Y-95261904D01*
X152113866Y-95261904D02*
X152304342Y-95214285D01*
X152304342Y-95214285D02*
X152399580Y-95166666D01*
X152399580Y-95166666D02*
X152447200Y-95119047D01*
X152447200Y-95119047D02*
X152494819Y-95023809D01*
X152494819Y-95023809D02*
X152494819Y-94928571D01*
X152494819Y-94928571D02*
X152447200Y-94833333D01*
X152447200Y-94833333D02*
X152399580Y-94785714D01*
X152399580Y-94785714D02*
X152304342Y-94738095D01*
X152304342Y-94738095D02*
X152113866Y-94690476D01*
X152113866Y-94690476D02*
X151875771Y-94690476D01*
X151875771Y-94690476D02*
X151685295Y-94738095D01*
X151685295Y-94738095D02*
X151590057Y-94785714D01*
X151590057Y-94785714D02*
X151542438Y-94833333D01*
X151542438Y-94833333D02*
X151494819Y-94928571D01*
X109214285Y-83454819D02*
X109214285Y-82454819D01*
X109214285Y-82454819D02*
X108976190Y-82454819D01*
X108976190Y-82454819D02*
X108833333Y-82502438D01*
X108833333Y-82502438D02*
X108738095Y-82597676D01*
X108738095Y-82597676D02*
X108690476Y-82692914D01*
X108690476Y-82692914D02*
X108642857Y-82883390D01*
X108642857Y-82883390D02*
X108642857Y-83026247D01*
X108642857Y-83026247D02*
X108690476Y-83216723D01*
X108690476Y-83216723D02*
X108738095Y-83311961D01*
X108738095Y-83311961D02*
X108833333Y-83407200D01*
X108833333Y-83407200D02*
X108976190Y-83454819D01*
X108976190Y-83454819D02*
X109214285Y-83454819D01*
X108261904Y-82550057D02*
X108214285Y-82502438D01*
X108214285Y-82502438D02*
X108119047Y-82454819D01*
X108119047Y-82454819D02*
X107880952Y-82454819D01*
X107880952Y-82454819D02*
X107785714Y-82502438D01*
X107785714Y-82502438D02*
X107738095Y-82550057D01*
X107738095Y-82550057D02*
X107690476Y-82645295D01*
X107690476Y-82645295D02*
X107690476Y-82740533D01*
X107690476Y-82740533D02*
X107738095Y-82883390D01*
X107738095Y-82883390D02*
X108309523Y-83454819D01*
X108309523Y-83454819D02*
X107690476Y-83454819D01*
X107357142Y-82454819D02*
X106738095Y-82454819D01*
X106738095Y-82454819D02*
X107071428Y-82835771D01*
X107071428Y-82835771D02*
X106928571Y-82835771D01*
X106928571Y-82835771D02*
X106833333Y-82883390D01*
X106833333Y-82883390D02*
X106785714Y-82931009D01*
X106785714Y-82931009D02*
X106738095Y-83026247D01*
X106738095Y-83026247D02*
X106738095Y-83264342D01*
X106738095Y-83264342D02*
X106785714Y-83359580D01*
X106785714Y-83359580D02*
X106833333Y-83407200D01*
X106833333Y-83407200D02*
X106928571Y-83454819D01*
X106928571Y-83454819D02*
X107214285Y-83454819D01*
X107214285Y-83454819D02*
X107309523Y-83407200D01*
X107309523Y-83407200D02*
X107357142Y-83359580D01*
X149109580Y-95277142D02*
X149157200Y-95229523D01*
X149157200Y-95229523D02*
X149204819Y-95086666D01*
X149204819Y-95086666D02*
X149204819Y-94991428D01*
X149204819Y-94991428D02*
X149157200Y-94848571D01*
X149157200Y-94848571D02*
X149061961Y-94753333D01*
X149061961Y-94753333D02*
X148966723Y-94705714D01*
X148966723Y-94705714D02*
X148776247Y-94658095D01*
X148776247Y-94658095D02*
X148633390Y-94658095D01*
X148633390Y-94658095D02*
X148442914Y-94705714D01*
X148442914Y-94705714D02*
X148347676Y-94753333D01*
X148347676Y-94753333D02*
X148252438Y-94848571D01*
X148252438Y-94848571D02*
X148204819Y-94991428D01*
X148204819Y-94991428D02*
X148204819Y-95086666D01*
X148204819Y-95086666D02*
X148252438Y-95229523D01*
X148252438Y-95229523D02*
X148300057Y-95277142D01*
X149204819Y-96229523D02*
X149204819Y-95658095D01*
X149204819Y-95943809D02*
X148204819Y-95943809D01*
X148204819Y-95943809D02*
X148347676Y-95848571D01*
X148347676Y-95848571D02*
X148442914Y-95753333D01*
X148442914Y-95753333D02*
X148490533Y-95658095D01*
X148204819Y-96562857D02*
X148204819Y-97181904D01*
X148204819Y-97181904D02*
X148585771Y-96848571D01*
X148585771Y-96848571D02*
X148585771Y-96991428D01*
X148585771Y-96991428D02*
X148633390Y-97086666D01*
X148633390Y-97086666D02*
X148681009Y-97134285D01*
X148681009Y-97134285D02*
X148776247Y-97181904D01*
X148776247Y-97181904D02*
X149014342Y-97181904D01*
X149014342Y-97181904D02*
X149109580Y-97134285D01*
X149109580Y-97134285D02*
X149157200Y-97086666D01*
X149157200Y-97086666D02*
X149204819Y-96991428D01*
X149204819Y-96991428D02*
X149204819Y-96705714D01*
X149204819Y-96705714D02*
X149157200Y-96610476D01*
X149157200Y-96610476D02*
X149109580Y-96562857D01*
X127742857Y-66659580D02*
X127790476Y-66707200D01*
X127790476Y-66707200D02*
X127933333Y-66754819D01*
X127933333Y-66754819D02*
X128028571Y-66754819D01*
X128028571Y-66754819D02*
X128171428Y-66707200D01*
X128171428Y-66707200D02*
X128266666Y-66611961D01*
X128266666Y-66611961D02*
X128314285Y-66516723D01*
X128314285Y-66516723D02*
X128361904Y-66326247D01*
X128361904Y-66326247D02*
X128361904Y-66183390D01*
X128361904Y-66183390D02*
X128314285Y-65992914D01*
X128314285Y-65992914D02*
X128266666Y-65897676D01*
X128266666Y-65897676D02*
X128171428Y-65802438D01*
X128171428Y-65802438D02*
X128028571Y-65754819D01*
X128028571Y-65754819D02*
X127933333Y-65754819D01*
X127933333Y-65754819D02*
X127790476Y-65802438D01*
X127790476Y-65802438D02*
X127742857Y-65850057D01*
X126885714Y-65754819D02*
X127076190Y-65754819D01*
X127076190Y-65754819D02*
X127171428Y-65802438D01*
X127171428Y-65802438D02*
X127219047Y-65850057D01*
X127219047Y-65850057D02*
X127314285Y-65992914D01*
X127314285Y-65992914D02*
X127361904Y-66183390D01*
X127361904Y-66183390D02*
X127361904Y-66564342D01*
X127361904Y-66564342D02*
X127314285Y-66659580D01*
X127314285Y-66659580D02*
X127266666Y-66707200D01*
X127266666Y-66707200D02*
X127171428Y-66754819D01*
X127171428Y-66754819D02*
X126980952Y-66754819D01*
X126980952Y-66754819D02*
X126885714Y-66707200D01*
X126885714Y-66707200D02*
X126838095Y-66659580D01*
X126838095Y-66659580D02*
X126790476Y-66564342D01*
X126790476Y-66564342D02*
X126790476Y-66326247D01*
X126790476Y-66326247D02*
X126838095Y-66231009D01*
X126838095Y-66231009D02*
X126885714Y-66183390D01*
X126885714Y-66183390D02*
X126980952Y-66135771D01*
X126980952Y-66135771D02*
X127171428Y-66135771D01*
X127171428Y-66135771D02*
X127266666Y-66183390D01*
X127266666Y-66183390D02*
X127314285Y-66231009D01*
X127314285Y-66231009D02*
X127361904Y-66326247D01*
X125885714Y-65754819D02*
X126361904Y-65754819D01*
X126361904Y-65754819D02*
X126409523Y-66231009D01*
X126409523Y-66231009D02*
X126361904Y-66183390D01*
X126361904Y-66183390D02*
X126266666Y-66135771D01*
X126266666Y-66135771D02*
X126028571Y-66135771D01*
X126028571Y-66135771D02*
X125933333Y-66183390D01*
X125933333Y-66183390D02*
X125885714Y-66231009D01*
X125885714Y-66231009D02*
X125838095Y-66326247D01*
X125838095Y-66326247D02*
X125838095Y-66564342D01*
X125838095Y-66564342D02*
X125885714Y-66659580D01*
X125885714Y-66659580D02*
X125933333Y-66707200D01*
X125933333Y-66707200D02*
X126028571Y-66754819D01*
X126028571Y-66754819D02*
X126266666Y-66754819D01*
X126266666Y-66754819D02*
X126361904Y-66707200D01*
X126361904Y-66707200D02*
X126409523Y-66659580D01*
X142738094Y-99054819D02*
X142738094Y-98054819D01*
X142738094Y-98054819D02*
X142499999Y-98054819D01*
X142499999Y-98054819D02*
X142357142Y-98102438D01*
X142357142Y-98102438D02*
X142261904Y-98197676D01*
X142261904Y-98197676D02*
X142214285Y-98292914D01*
X142214285Y-98292914D02*
X142166666Y-98483390D01*
X142166666Y-98483390D02*
X142166666Y-98626247D01*
X142166666Y-98626247D02*
X142214285Y-98816723D01*
X142214285Y-98816723D02*
X142261904Y-98911961D01*
X142261904Y-98911961D02*
X142357142Y-99007200D01*
X142357142Y-99007200D02*
X142499999Y-99054819D01*
X142499999Y-99054819D02*
X142738094Y-99054819D01*
X141833332Y-98054819D02*
X141166666Y-98054819D01*
X141166666Y-98054819D02*
X141595237Y-99054819D01*
X176442857Y-99754819D02*
X176776190Y-99278628D01*
X177014285Y-99754819D02*
X177014285Y-98754819D01*
X177014285Y-98754819D02*
X176633333Y-98754819D01*
X176633333Y-98754819D02*
X176538095Y-98802438D01*
X176538095Y-98802438D02*
X176490476Y-98850057D01*
X176490476Y-98850057D02*
X176442857Y-98945295D01*
X176442857Y-98945295D02*
X176442857Y-99088152D01*
X176442857Y-99088152D02*
X176490476Y-99183390D01*
X176490476Y-99183390D02*
X176538095Y-99231009D01*
X176538095Y-99231009D02*
X176633333Y-99278628D01*
X176633333Y-99278628D02*
X177014285Y-99278628D01*
X176109523Y-98754819D02*
X175490476Y-98754819D01*
X175490476Y-98754819D02*
X175823809Y-99135771D01*
X175823809Y-99135771D02*
X175680952Y-99135771D01*
X175680952Y-99135771D02*
X175585714Y-99183390D01*
X175585714Y-99183390D02*
X175538095Y-99231009D01*
X175538095Y-99231009D02*
X175490476Y-99326247D01*
X175490476Y-99326247D02*
X175490476Y-99564342D01*
X175490476Y-99564342D02*
X175538095Y-99659580D01*
X175538095Y-99659580D02*
X175585714Y-99707200D01*
X175585714Y-99707200D02*
X175680952Y-99754819D01*
X175680952Y-99754819D02*
X175966666Y-99754819D01*
X175966666Y-99754819D02*
X176061904Y-99707200D01*
X176061904Y-99707200D02*
X176109523Y-99659580D01*
X174585714Y-98754819D02*
X175061904Y-98754819D01*
X175061904Y-98754819D02*
X175109523Y-99231009D01*
X175109523Y-99231009D02*
X175061904Y-99183390D01*
X175061904Y-99183390D02*
X174966666Y-99135771D01*
X174966666Y-99135771D02*
X174728571Y-99135771D01*
X174728571Y-99135771D02*
X174633333Y-99183390D01*
X174633333Y-99183390D02*
X174585714Y-99231009D01*
X174585714Y-99231009D02*
X174538095Y-99326247D01*
X174538095Y-99326247D02*
X174538095Y-99564342D01*
X174538095Y-99564342D02*
X174585714Y-99659580D01*
X174585714Y-99659580D02*
X174633333Y-99707200D01*
X174633333Y-99707200D02*
X174728571Y-99754819D01*
X174728571Y-99754819D02*
X174966666Y-99754819D01*
X174966666Y-99754819D02*
X175061904Y-99707200D01*
X175061904Y-99707200D02*
X175109523Y-99659580D01*
X114614285Y-89654819D02*
X114614285Y-88654819D01*
X114614285Y-88654819D02*
X114376190Y-88654819D01*
X114376190Y-88654819D02*
X114233333Y-88702438D01*
X114233333Y-88702438D02*
X114138095Y-88797676D01*
X114138095Y-88797676D02*
X114090476Y-88892914D01*
X114090476Y-88892914D02*
X114042857Y-89083390D01*
X114042857Y-89083390D02*
X114042857Y-89226247D01*
X114042857Y-89226247D02*
X114090476Y-89416723D01*
X114090476Y-89416723D02*
X114138095Y-89511961D01*
X114138095Y-89511961D02*
X114233333Y-89607200D01*
X114233333Y-89607200D02*
X114376190Y-89654819D01*
X114376190Y-89654819D02*
X114614285Y-89654819D01*
X113661904Y-88750057D02*
X113614285Y-88702438D01*
X113614285Y-88702438D02*
X113519047Y-88654819D01*
X113519047Y-88654819D02*
X113280952Y-88654819D01*
X113280952Y-88654819D02*
X113185714Y-88702438D01*
X113185714Y-88702438D02*
X113138095Y-88750057D01*
X113138095Y-88750057D02*
X113090476Y-88845295D01*
X113090476Y-88845295D02*
X113090476Y-88940533D01*
X113090476Y-88940533D02*
X113138095Y-89083390D01*
X113138095Y-89083390D02*
X113709523Y-89654819D01*
X113709523Y-89654819D02*
X113090476Y-89654819D01*
X112233333Y-88988152D02*
X112233333Y-89654819D01*
X112471428Y-88607200D02*
X112709523Y-89321485D01*
X112709523Y-89321485D02*
X112090476Y-89321485D01*
X131062857Y-77959580D02*
X131110476Y-78007200D01*
X131110476Y-78007200D02*
X131253333Y-78054819D01*
X131253333Y-78054819D02*
X131348571Y-78054819D01*
X131348571Y-78054819D02*
X131491428Y-78007200D01*
X131491428Y-78007200D02*
X131586666Y-77911961D01*
X131586666Y-77911961D02*
X131634285Y-77816723D01*
X131634285Y-77816723D02*
X131681904Y-77626247D01*
X131681904Y-77626247D02*
X131681904Y-77483390D01*
X131681904Y-77483390D02*
X131634285Y-77292914D01*
X131634285Y-77292914D02*
X131586666Y-77197676D01*
X131586666Y-77197676D02*
X131491428Y-77102438D01*
X131491428Y-77102438D02*
X131348571Y-77054819D01*
X131348571Y-77054819D02*
X131253333Y-77054819D01*
X131253333Y-77054819D02*
X131110476Y-77102438D01*
X131110476Y-77102438D02*
X131062857Y-77150057D01*
X130110476Y-78054819D02*
X130681904Y-78054819D01*
X130396190Y-78054819D02*
X130396190Y-77054819D01*
X130396190Y-77054819D02*
X130491428Y-77197676D01*
X130491428Y-77197676D02*
X130586666Y-77292914D01*
X130586666Y-77292914D02*
X130681904Y-77340533D01*
X129205714Y-77054819D02*
X129681904Y-77054819D01*
X129681904Y-77054819D02*
X129729523Y-77531009D01*
X129729523Y-77531009D02*
X129681904Y-77483390D01*
X129681904Y-77483390D02*
X129586666Y-77435771D01*
X129586666Y-77435771D02*
X129348571Y-77435771D01*
X129348571Y-77435771D02*
X129253333Y-77483390D01*
X129253333Y-77483390D02*
X129205714Y-77531009D01*
X129205714Y-77531009D02*
X129158095Y-77626247D01*
X129158095Y-77626247D02*
X129158095Y-77864342D01*
X129158095Y-77864342D02*
X129205714Y-77959580D01*
X129205714Y-77959580D02*
X129253333Y-78007200D01*
X129253333Y-78007200D02*
X129348571Y-78054819D01*
X129348571Y-78054819D02*
X129586666Y-78054819D01*
X129586666Y-78054819D02*
X129681904Y-78007200D01*
X129681904Y-78007200D02*
X129729523Y-77959580D01*
X113738094Y-69654818D02*
X113738094Y-68654818D01*
X113738094Y-68654818D02*
X113499999Y-68654818D01*
X113499999Y-68654818D02*
X113357142Y-68702437D01*
X113357142Y-68702437D02*
X113261904Y-68797675D01*
X113261904Y-68797675D02*
X113214285Y-68892913D01*
X113214285Y-68892913D02*
X113166666Y-69083389D01*
X113166666Y-69083389D02*
X113166666Y-69226246D01*
X113166666Y-69226246D02*
X113214285Y-69416722D01*
X113214285Y-69416722D02*
X113261904Y-69511960D01*
X113261904Y-69511960D02*
X113357142Y-69607199D01*
X113357142Y-69607199D02*
X113499999Y-69654818D01*
X113499999Y-69654818D02*
X113738094Y-69654818D01*
X112309523Y-68654818D02*
X112499999Y-68654818D01*
X112499999Y-68654818D02*
X112595237Y-68702437D01*
X112595237Y-68702437D02*
X112642856Y-68750056D01*
X112642856Y-68750056D02*
X112738094Y-68892913D01*
X112738094Y-68892913D02*
X112785713Y-69083389D01*
X112785713Y-69083389D02*
X112785713Y-69464341D01*
X112785713Y-69464341D02*
X112738094Y-69559579D01*
X112738094Y-69559579D02*
X112690475Y-69607199D01*
X112690475Y-69607199D02*
X112595237Y-69654818D01*
X112595237Y-69654818D02*
X112404761Y-69654818D01*
X112404761Y-69654818D02*
X112309523Y-69607199D01*
X112309523Y-69607199D02*
X112261904Y-69559579D01*
X112261904Y-69559579D02*
X112214285Y-69464341D01*
X112214285Y-69464341D02*
X112214285Y-69226246D01*
X112214285Y-69226246D02*
X112261904Y-69131008D01*
X112261904Y-69131008D02*
X112309523Y-69083389D01*
X112309523Y-69083389D02*
X112404761Y-69035770D01*
X112404761Y-69035770D02*
X112595237Y-69035770D01*
X112595237Y-69035770D02*
X112690475Y-69083389D01*
X112690475Y-69083389D02*
X112738094Y-69131008D01*
X112738094Y-69131008D02*
X112785713Y-69226246D01*
X148414285Y-76254819D02*
X148414285Y-75254819D01*
X148414285Y-75254819D02*
X148176190Y-75254819D01*
X148176190Y-75254819D02*
X148033333Y-75302438D01*
X148033333Y-75302438D02*
X147938095Y-75397676D01*
X147938095Y-75397676D02*
X147890476Y-75492914D01*
X147890476Y-75492914D02*
X147842857Y-75683390D01*
X147842857Y-75683390D02*
X147842857Y-75826247D01*
X147842857Y-75826247D02*
X147890476Y-76016723D01*
X147890476Y-76016723D02*
X147938095Y-76111961D01*
X147938095Y-76111961D02*
X148033333Y-76207200D01*
X148033333Y-76207200D02*
X148176190Y-76254819D01*
X148176190Y-76254819D02*
X148414285Y-76254819D01*
X147461904Y-75350057D02*
X147414285Y-75302438D01*
X147414285Y-75302438D02*
X147319047Y-75254819D01*
X147319047Y-75254819D02*
X147080952Y-75254819D01*
X147080952Y-75254819D02*
X146985714Y-75302438D01*
X146985714Y-75302438D02*
X146938095Y-75350057D01*
X146938095Y-75350057D02*
X146890476Y-75445295D01*
X146890476Y-75445295D02*
X146890476Y-75540533D01*
X146890476Y-75540533D02*
X146938095Y-75683390D01*
X146938095Y-75683390D02*
X147509523Y-76254819D01*
X147509523Y-76254819D02*
X146890476Y-76254819D01*
X146557142Y-75254819D02*
X145890476Y-75254819D01*
X145890476Y-75254819D02*
X146319047Y-76254819D01*
X174042857Y-85869580D02*
X174090476Y-85917200D01*
X174090476Y-85917200D02*
X174233333Y-85964819D01*
X174233333Y-85964819D02*
X174328571Y-85964819D01*
X174328571Y-85964819D02*
X174471428Y-85917200D01*
X174471428Y-85917200D02*
X174566666Y-85821961D01*
X174566666Y-85821961D02*
X174614285Y-85726723D01*
X174614285Y-85726723D02*
X174661904Y-85536247D01*
X174661904Y-85536247D02*
X174661904Y-85393390D01*
X174661904Y-85393390D02*
X174614285Y-85202914D01*
X174614285Y-85202914D02*
X174566666Y-85107676D01*
X174566666Y-85107676D02*
X174471428Y-85012438D01*
X174471428Y-85012438D02*
X174328571Y-84964819D01*
X174328571Y-84964819D02*
X174233333Y-84964819D01*
X174233333Y-84964819D02*
X174090476Y-85012438D01*
X174090476Y-85012438D02*
X174042857Y-85060057D01*
X173185714Y-85298152D02*
X173185714Y-85964819D01*
X173423809Y-84917200D02*
X173661904Y-85631485D01*
X173661904Y-85631485D02*
X173042857Y-85631485D01*
X172471428Y-84964819D02*
X172376190Y-84964819D01*
X172376190Y-84964819D02*
X172280952Y-85012438D01*
X172280952Y-85012438D02*
X172233333Y-85060057D01*
X172233333Y-85060057D02*
X172185714Y-85155295D01*
X172185714Y-85155295D02*
X172138095Y-85345771D01*
X172138095Y-85345771D02*
X172138095Y-85583866D01*
X172138095Y-85583866D02*
X172185714Y-85774342D01*
X172185714Y-85774342D02*
X172233333Y-85869580D01*
X172233333Y-85869580D02*
X172280952Y-85917200D01*
X172280952Y-85917200D02*
X172376190Y-85964819D01*
X172376190Y-85964819D02*
X172471428Y-85964819D01*
X172471428Y-85964819D02*
X172566666Y-85917200D01*
X172566666Y-85917200D02*
X172614285Y-85869580D01*
X172614285Y-85869580D02*
X172661904Y-85774342D01*
X172661904Y-85774342D02*
X172709523Y-85583866D01*
X172709523Y-85583866D02*
X172709523Y-85345771D01*
X172709523Y-85345771D02*
X172661904Y-85155295D01*
X172661904Y-85155295D02*
X172614285Y-85060057D01*
X172614285Y-85060057D02*
X172566666Y-85012438D01*
X172566666Y-85012438D02*
X172471428Y-84964819D01*
X136466666Y-61359580D02*
X136514285Y-61407200D01*
X136514285Y-61407200D02*
X136657142Y-61454819D01*
X136657142Y-61454819D02*
X136752380Y-61454819D01*
X136752380Y-61454819D02*
X136895237Y-61407200D01*
X136895237Y-61407200D02*
X136990475Y-61311961D01*
X136990475Y-61311961D02*
X137038094Y-61216723D01*
X137038094Y-61216723D02*
X137085713Y-61026247D01*
X137085713Y-61026247D02*
X137085713Y-60883390D01*
X137085713Y-60883390D02*
X137038094Y-60692914D01*
X137038094Y-60692914D02*
X136990475Y-60597676D01*
X136990475Y-60597676D02*
X136895237Y-60502438D01*
X136895237Y-60502438D02*
X136752380Y-60454819D01*
X136752380Y-60454819D02*
X136657142Y-60454819D01*
X136657142Y-60454819D02*
X136514285Y-60502438D01*
X136514285Y-60502438D02*
X136466666Y-60550057D01*
X135895237Y-60883390D02*
X135990475Y-60835771D01*
X135990475Y-60835771D02*
X136038094Y-60788152D01*
X136038094Y-60788152D02*
X136085713Y-60692914D01*
X136085713Y-60692914D02*
X136085713Y-60645295D01*
X136085713Y-60645295D02*
X136038094Y-60550057D01*
X136038094Y-60550057D02*
X135990475Y-60502438D01*
X135990475Y-60502438D02*
X135895237Y-60454819D01*
X135895237Y-60454819D02*
X135704761Y-60454819D01*
X135704761Y-60454819D02*
X135609523Y-60502438D01*
X135609523Y-60502438D02*
X135561904Y-60550057D01*
X135561904Y-60550057D02*
X135514285Y-60645295D01*
X135514285Y-60645295D02*
X135514285Y-60692914D01*
X135514285Y-60692914D02*
X135561904Y-60788152D01*
X135561904Y-60788152D02*
X135609523Y-60835771D01*
X135609523Y-60835771D02*
X135704761Y-60883390D01*
X135704761Y-60883390D02*
X135895237Y-60883390D01*
X135895237Y-60883390D02*
X135990475Y-60931009D01*
X135990475Y-60931009D02*
X136038094Y-60978628D01*
X136038094Y-60978628D02*
X136085713Y-61073866D01*
X136085713Y-61073866D02*
X136085713Y-61264342D01*
X136085713Y-61264342D02*
X136038094Y-61359580D01*
X136038094Y-61359580D02*
X135990475Y-61407200D01*
X135990475Y-61407200D02*
X135895237Y-61454819D01*
X135895237Y-61454819D02*
X135704761Y-61454819D01*
X135704761Y-61454819D02*
X135609523Y-61407200D01*
X135609523Y-61407200D02*
X135561904Y-61359580D01*
X135561904Y-61359580D02*
X135514285Y-61264342D01*
X135514285Y-61264342D02*
X135514285Y-61073866D01*
X135514285Y-61073866D02*
X135561904Y-60978628D01*
X135561904Y-60978628D02*
X135609523Y-60931009D01*
X135609523Y-60931009D02*
X135704761Y-60883390D01*
X174362857Y-82339580D02*
X174410476Y-82387200D01*
X174410476Y-82387200D02*
X174553333Y-82434819D01*
X174553333Y-82434819D02*
X174648571Y-82434819D01*
X174648571Y-82434819D02*
X174791428Y-82387200D01*
X174791428Y-82387200D02*
X174886666Y-82291961D01*
X174886666Y-82291961D02*
X174934285Y-82196723D01*
X174934285Y-82196723D02*
X174981904Y-82006247D01*
X174981904Y-82006247D02*
X174981904Y-81863390D01*
X174981904Y-81863390D02*
X174934285Y-81672914D01*
X174934285Y-81672914D02*
X174886666Y-81577676D01*
X174886666Y-81577676D02*
X174791428Y-81482438D01*
X174791428Y-81482438D02*
X174648571Y-81434819D01*
X174648571Y-81434819D02*
X174553333Y-81434819D01*
X174553333Y-81434819D02*
X174410476Y-81482438D01*
X174410476Y-81482438D02*
X174362857Y-81530057D01*
X173505714Y-81768152D02*
X173505714Y-82434819D01*
X173743809Y-81387200D02*
X173981904Y-82101485D01*
X173981904Y-82101485D02*
X173362857Y-82101485D01*
X172458095Y-82434819D02*
X173029523Y-82434819D01*
X172743809Y-82434819D02*
X172743809Y-81434819D01*
X172743809Y-81434819D02*
X172839047Y-81577676D01*
X172839047Y-81577676D02*
X172934285Y-81672914D01*
X172934285Y-81672914D02*
X173029523Y-81720533D01*
X139042857Y-63854819D02*
X139376190Y-63378628D01*
X139614285Y-63854819D02*
X139614285Y-62854819D01*
X139614285Y-62854819D02*
X139233333Y-62854819D01*
X139233333Y-62854819D02*
X139138095Y-62902438D01*
X139138095Y-62902438D02*
X139090476Y-62950057D01*
X139090476Y-62950057D02*
X139042857Y-63045295D01*
X139042857Y-63045295D02*
X139042857Y-63188152D01*
X139042857Y-63188152D02*
X139090476Y-63283390D01*
X139090476Y-63283390D02*
X139138095Y-63331009D01*
X139138095Y-63331009D02*
X139233333Y-63378628D01*
X139233333Y-63378628D02*
X139614285Y-63378628D01*
X138709523Y-62854819D02*
X138090476Y-62854819D01*
X138090476Y-62854819D02*
X138423809Y-63235771D01*
X138423809Y-63235771D02*
X138280952Y-63235771D01*
X138280952Y-63235771D02*
X138185714Y-63283390D01*
X138185714Y-63283390D02*
X138138095Y-63331009D01*
X138138095Y-63331009D02*
X138090476Y-63426247D01*
X138090476Y-63426247D02*
X138090476Y-63664342D01*
X138090476Y-63664342D02*
X138138095Y-63759580D01*
X138138095Y-63759580D02*
X138185714Y-63807200D01*
X138185714Y-63807200D02*
X138280952Y-63854819D01*
X138280952Y-63854819D02*
X138566666Y-63854819D01*
X138566666Y-63854819D02*
X138661904Y-63807200D01*
X138661904Y-63807200D02*
X138709523Y-63759580D01*
X137471428Y-62854819D02*
X137376190Y-62854819D01*
X137376190Y-62854819D02*
X137280952Y-62902438D01*
X137280952Y-62902438D02*
X137233333Y-62950057D01*
X137233333Y-62950057D02*
X137185714Y-63045295D01*
X137185714Y-63045295D02*
X137138095Y-63235771D01*
X137138095Y-63235771D02*
X137138095Y-63473866D01*
X137138095Y-63473866D02*
X137185714Y-63664342D01*
X137185714Y-63664342D02*
X137233333Y-63759580D01*
X137233333Y-63759580D02*
X137280952Y-63807200D01*
X137280952Y-63807200D02*
X137376190Y-63854819D01*
X137376190Y-63854819D02*
X137471428Y-63854819D01*
X137471428Y-63854819D02*
X137566666Y-63807200D01*
X137566666Y-63807200D02*
X137614285Y-63759580D01*
X137614285Y-63759580D02*
X137661904Y-63664342D01*
X137661904Y-63664342D02*
X137709523Y-63473866D01*
X137709523Y-63473866D02*
X137709523Y-63235771D01*
X137709523Y-63235771D02*
X137661904Y-63045295D01*
X137661904Y-63045295D02*
X137614285Y-62950057D01*
X137614285Y-62950057D02*
X137566666Y-62902438D01*
X137566666Y-62902438D02*
X137471428Y-62854819D01*
X108292857Y-78854819D02*
X108626190Y-78378628D01*
X108864285Y-78854819D02*
X108864285Y-77854819D01*
X108864285Y-77854819D02*
X108483333Y-77854819D01*
X108483333Y-77854819D02*
X108388095Y-77902438D01*
X108388095Y-77902438D02*
X108340476Y-77950057D01*
X108340476Y-77950057D02*
X108292857Y-78045295D01*
X108292857Y-78045295D02*
X108292857Y-78188152D01*
X108292857Y-78188152D02*
X108340476Y-78283390D01*
X108340476Y-78283390D02*
X108388095Y-78331009D01*
X108388095Y-78331009D02*
X108483333Y-78378628D01*
X108483333Y-78378628D02*
X108864285Y-78378628D01*
X107435714Y-78188152D02*
X107435714Y-78854819D01*
X107673809Y-77807200D02*
X107911904Y-78521485D01*
X107911904Y-78521485D02*
X107292857Y-78521485D01*
X106721428Y-77854819D02*
X106626190Y-77854819D01*
X106626190Y-77854819D02*
X106530952Y-77902438D01*
X106530952Y-77902438D02*
X106483333Y-77950057D01*
X106483333Y-77950057D02*
X106435714Y-78045295D01*
X106435714Y-78045295D02*
X106388095Y-78235771D01*
X106388095Y-78235771D02*
X106388095Y-78473866D01*
X106388095Y-78473866D02*
X106435714Y-78664342D01*
X106435714Y-78664342D02*
X106483333Y-78759580D01*
X106483333Y-78759580D02*
X106530952Y-78807200D01*
X106530952Y-78807200D02*
X106626190Y-78854819D01*
X106626190Y-78854819D02*
X106721428Y-78854819D01*
X106721428Y-78854819D02*
X106816666Y-78807200D01*
X106816666Y-78807200D02*
X106864285Y-78759580D01*
X106864285Y-78759580D02*
X106911904Y-78664342D01*
X106911904Y-78664342D02*
X106959523Y-78473866D01*
X106959523Y-78473866D02*
X106959523Y-78235771D01*
X106959523Y-78235771D02*
X106911904Y-78045295D01*
X106911904Y-78045295D02*
X106864285Y-77950057D01*
X106864285Y-77950057D02*
X106816666Y-77902438D01*
X106816666Y-77902438D02*
X106721428Y-77854819D01*
X132476666Y-93104819D02*
X132809999Y-92628628D01*
X133048094Y-93104819D02*
X133048094Y-92104819D01*
X133048094Y-92104819D02*
X132667142Y-92104819D01*
X132667142Y-92104819D02*
X132571904Y-92152438D01*
X132571904Y-92152438D02*
X132524285Y-92200057D01*
X132524285Y-92200057D02*
X132476666Y-92295295D01*
X132476666Y-92295295D02*
X132476666Y-92438152D01*
X132476666Y-92438152D02*
X132524285Y-92533390D01*
X132524285Y-92533390D02*
X132571904Y-92581009D01*
X132571904Y-92581009D02*
X132667142Y-92628628D01*
X132667142Y-92628628D02*
X133048094Y-92628628D01*
X131619523Y-92438152D02*
X131619523Y-93104819D01*
X131857618Y-92057200D02*
X132095713Y-92771485D01*
X132095713Y-92771485D02*
X131476666Y-92771485D01*
X137238094Y-92484819D02*
X137238094Y-93294342D01*
X137238094Y-93294342D02*
X137190475Y-93389580D01*
X137190475Y-93389580D02*
X137142856Y-93437200D01*
X137142856Y-93437200D02*
X137047618Y-93484819D01*
X137047618Y-93484819D02*
X136857142Y-93484819D01*
X136857142Y-93484819D02*
X136761904Y-93437200D01*
X136761904Y-93437200D02*
X136714285Y-93389580D01*
X136714285Y-93389580D02*
X136666666Y-93294342D01*
X136666666Y-93294342D02*
X136666666Y-92484819D01*
X135666666Y-93484819D02*
X136238094Y-93484819D01*
X135952380Y-93484819D02*
X135952380Y-92484819D01*
X135952380Y-92484819D02*
X136047618Y-92627676D01*
X136047618Y-92627676D02*
X136142856Y-92722914D01*
X136142856Y-92722914D02*
X136238094Y-92770533D01*
X134809523Y-92484819D02*
X134999999Y-92484819D01*
X134999999Y-92484819D02*
X135095237Y-92532438D01*
X135095237Y-92532438D02*
X135142856Y-92580057D01*
X135142856Y-92580057D02*
X135238094Y-92722914D01*
X135238094Y-92722914D02*
X135285713Y-92913390D01*
X135285713Y-92913390D02*
X135285713Y-93294342D01*
X135285713Y-93294342D02*
X135238094Y-93389580D01*
X135238094Y-93389580D02*
X135190475Y-93437200D01*
X135190475Y-93437200D02*
X135095237Y-93484819D01*
X135095237Y-93484819D02*
X134904761Y-93484819D01*
X134904761Y-93484819D02*
X134809523Y-93437200D01*
X134809523Y-93437200D02*
X134761904Y-93389580D01*
X134761904Y-93389580D02*
X134714285Y-93294342D01*
X134714285Y-93294342D02*
X134714285Y-93056247D01*
X134714285Y-93056247D02*
X134761904Y-92961009D01*
X134761904Y-92961009D02*
X134809523Y-92913390D01*
X134809523Y-92913390D02*
X134904761Y-92865771D01*
X134904761Y-92865771D02*
X135095237Y-92865771D01*
X135095237Y-92865771D02*
X135190475Y-92913390D01*
X135190475Y-92913390D02*
X135238094Y-92961009D01*
X135238094Y-92961009D02*
X135285713Y-93056247D01*
X88912857Y-77969580D02*
X88960476Y-78017200D01*
X88960476Y-78017200D02*
X89103333Y-78064819D01*
X89103333Y-78064819D02*
X89198571Y-78064819D01*
X89198571Y-78064819D02*
X89341428Y-78017200D01*
X89341428Y-78017200D02*
X89436666Y-77921961D01*
X89436666Y-77921961D02*
X89484285Y-77826723D01*
X89484285Y-77826723D02*
X89531904Y-77636247D01*
X89531904Y-77636247D02*
X89531904Y-77493390D01*
X89531904Y-77493390D02*
X89484285Y-77302914D01*
X89484285Y-77302914D02*
X89436666Y-77207676D01*
X89436666Y-77207676D02*
X89341428Y-77112438D01*
X89341428Y-77112438D02*
X89198571Y-77064819D01*
X89198571Y-77064819D02*
X89103333Y-77064819D01*
X89103333Y-77064819D02*
X88960476Y-77112438D01*
X88960476Y-77112438D02*
X88912857Y-77160057D01*
X87960476Y-78064819D02*
X88531904Y-78064819D01*
X88246190Y-78064819D02*
X88246190Y-77064819D01*
X88246190Y-77064819D02*
X88341428Y-77207676D01*
X88341428Y-77207676D02*
X88436666Y-77302914D01*
X88436666Y-77302914D02*
X88531904Y-77350533D01*
X87008095Y-78064819D02*
X87579523Y-78064819D01*
X87293809Y-78064819D02*
X87293809Y-77064819D01*
X87293809Y-77064819D02*
X87389047Y-77207676D01*
X87389047Y-77207676D02*
X87484285Y-77302914D01*
X87484285Y-77302914D02*
X87579523Y-77350533D01*
X168792857Y-85974819D02*
X169126190Y-85498628D01*
X169364285Y-85974819D02*
X169364285Y-84974819D01*
X169364285Y-84974819D02*
X168983333Y-84974819D01*
X168983333Y-84974819D02*
X168888095Y-85022438D01*
X168888095Y-85022438D02*
X168840476Y-85070057D01*
X168840476Y-85070057D02*
X168792857Y-85165295D01*
X168792857Y-85165295D02*
X168792857Y-85308152D01*
X168792857Y-85308152D02*
X168840476Y-85403390D01*
X168840476Y-85403390D02*
X168888095Y-85451009D01*
X168888095Y-85451009D02*
X168983333Y-85498628D01*
X168983333Y-85498628D02*
X169364285Y-85498628D01*
X168411904Y-85070057D02*
X168364285Y-85022438D01*
X168364285Y-85022438D02*
X168269047Y-84974819D01*
X168269047Y-84974819D02*
X168030952Y-84974819D01*
X168030952Y-84974819D02*
X167935714Y-85022438D01*
X167935714Y-85022438D02*
X167888095Y-85070057D01*
X167888095Y-85070057D02*
X167840476Y-85165295D01*
X167840476Y-85165295D02*
X167840476Y-85260533D01*
X167840476Y-85260533D02*
X167888095Y-85403390D01*
X167888095Y-85403390D02*
X168459523Y-85974819D01*
X168459523Y-85974819D02*
X167840476Y-85974819D01*
X166935714Y-84974819D02*
X167411904Y-84974819D01*
X167411904Y-84974819D02*
X167459523Y-85451009D01*
X167459523Y-85451009D02*
X167411904Y-85403390D01*
X167411904Y-85403390D02*
X167316666Y-85355771D01*
X167316666Y-85355771D02*
X167078571Y-85355771D01*
X167078571Y-85355771D02*
X166983333Y-85403390D01*
X166983333Y-85403390D02*
X166935714Y-85451009D01*
X166935714Y-85451009D02*
X166888095Y-85546247D01*
X166888095Y-85546247D02*
X166888095Y-85784342D01*
X166888095Y-85784342D02*
X166935714Y-85879580D01*
X166935714Y-85879580D02*
X166983333Y-85927200D01*
X166983333Y-85927200D02*
X167078571Y-85974819D01*
X167078571Y-85974819D02*
X167316666Y-85974819D01*
X167316666Y-85974819D02*
X167411904Y-85927200D01*
X167411904Y-85927200D02*
X167459523Y-85879580D01*
X116626183Y-88545408D02*
X116626183Y-89354931D01*
X116626183Y-89354931D02*
X116578564Y-89450169D01*
X116578564Y-89450169D02*
X116530945Y-89497789D01*
X116530945Y-89497789D02*
X116435707Y-89545408D01*
X116435707Y-89545408D02*
X116245231Y-89545408D01*
X116245231Y-89545408D02*
X116149993Y-89497789D01*
X116149993Y-89497789D02*
X116102374Y-89450169D01*
X116102374Y-89450169D02*
X116054755Y-89354931D01*
X116054755Y-89354931D02*
X116054755Y-88545408D01*
X115054755Y-89545408D02*
X115626183Y-89545408D01*
X115340469Y-89545408D02*
X115340469Y-88545408D01*
X115340469Y-88545408D02*
X115435707Y-88688265D01*
X115435707Y-88688265D02*
X115530945Y-88783503D01*
X115530945Y-88783503D02*
X115626183Y-88831122D01*
X114102374Y-89545408D02*
X114673802Y-89545408D01*
X114388088Y-89545408D02*
X114388088Y-88545408D01*
X114388088Y-88545408D02*
X114483326Y-88688265D01*
X114483326Y-88688265D02*
X114578564Y-88783503D01*
X114578564Y-88783503D02*
X114673802Y-88831122D01*
X90199580Y-78677142D02*
X90247200Y-78629523D01*
X90247200Y-78629523D02*
X90294819Y-78486666D01*
X90294819Y-78486666D02*
X90294819Y-78391428D01*
X90294819Y-78391428D02*
X90247200Y-78248571D01*
X90247200Y-78248571D02*
X90151961Y-78153333D01*
X90151961Y-78153333D02*
X90056723Y-78105714D01*
X90056723Y-78105714D02*
X89866247Y-78058095D01*
X89866247Y-78058095D02*
X89723390Y-78058095D01*
X89723390Y-78058095D02*
X89532914Y-78105714D01*
X89532914Y-78105714D02*
X89437676Y-78153333D01*
X89437676Y-78153333D02*
X89342438Y-78248571D01*
X89342438Y-78248571D02*
X89294819Y-78391428D01*
X89294819Y-78391428D02*
X89294819Y-78486666D01*
X89294819Y-78486666D02*
X89342438Y-78629523D01*
X89342438Y-78629523D02*
X89390057Y-78677142D01*
X89628152Y-79534285D02*
X90294819Y-79534285D01*
X89247200Y-79296190D02*
X89961485Y-79058095D01*
X89961485Y-79058095D02*
X89961485Y-79677142D01*
X89294819Y-80486666D02*
X89294819Y-80296190D01*
X89294819Y-80296190D02*
X89342438Y-80200952D01*
X89342438Y-80200952D02*
X89390057Y-80153333D01*
X89390057Y-80153333D02*
X89532914Y-80058095D01*
X89532914Y-80058095D02*
X89723390Y-80010476D01*
X89723390Y-80010476D02*
X90104342Y-80010476D01*
X90104342Y-80010476D02*
X90199580Y-80058095D01*
X90199580Y-80058095D02*
X90247200Y-80105714D01*
X90247200Y-80105714D02*
X90294819Y-80200952D01*
X90294819Y-80200952D02*
X90294819Y-80391428D01*
X90294819Y-80391428D02*
X90247200Y-80486666D01*
X90247200Y-80486666D02*
X90199580Y-80534285D01*
X90199580Y-80534285D02*
X90104342Y-80581904D01*
X90104342Y-80581904D02*
X89866247Y-80581904D01*
X89866247Y-80581904D02*
X89771009Y-80534285D01*
X89771009Y-80534285D02*
X89723390Y-80486666D01*
X89723390Y-80486666D02*
X89675771Y-80391428D01*
X89675771Y-80391428D02*
X89675771Y-80200952D01*
X89675771Y-80200952D02*
X89723390Y-80105714D01*
X89723390Y-80105714D02*
X89771009Y-80058095D01*
X89771009Y-80058095D02*
X89866247Y-80010476D01*
X118766666Y-64754819D02*
X119099999Y-64278628D01*
X119338094Y-64754819D02*
X119338094Y-63754819D01*
X119338094Y-63754819D02*
X118957142Y-63754819D01*
X118957142Y-63754819D02*
X118861904Y-63802438D01*
X118861904Y-63802438D02*
X118814285Y-63850057D01*
X118814285Y-63850057D02*
X118766666Y-63945295D01*
X118766666Y-63945295D02*
X118766666Y-64088152D01*
X118766666Y-64088152D02*
X118814285Y-64183390D01*
X118814285Y-64183390D02*
X118861904Y-64231009D01*
X118861904Y-64231009D02*
X118957142Y-64278628D01*
X118957142Y-64278628D02*
X119338094Y-64278628D01*
X118433332Y-63754819D02*
X117766666Y-63754819D01*
X117766666Y-63754819D02*
X118195237Y-64754819D01*
X113019580Y-98637142D02*
X113067200Y-98589523D01*
X113067200Y-98589523D02*
X113114819Y-98446666D01*
X113114819Y-98446666D02*
X113114819Y-98351428D01*
X113114819Y-98351428D02*
X113067200Y-98208571D01*
X113067200Y-98208571D02*
X112971961Y-98113333D01*
X112971961Y-98113333D02*
X112876723Y-98065714D01*
X112876723Y-98065714D02*
X112686247Y-98018095D01*
X112686247Y-98018095D02*
X112543390Y-98018095D01*
X112543390Y-98018095D02*
X112352914Y-98065714D01*
X112352914Y-98065714D02*
X112257676Y-98113333D01*
X112257676Y-98113333D02*
X112162438Y-98208571D01*
X112162438Y-98208571D02*
X112114819Y-98351428D01*
X112114819Y-98351428D02*
X112114819Y-98446666D01*
X112114819Y-98446666D02*
X112162438Y-98589523D01*
X112162438Y-98589523D02*
X112210057Y-98637142D01*
X112114819Y-99494285D02*
X112114819Y-99303809D01*
X112114819Y-99303809D02*
X112162438Y-99208571D01*
X112162438Y-99208571D02*
X112210057Y-99160952D01*
X112210057Y-99160952D02*
X112352914Y-99065714D01*
X112352914Y-99065714D02*
X112543390Y-99018095D01*
X112543390Y-99018095D02*
X112924342Y-99018095D01*
X112924342Y-99018095D02*
X113019580Y-99065714D01*
X113019580Y-99065714D02*
X113067200Y-99113333D01*
X113067200Y-99113333D02*
X113114819Y-99208571D01*
X113114819Y-99208571D02*
X113114819Y-99399047D01*
X113114819Y-99399047D02*
X113067200Y-99494285D01*
X113067200Y-99494285D02*
X113019580Y-99541904D01*
X113019580Y-99541904D02*
X112924342Y-99589523D01*
X112924342Y-99589523D02*
X112686247Y-99589523D01*
X112686247Y-99589523D02*
X112591009Y-99541904D01*
X112591009Y-99541904D02*
X112543390Y-99494285D01*
X112543390Y-99494285D02*
X112495771Y-99399047D01*
X112495771Y-99399047D02*
X112495771Y-99208571D01*
X112495771Y-99208571D02*
X112543390Y-99113333D01*
X112543390Y-99113333D02*
X112591009Y-99065714D01*
X112591009Y-99065714D02*
X112686247Y-99018095D01*
X112448152Y-100446666D02*
X113114819Y-100446666D01*
X112067200Y-100208571D02*
X112781485Y-99970476D01*
X112781485Y-99970476D02*
X112781485Y-100589523D01*
X129916666Y-100859580D02*
X129964285Y-100907200D01*
X129964285Y-100907200D02*
X130107142Y-100954819D01*
X130107142Y-100954819D02*
X130202380Y-100954819D01*
X130202380Y-100954819D02*
X130345237Y-100907200D01*
X130345237Y-100907200D02*
X130440475Y-100811961D01*
X130440475Y-100811961D02*
X130488094Y-100716723D01*
X130488094Y-100716723D02*
X130535713Y-100526247D01*
X130535713Y-100526247D02*
X130535713Y-100383390D01*
X130535713Y-100383390D02*
X130488094Y-100192914D01*
X130488094Y-100192914D02*
X130440475Y-100097676D01*
X130440475Y-100097676D02*
X130345237Y-100002438D01*
X130345237Y-100002438D02*
X130202380Y-99954819D01*
X130202380Y-99954819D02*
X130107142Y-99954819D01*
X130107142Y-99954819D02*
X129964285Y-100002438D01*
X129964285Y-100002438D02*
X129916666Y-100050057D01*
X129583332Y-99954819D02*
X128916666Y-99954819D01*
X128916666Y-99954819D02*
X129345237Y-100954819D01*
X95842857Y-71454819D02*
X96176190Y-70978628D01*
X96414285Y-71454819D02*
X96414285Y-70454819D01*
X96414285Y-70454819D02*
X96033333Y-70454819D01*
X96033333Y-70454819D02*
X95938095Y-70502438D01*
X95938095Y-70502438D02*
X95890476Y-70550057D01*
X95890476Y-70550057D02*
X95842857Y-70645295D01*
X95842857Y-70645295D02*
X95842857Y-70788152D01*
X95842857Y-70788152D02*
X95890476Y-70883390D01*
X95890476Y-70883390D02*
X95938095Y-70931009D01*
X95938095Y-70931009D02*
X96033333Y-70978628D01*
X96033333Y-70978628D02*
X96414285Y-70978628D01*
X95461904Y-70550057D02*
X95414285Y-70502438D01*
X95414285Y-70502438D02*
X95319047Y-70454819D01*
X95319047Y-70454819D02*
X95080952Y-70454819D01*
X95080952Y-70454819D02*
X94985714Y-70502438D01*
X94985714Y-70502438D02*
X94938095Y-70550057D01*
X94938095Y-70550057D02*
X94890476Y-70645295D01*
X94890476Y-70645295D02*
X94890476Y-70740533D01*
X94890476Y-70740533D02*
X94938095Y-70883390D01*
X94938095Y-70883390D02*
X95509523Y-71454819D01*
X95509523Y-71454819D02*
X94890476Y-71454819D01*
X94557142Y-70454819D02*
X93890476Y-70454819D01*
X93890476Y-70454819D02*
X94319047Y-71454819D01*
X135254819Y-63785714D02*
X134254819Y-63785714D01*
X134254819Y-63785714D02*
X134254819Y-64023809D01*
X134254819Y-64023809D02*
X134302438Y-64166666D01*
X134302438Y-64166666D02*
X134397676Y-64261904D01*
X134397676Y-64261904D02*
X134492914Y-64309523D01*
X134492914Y-64309523D02*
X134683390Y-64357142D01*
X134683390Y-64357142D02*
X134826247Y-64357142D01*
X134826247Y-64357142D02*
X135016723Y-64309523D01*
X135016723Y-64309523D02*
X135111961Y-64261904D01*
X135111961Y-64261904D02*
X135207200Y-64166666D01*
X135207200Y-64166666D02*
X135254819Y-64023809D01*
X135254819Y-64023809D02*
X135254819Y-63785714D01*
X135254819Y-65309523D02*
X135254819Y-64738095D01*
X135254819Y-65023809D02*
X134254819Y-65023809D01*
X134254819Y-65023809D02*
X134397676Y-64928571D01*
X134397676Y-64928571D02*
X134492914Y-64833333D01*
X134492914Y-64833333D02*
X134540533Y-64738095D01*
X134588152Y-66166666D02*
X135254819Y-66166666D01*
X134207200Y-65928571D02*
X134921485Y-65690476D01*
X134921485Y-65690476D02*
X134921485Y-66309523D01*
X160392857Y-71609580D02*
X160440476Y-71657200D01*
X160440476Y-71657200D02*
X160583333Y-71704819D01*
X160583333Y-71704819D02*
X160678571Y-71704819D01*
X160678571Y-71704819D02*
X160821428Y-71657200D01*
X160821428Y-71657200D02*
X160916666Y-71561961D01*
X160916666Y-71561961D02*
X160964285Y-71466723D01*
X160964285Y-71466723D02*
X161011904Y-71276247D01*
X161011904Y-71276247D02*
X161011904Y-71133390D01*
X161011904Y-71133390D02*
X160964285Y-70942914D01*
X160964285Y-70942914D02*
X160916666Y-70847676D01*
X160916666Y-70847676D02*
X160821428Y-70752438D01*
X160821428Y-70752438D02*
X160678571Y-70704819D01*
X160678571Y-70704819D02*
X160583333Y-70704819D01*
X160583333Y-70704819D02*
X160440476Y-70752438D01*
X160440476Y-70752438D02*
X160392857Y-70800057D01*
X159488095Y-70704819D02*
X159964285Y-70704819D01*
X159964285Y-70704819D02*
X160011904Y-71181009D01*
X160011904Y-71181009D02*
X159964285Y-71133390D01*
X159964285Y-71133390D02*
X159869047Y-71085771D01*
X159869047Y-71085771D02*
X159630952Y-71085771D01*
X159630952Y-71085771D02*
X159535714Y-71133390D01*
X159535714Y-71133390D02*
X159488095Y-71181009D01*
X159488095Y-71181009D02*
X159440476Y-71276247D01*
X159440476Y-71276247D02*
X159440476Y-71514342D01*
X159440476Y-71514342D02*
X159488095Y-71609580D01*
X159488095Y-71609580D02*
X159535714Y-71657200D01*
X159535714Y-71657200D02*
X159630952Y-71704819D01*
X159630952Y-71704819D02*
X159869047Y-71704819D01*
X159869047Y-71704819D02*
X159964285Y-71657200D01*
X159964285Y-71657200D02*
X160011904Y-71609580D01*
X158535714Y-70704819D02*
X159011904Y-70704819D01*
X159011904Y-70704819D02*
X159059523Y-71181009D01*
X159059523Y-71181009D02*
X159011904Y-71133390D01*
X159011904Y-71133390D02*
X158916666Y-71085771D01*
X158916666Y-71085771D02*
X158678571Y-71085771D01*
X158678571Y-71085771D02*
X158583333Y-71133390D01*
X158583333Y-71133390D02*
X158535714Y-71181009D01*
X158535714Y-71181009D02*
X158488095Y-71276247D01*
X158488095Y-71276247D02*
X158488095Y-71514342D01*
X158488095Y-71514342D02*
X158535714Y-71609580D01*
X158535714Y-71609580D02*
X158583333Y-71657200D01*
X158583333Y-71657200D02*
X158678571Y-71704819D01*
X158678571Y-71704819D02*
X158916666Y-71704819D01*
X158916666Y-71704819D02*
X159011904Y-71657200D01*
X159011904Y-71657200D02*
X159059523Y-71609580D01*
X117642857Y-70159580D02*
X117690476Y-70207200D01*
X117690476Y-70207200D02*
X117833333Y-70254819D01*
X117833333Y-70254819D02*
X117928571Y-70254819D01*
X117928571Y-70254819D02*
X118071428Y-70207200D01*
X118071428Y-70207200D02*
X118166666Y-70111961D01*
X118166666Y-70111961D02*
X118214285Y-70016723D01*
X118214285Y-70016723D02*
X118261904Y-69826247D01*
X118261904Y-69826247D02*
X118261904Y-69683390D01*
X118261904Y-69683390D02*
X118214285Y-69492914D01*
X118214285Y-69492914D02*
X118166666Y-69397676D01*
X118166666Y-69397676D02*
X118071428Y-69302438D01*
X118071428Y-69302438D02*
X117928571Y-69254819D01*
X117928571Y-69254819D02*
X117833333Y-69254819D01*
X117833333Y-69254819D02*
X117690476Y-69302438D01*
X117690476Y-69302438D02*
X117642857Y-69350057D01*
X116690476Y-70254819D02*
X117261904Y-70254819D01*
X116976190Y-70254819D02*
X116976190Y-69254819D01*
X116976190Y-69254819D02*
X117071428Y-69397676D01*
X117071428Y-69397676D02*
X117166666Y-69492914D01*
X117166666Y-69492914D02*
X117261904Y-69540533D01*
X115833333Y-69588152D02*
X115833333Y-70254819D01*
X116071428Y-69207200D02*
X116309523Y-69921485D01*
X116309523Y-69921485D02*
X115690476Y-69921485D01*
X153254285Y-65254819D02*
X153254285Y-64254819D01*
X153254285Y-64254819D02*
X153016190Y-64254819D01*
X153016190Y-64254819D02*
X152873333Y-64302438D01*
X152873333Y-64302438D02*
X152778095Y-64397676D01*
X152778095Y-64397676D02*
X152730476Y-64492914D01*
X152730476Y-64492914D02*
X152682857Y-64683390D01*
X152682857Y-64683390D02*
X152682857Y-64826247D01*
X152682857Y-64826247D02*
X152730476Y-65016723D01*
X152730476Y-65016723D02*
X152778095Y-65111961D01*
X152778095Y-65111961D02*
X152873333Y-65207200D01*
X152873333Y-65207200D02*
X153016190Y-65254819D01*
X153016190Y-65254819D02*
X153254285Y-65254819D01*
X152301904Y-64350057D02*
X152254285Y-64302438D01*
X152254285Y-64302438D02*
X152159047Y-64254819D01*
X152159047Y-64254819D02*
X151920952Y-64254819D01*
X151920952Y-64254819D02*
X151825714Y-64302438D01*
X151825714Y-64302438D02*
X151778095Y-64350057D01*
X151778095Y-64350057D02*
X151730476Y-64445295D01*
X151730476Y-64445295D02*
X151730476Y-64540533D01*
X151730476Y-64540533D02*
X151778095Y-64683390D01*
X151778095Y-64683390D02*
X152349523Y-65254819D01*
X152349523Y-65254819D02*
X151730476Y-65254819D01*
X150778095Y-65254819D02*
X151349523Y-65254819D01*
X151063809Y-65254819D02*
X151063809Y-64254819D01*
X151063809Y-64254819D02*
X151159047Y-64397676D01*
X151159047Y-64397676D02*
X151254285Y-64492914D01*
X151254285Y-64492914D02*
X151349523Y-64540533D01*
X96204819Y-97261905D02*
X95204819Y-97261905D01*
X95204819Y-97261905D02*
X95204819Y-97500000D01*
X95204819Y-97500000D02*
X95252438Y-97642857D01*
X95252438Y-97642857D02*
X95347676Y-97738095D01*
X95347676Y-97738095D02*
X95442914Y-97785714D01*
X95442914Y-97785714D02*
X95633390Y-97833333D01*
X95633390Y-97833333D02*
X95776247Y-97833333D01*
X95776247Y-97833333D02*
X95966723Y-97785714D01*
X95966723Y-97785714D02*
X96061961Y-97738095D01*
X96061961Y-97738095D02*
X96157200Y-97642857D01*
X96157200Y-97642857D02*
X96204819Y-97500000D01*
X96204819Y-97500000D02*
X96204819Y-97261905D01*
X96204819Y-98785714D02*
X96204819Y-98214286D01*
X96204819Y-98500000D02*
X95204819Y-98500000D01*
X95204819Y-98500000D02*
X95347676Y-98404762D01*
X95347676Y-98404762D02*
X95442914Y-98309524D01*
X95442914Y-98309524D02*
X95490533Y-98214286D01*
X119204819Y-60520833D02*
X118728628Y-60187500D01*
X119204819Y-59949405D02*
X118204819Y-59949405D01*
X118204819Y-59949405D02*
X118204819Y-60330357D01*
X118204819Y-60330357D02*
X118252438Y-60425595D01*
X118252438Y-60425595D02*
X118300057Y-60473214D01*
X118300057Y-60473214D02*
X118395295Y-60520833D01*
X118395295Y-60520833D02*
X118538152Y-60520833D01*
X118538152Y-60520833D02*
X118633390Y-60473214D01*
X118633390Y-60473214D02*
X118681009Y-60425595D01*
X118681009Y-60425595D02*
X118728628Y-60330357D01*
X118728628Y-60330357D02*
X118728628Y-59949405D01*
X118204819Y-61425595D02*
X118204819Y-60949405D01*
X118204819Y-60949405D02*
X118681009Y-60901786D01*
X118681009Y-60901786D02*
X118633390Y-60949405D01*
X118633390Y-60949405D02*
X118585771Y-61044643D01*
X118585771Y-61044643D02*
X118585771Y-61282738D01*
X118585771Y-61282738D02*
X118633390Y-61377976D01*
X118633390Y-61377976D02*
X118681009Y-61425595D01*
X118681009Y-61425595D02*
X118776247Y-61473214D01*
X118776247Y-61473214D02*
X119014342Y-61473214D01*
X119014342Y-61473214D02*
X119109580Y-61425595D01*
X119109580Y-61425595D02*
X119157200Y-61377976D01*
X119157200Y-61377976D02*
X119204819Y-61282738D01*
X119204819Y-61282738D02*
X119204819Y-61044643D01*
X119204819Y-61044643D02*
X119157200Y-60949405D01*
X119157200Y-60949405D02*
X119109580Y-60901786D01*
X124614285Y-66154819D02*
X124614285Y-65154819D01*
X124614285Y-65154819D02*
X124376190Y-65154819D01*
X124376190Y-65154819D02*
X124233333Y-65202438D01*
X124233333Y-65202438D02*
X124138095Y-65297676D01*
X124138095Y-65297676D02*
X124090476Y-65392914D01*
X124090476Y-65392914D02*
X124042857Y-65583390D01*
X124042857Y-65583390D02*
X124042857Y-65726247D01*
X124042857Y-65726247D02*
X124090476Y-65916723D01*
X124090476Y-65916723D02*
X124138095Y-66011961D01*
X124138095Y-66011961D02*
X124233333Y-66107200D01*
X124233333Y-66107200D02*
X124376190Y-66154819D01*
X124376190Y-66154819D02*
X124614285Y-66154819D01*
X123090476Y-66154819D02*
X123661904Y-66154819D01*
X123376190Y-66154819D02*
X123376190Y-65154819D01*
X123376190Y-65154819D02*
X123471428Y-65297676D01*
X123471428Y-65297676D02*
X123566666Y-65392914D01*
X123566666Y-65392914D02*
X123661904Y-65440533D01*
X122471428Y-65154819D02*
X122376190Y-65154819D01*
X122376190Y-65154819D02*
X122280952Y-65202438D01*
X122280952Y-65202438D02*
X122233333Y-65250057D01*
X122233333Y-65250057D02*
X122185714Y-65345295D01*
X122185714Y-65345295D02*
X122138095Y-65535771D01*
X122138095Y-65535771D02*
X122138095Y-65773866D01*
X122138095Y-65773866D02*
X122185714Y-65964342D01*
X122185714Y-65964342D02*
X122233333Y-66059580D01*
X122233333Y-66059580D02*
X122280952Y-66107200D01*
X122280952Y-66107200D02*
X122376190Y-66154819D01*
X122376190Y-66154819D02*
X122471428Y-66154819D01*
X122471428Y-66154819D02*
X122566666Y-66107200D01*
X122566666Y-66107200D02*
X122614285Y-66059580D01*
X122614285Y-66059580D02*
X122661904Y-65964342D01*
X122661904Y-65964342D02*
X122709523Y-65773866D01*
X122709523Y-65773866D02*
X122709523Y-65535771D01*
X122709523Y-65535771D02*
X122661904Y-65345295D01*
X122661904Y-65345295D02*
X122614285Y-65250057D01*
X122614285Y-65250057D02*
X122566666Y-65202438D01*
X122566666Y-65202438D02*
X122471428Y-65154819D01*
X158254819Y-97261905D02*
X157254819Y-97261905D01*
X157254819Y-97261905D02*
X157254819Y-97500000D01*
X157254819Y-97500000D02*
X157302438Y-97642857D01*
X157302438Y-97642857D02*
X157397676Y-97738095D01*
X157397676Y-97738095D02*
X157492914Y-97785714D01*
X157492914Y-97785714D02*
X157683390Y-97833333D01*
X157683390Y-97833333D02*
X157826247Y-97833333D01*
X157826247Y-97833333D02*
X158016723Y-97785714D01*
X158016723Y-97785714D02*
X158111961Y-97738095D01*
X158111961Y-97738095D02*
X158207200Y-97642857D01*
X158207200Y-97642857D02*
X158254819Y-97500000D01*
X158254819Y-97500000D02*
X158254819Y-97261905D01*
X157350057Y-98214286D02*
X157302438Y-98261905D01*
X157302438Y-98261905D02*
X157254819Y-98357143D01*
X157254819Y-98357143D02*
X157254819Y-98595238D01*
X157254819Y-98595238D02*
X157302438Y-98690476D01*
X157302438Y-98690476D02*
X157350057Y-98738095D01*
X157350057Y-98738095D02*
X157445295Y-98785714D01*
X157445295Y-98785714D02*
X157540533Y-98785714D01*
X157540533Y-98785714D02*
X157683390Y-98738095D01*
X157683390Y-98738095D02*
X158254819Y-98166667D01*
X158254819Y-98166667D02*
X158254819Y-98785714D01*
X119781139Y-100149175D02*
X119781139Y-100216519D01*
X119781139Y-100216519D02*
X119848483Y-100351206D01*
X119848483Y-100351206D02*
X119915826Y-100418549D01*
X119915826Y-100418549D02*
X120050513Y-100485893D01*
X120050513Y-100485893D02*
X120185200Y-100485893D01*
X120185200Y-100485893D02*
X120286215Y-100452221D01*
X120286215Y-100452221D02*
X120454574Y-100351206D01*
X120454574Y-100351206D02*
X120555589Y-100250191D01*
X120555589Y-100250191D02*
X120656605Y-100081832D01*
X120656605Y-100081832D02*
X120690276Y-99980817D01*
X120690276Y-99980817D02*
X120690276Y-99846130D01*
X120690276Y-99846130D02*
X120622933Y-99711443D01*
X120622933Y-99711443D02*
X120555589Y-99644099D01*
X120555589Y-99644099D02*
X120420902Y-99576756D01*
X120420902Y-99576756D02*
X120353559Y-99576756D01*
X119040361Y-99543084D02*
X119444422Y-99947145D01*
X119242391Y-99745114D02*
X119949498Y-99038008D01*
X119949498Y-99038008D02*
X119915826Y-99206366D01*
X119915826Y-99206366D02*
X119915826Y-99341053D01*
X119915826Y-99341053D02*
X119949498Y-99442069D01*
X118703643Y-99206366D02*
X118568956Y-99071679D01*
X118568956Y-99071679D02*
X118535284Y-98970664D01*
X118535284Y-98970664D02*
X118535284Y-98903320D01*
X118535284Y-98903320D02*
X118568956Y-98734962D01*
X118568956Y-98734962D02*
X118669971Y-98566603D01*
X118669971Y-98566603D02*
X118939345Y-98297229D01*
X118939345Y-98297229D02*
X119040360Y-98263557D01*
X119040360Y-98263557D02*
X119107704Y-98263557D01*
X119107704Y-98263557D02*
X119208719Y-98297229D01*
X119208719Y-98297229D02*
X119343406Y-98431916D01*
X119343406Y-98431916D02*
X119377078Y-98532931D01*
X119377078Y-98532931D02*
X119377078Y-98600275D01*
X119377078Y-98600275D02*
X119343406Y-98701290D01*
X119343406Y-98701290D02*
X119175047Y-98869649D01*
X119175047Y-98869649D02*
X119074032Y-98903320D01*
X119074032Y-98903320D02*
X119006689Y-98903320D01*
X119006689Y-98903320D02*
X118905673Y-98869649D01*
X118905673Y-98869649D02*
X118770986Y-98734962D01*
X118770986Y-98734962D02*
X118737315Y-98633946D01*
X118737315Y-98633946D02*
X118737315Y-98566603D01*
X118737315Y-98566603D02*
X118770986Y-98465588D01*
X148559580Y-66237142D02*
X148607200Y-66189523D01*
X148607200Y-66189523D02*
X148654819Y-66046666D01*
X148654819Y-66046666D02*
X148654819Y-65951428D01*
X148654819Y-65951428D02*
X148607200Y-65808571D01*
X148607200Y-65808571D02*
X148511961Y-65713333D01*
X148511961Y-65713333D02*
X148416723Y-65665714D01*
X148416723Y-65665714D02*
X148226247Y-65618095D01*
X148226247Y-65618095D02*
X148083390Y-65618095D01*
X148083390Y-65618095D02*
X147892914Y-65665714D01*
X147892914Y-65665714D02*
X147797676Y-65713333D01*
X147797676Y-65713333D02*
X147702438Y-65808571D01*
X147702438Y-65808571D02*
X147654819Y-65951428D01*
X147654819Y-65951428D02*
X147654819Y-66046666D01*
X147654819Y-66046666D02*
X147702438Y-66189523D01*
X147702438Y-66189523D02*
X147750057Y-66237142D01*
X147654819Y-67094285D02*
X147654819Y-66903809D01*
X147654819Y-66903809D02*
X147702438Y-66808571D01*
X147702438Y-66808571D02*
X147750057Y-66760952D01*
X147750057Y-66760952D02*
X147892914Y-66665714D01*
X147892914Y-66665714D02*
X148083390Y-66618095D01*
X148083390Y-66618095D02*
X148464342Y-66618095D01*
X148464342Y-66618095D02*
X148559580Y-66665714D01*
X148559580Y-66665714D02*
X148607200Y-66713333D01*
X148607200Y-66713333D02*
X148654819Y-66808571D01*
X148654819Y-66808571D02*
X148654819Y-66999047D01*
X148654819Y-66999047D02*
X148607200Y-67094285D01*
X148607200Y-67094285D02*
X148559580Y-67141904D01*
X148559580Y-67141904D02*
X148464342Y-67189523D01*
X148464342Y-67189523D02*
X148226247Y-67189523D01*
X148226247Y-67189523D02*
X148131009Y-67141904D01*
X148131009Y-67141904D02*
X148083390Y-67094285D01*
X148083390Y-67094285D02*
X148035771Y-66999047D01*
X148035771Y-66999047D02*
X148035771Y-66808571D01*
X148035771Y-66808571D02*
X148083390Y-66713333D01*
X148083390Y-66713333D02*
X148131009Y-66665714D01*
X148131009Y-66665714D02*
X148226247Y-66618095D01*
X148654819Y-68141904D02*
X148654819Y-67570476D01*
X148654819Y-67856190D02*
X147654819Y-67856190D01*
X147654819Y-67856190D02*
X147797676Y-67760952D01*
X147797676Y-67760952D02*
X147892914Y-67665714D01*
X147892914Y-67665714D02*
X147940533Y-67570476D01*
X143963094Y-90759819D02*
X143963094Y-91569342D01*
X143963094Y-91569342D02*
X143915475Y-91664580D01*
X143915475Y-91664580D02*
X143867856Y-91712200D01*
X143867856Y-91712200D02*
X143772618Y-91759819D01*
X143772618Y-91759819D02*
X143582142Y-91759819D01*
X143582142Y-91759819D02*
X143486904Y-91712200D01*
X143486904Y-91712200D02*
X143439285Y-91664580D01*
X143439285Y-91664580D02*
X143391666Y-91569342D01*
X143391666Y-91569342D02*
X143391666Y-90759819D01*
X142391666Y-91759819D02*
X142963094Y-91759819D01*
X142677380Y-91759819D02*
X142677380Y-90759819D01*
X142677380Y-90759819D02*
X142772618Y-90902676D01*
X142772618Y-90902676D02*
X142867856Y-90997914D01*
X142867856Y-90997914D02*
X142963094Y-91045533D01*
X141820237Y-91188390D02*
X141915475Y-91140771D01*
X141915475Y-91140771D02*
X141963094Y-91093152D01*
X141963094Y-91093152D02*
X142010713Y-90997914D01*
X142010713Y-90997914D02*
X142010713Y-90950295D01*
X142010713Y-90950295D02*
X141963094Y-90855057D01*
X141963094Y-90855057D02*
X141915475Y-90807438D01*
X141915475Y-90807438D02*
X141820237Y-90759819D01*
X141820237Y-90759819D02*
X141629761Y-90759819D01*
X141629761Y-90759819D02*
X141534523Y-90807438D01*
X141534523Y-90807438D02*
X141486904Y-90855057D01*
X141486904Y-90855057D02*
X141439285Y-90950295D01*
X141439285Y-90950295D02*
X141439285Y-90997914D01*
X141439285Y-90997914D02*
X141486904Y-91093152D01*
X141486904Y-91093152D02*
X141534523Y-91140771D01*
X141534523Y-91140771D02*
X141629761Y-91188390D01*
X141629761Y-91188390D02*
X141820237Y-91188390D01*
X141820237Y-91188390D02*
X141915475Y-91236009D01*
X141915475Y-91236009D02*
X141963094Y-91283628D01*
X141963094Y-91283628D02*
X142010713Y-91378866D01*
X142010713Y-91378866D02*
X142010713Y-91569342D01*
X142010713Y-91569342D02*
X141963094Y-91664580D01*
X141963094Y-91664580D02*
X141915475Y-91712200D01*
X141915475Y-91712200D02*
X141820237Y-91759819D01*
X141820237Y-91759819D02*
X141629761Y-91759819D01*
X141629761Y-91759819D02*
X141534523Y-91712200D01*
X141534523Y-91712200D02*
X141486904Y-91664580D01*
X141486904Y-91664580D02*
X141439285Y-91569342D01*
X141439285Y-91569342D02*
X141439285Y-91378866D01*
X141439285Y-91378866D02*
X141486904Y-91283628D01*
X141486904Y-91283628D02*
X141534523Y-91236009D01*
X141534523Y-91236009D02*
X141629761Y-91188390D01*
X158859580Y-77107142D02*
X158907200Y-77059523D01*
X158907200Y-77059523D02*
X158954819Y-76916666D01*
X158954819Y-76916666D02*
X158954819Y-76821428D01*
X158954819Y-76821428D02*
X158907200Y-76678571D01*
X158907200Y-76678571D02*
X158811961Y-76583333D01*
X158811961Y-76583333D02*
X158716723Y-76535714D01*
X158716723Y-76535714D02*
X158526247Y-76488095D01*
X158526247Y-76488095D02*
X158383390Y-76488095D01*
X158383390Y-76488095D02*
X158192914Y-76535714D01*
X158192914Y-76535714D02*
X158097676Y-76583333D01*
X158097676Y-76583333D02*
X158002438Y-76678571D01*
X158002438Y-76678571D02*
X157954819Y-76821428D01*
X157954819Y-76821428D02*
X157954819Y-76916666D01*
X157954819Y-76916666D02*
X158002438Y-77059523D01*
X158002438Y-77059523D02*
X158050057Y-77107142D01*
X157954819Y-78011904D02*
X157954819Y-77535714D01*
X157954819Y-77535714D02*
X158431009Y-77488095D01*
X158431009Y-77488095D02*
X158383390Y-77535714D01*
X158383390Y-77535714D02*
X158335771Y-77630952D01*
X158335771Y-77630952D02*
X158335771Y-77869047D01*
X158335771Y-77869047D02*
X158383390Y-77964285D01*
X158383390Y-77964285D02*
X158431009Y-78011904D01*
X158431009Y-78011904D02*
X158526247Y-78059523D01*
X158526247Y-78059523D02*
X158764342Y-78059523D01*
X158764342Y-78059523D02*
X158859580Y-78011904D01*
X158859580Y-78011904D02*
X158907200Y-77964285D01*
X158907200Y-77964285D02*
X158954819Y-77869047D01*
X158954819Y-77869047D02*
X158954819Y-77630952D01*
X158954819Y-77630952D02*
X158907200Y-77535714D01*
X158907200Y-77535714D02*
X158859580Y-77488095D01*
X157954819Y-78916666D02*
X157954819Y-78726190D01*
X157954819Y-78726190D02*
X158002438Y-78630952D01*
X158002438Y-78630952D02*
X158050057Y-78583333D01*
X158050057Y-78583333D02*
X158192914Y-78488095D01*
X158192914Y-78488095D02*
X158383390Y-78440476D01*
X158383390Y-78440476D02*
X158764342Y-78440476D01*
X158764342Y-78440476D02*
X158859580Y-78488095D01*
X158859580Y-78488095D02*
X158907200Y-78535714D01*
X158907200Y-78535714D02*
X158954819Y-78630952D01*
X158954819Y-78630952D02*
X158954819Y-78821428D01*
X158954819Y-78821428D02*
X158907200Y-78916666D01*
X158907200Y-78916666D02*
X158859580Y-78964285D01*
X158859580Y-78964285D02*
X158764342Y-79011904D01*
X158764342Y-79011904D02*
X158526247Y-79011904D01*
X158526247Y-79011904D02*
X158431009Y-78964285D01*
X158431009Y-78964285D02*
X158383390Y-78916666D01*
X158383390Y-78916666D02*
X158335771Y-78821428D01*
X158335771Y-78821428D02*
X158335771Y-78630952D01*
X158335771Y-78630952D02*
X158383390Y-78535714D01*
X158383390Y-78535714D02*
X158431009Y-78488095D01*
X158431009Y-78488095D02*
X158526247Y-78440476D01*
X113414285Y-78254819D02*
X113414285Y-77254819D01*
X113414285Y-77254819D02*
X113176190Y-77254819D01*
X113176190Y-77254819D02*
X113033333Y-77302438D01*
X113033333Y-77302438D02*
X112938095Y-77397676D01*
X112938095Y-77397676D02*
X112890476Y-77492914D01*
X112890476Y-77492914D02*
X112842857Y-77683390D01*
X112842857Y-77683390D02*
X112842857Y-77826247D01*
X112842857Y-77826247D02*
X112890476Y-78016723D01*
X112890476Y-78016723D02*
X112938095Y-78111961D01*
X112938095Y-78111961D02*
X113033333Y-78207200D01*
X113033333Y-78207200D02*
X113176190Y-78254819D01*
X113176190Y-78254819D02*
X113414285Y-78254819D01*
X112461904Y-77350057D02*
X112414285Y-77302438D01*
X112414285Y-77302438D02*
X112319047Y-77254819D01*
X112319047Y-77254819D02*
X112080952Y-77254819D01*
X112080952Y-77254819D02*
X111985714Y-77302438D01*
X111985714Y-77302438D02*
X111938095Y-77350057D01*
X111938095Y-77350057D02*
X111890476Y-77445295D01*
X111890476Y-77445295D02*
X111890476Y-77540533D01*
X111890476Y-77540533D02*
X111938095Y-77683390D01*
X111938095Y-77683390D02*
X112509523Y-78254819D01*
X112509523Y-78254819D02*
X111890476Y-78254819D01*
X110985714Y-77254819D02*
X111461904Y-77254819D01*
X111461904Y-77254819D02*
X111509523Y-77731009D01*
X111509523Y-77731009D02*
X111461904Y-77683390D01*
X111461904Y-77683390D02*
X111366666Y-77635771D01*
X111366666Y-77635771D02*
X111128571Y-77635771D01*
X111128571Y-77635771D02*
X111033333Y-77683390D01*
X111033333Y-77683390D02*
X110985714Y-77731009D01*
X110985714Y-77731009D02*
X110938095Y-77826247D01*
X110938095Y-77826247D02*
X110938095Y-78064342D01*
X110938095Y-78064342D02*
X110985714Y-78159580D01*
X110985714Y-78159580D02*
X111033333Y-78207200D01*
X111033333Y-78207200D02*
X111128571Y-78254819D01*
X111128571Y-78254819D02*
X111366666Y-78254819D01*
X111366666Y-78254819D02*
X111461904Y-78207200D01*
X111461904Y-78207200D02*
X111509523Y-78159580D01*
X120530000Y-98550000D02*
X120530000Y-98820000D01*
X120530000Y-99680000D02*
X120530000Y-99950000D01*
X122390000Y-99950000D02*
X120530000Y-99950000D01*
X122390000Y-98550000D02*
X120530000Y-98550000D01*
X121880000Y-98550000D02*
X121880000Y-99950000D01*
D11*
X123911252Y-61765000D02*
X123388748Y-61765000D01*
X123911252Y-63235000D02*
X123388748Y-63235000D01*
X131090000Y-66700000D02*
X131090000Y-68700000D01*
X135100000Y-66700000D02*
X131090000Y-66700000D01*
X135100000Y-68700000D02*
X131090000Y-68700000D01*
D10*
X170980000Y-90070000D02*
X170980000Y-93170000D01*
X170980000Y-90070000D02*
X174080000Y-90070000D01*
X170980000Y-93160000D02*
X174080000Y-93160000D01*
X174100000Y-90900000D02*
X174100000Y-90070000D01*
X174100000Y-93160000D02*
X174100000Y-92330000D01*
X174100000Y-92330000D02*
G75*
G02*
X174105241Y-90928449I210001J700000D01*
G01*
D12*
X174120000Y-93580000D02*
G75*
G02*
X173920000Y-93580000I-100000J0D01*
G01*
X173920000Y-93580000D02*
G75*
G02*
X174120000Y-93580000I100000J0D01*
G01*
D11*
X106440000Y-92292164D02*
X106440000Y-92507836D01*
X107160000Y-92292164D02*
X107160000Y-92507836D01*
X152362258Y-89277500D02*
X151887742Y-89277500D01*
X152362258Y-90322500D02*
X151887742Y-90322500D01*
X98313748Y-71640000D02*
X99736252Y-71640000D01*
X98313748Y-74360000D02*
X99736252Y-74360000D01*
D10*
X131710000Y-70470000D02*
X134750000Y-70470000D01*
X131710000Y-75530000D02*
X131710000Y-70470000D01*
X134750000Y-70470000D02*
X134750000Y-75530000D01*
X134750000Y-75530000D02*
X131710000Y-75530000D01*
D13*
X130610000Y-75650000D02*
G75*
G02*
X130310000Y-75650000I-150000J0D01*
G01*
X130310000Y-75650000D02*
G75*
G02*
X130610000Y-75650000I150000J0D01*
G01*
X132610000Y-74910000D02*
G75*
G02*
X132310000Y-74910000I-150000J0D01*
G01*
X132310000Y-74910000D02*
G75*
G02*
X132610000Y-74910000I150000J0D01*
G01*
D11*
X101640000Y-77686252D02*
X101640000Y-76263748D01*
X104360000Y-77686252D02*
X104360000Y-76263748D01*
X139512164Y-103540000D02*
X139727836Y-103540000D01*
X139512164Y-104260000D02*
X139727836Y-104260000D01*
D10*
X145435000Y-90700000D02*
X147295000Y-90700000D01*
X145435000Y-92100000D02*
X147295000Y-92100000D01*
X145945000Y-92100000D02*
X145945000Y-90700000D01*
X147295000Y-90970000D02*
X147295000Y-90700000D01*
X147295000Y-92100000D02*
X147295000Y-91830000D01*
D11*
X94275436Y-72915000D02*
X94729564Y-72915000D01*
X94275436Y-74385000D02*
X94729564Y-74385000D01*
D10*
X106870000Y-93500000D02*
X106870000Y-93770000D01*
X106870000Y-94630000D02*
X106870000Y-94900000D01*
X108220000Y-93500000D02*
X108220000Y-94900000D01*
X108730000Y-93500000D02*
X106870000Y-93500000D01*
X108730000Y-94900000D02*
X106870000Y-94900000D01*
D11*
X86743641Y-89470000D02*
X86436359Y-89470000D01*
X86743641Y-90230000D02*
X86436359Y-90230000D01*
D10*
X118480000Y-70470000D02*
X121520000Y-70470000D01*
X118480000Y-75530000D02*
X118480000Y-70470000D01*
X121520000Y-70470000D02*
X121520000Y-75530000D01*
X121520000Y-75530000D02*
X118480000Y-75530000D01*
D13*
X120920000Y-71090000D02*
G75*
G02*
X120620000Y-71090000I-150000J0D01*
G01*
X120620000Y-71090000D02*
G75*
G02*
X120920000Y-71090000I150000J0D01*
G01*
X122920000Y-70350000D02*
G75*
G02*
X122620000Y-70350000I-150000J0D01*
G01*
X122620000Y-70350000D02*
G75*
G02*
X122920000Y-70350000I150000J0D01*
G01*
D11*
X86156359Y-66320000D02*
X86463641Y-66320000D01*
X86156359Y-67080000D02*
X86463641Y-67080000D01*
X140575000Y-64345000D02*
X142525000Y-64345000D01*
X140575000Y-69465000D02*
X142525000Y-69465000D01*
X144475000Y-64345000D02*
X142525000Y-64345000D01*
X144475000Y-69465000D02*
X142525000Y-69465000D01*
X140065000Y-69700000D02*
X139585000Y-69700000D01*
X139825000Y-69370000D01*
X140065000Y-69700000D01*
G36*
X140065000Y-69700000D02*
G01*
X139585000Y-69700000D01*
X139825000Y-69370000D01*
X140065000Y-69700000D01*
G37*
X138440000Y-98907836D02*
X138440000Y-98692164D01*
X139160000Y-98907836D02*
X139160000Y-98692164D01*
X88377836Y-77040000D02*
X88162164Y-77040000D01*
X88377836Y-77760000D02*
X88162164Y-77760000D01*
D10*
X128970000Y-65400000D02*
X128970000Y-65670000D01*
X128970000Y-66530000D02*
X128970000Y-66800000D01*
X130320000Y-65400000D02*
X130320000Y-66800000D01*
X130830000Y-65400000D02*
X128970000Y-65400000D01*
X130830000Y-66800000D02*
X128970000Y-66800000D01*
D11*
X106640000Y-74772164D02*
X106640000Y-74987836D01*
X107360000Y-74772164D02*
X107360000Y-74987836D01*
X109720000Y-97656358D02*
X109720000Y-97963640D01*
X110480000Y-97656358D02*
X110480000Y-97963640D01*
D10*
X121050000Y-95470000D02*
X121050000Y-97330000D01*
X121050000Y-95980000D02*
X122450000Y-95980000D01*
X121050000Y-97330000D02*
X121320000Y-97330000D01*
X122180000Y-97330000D02*
X122450000Y-97330000D01*
X122450000Y-95470000D02*
X122450000Y-97330000D01*
D11*
X123892164Y-69040000D02*
X124107836Y-69040000D01*
X123892164Y-69760000D02*
X124107836Y-69760000D01*
X115746359Y-78620000D02*
X116053641Y-78620000D01*
X115746359Y-79380000D02*
X116053641Y-79380000D01*
X133207836Y-69240000D02*
X132992164Y-69240000D01*
X133207836Y-69960000D02*
X132992164Y-69960000D01*
X86485436Y-82490000D02*
X90839564Y-82490000D01*
X86485436Y-85910000D02*
X90839564Y-85910000D01*
D10*
X131600000Y-99310000D02*
X131600000Y-101170000D01*
X131600000Y-99820000D02*
X133000000Y-99820000D01*
X131600000Y-101170000D02*
X131870000Y-101170000D01*
X132730000Y-101170000D02*
X133000000Y-101170000D01*
X133000000Y-99310000D02*
X133000000Y-101170000D01*
D11*
X112262742Y-74977500D02*
X112737258Y-74977500D01*
X112262742Y-76022500D02*
X112737258Y-76022500D01*
X118760589Y-96510589D02*
X118760589Y-92500589D01*
X120760589Y-92500589D02*
X118760589Y-92500589D01*
X120760589Y-96510589D02*
X120760589Y-92500589D01*
X87360000Y-79070000D02*
X87370000Y-79070000D01*
X87360000Y-80240000D02*
X87360000Y-79070000D01*
X87370000Y-79070000D02*
X89550000Y-79070000D01*
X89550000Y-79070000D02*
X89550000Y-79080000D01*
X89550000Y-79080000D02*
X89550000Y-80240000D01*
X89550000Y-80240000D02*
X87360000Y-80240000D01*
D14*
X87180001Y-78380000D02*
X87180001Y-78380000D01*
X87180001Y-78380000D01*
X87180001Y-78380000D01*
X87180001Y-78380000D01*
X87180001Y-78380000D01*
X87180001Y-78380001D01*
X87180001Y-78380001D01*
X87180001Y-78380001D01*
X87180001Y-78380001D01*
X87180001Y-78380001D01*
X87180001Y-78380001D01*
X87180001Y-78380001D01*
X87180000Y-78380001D01*
X87180000Y-78380001D01*
X87180000Y-78380001D01*
X87180000Y-78380001D01*
X87180000Y-78380001D01*
X87180000Y-78380001D01*
X87180000Y-78380001D01*
X87180000Y-78380001D01*
X87180000Y-78380001D01*
X87180000Y-78380001D01*
X87180000Y-78380001D01*
X87180000Y-78380001D01*
X87179999Y-78380001D01*
X87179999Y-78380001D01*
X87179999Y-78380001D01*
X87179999Y-78380001D01*
X87179999Y-78380001D01*
X87179999Y-78380001D01*
X87179999Y-78380000D01*
X87179999Y-78380000D01*
X87179999Y-78380000D01*
X87179999Y-78380000D01*
X87179999Y-78380000D01*
X87179999Y-78380000D01*
X87179999Y-78380000D02*
X87179999Y-78380000D01*
X87179999Y-78380000D01*
X87179999Y-78380000D01*
X87179999Y-78380000D01*
X87179999Y-78380000D01*
X87179999Y-78380000D01*
X87179999Y-78379999D01*
X87179999Y-78379999D01*
X87179999Y-78379999D01*
X87179999Y-78379999D01*
X87179999Y-78379999D01*
X87180000Y-78379999D01*
X87180000Y-78379999D01*
X87180000Y-78379999D01*
X87180000Y-78379999D01*
X87180000Y-78379999D01*
X87180000Y-78379999D01*
X87180000Y-78379999D01*
X87180000Y-78379999D01*
X87180000Y-78379999D01*
X87180000Y-78379999D01*
X87180000Y-78379999D01*
X87180000Y-78379999D01*
X87180001Y-78379999D01*
X87180001Y-78379999D01*
X87180001Y-78379999D01*
X87180001Y-78379999D01*
X87180001Y-78379999D01*
X87180001Y-78379999D01*
X87180001Y-78380000D01*
X87180001Y-78380000D01*
X87180001Y-78380000D01*
X87180001Y-78380000D01*
X87180001Y-78380000D01*
X87180001Y-78380000D01*
X87180001Y-78380000D01*
D11*
X174570000Y-133686359D02*
X174570000Y-133993641D01*
X175330000Y-133686359D02*
X175330000Y-133993641D01*
X173014564Y-76690000D02*
X168660436Y-76690000D01*
X173014564Y-80110000D02*
X168660436Y-80110000D01*
X102140000Y-88813748D02*
X102140000Y-90236252D01*
X104860000Y-88813748D02*
X104860000Y-90236252D01*
X175620000Y-96356359D02*
X175620000Y-96663641D01*
X176380000Y-96356359D02*
X176380000Y-96663641D01*
X146512258Y-88977500D02*
X146037742Y-88977500D01*
X146512258Y-90022500D02*
X146037742Y-90022500D01*
X86753641Y-90870000D02*
X86446359Y-90870000D01*
X86753641Y-91630000D02*
X86446359Y-91630000D01*
X89640000Y-79387836D02*
X89640000Y-79172164D01*
X90360000Y-79387836D02*
X90360000Y-79172164D01*
X168790000Y-82742164D02*
X168790000Y-82957836D01*
X169510000Y-82742164D02*
X169510000Y-82957836D01*
X152162258Y-70127500D02*
X151687742Y-70127500D01*
X152162258Y-71172500D02*
X151687742Y-71172500D01*
D10*
X125700000Y-67670000D02*
X125700000Y-69530000D01*
X125700000Y-68180000D02*
X127100000Y-68180000D01*
X125700000Y-69530000D02*
X125970000Y-69530000D01*
X126830000Y-69530000D02*
X127100000Y-69530000D01*
X127100000Y-67670000D02*
X127100000Y-69530000D01*
D11*
X111600589Y-95672753D02*
X111600589Y-95888425D01*
X112320589Y-95672753D02*
X112320589Y-95888425D01*
D10*
X130795000Y-96800000D02*
X130795000Y-97070000D01*
X130795000Y-97930000D02*
X130795000Y-98200000D01*
X132145000Y-96800000D02*
X132145000Y-98200000D01*
X132655000Y-96800000D02*
X130795000Y-96800000D01*
X132655000Y-98200000D02*
X130795000Y-98200000D01*
X119070000Y-67500000D02*
X120930000Y-67500000D01*
X119070000Y-68900000D02*
X120930000Y-68900000D01*
X119580000Y-68900000D02*
X119580000Y-67500000D01*
X120930000Y-67770000D02*
X120930000Y-67500000D01*
X120930000Y-68900000D02*
X120930000Y-68630000D01*
D11*
X147487258Y-81377500D02*
X147012742Y-81377500D01*
X147487258Y-82422500D02*
X147012742Y-82422500D01*
D10*
X169700000Y-142730000D02*
X169700000Y-140870000D01*
X169970000Y-140870000D02*
X169700000Y-140870000D01*
X171100000Y-140870000D02*
X170830000Y-140870000D01*
X171100000Y-142220000D02*
X169700000Y-142220000D01*
X171100000Y-142730000D02*
X171100000Y-140870000D01*
X130900000Y-64930000D02*
X130900000Y-63070000D01*
X131170000Y-63070000D02*
X130900000Y-63070000D01*
X132300000Y-63070000D02*
X132030000Y-63070000D01*
X132300000Y-64420000D02*
X130900000Y-64420000D01*
X132300000Y-64930000D02*
X132300000Y-63070000D01*
D11*
X165702064Y-81240000D02*
X165247936Y-81240000D01*
X165702064Y-82710000D02*
X165247936Y-82710000D01*
X173643641Y-87620000D02*
X173336359Y-87620000D01*
X173643641Y-88380000D02*
X173336359Y-88380000D01*
X174570000Y-138003641D02*
X174570000Y-137696359D01*
X175330000Y-138003641D02*
X175330000Y-137696359D01*
D10*
X139870000Y-99700000D02*
X139870000Y-99970000D01*
X139870000Y-100830000D02*
X139870000Y-101100000D01*
X141220000Y-99700000D02*
X141220000Y-101100000D01*
X141730000Y-99700000D02*
X139870000Y-99700000D01*
X141730000Y-101100000D02*
X139870000Y-101100000D01*
D11*
X174713641Y-95570000D02*
X174406359Y-95570000D01*
X174713641Y-96330000D02*
X174406359Y-96330000D01*
D10*
X151220000Y-90800000D02*
X153080000Y-90800000D01*
X151220000Y-92200000D02*
X153080000Y-92200000D01*
X151730000Y-92200000D02*
X151730000Y-90800000D01*
X153080000Y-91070000D02*
X153080000Y-90800000D01*
X153080000Y-92200000D02*
X153080000Y-91930000D01*
D11*
X150392164Y-142090000D02*
X150607836Y-142090000D01*
X150392164Y-142810000D02*
X150607836Y-142810000D01*
X151640000Y-141057836D02*
X151640000Y-140842164D01*
X152360000Y-141057836D02*
X152360000Y-140842164D01*
X113362742Y-82877500D02*
X113837258Y-82877500D01*
X113362742Y-83922500D02*
X113837258Y-83922500D01*
D10*
X87380000Y-66170000D02*
X87380000Y-69270000D01*
X87380000Y-66170000D02*
X90480000Y-66170000D01*
X87380000Y-69260000D02*
X90480000Y-69260000D01*
X90500000Y-67000000D02*
X90500000Y-66170000D01*
X90500000Y-69260000D02*
X90500000Y-68430000D01*
X90500000Y-68430000D02*
G75*
G02*
X90505241Y-67028449I210001J700000D01*
G01*
D12*
X90520000Y-69680000D02*
G75*
G02*
X90320000Y-69680000I-100000J0D01*
G01*
X90320000Y-69680000D02*
G75*
G02*
X90520000Y-69680000I100000J0D01*
G01*
D11*
X169850000Y-82460000D02*
X172040000Y-82460000D01*
X169850000Y-83620000D02*
X169850000Y-82460000D01*
X169850000Y-83630000D02*
X169850000Y-83620000D01*
X172030000Y-83630000D02*
X169850000Y-83630000D01*
X172040000Y-82460000D02*
X172040000Y-83630000D01*
X172040000Y-83630000D02*
X172030000Y-83630000D01*
D14*
X172220001Y-84320000D02*
X172220001Y-84320000D01*
X172220001Y-84320000D01*
X172220001Y-84320000D01*
X172220001Y-84320000D01*
X172220001Y-84320000D01*
X172220001Y-84320001D01*
X172220001Y-84320001D01*
X172220001Y-84320001D01*
X172220001Y-84320001D01*
X172220001Y-84320001D01*
X172220001Y-84320001D01*
X172220001Y-84320001D01*
X172220000Y-84320001D01*
X172220000Y-84320001D01*
X172220000Y-84320001D01*
X172220000Y-84320001D01*
X172220000Y-84320001D01*
X172220000Y-84320001D01*
X172220000Y-84320001D01*
X172220000Y-84320001D01*
X172220000Y-84320001D01*
X172220000Y-84320001D01*
X172220000Y-84320001D01*
X172220000Y-84320001D01*
X172219999Y-84320001D01*
X172219999Y-84320001D01*
X172219999Y-84320001D01*
X172219999Y-84320001D01*
X172219999Y-84320001D01*
X172219999Y-84320001D01*
X172219999Y-84320000D01*
X172219999Y-84320000D01*
X172219999Y-84320000D01*
X172219999Y-84320000D01*
X172219999Y-84320000D01*
X172219999Y-84320000D01*
X172219999Y-84320000D02*
X172219999Y-84320000D01*
X172219999Y-84320000D01*
X172219999Y-84320000D01*
X172219999Y-84320000D01*
X172219999Y-84320000D01*
X172219999Y-84320000D01*
X172219999Y-84319999D01*
X172219999Y-84319999D01*
X172219999Y-84319999D01*
X172219999Y-84319999D01*
X172219999Y-84319999D01*
X172220000Y-84319999D01*
X172220000Y-84319999D01*
X172220000Y-84319999D01*
X172220000Y-84319999D01*
X172220000Y-84319999D01*
X172220000Y-84319999D01*
X172220000Y-84319999D01*
X172220000Y-84319999D01*
X172220000Y-84319999D01*
X172220000Y-84319999D01*
X172220000Y-84319999D01*
X172220000Y-84319999D01*
X172220001Y-84319999D01*
X172220001Y-84319999D01*
X172220001Y-84319999D01*
X172220001Y-84319999D01*
X172220001Y-84319999D01*
X172220001Y-84319999D01*
X172220001Y-84320000D01*
X172220001Y-84320000D01*
X172220001Y-84320000D01*
X172220001Y-84320000D01*
X172220001Y-84320000D01*
X172220001Y-84320000D01*
X172220001Y-84320000D01*
D11*
X155640000Y-88263748D02*
X155640000Y-89686252D01*
X158360000Y-88263748D02*
X158360000Y-89686252D01*
X152640000Y-72907836D02*
X152640000Y-72692164D01*
X153360000Y-72907836D02*
X153360000Y-72692164D01*
X168510000Y-82722164D02*
X168510000Y-82937836D01*
X167790000Y-82722164D02*
X167790000Y-82937836D01*
X107662742Y-95677500D02*
X108137258Y-95677500D01*
X107662742Y-96722500D02*
X108137258Y-96722500D01*
D10*
X122800000Y-95130589D02*
X122800000Y-96990589D01*
X122800000Y-95640589D02*
X124200000Y-95640589D01*
X122800000Y-96990589D02*
X123070000Y-96990589D01*
X123930000Y-96990589D02*
X124200000Y-96990589D01*
X124200000Y-95130589D02*
X124200000Y-96990589D01*
D11*
X152840000Y-93427836D02*
X152840000Y-93212164D01*
X153560000Y-93427836D02*
X153560000Y-93212164D01*
D10*
X107070000Y-78300000D02*
X107070000Y-78570000D01*
X107070000Y-79430000D02*
X107070000Y-79700000D01*
X108420000Y-78300000D02*
X108420000Y-79700000D01*
X108930000Y-78300000D02*
X107070000Y-78300000D01*
X108930000Y-79700000D02*
X107070000Y-79700000D01*
D11*
X147240000Y-96027836D02*
X147240000Y-95812164D01*
X147960000Y-96027836D02*
X147960000Y-95812164D01*
X127472164Y-64940000D02*
X127687836Y-64940000D01*
X127472164Y-65660000D02*
X127687836Y-65660000D01*
X139640000Y-97600000D02*
X139640000Y-99600000D01*
X143650000Y-97600000D02*
X139640000Y-97600000D01*
X143650000Y-99600000D02*
X139640000Y-99600000D01*
X175893641Y-97770000D02*
X175586359Y-97770000D01*
X175893641Y-98530000D02*
X175586359Y-98530000D01*
D10*
X112470000Y-84500000D02*
X112470000Y-84770000D01*
X112470000Y-85630000D02*
X112470000Y-85900000D01*
X113820000Y-84500000D02*
X113820000Y-85900000D01*
X114330000Y-84500000D02*
X112470000Y-84500000D01*
X114330000Y-85900000D02*
X112470000Y-85900000D01*
D11*
X130312164Y-76040000D02*
X130527836Y-76040000D01*
X130312164Y-76760000D02*
X130527836Y-76760000D01*
X111350000Y-70200000D02*
X115360000Y-70200000D01*
X111350000Y-72200000D02*
X115360000Y-72200000D01*
X115360000Y-72200000D02*
X115360000Y-70200000D01*
D10*
X146270000Y-79100000D02*
X148130000Y-79100000D01*
X146270000Y-80500000D02*
X148130000Y-80500000D01*
X146780000Y-80500000D02*
X146780000Y-79100000D01*
X148130000Y-79370000D02*
X148130000Y-79100000D01*
X148130000Y-80500000D02*
X148130000Y-80230000D01*
D11*
X173507836Y-83990000D02*
X173292164Y-83990000D01*
X173507836Y-84710000D02*
X173292164Y-84710000D01*
X136387836Y-61840000D02*
X136172164Y-61840000D01*
X136387836Y-62560000D02*
X136172164Y-62560000D01*
X173507836Y-82970000D02*
X173292164Y-82970000D01*
X173507836Y-83690000D02*
X173292164Y-83690000D01*
X136320000Y-64243642D02*
X136320000Y-63936360D01*
X137080000Y-64243642D02*
X137080000Y-63936360D01*
X107687742Y-76377500D02*
X108162258Y-76377500D01*
X107687742Y-77422500D02*
X108162258Y-77422500D01*
X132753641Y-93620000D02*
X132446359Y-93620000D01*
X132753641Y-94380000D02*
X132446359Y-94380000D01*
D10*
X133470000Y-98280000D02*
X138530000Y-98280000D01*
X133470000Y-101320000D02*
X133470000Y-98280000D01*
X138530000Y-98280000D02*
X138530000Y-101320000D01*
X138530000Y-101320000D02*
X133470000Y-101320000D01*
D13*
X138060000Y-100570000D02*
G75*
G02*
X137760000Y-100570000I-150000J0D01*
G01*
X137760000Y-100570000D02*
G75*
G02*
X138060000Y-100570000I150000J0D01*
G01*
X138800000Y-102570000D02*
G75*
G02*
X138500000Y-102570000I-150000J0D01*
G01*
X138500000Y-102570000D02*
G75*
G02*
X138800000Y-102570000I150000J0D01*
G01*
D11*
X88377836Y-76090000D02*
X88162164Y-76090000D01*
X88377836Y-76810000D02*
X88162164Y-76810000D01*
X168303641Y-83970000D02*
X167996359Y-83970000D01*
X168303641Y-84730000D02*
X167996359Y-84730000D01*
D10*
X112858089Y-94340589D02*
X117918089Y-94340589D01*
X112858089Y-97380589D02*
X112858089Y-94340589D01*
X117918089Y-94340589D02*
X117918089Y-97380589D01*
X117918089Y-97380589D02*
X112858089Y-97380589D01*
D13*
X117448089Y-96630589D02*
G75*
G02*
X117148089Y-96630589I-150000J0D01*
G01*
X117148089Y-96630589D02*
G75*
G02*
X117448089Y-96630589I150000J0D01*
G01*
X118188089Y-98630589D02*
G75*
G02*
X117888089Y-98630589I-150000J0D01*
G01*
X117888089Y-98630589D02*
G75*
G02*
X118188089Y-98630589I150000J0D01*
G01*
D11*
X90640000Y-79427836D02*
X90640000Y-79212164D01*
X91360000Y-79427836D02*
X91360000Y-79212164D01*
X119665000Y-64327064D02*
X119665000Y-63872936D01*
X121135000Y-64327064D02*
X121135000Y-63872936D01*
X111140000Y-99172164D02*
X111140000Y-99387836D01*
X111860000Y-99172164D02*
X111860000Y-99387836D01*
X130607836Y-98940000D02*
X130392164Y-98940000D01*
X130607836Y-99660000D02*
X130392164Y-99660000D01*
X94543641Y-71620000D02*
X94236359Y-71620000D01*
X94543641Y-72380000D02*
X94236359Y-72380000D01*
D10*
X133000000Y-64370000D02*
X133000000Y-66230000D01*
X133000000Y-64880000D02*
X134400000Y-64880000D01*
X133000000Y-66230000D02*
X133270000Y-66230000D01*
X134130000Y-66230000D02*
X134400000Y-66230000D01*
X134400000Y-64370000D02*
X134400000Y-66230000D01*
D11*
X160486252Y-72140000D02*
X159063748Y-72140000D01*
X160486252Y-74860000D02*
X159063748Y-74860000D01*
X119307836Y-69440000D02*
X119092164Y-69440000D01*
X119307836Y-70160000D02*
X119092164Y-70160000D01*
D10*
X151110000Y-68100000D02*
X152970000Y-68100000D01*
X151110000Y-69500000D02*
X152970000Y-69500000D01*
X151620000Y-69500000D02*
X151620000Y-68100000D01*
X152970000Y-68370000D02*
X152970000Y-68100000D01*
X152970000Y-69500000D02*
X152970000Y-69230000D01*
X96500000Y-98930000D02*
X96500000Y-97070000D01*
X96770000Y-97070000D02*
X96500000Y-97070000D01*
X97900000Y-97070000D02*
X97630000Y-97070000D01*
X97900000Y-98420000D02*
X96500000Y-98420000D01*
X97900000Y-98930000D02*
X97900000Y-97070000D01*
D11*
X119665000Y-60914564D02*
X119665000Y-60460436D01*
X121135000Y-60914564D02*
X121135000Y-60460436D01*
D10*
X122310000Y-66100000D02*
X124170000Y-66100000D01*
X122310000Y-67500000D02*
X124170000Y-67500000D01*
X122820000Y-67500000D02*
X122820000Y-66100000D01*
X124170000Y-66370000D02*
X124170000Y-66100000D01*
X124170000Y-67500000D02*
X124170000Y-67230000D01*
X161100000Y-98930000D02*
X161100000Y-97070000D01*
X161370000Y-97070000D02*
X161100000Y-97070000D01*
X162500000Y-97070000D02*
X162230000Y-97070000D01*
X162500000Y-98420000D02*
X161100000Y-98420000D01*
X162500000Y-98930000D02*
X162500000Y-97070000D01*
D11*
X118429779Y-100438896D02*
X118582282Y-100591399D01*
X118938896Y-99929779D02*
X119091399Y-100082282D01*
X146840000Y-66987836D02*
X146840000Y-66772164D01*
X147560000Y-66987836D02*
X147560000Y-66772164D01*
X140775000Y-92145000D02*
X142725000Y-92145001D01*
X140775000Y-97265000D02*
X142725000Y-97264999D01*
X144675000Y-92145000D02*
X142725000Y-92145001D01*
X144675000Y-97265000D02*
X142725000Y-97264999D01*
X145425000Y-92240000D02*
X145185000Y-91910000D01*
X145664999Y-91910000D01*
X145425000Y-92240000D01*
G36*
X145425000Y-92240000D02*
G01*
X145185000Y-91910000D01*
X145664999Y-91910000D01*
X145425000Y-92240000D01*
G37*
X155140000Y-78211252D02*
X155140000Y-76788748D01*
X157860000Y-78211252D02*
X157860000Y-76788748D01*
D10*
X111270000Y-73100000D02*
X111270000Y-73370000D01*
X111270000Y-74230000D02*
X111270000Y-74500000D01*
X112620000Y-73100000D02*
X112620000Y-74500000D01*
X113130000Y-73100000D02*
X111270000Y-73100000D01*
X113130000Y-74500000D02*
X111270000Y-74500000D01*
%LPC*%
D15*
X120420000Y-99250000D03*
X122500000Y-99250000D03*
D16*
X135074999Y-79075000D03*
X121575000Y-79075000D03*
D17*
X84800000Y-147500000D03*
X174500000Y-58500000D03*
D18*
X93300000Y-94300000D03*
X93300000Y-101800000D03*
D19*
X173115022Y-138993263D03*
X173115022Y-133213263D03*
D20*
X172585022Y-140423263D03*
D21*
X176765022Y-140423263D03*
D20*
X172585022Y-131783263D03*
D21*
X176765022Y-131783263D03*
D22*
X128100000Y-148700000D03*
X128100000Y-120200000D03*
X97700000Y-148700000D03*
X97700000Y-120200000D03*
D23*
X116710000Y-149200000D03*
X114170000Y-149200000D03*
X111630000Y-149200000D03*
X109090000Y-149200000D03*
D24*
X167500000Y-139500000D03*
D25*
X167500000Y-142040000D03*
X167500000Y-144579999D03*
X167500000Y-147120000D03*
X167500000Y-149660000D03*
D17*
X175000000Y-147500000D03*
D18*
X97300000Y-63000000D03*
X104800000Y-63000000D03*
X165400000Y-95200000D03*
X165400000Y-102700000D03*
D26*
X95905000Y-84299880D03*
X95905000Y-77099880D03*
D27*
X89905000Y-73949880D03*
X89905000Y-87449880D03*
D16*
X135200000Y-87500000D03*
X121700001Y-87500000D03*
D18*
X162700000Y-63000000D03*
X155200000Y-63000000D03*
D26*
X163695000Y-78000120D03*
X163695000Y-85200120D03*
D27*
X169695000Y-88350120D03*
X169695000Y-74850120D03*
D17*
X85500000Y-58790000D03*
D28*
X122700000Y-62500000D03*
X124600000Y-62500000D03*
D29*
X131800000Y-67700000D03*
X135100000Y-67700000D03*
D30*
X173500000Y-93950000D03*
X173000000Y-93950000D03*
X172500000Y-93950000D03*
X172000000Y-93950000D03*
X171500000Y-93950000D03*
X171500000Y-89250000D03*
X172000000Y-89250000D03*
X172500000Y-89250000D03*
X173000000Y-89250000D03*
X173500000Y-89250000D03*
D31*
X106800000Y-92880000D03*
X106800000Y-91920000D03*
D32*
X151300000Y-89800000D03*
X152950000Y-89800000D03*
D33*
X100500000Y-73000000D03*
X97550000Y-73000000D03*
D34*
X130460000Y-74910000D03*
X130460000Y-73630000D03*
X130460000Y-72370000D03*
X130460000Y-71100000D03*
X136000000Y-71100000D03*
X136000000Y-72370000D03*
X136000000Y-73630000D03*
X136000000Y-74910000D03*
D35*
X103000000Y-75500000D03*
X103000000Y-78450000D03*
D36*
X140100000Y-103900000D03*
X139140000Y-103900000D03*
D15*
X147405000Y-91400000D03*
X145325000Y-91400000D03*
D37*
X95415000Y-73650000D03*
X93590000Y-73650000D03*
D15*
X106760000Y-94200000D03*
X108840000Y-94200000D03*
D38*
X86080000Y-89850000D03*
X87100000Y-89850000D03*
D34*
X122770000Y-71090000D03*
X122770000Y-72370000D03*
X122770000Y-73630000D03*
X122770000Y-74900000D03*
X117230000Y-74900000D03*
X117230000Y-73630000D03*
X117230000Y-72370000D03*
X117230000Y-71090000D03*
D39*
X86820000Y-66700000D03*
X85800000Y-66700000D03*
D40*
X140050000Y-68810000D03*
X140050000Y-67540000D03*
X140050000Y-66270000D03*
X140050000Y-65000000D03*
X145000000Y-65000000D03*
X145000000Y-66270000D03*
X145000000Y-67540000D03*
X145000000Y-68810000D03*
D41*
X138800000Y-98320000D03*
X138800000Y-99280000D03*
D42*
X87790000Y-77400000D03*
X88750000Y-77400000D03*
D15*
X128860000Y-66100000D03*
X130940000Y-66100000D03*
D31*
X107000000Y-75360000D03*
X107000000Y-74400000D03*
D43*
X110100000Y-98319998D03*
X110100000Y-97300000D03*
D44*
X121750000Y-97440000D03*
X121750000Y-95360000D03*
D36*
X124480000Y-69400000D03*
X123520000Y-69400000D03*
D39*
X116409999Y-79000000D03*
X115390001Y-79000000D03*
D42*
X132620000Y-69600000D03*
X133580000Y-69600000D03*
D45*
X91625000Y-84200000D03*
X85700000Y-84200000D03*
D44*
X132300000Y-101280000D03*
X132300000Y-99200000D03*
D46*
X113325000Y-75500000D03*
X111675000Y-75500000D03*
D47*
X119760589Y-93210589D03*
X119760589Y-96510589D03*
D48*
X87800000Y-78500000D03*
X88450000Y-78500000D03*
X89100000Y-78500000D03*
X89100000Y-80800000D03*
X88450000Y-80800000D03*
X87800000Y-80800000D03*
D43*
X174950000Y-134350000D03*
X174950000Y-133330000D03*
D49*
X167875000Y-78400000D03*
X173800000Y-78400000D03*
D50*
X103500000Y-91000000D03*
X103500000Y-88050000D03*
D43*
X176000000Y-97020000D03*
X176000000Y-96000000D03*
D32*
X145450000Y-89500000D03*
X147100000Y-89500000D03*
D38*
X86090000Y-91250000D03*
X87110000Y-91250000D03*
D41*
X90000000Y-78800000D03*
X90000000Y-79760000D03*
D31*
X169150000Y-83330000D03*
X169150000Y-82370000D03*
D32*
X151100000Y-70650000D03*
X152750000Y-70650000D03*
D44*
X126400000Y-69640000D03*
X126400000Y-67560000D03*
D31*
X111960589Y-96260589D03*
X111960589Y-95300589D03*
D15*
X130685000Y-97500000D03*
X132765000Y-97500000D03*
X121040000Y-68200000D03*
X118960000Y-68200000D03*
D32*
X146425000Y-81900000D03*
X148075000Y-81900000D03*
D44*
X170400000Y-140760000D03*
X170400000Y-142840000D03*
X131600000Y-62960000D03*
X131600000Y-65040000D03*
D51*
X164562500Y-81975000D03*
X166387500Y-81975000D03*
D38*
X172980000Y-88000000D03*
X174000000Y-88000000D03*
D52*
X174950000Y-137340000D03*
X174950000Y-138360000D03*
D15*
X139760000Y-100400000D03*
X141840000Y-100400000D03*
D38*
X174050000Y-95950000D03*
X175070000Y-95950000D03*
D15*
X153190000Y-91500000D03*
X151110000Y-91500000D03*
D36*
X150980000Y-142450000D03*
X150020000Y-142450000D03*
D41*
X152000000Y-140470000D03*
X152000000Y-141430000D03*
D46*
X114425000Y-83400000D03*
X112775000Y-83400000D03*
D30*
X89900000Y-70050000D03*
X89400000Y-70050000D03*
X88900000Y-70050000D03*
X88400000Y-70050000D03*
X87900000Y-70050000D03*
X87900000Y-65350000D03*
X88400000Y-65350000D03*
X88900000Y-65350000D03*
X89400000Y-65350000D03*
X89900000Y-65350000D03*
D48*
X171600000Y-84200000D03*
X170950000Y-84200000D03*
X170300000Y-84200000D03*
X170300000Y-81900000D03*
X170950000Y-81900000D03*
X171600000Y-81900000D03*
D50*
X157000000Y-90450000D03*
X157000000Y-87500000D03*
D41*
X153000000Y-72320000D03*
X153000000Y-73280000D03*
D31*
X168150000Y-82350000D03*
X168150000Y-83310000D03*
D46*
X108725000Y-96200000D03*
X107075000Y-96200000D03*
D44*
X123500000Y-97100589D03*
X123500000Y-95020589D03*
D41*
X153200000Y-92840000D03*
X153200000Y-93800000D03*
D15*
X106960000Y-79000000D03*
X109040000Y-79000000D03*
D41*
X147600000Y-95440000D03*
X147600000Y-96400000D03*
D36*
X128060000Y-65300000D03*
X127100000Y-65300000D03*
D29*
X140350000Y-98600000D03*
X143650000Y-98600000D03*
D38*
X175230000Y-98150000D03*
X176250000Y-98150000D03*
D15*
X112360000Y-85200000D03*
X114440000Y-85200000D03*
D36*
X130900000Y-76400000D03*
X129940000Y-76400000D03*
D53*
X114650000Y-71200000D03*
X111350000Y-71200000D03*
D15*
X148240000Y-79800000D03*
X146160000Y-79800000D03*
D42*
X172920000Y-84350000D03*
X173880000Y-84350000D03*
X135800000Y-62200000D03*
X136760000Y-62200000D03*
X172920000Y-83330000D03*
X173880000Y-83330000D03*
D52*
X136700000Y-63580002D03*
X136700000Y-64600000D03*
D46*
X108750000Y-76900000D03*
X107100000Y-76900000D03*
D38*
X132090001Y-94000000D03*
X133109999Y-94000000D03*
D54*
X137910000Y-102570000D03*
X136630000Y-102570000D03*
X135370000Y-102570000D03*
X134100000Y-102570000D03*
X134100000Y-97030000D03*
X135370000Y-97030000D03*
X136630000Y-97030000D03*
X137910000Y-97030000D03*
D42*
X87790000Y-76450000D03*
X88750000Y-76450000D03*
D38*
X167640000Y-84350000D03*
X168660000Y-84350000D03*
D54*
X117298089Y-98630589D03*
X116018089Y-98630589D03*
X114758089Y-98630589D03*
X113488089Y-98630589D03*
X113488089Y-93090589D03*
X114758089Y-93090589D03*
X116018089Y-93090589D03*
X117298089Y-93090589D03*
D41*
X91000000Y-78840000D03*
X91000000Y-79800000D03*
D55*
X120400000Y-63187500D03*
X120400000Y-65012500D03*
D31*
X111500000Y-99760000D03*
X111500000Y-98800000D03*
D42*
X130020000Y-99300000D03*
X130980000Y-99300000D03*
D38*
X93880000Y-72000000D03*
X94900000Y-72000000D03*
D44*
X133700000Y-66340000D03*
X133700000Y-64260000D03*
D56*
X158300000Y-73500000D03*
X161250000Y-73500000D03*
D42*
X118720000Y-69800000D03*
X119680000Y-69800000D03*
D15*
X153080000Y-68800000D03*
X151000000Y-68800000D03*
D44*
X97200000Y-96960000D03*
X97200000Y-99040000D03*
D55*
X120400000Y-59775000D03*
X120400000Y-61600000D03*
D15*
X124280000Y-66800000D03*
X122200000Y-66800000D03*
D44*
X161800000Y-96960000D03*
X161800000Y-99040000D03*
D57*
X119100000Y-100600000D03*
X118421178Y-99921178D03*
D41*
X147200000Y-66400000D03*
X147200000Y-67360000D03*
D58*
X145200000Y-92800000D03*
X145200000Y-94070000D03*
X145200000Y-95340000D03*
X145200000Y-96610000D03*
X140250000Y-96610000D03*
X140250000Y-95340000D03*
X140250000Y-94070000D03*
X140250000Y-92800000D03*
D35*
X156500000Y-76025000D03*
X156500000Y-78975000D03*
D15*
X111160000Y-73800000D03*
X113240000Y-73800000D03*
%LPD*%
M02*
