G04 #@! TF.GenerationSoftware,KiCad,Pcbnew,8.0.6*
G04 #@! TF.CreationDate,2025-01-07T14:18:53+11:00*
G04 #@! TF.ProjectId,MPPT_V3,4d505054-5f56-4332-9e6b-696361645f70,rev?*
G04 #@! TF.SameCoordinates,Original*
G04 #@! TF.FileFunction,Paste,Top*
G04 #@! TF.FilePolarity,Positive*
%FSLAX46Y46*%
G04 Gerber Fmt 4.6, Leading zero omitted, Abs format (unit mm)*
G04 Created by KiCad (PCBNEW 8.0.6) date 2025-01-07 14:18:53*
%MOMM*%
%LPD*%
G01*
G04 APERTURE LIST*
G04 Aperture macros list*
%AMRoundRect*
0 Rectangle with rounded corners*
0 $1 Rounding radius*
0 $2 $3 $4 $5 $6 $7 $8 $9 X,Y pos of 4 corners*
0 Add a 4 corners polygon primitive as box body*
4,1,4,$2,$3,$4,$5,$6,$7,$8,$9,$2,$3,0*
0 Add four circle primitives for the rounded corners*
1,1,$1+$1,$2,$3*
1,1,$1+$1,$4,$5*
1,1,$1+$1,$6,$7*
1,1,$1+$1,$8,$9*
0 Add four rect primitives between the rounded corners*
20,1,$1+$1,$2,$3,$4,$5,0*
20,1,$1+$1,$4,$5,$6,$7,0*
20,1,$1+$1,$6,$7,$8,$9,0*
20,1,$1+$1,$8,$9,$2,$3,0*%
%AMFreePoly0*
4,1,149,1.029806,0.999029,1.079806,0.989029,1.082127,0.988507,1.120971,0.978796,1.169806,0.969029,1.172127,0.968507,1.252127,0.948507,1.262361,0.944721,1.297451,0.927176,1.332127,0.918507,1.342361,0.914721,1.422361,0.874721,1.430000,0.870000,1.466394,0.842704,1.502361,0.824721,1.515355,0.815355,1.542840,0.787870,1.580000,0.760000,1.585355,0.755355,1.705355,0.635355,
1.710000,0.630000,1.737870,0.592840,1.765355,0.565355,1.774721,0.552361,1.834721,0.432361,1.838507,0.422127,1.849039,0.380000,3.510000,0.380000,3.545355,0.365355,3.560000,0.330000,3.560000,-0.330000,3.545355,-0.365355,3.510000,-0.380000,1.849039,-0.380000,1.838507,-0.422127,1.834721,-0.432361,1.774721,-0.552361,1.765355,-0.565355,1.737870,-0.592840,1.710000,-0.630000,
1.705355,-0.635355,1.647870,-0.692840,1.620000,-0.730000,1.607735,-0.741603,1.578884,-0.760837,1.542840,-0.787870,1.515355,-0.815355,1.502361,-0.824721,1.466394,-0.842704,1.430000,-0.870000,1.422361,-0.874721,1.342361,-0.914721,1.332127,-0.918507,1.297451,-0.927176,1.262361,-0.944721,1.252127,-0.948507,1.172127,-0.968507,1.169806,-0.969029,1.120971,-0.978796,1.082127,-0.988507,
1.079806,-0.989029,1.029806,-0.999029,1.020000,-1.000000,-1.010000,-1.000000,-1.022127,-0.998507,-1.060971,-0.988796,-1.109806,-0.979029,-1.112127,-0.978507,-1.190971,-0.958796,-1.239806,-0.949029,-1.252361,-0.944721,-1.287451,-0.927176,-1.322127,-0.918507,-1.332361,-0.914721,-1.412361,-0.874721,-1.420000,-0.870000,-1.458884,-0.840837,-1.487735,-0.821603,-1.490000,-0.820000,-1.530000,-0.790000,
-1.535355,-0.785355,-1.559617,-0.761093,-1.592361,-0.744721,-1.610000,-0.730000,-1.637870,-0.692840,-1.695355,-0.635355,-1.700000,-0.630000,-1.730000,-0.590000,-1.731603,-0.587735,-1.751603,-0.557735,-1.754721,-0.552361,-1.772704,-0.516394,-1.800000,-0.480000,-1.804721,-0.472361,-1.844721,-0.392361,-1.848507,-0.382127,-1.857176,-0.347451,-1.874721,-0.312361,-1.879029,-0.299806,-1.888796,-0.250971,
-1.908507,-0.172127,-1.910000,-0.160000,-1.910000,-0.116155,-1.918507,-0.082127,-1.920000,-0.070000,-1.920000,0.070000,-1.918507,0.082127,-1.910000,0.116155,-1.910000,0.150000,-1.909029,0.159806,-1.899029,0.209806,-1.898507,0.212127,-1.878507,0.292127,-1.876424,0.298570,-1.857683,0.345421,-1.848507,0.382127,-1.844721,0.392361,-1.804721,0.472361,-1.800000,0.480000,-1.772704,0.516394,
-1.754721,0.552361,-1.751603,0.557735,-1.731603,0.587735,-1.730000,0.590000,-1.700000,0.630000,-1.695355,0.635355,-1.605355,0.725355,-1.600000,0.730000,-1.562840,0.757870,-1.535355,0.785355,-1.530000,0.790000,-1.490000,0.820000,-1.487735,0.821603,-1.458884,0.840837,-1.420000,0.870000,-1.412361,0.874721,-1.332361,0.914721,-1.322127,0.918507,-1.287451,0.927176,-1.252361,0.944721,
-1.239806,0.949029,-1.190971,0.958796,-1.112127,0.978507,-1.109806,0.979029,-1.060971,0.988796,-1.022127,0.998507,-1.010000,1.000000,1.020000,1.000000,1.029806,0.999029,1.029806,0.999029,$1*%
G04 Aperture macros list end*
%ADD10RoundRect,0.140000X-0.140000X-0.170000X0.140000X-0.170000X0.140000X0.170000X-0.140000X0.170000X0*%
%ADD11RoundRect,0.250000X-1.100000X0.325000X-1.100000X-0.325000X1.100000X-0.325000X1.100000X0.325000X0*%
%ADD12R,1.000000X0.600000*%
%ADD13R,4.000000X4.410000*%
%ADD14O,0.590000X1.970000*%
%ADD15RoundRect,0.147500X0.172500X-0.147500X0.172500X0.147500X-0.172500X0.147500X-0.172500X-0.147500X0*%
%ADD16RoundRect,0.135000X-0.135000X-0.185000X0.135000X-0.185000X0.135000X0.185000X-0.135000X0.185000X0*%
%ADD17RoundRect,0.140000X0.140000X0.170000X-0.140000X0.170000X-0.140000X-0.170000X0.140000X-0.170000X0*%
%ADD18RoundRect,0.250000X0.650000X-0.325000X0.650000X0.325000X-0.650000X0.325000X-0.650000X-0.325000X0*%
%ADD19RoundRect,0.140000X0.170000X-0.140000X0.170000X0.140000X-0.170000X0.140000X-0.170000X-0.140000X0*%
%ADD20RoundRect,0.135000X-0.185000X0.135000X-0.185000X-0.135000X0.185000X-0.135000X0.185000X0.135000X0*%
%ADD21RoundRect,0.250000X0.450000X-0.262500X0.450000X0.262500X-0.450000X0.262500X-0.450000X-0.262500X0*%
%ADD22R,5.500000X3.000000*%
%ADD23R,0.200000X0.660000*%
%ADD24R,0.660000X0.200000*%
%ADD25R,4.000000X4.000000*%
%ADD26RoundRect,0.225000X0.225000X0.250000X-0.225000X0.250000X-0.225000X-0.250000X0.225000X-0.250000X0*%
%ADD27RoundRect,0.250000X0.250000X0.475000X-0.250000X0.475000X-0.250000X-0.475000X0.250000X-0.475000X0*%
%ADD28R,1.200000X1.400000*%
%ADD29RoundRect,0.200000X0.800000X-0.200000X0.800000X0.200000X-0.800000X0.200000X-0.800000X-0.200000X0*%
%ADD30RoundRect,0.225000X-0.225000X-0.250000X0.225000X-0.250000X0.225000X0.250000X-0.225000X0.250000X0*%
%ADD31RoundRect,0.250000X0.325000X0.650000X-0.325000X0.650000X-0.325000X-0.650000X0.325000X-0.650000X0*%
%ADD32R,1.580000X0.670000*%
%ADD33FreePoly0,0.000000*%
%ADD34RoundRect,0.250000X-0.325000X-1.100000X0.325000X-1.100000X0.325000X1.100000X-0.325000X1.100000X0*%
%ADD35RoundRect,0.200000X-0.800000X0.200000X-0.800000X-0.200000X0.800000X-0.200000X0.800000X0.200000X0*%
%ADD36O,1.600000X0.600000*%
%ADD37R,2.500000X3.200000*%
%ADD38RoundRect,0.135000X0.135000X0.185000X-0.135000X0.185000X-0.135000X-0.185000X0.135000X-0.185000X0*%
%ADD39RoundRect,0.250000X-0.362500X-1.425000X0.362500X-1.425000X0.362500X1.425000X-0.362500X1.425000X0*%
%ADD40RoundRect,0.135000X0.185000X-0.135000X0.185000X0.135000X-0.185000X0.135000X-0.185000X-0.135000X0*%
%ADD41RoundRect,0.250000X0.312500X0.625000X-0.312500X0.625000X-0.312500X-0.625000X0.312500X-0.625000X0*%
%ADD42RoundRect,0.250000X0.325000X1.100000X-0.325000X1.100000X-0.325000X-1.100000X0.325000X-1.100000X0*%
%ADD43R,1.450000X0.600000*%
%ADD44R,1.450000X0.300000*%
%ADD45RoundRect,0.250000X-0.250000X-0.475000X0.250000X-0.475000X0.250000X0.475000X-0.250000X0.475000X0*%
%ADD46O,0.600000X1.600000*%
%ADD47R,3.200000X2.500000*%
%ADD48O,0.630000X2.250000*%
%ADD49RoundRect,0.250000X1.100000X-0.325000X1.100000X0.325000X-1.100000X0.325000X-1.100000X-0.325000X0*%
%ADD50RoundRect,0.147500X-0.147500X-0.172500X0.147500X-0.172500X0.147500X0.172500X-0.147500X0.172500X0*%
%ADD51RoundRect,0.250000X-0.450000X0.262500X-0.450000X-0.262500X0.450000X-0.262500X0.450000X0.262500X0*%
G04 APERTURE END LIST*
D10*
X164820000Y-126700000D03*
X165780000Y-126700000D03*
D11*
X101000000Y-75550000D03*
X101000000Y-78500000D03*
D12*
X153900000Y-94560000D03*
X153900000Y-93280000D03*
X153900000Y-92020000D03*
X153900000Y-90750000D03*
X148060000Y-90750000D03*
X148060000Y-92020000D03*
X148060000Y-93280000D03*
X148060000Y-94560000D03*
D13*
X150370000Y-92650000D03*
D14*
X167950000Y-115400000D03*
X169220000Y-115400000D03*
X170490000Y-115400000D03*
X171760000Y-115400000D03*
X173030000Y-115400000D03*
X174300000Y-115400000D03*
X175570000Y-115400000D03*
X175570000Y-109940000D03*
X174300000Y-109940000D03*
X173030000Y-109940000D03*
X171760000Y-109940000D03*
X170490000Y-109940000D03*
X169220000Y-109940000D03*
X167950000Y-109940000D03*
D10*
X159550000Y-135900000D03*
X160510000Y-135900000D03*
D15*
X152000000Y-141435000D03*
X152000000Y-140465000D03*
D16*
X84240000Y-72050000D03*
X85260000Y-72050000D03*
D12*
X111730000Y-81810000D03*
X111730000Y-80530000D03*
X111730000Y-79270000D03*
X111730000Y-78000000D03*
X105890000Y-78000000D03*
X105890000Y-79270000D03*
X105890000Y-80530000D03*
X105890000Y-81810000D03*
D13*
X108200000Y-79900000D03*
D17*
X144960000Y-139000000D03*
X144000000Y-139000000D03*
D18*
X105400000Y-104975000D03*
X105400000Y-102025000D03*
D19*
X145800000Y-141380000D03*
X145800000Y-140420000D03*
D20*
X177230000Y-114150000D03*
X177230000Y-115169998D03*
D21*
X158250000Y-112625000D03*
X158250000Y-110800000D03*
D12*
X111730000Y-88310000D03*
X111730000Y-87030000D03*
X111730000Y-85770000D03*
X111730000Y-84500000D03*
X105890000Y-84500000D03*
X105890000Y-85770000D03*
X105890000Y-87030000D03*
X105890000Y-88310000D03*
D13*
X108200000Y-86400000D03*
D17*
X150380000Y-138000000D03*
X149420000Y-138000000D03*
D22*
X110300000Y-105830000D03*
X110300000Y-101170000D03*
D23*
X152390000Y-139010000D03*
X152790000Y-139010000D03*
X153190000Y-139010000D03*
X153590000Y-139010000D03*
X153990000Y-139010000D03*
X154390000Y-139010000D03*
X154790000Y-139010000D03*
X155190000Y-139010000D03*
X155590000Y-139010000D03*
X155990000Y-139010000D03*
X156390000Y-139010000D03*
X156790000Y-139010000D03*
X157190000Y-139010000D03*
X157590000Y-139010000D03*
D24*
X158400000Y-138200000D03*
X158400000Y-137800000D03*
X158400000Y-137400000D03*
X158400000Y-137000000D03*
X158400000Y-136600000D03*
X158400000Y-136200000D03*
X158400000Y-135800000D03*
X158400000Y-135400000D03*
X158400000Y-135000000D03*
X158400000Y-134600000D03*
X158400000Y-134200000D03*
X158400000Y-133800000D03*
X158400000Y-133400000D03*
X158400000Y-133000000D03*
D23*
X157590000Y-132190000D03*
X157190000Y-132190000D03*
X156790000Y-132190000D03*
X156390000Y-132190000D03*
X155990000Y-132190000D03*
X155590000Y-132190000D03*
X155190000Y-132190000D03*
X154790000Y-132190000D03*
X154390000Y-132190000D03*
X153990000Y-132190000D03*
X153590000Y-132190000D03*
X153190000Y-132190000D03*
X152790000Y-132190000D03*
X152390000Y-132190000D03*
D24*
X151580000Y-133000000D03*
X151580000Y-133400000D03*
X151580000Y-133800000D03*
X151580000Y-134200000D03*
X151580000Y-134600000D03*
X151580000Y-135000000D03*
X151580000Y-135400000D03*
X151580000Y-135800000D03*
X151580000Y-136200000D03*
X151580000Y-136600000D03*
X151580000Y-137000000D03*
X151580000Y-137400000D03*
X151580000Y-137800000D03*
X151580000Y-138200000D03*
D25*
X154990000Y-135600000D03*
D18*
X153400000Y-104525000D03*
X153400000Y-101575000D03*
D26*
X150750000Y-142550000D03*
X149200000Y-142550000D03*
D27*
X113380000Y-120280000D03*
X111480000Y-120280000D03*
D20*
X155700000Y-101300000D03*
X155700000Y-102320000D03*
D28*
X145300000Y-137350000D03*
X145300000Y-134950000D03*
X143400000Y-134950000D03*
X143400000Y-137350000D03*
D29*
X161700000Y-148500000D03*
X161700000Y-144300000D03*
D30*
X104550000Y-100100000D03*
X106100000Y-100100000D03*
D31*
X155075000Y-114700000D03*
X152125000Y-114700000D03*
D18*
X100400000Y-110975000D03*
X100400000Y-108025000D03*
D12*
X148170000Y-84690000D03*
X148170000Y-85970000D03*
X148170000Y-87230000D03*
X148170000Y-88500000D03*
X154010000Y-88500000D03*
X154010000Y-87230000D03*
X154010000Y-85970000D03*
X154010000Y-84690000D03*
D13*
X151700000Y-86600000D03*
D32*
X117750000Y-119380000D03*
D33*
X115030000Y-117880000D03*
D32*
X117750000Y-116380000D03*
D26*
X154175000Y-99550000D03*
X152625000Y-99550000D03*
D34*
X158350000Y-73500000D03*
X161300000Y-73500000D03*
D10*
X143940000Y-133350000D03*
X144900000Y-133350000D03*
D29*
X150700000Y-148400000D03*
X150700000Y-144200000D03*
D11*
X158300000Y-76025000D03*
X158300000Y-78975000D03*
D20*
X113200000Y-108690000D03*
X113200000Y-109710000D03*
D35*
X169200000Y-120800000D03*
X169200000Y-125000000D03*
D20*
X177190000Y-112220000D03*
X177190000Y-113239998D03*
D10*
X152900000Y-141750000D03*
X153860000Y-141750000D03*
D36*
X103100000Y-108400000D03*
X103100000Y-109670000D03*
X103100000Y-110940000D03*
X103100000Y-112210000D03*
X109100000Y-112210000D03*
X109100000Y-110940000D03*
X109100000Y-109670000D03*
X109100000Y-108400000D03*
D37*
X106100000Y-110300000D03*
D38*
X169109999Y-117190000D03*
X168090001Y-117190000D03*
D10*
X159040000Y-130200000D03*
X160000000Y-130200000D03*
D29*
X144900000Y-148400000D03*
X144900000Y-144200000D03*
D19*
X148700000Y-141380000D03*
X148700000Y-140420000D03*
D17*
X151260000Y-108100000D03*
X150300000Y-108100000D03*
D39*
X139600000Y-79400000D03*
X145525000Y-79400000D03*
D40*
X110550000Y-147070000D03*
X110550000Y-146050000D03*
D16*
X162790000Y-126700000D03*
X163810000Y-126700000D03*
D41*
X138212500Y-149000000D03*
X135287500Y-149000000D03*
D42*
X100500000Y-73050000D03*
X97550000Y-73050000D03*
D43*
X171670022Y-139353263D03*
X171670022Y-138553263D03*
D44*
X171670022Y-137353263D03*
X171670022Y-136353263D03*
X171670022Y-135853263D03*
X171670022Y-134853263D03*
D43*
X171670022Y-133653263D03*
X171670022Y-132853263D03*
X171670022Y-132853263D03*
X171670022Y-133653263D03*
D44*
X171670022Y-134353263D03*
X171670022Y-135353263D03*
X171670022Y-136853263D03*
X171670022Y-137853263D03*
D43*
X171670022Y-138553263D03*
X171670022Y-139353263D03*
D27*
X117780000Y-114280000D03*
X115880000Y-114280000D03*
D12*
X148170000Y-78190000D03*
X148170000Y-79470000D03*
X148170000Y-80730000D03*
X148170000Y-82000000D03*
X154010000Y-82000000D03*
X154010000Y-80730000D03*
X154010000Y-79470000D03*
X154010000Y-78190000D03*
D13*
X151700000Y-80100000D03*
D12*
X153930000Y-75910000D03*
X153930000Y-74630000D03*
X153930000Y-73370000D03*
X153930000Y-72100000D03*
X148090000Y-72100000D03*
X148090000Y-73370000D03*
X148090000Y-74630000D03*
X148090000Y-75910000D03*
D13*
X150400000Y-74000000D03*
D38*
X167310000Y-135610000D03*
X166290000Y-135610000D03*
D45*
X115380000Y-121280000D03*
X117280000Y-121280000D03*
D46*
X152450000Y-112550000D03*
X153720000Y-112550000D03*
X154990000Y-112550000D03*
X156260000Y-112550000D03*
X156260000Y-106550000D03*
X154990000Y-106550000D03*
X153720000Y-106550000D03*
X152450000Y-106550000D03*
D47*
X154350000Y-109550000D03*
D12*
X105970000Y-72090000D03*
X105970000Y-73370000D03*
X105970000Y-74630000D03*
X105970000Y-75900000D03*
X111810000Y-75900000D03*
X111810000Y-74630000D03*
X111810000Y-73370000D03*
X111810000Y-72090000D03*
D13*
X109500000Y-74000000D03*
D38*
X113360000Y-146950000D03*
X112340000Y-146950000D03*
D10*
X158270000Y-131500000D03*
X159230000Y-131500000D03*
D48*
X158910000Y-119870000D03*
X157630000Y-119870000D03*
X156370000Y-119870000D03*
X155100000Y-119870000D03*
X155100000Y-126930000D03*
X156370000Y-126930000D03*
X157630000Y-126930000D03*
X158910000Y-126930000D03*
D19*
X110800000Y-109460000D03*
X110800000Y-108500000D03*
D49*
X158500000Y-90450000D03*
X158500000Y-87500000D03*
D17*
X150880000Y-139000000D03*
X149920000Y-139000000D03*
D35*
X164500000Y-120800000D03*
X164500000Y-125000000D03*
D39*
X139637500Y-87000000D03*
X145562500Y-87000000D03*
D22*
X148800000Y-105580000D03*
X148800000Y-100920000D03*
D29*
X156200000Y-148400000D03*
X156200000Y-144200000D03*
D20*
X113200000Y-110790000D03*
X113200000Y-111810000D03*
D12*
X105910000Y-90750000D03*
X105910000Y-92030000D03*
X105910000Y-93290000D03*
X105910000Y-94560000D03*
X111750000Y-94560000D03*
X111750000Y-93290000D03*
X111750000Y-92030000D03*
X111750000Y-90750000D03*
D13*
X109440000Y-92660000D03*
D17*
X150280000Y-134200000D03*
X149320000Y-134200000D03*
D38*
X167320000Y-136700000D03*
X166300000Y-136700000D03*
D20*
X177210000Y-110300002D03*
X177210000Y-111320000D03*
D50*
X146815000Y-141400000D03*
X147785000Y-141400000D03*
D49*
X101000000Y-91000000D03*
X101000000Y-88050000D03*
D16*
X156790000Y-104400000D03*
X157810000Y-104400000D03*
D38*
X147650000Y-137000000D03*
X146630000Y-137000000D03*
D51*
X100400000Y-113187500D03*
X100400000Y-115012500D03*
M02*
