%TF.GenerationSoftware,KiCad,Pcbnew,8.0.4*%
%TF.CreationDate,2024-08-05T20:39:26+10:00*%
%TF.ProjectId,MPPT_V2,4d505054-5f56-4322-9e6b-696361645f70,rev?*%
%TF.SameCoordinates,Original*%
%TF.FileFunction,Legend,Bot*%
%TF.FilePolarity,Positive*%
%FSLAX46Y46*%
G04 Gerber Fmt 4.6, Leading zero omitted, Abs format (unit mm)*
G04 Created by KiCad (PCBNEW 8.0.4) date 2024-08-05 20:39:26*
%MOMM*%
%LPD*%
G01*
G04 APERTURE LIST*
G04 Aperture macros list*
%AMRoundRect*
0 Rectangle with rounded corners*
0 $1 Rounding radius*
0 $2 $3 $4 $5 $6 $7 $8 $9 X,Y pos of 4 corners*
0 Add a 4 corners polygon primitive as box body*
4,1,4,$2,$3,$4,$5,$6,$7,$8,$9,$2,$3,0*
0 Add four circle primitives for the rounded corners*
1,1,$1+$1,$2,$3*
1,1,$1+$1,$4,$5*
1,1,$1+$1,$6,$7*
1,1,$1+$1,$8,$9*
0 Add four rect primitives between the rounded corners*
20,1,$1+$1,$2,$3,$4,$5,0*
20,1,$1+$1,$4,$5,$6,$7,0*
20,1,$1+$1,$6,$7,$8,$9,0*
20,1,$1+$1,$8,$9,$2,$3,0*%
G04 Aperture macros list end*
%ADD10C,0.120000*%
%ADD11C,0.150000*%
%ADD12C,0.200000*%
%ADD13C,0.300000*%
%ADD14C,0.250000*%
%ADD15C,6.000000*%
%ADD16C,2.200000*%
%ADD17C,0.650000*%
%ADD18O,2.100000X1.000000*%
%ADD19O,1.600000X1.000000*%
%ADD20C,3.000000*%
%ADD21C,1.600000*%
%ADD22R,1.700000X1.700000*%
%ADD23O,1.700000X1.700000*%
%ADD24C,3.800000*%
%ADD25O,2.200000X1.200000*%
%ADD26RoundRect,0.250000X-0.250000X-0.475000X0.250000X-0.475000X0.250000X0.475000X-0.250000X0.475000X0*%
%ADD27R,0.500000X0.780000*%
%ADD28R,0.300000X1.300000*%
%ADD29RoundRect,0.200000X-0.200000X-0.275000X0.200000X-0.275000X0.200000X0.275000X-0.200000X0.275000X0*%
%ADD30RoundRect,0.250000X0.325000X1.100000X-0.325000X1.100000X-0.325000X-1.100000X0.325000X-1.100000X0*%
%ADD31RoundRect,0.250000X-1.100000X0.325000X-1.100000X-0.325000X1.100000X-0.325000X1.100000X0.325000X0*%
%ADD32RoundRect,0.135000X-0.185000X0.135000X-0.185000X-0.135000X0.185000X-0.135000X0.185000X0.135000X0*%
%ADD33RoundRect,0.250000X0.262500X0.450000X-0.262500X0.450000X-0.262500X-0.450000X0.262500X-0.450000X0*%
%ADD34RoundRect,0.140000X0.140000X0.170000X-0.140000X0.170000X-0.140000X-0.170000X0.140000X-0.170000X0*%
%ADD35O,2.050000X0.590000*%
%ADD36RoundRect,0.135000X-0.135000X-0.185000X0.135000X-0.185000X0.135000X0.185000X-0.135000X0.185000X0*%
%ADD37RoundRect,0.135000X0.135000X0.185000X-0.135000X0.185000X-0.135000X-0.185000X0.135000X-0.185000X0*%
%ADD38RoundRect,0.150000X-0.825000X-0.150000X0.825000X-0.150000X0.825000X0.150000X-0.825000X0.150000X0*%
%ADD39RoundRect,0.140000X-0.140000X-0.170000X0.140000X-0.170000X0.140000X0.170000X-0.140000X0.170000X0*%
%ADD40RoundRect,0.140000X0.170000X-0.140000X0.170000X0.140000X-0.170000X0.140000X-0.170000X-0.140000X0*%
%ADD41RoundRect,0.250000X0.362500X1.425000X-0.362500X1.425000X-0.362500X-1.425000X0.362500X-1.425000X0*%
%ADD42RoundRect,0.200000X0.200000X0.275000X-0.200000X0.275000X-0.200000X-0.275000X0.200000X-0.275000X0*%
%ADD43R,0.780000X0.500000*%
%ADD44RoundRect,0.225000X-0.225000X-0.375000X0.225000X-0.375000X0.225000X0.375000X-0.225000X0.375000X0*%
%ADD45R,0.400000X0.800000*%
%ADD46RoundRect,0.135000X0.185000X-0.135000X0.185000X0.135000X-0.185000X0.135000X-0.185000X-0.135000X0*%
%ADD47RoundRect,0.250000X-0.362500X-1.425000X0.362500X-1.425000X0.362500X1.425000X-0.362500X1.425000X0*%
%ADD48RoundRect,0.250000X1.100000X-0.325000X1.100000X0.325000X-1.100000X0.325000X-1.100000X-0.325000X0*%
%ADD49RoundRect,0.140000X-0.170000X0.140000X-0.170000X-0.140000X0.170000X-0.140000X0.170000X0.140000X0*%
%ADD50RoundRect,0.225000X0.375000X-0.225000X0.375000X0.225000X-0.375000X0.225000X-0.375000X-0.225000X0*%
%ADD51RoundRect,0.250000X-0.262500X-0.450000X0.262500X-0.450000X0.262500X0.450000X-0.262500X0.450000X0*%
%ADD52RoundRect,0.225000X-0.375000X0.225000X-0.375000X-0.225000X0.375000X-0.225000X0.375000X0.225000X0*%
%ADD53RoundRect,0.250000X-0.450000X0.262500X-0.450000X-0.262500X0.450000X-0.262500X0.450000X0.262500X0*%
%ADD54RoundRect,0.250000X-0.325000X-1.100000X0.325000X-1.100000X0.325000X1.100000X-0.325000X1.100000X0*%
%ADD55RoundRect,0.150000X-0.150000X0.825000X-0.150000X-0.825000X0.150000X-0.825000X0.150000X0.825000X0*%
G04 APERTURE END LIST*
D10*
%TO.C,C9*%
X123911252Y-61765000D02*
X123388748Y-61765000D01*
X123911252Y-63235000D02*
X123388748Y-63235000D01*
D11*
%TO.C,D3*%
X109150000Y-83280000D02*
X109150000Y-85140000D01*
X109150000Y-83790000D02*
X110550000Y-83790000D01*
X109150000Y-85140000D02*
X109420000Y-85140000D01*
X110280000Y-85140000D02*
X110550000Y-85140000D01*
X110550000Y-83280000D02*
X110550000Y-85140000D01*
%TO.C,U12*%
X170980000Y-90070000D02*
X170980000Y-93170000D01*
X170980000Y-90070000D02*
X174080000Y-90070000D01*
X170980000Y-93160000D02*
X174080000Y-93160000D01*
X174100000Y-90900000D02*
X174100000Y-90070000D01*
X174100000Y-93160000D02*
X174100000Y-92330000D01*
X174100000Y-92330000D02*
G75*
G02*
X174105241Y-90928449I210001J700000D01*
G01*
D12*
X174120000Y-93580000D02*
G75*
G02*
X173920000Y-93580000I-100000J0D01*
G01*
X173920000Y-93580000D02*
G75*
G02*
X174120000Y-93580000I100000J0D01*
G01*
D10*
%TO.C,R31*%
X152362258Y-89277500D02*
X151887742Y-89277500D01*
X152362258Y-90322500D02*
X151887742Y-90322500D01*
D11*
%TO.C,D1*%
X130200000Y-98790000D02*
X130200000Y-96930000D01*
X130470000Y-96930000D02*
X130200000Y-96930000D01*
X131600000Y-96930000D02*
X131330000Y-96930000D01*
X131600000Y-98280000D02*
X130200000Y-98280000D01*
X131600000Y-98790000D02*
X131600000Y-96930000D01*
D10*
%TO.C,C49*%
X100313748Y-71640000D02*
X101736252Y-71640000D01*
X100313748Y-74360000D02*
X101736252Y-74360000D01*
%TO.C,C51*%
X101640000Y-77686252D02*
X101640000Y-76263748D01*
X104360000Y-77686252D02*
X104360000Y-76263748D01*
%TO.C,R30*%
X141420000Y-79043641D02*
X141420000Y-78736359D01*
X142180000Y-79043641D02*
X142180000Y-78736359D01*
%TO.C,R26*%
X94275436Y-72915000D02*
X94729564Y-72915000D01*
X94275436Y-74385000D02*
X94729564Y-74385000D01*
%TO.C,C17*%
X138312164Y-90040000D02*
X138527836Y-90040000D01*
X138312164Y-90760000D02*
X138527836Y-90760000D01*
D11*
%TO.C,U17*%
X135360000Y-78740000D02*
X138400000Y-78740000D01*
X135360000Y-83800000D02*
X135360000Y-78740000D01*
X138400000Y-78740000D02*
X138400000Y-83800000D01*
X138400000Y-83800000D02*
X135360000Y-83800000D01*
D13*
X134260000Y-83920000D02*
G75*
G02*
X133960000Y-83920000I-150000J0D01*
G01*
X133960000Y-83920000D02*
G75*
G02*
X134260000Y-83920000I150000J0D01*
G01*
X136260000Y-83180000D02*
G75*
G02*
X135960000Y-83180000I-150000J0D01*
G01*
X135960000Y-83180000D02*
G75*
G02*
X136260000Y-83180000I150000J0D01*
G01*
D10*
%TO.C,R17*%
X86743641Y-89470000D02*
X86436359Y-89470000D01*
X86743641Y-90230000D02*
X86436359Y-90230000D01*
%TO.C,C24*%
X86156359Y-66320000D02*
X86463641Y-66320000D01*
X86156359Y-67080000D02*
X86463641Y-67080000D01*
%TO.C,U21*%
X140875000Y-70875000D02*
X142825000Y-70875000D01*
X140875000Y-75995000D02*
X142825000Y-75995000D01*
X144775000Y-70875000D02*
X142825000Y-70875000D01*
X144775000Y-75995000D02*
X142825000Y-75995000D01*
X140365000Y-76230000D02*
X139885000Y-76230000D01*
X140125000Y-75900000D01*
X140365000Y-76230000D01*
G36*
X140365000Y-76230000D02*
G01*
X139885000Y-76230000D01*
X140125000Y-75900000D01*
X140365000Y-76230000D01*
G37*
D11*
%TO.C,D4*%
X125200000Y-72520000D02*
X125200000Y-74380000D01*
X125200000Y-73030000D02*
X126600000Y-73030000D01*
X125200000Y-74380000D02*
X125470000Y-74380000D01*
X126330000Y-74380000D02*
X126600000Y-74380000D01*
X126600000Y-72520000D02*
X126600000Y-74380000D01*
D10*
%TO.C,C10*%
X88377836Y-77040000D02*
X88162164Y-77040000D01*
X88377836Y-77760000D02*
X88162164Y-77760000D01*
%TO.C,C48*%
X131790000Y-84192164D02*
X131790000Y-84407836D01*
X132510000Y-84192164D02*
X132510000Y-84407836D01*
%TO.C,R28*%
X86485436Y-82490000D02*
X90839564Y-82490000D01*
X86485436Y-85910000D02*
X90839564Y-85910000D01*
%TO.C,R39*%
X113662742Y-76477500D02*
X114137258Y-76477500D01*
X113662742Y-77522500D02*
X114137258Y-77522500D01*
D11*
%TO.C,D10*%
X122120000Y-71100000D02*
X123980000Y-71100000D01*
X122120000Y-72500000D02*
X123980000Y-72500000D01*
X122630000Y-72500000D02*
X122630000Y-71100000D01*
X123980000Y-71370000D02*
X123980000Y-71100000D01*
X123980000Y-72500000D02*
X123980000Y-72230000D01*
D10*
%TO.C,D6*%
X118490000Y-73900000D02*
X118490000Y-75900000D01*
X122500000Y-73900000D02*
X118490000Y-73900000D01*
X122500000Y-75900000D02*
X118490000Y-75900000D01*
%TO.C,U8*%
X87360000Y-79070000D02*
X87370000Y-79070000D01*
X87360000Y-80240000D02*
X87360000Y-79070000D01*
X87370000Y-79070000D02*
X89550000Y-79070000D01*
X89550000Y-79070000D02*
X89550000Y-79080000D01*
X89550000Y-79080000D02*
X89550000Y-80240000D01*
X89550000Y-80240000D02*
X87360000Y-80240000D01*
D14*
X87180001Y-78380000D02*
X87180001Y-78380000D01*
X87180001Y-78380000D01*
X87180001Y-78380000D01*
X87180001Y-78380000D01*
X87180001Y-78380000D01*
X87180001Y-78380001D01*
X87180001Y-78380001D01*
X87180001Y-78380001D01*
X87180001Y-78380001D01*
X87180001Y-78380001D01*
X87180001Y-78380001D01*
X87180001Y-78380001D01*
X87180000Y-78380001D01*
X87180000Y-78380001D01*
X87180000Y-78380001D01*
X87180000Y-78380001D01*
X87180000Y-78380001D01*
X87180000Y-78380001D01*
X87180000Y-78380001D01*
X87180000Y-78380001D01*
X87180000Y-78380001D01*
X87180000Y-78380001D01*
X87180000Y-78380001D01*
X87180000Y-78380001D01*
X87179999Y-78380001D01*
X87179999Y-78380001D01*
X87179999Y-78380001D01*
X87179999Y-78380001D01*
X87179999Y-78380001D01*
X87179999Y-78380001D01*
X87179999Y-78380000D01*
X87179999Y-78380000D01*
X87179999Y-78380000D01*
X87179999Y-78380000D01*
X87179999Y-78380000D01*
X87179999Y-78380000D01*
X87179999Y-78380000D02*
X87179999Y-78380000D01*
X87179999Y-78380000D01*
X87179999Y-78380000D01*
X87179999Y-78380000D01*
X87179999Y-78380000D01*
X87179999Y-78380000D01*
X87179999Y-78379999D01*
X87179999Y-78379999D01*
X87179999Y-78379999D01*
X87179999Y-78379999D01*
X87179999Y-78379999D01*
X87180000Y-78379999D01*
X87180000Y-78379999D01*
X87180000Y-78379999D01*
X87180000Y-78379999D01*
X87180000Y-78379999D01*
X87180000Y-78379999D01*
X87180000Y-78379999D01*
X87180000Y-78379999D01*
X87180000Y-78379999D01*
X87180000Y-78379999D01*
X87180000Y-78379999D01*
X87180000Y-78379999D01*
X87180001Y-78379999D01*
X87180001Y-78379999D01*
X87180001Y-78379999D01*
X87180001Y-78379999D01*
X87180001Y-78379999D01*
X87180001Y-78379999D01*
X87180001Y-78380000D01*
X87180001Y-78380000D01*
X87180001Y-78380000D01*
X87180001Y-78380000D01*
X87180001Y-78380000D01*
X87180001Y-78380000D01*
X87180001Y-78380000D01*
D10*
%TO.C,R14*%
X174570000Y-133686359D02*
X174570000Y-133993641D01*
X175330000Y-133686359D02*
X175330000Y-133993641D01*
D11*
%TO.C,U13*%
X120710000Y-78740000D02*
X123750000Y-78740000D01*
X120710000Y-83800000D02*
X120710000Y-78740000D01*
X123750000Y-78740000D02*
X123750000Y-83800000D01*
X123750000Y-83800000D02*
X120710000Y-83800000D01*
D13*
X123150000Y-79360000D02*
G75*
G02*
X122850000Y-79360000I-150000J0D01*
G01*
X122850000Y-79360000D02*
G75*
G02*
X123150000Y-79360000I150000J0D01*
G01*
X125150000Y-78620000D02*
G75*
G02*
X124850000Y-78620000I-150000J0D01*
G01*
X124850000Y-78620000D02*
G75*
G02*
X125150000Y-78620000I150000J0D01*
G01*
D10*
%TO.C,R20*%
X173014564Y-76690000D02*
X168660436Y-76690000D01*
X173014564Y-80110000D02*
X168660436Y-80110000D01*
%TO.C,C47*%
X102140000Y-88813748D02*
X102140000Y-90236252D01*
X104860000Y-88813748D02*
X104860000Y-90236252D01*
%TO.C,R34*%
X175620000Y-96356359D02*
X175620000Y-96663641D01*
X176380000Y-96356359D02*
X176380000Y-96663641D01*
%TO.C,R33*%
X146512258Y-88977500D02*
X146037742Y-88977500D01*
X146512258Y-90022500D02*
X146037742Y-90022500D01*
%TO.C,R18*%
X86753641Y-90870000D02*
X86446359Y-90870000D01*
X86753641Y-91630000D02*
X86446359Y-91630000D01*
%TO.C,C45*%
X89640000Y-79387836D02*
X89640000Y-79172164D01*
X90360000Y-79387836D02*
X90360000Y-79172164D01*
%TO.C,C42*%
X168790000Y-82742164D02*
X168790000Y-82957836D01*
X169510000Y-82742164D02*
X169510000Y-82957836D01*
%TO.C,R32*%
X152162258Y-70127500D02*
X151687742Y-70127500D01*
X152162258Y-71172500D02*
X151687742Y-71172500D01*
D11*
%TO.C,D2*%
X131900000Y-98770000D02*
X131900000Y-96910000D01*
X132170000Y-96910000D02*
X131900000Y-96910000D01*
X133300000Y-96910000D02*
X133030000Y-96910000D01*
X133300000Y-98260000D02*
X131900000Y-98260000D01*
X133300000Y-98770000D02*
X133300000Y-96910000D01*
D10*
%TO.C,R38*%
X147487258Y-81377500D02*
X147012742Y-81377500D01*
X147487258Y-82422500D02*
X147012742Y-82422500D01*
%TO.C,D7*%
X141000000Y-86400000D02*
X141000000Y-90410000D01*
X141000000Y-90410000D02*
X143000000Y-90410000D01*
X143000000Y-86400000D02*
X143000000Y-90410000D01*
%TO.C,C15*%
X134340000Y-90872164D02*
X134340000Y-91087836D01*
X135060000Y-90872164D02*
X135060000Y-91087836D01*
%TO.C,R24*%
X165702064Y-81240000D02*
X165247936Y-81240000D01*
X165702064Y-82710000D02*
X165247936Y-82710000D01*
%TO.C,C50*%
X173643641Y-87620000D02*
X173336359Y-87620000D01*
X173643641Y-88380000D02*
X173336359Y-88380000D01*
%TO.C,R13*%
X174570000Y-138003641D02*
X174570000Y-137696359D01*
X175330000Y-138003641D02*
X175330000Y-137696359D01*
%TO.C,C13*%
X142072164Y-98640000D02*
X142287836Y-98640000D01*
X142072164Y-99360000D02*
X142287836Y-99360000D01*
%TO.C,D8*%
X133640000Y-74250000D02*
X133640000Y-76250000D01*
X137650000Y-74250000D02*
X133640000Y-74250000D01*
X137650000Y-76250000D02*
X133640000Y-76250000D01*
%TO.C,R29*%
X174713641Y-95570000D02*
X174406359Y-95570000D01*
X174713641Y-96330000D02*
X174406359Y-96330000D01*
%TO.C,D5*%
X115600000Y-86850000D02*
X115600000Y-82840000D01*
X117600000Y-82840000D02*
X115600000Y-82840000D01*
X117600000Y-86850000D02*
X117600000Y-82840000D01*
%TO.C,C16*%
X125472164Y-83890000D02*
X125687836Y-83890000D01*
X125472164Y-84610000D02*
X125687836Y-84610000D01*
%TO.C,C31*%
X150392164Y-142090000D02*
X150607836Y-142090000D01*
X150392164Y-142810000D02*
X150607836Y-142810000D01*
%TO.C,C29*%
X151640000Y-141057836D02*
X151640000Y-140842164D01*
X152360000Y-141057836D02*
X152360000Y-140842164D01*
%TO.C,C18*%
X137187836Y-77440000D02*
X136972164Y-77440000D01*
X137187836Y-78160000D02*
X136972164Y-78160000D01*
%TO.C,R21*%
X113362742Y-82877500D02*
X113837258Y-82877500D01*
X113362742Y-83922500D02*
X113837258Y-83922500D01*
D11*
%TO.C,U20*%
X87380000Y-66170000D02*
X87380000Y-69270000D01*
X87380000Y-66170000D02*
X90480000Y-66170000D01*
X87380000Y-69260000D02*
X90480000Y-69260000D01*
X90500000Y-67000000D02*
X90500000Y-66170000D01*
X90500000Y-69260000D02*
X90500000Y-68430000D01*
X90500000Y-68430000D02*
G75*
G02*
X90505241Y-67028449I210001J700000D01*
G01*
D12*
X90520000Y-69680000D02*
G75*
G02*
X90320000Y-69680000I-100000J0D01*
G01*
X90320000Y-69680000D02*
G75*
G02*
X90520000Y-69680000I100000J0D01*
G01*
D10*
%TO.C,U15*%
X169850000Y-82460000D02*
X172040000Y-82460000D01*
X169850000Y-83620000D02*
X169850000Y-82460000D01*
X169850000Y-83630000D02*
X169850000Y-83620000D01*
X172030000Y-83630000D02*
X169850000Y-83630000D01*
X172040000Y-82460000D02*
X172040000Y-83630000D01*
X172040000Y-83630000D02*
X172030000Y-83630000D01*
D14*
X172220001Y-84320000D02*
X172220001Y-84320000D01*
X172220001Y-84320000D01*
X172220001Y-84320000D01*
X172220001Y-84320000D01*
X172220001Y-84320000D01*
X172220001Y-84320001D01*
X172220001Y-84320001D01*
X172220001Y-84320001D01*
X172220001Y-84320001D01*
X172220001Y-84320001D01*
X172220001Y-84320001D01*
X172220001Y-84320001D01*
X172220000Y-84320001D01*
X172220000Y-84320001D01*
X172220000Y-84320001D01*
X172220000Y-84320001D01*
X172220000Y-84320001D01*
X172220000Y-84320001D01*
X172220000Y-84320001D01*
X172220000Y-84320001D01*
X172220000Y-84320001D01*
X172220000Y-84320001D01*
X172220000Y-84320001D01*
X172220000Y-84320001D01*
X172219999Y-84320001D01*
X172219999Y-84320001D01*
X172219999Y-84320001D01*
X172219999Y-84320001D01*
X172219999Y-84320001D01*
X172219999Y-84320001D01*
X172219999Y-84320000D01*
X172219999Y-84320000D01*
X172219999Y-84320000D01*
X172219999Y-84320000D01*
X172219999Y-84320000D01*
X172219999Y-84320000D01*
X172219999Y-84320000D02*
X172219999Y-84320000D01*
X172219999Y-84320000D01*
X172219999Y-84320000D01*
X172219999Y-84320000D01*
X172219999Y-84320000D01*
X172219999Y-84320000D01*
X172219999Y-84319999D01*
X172219999Y-84319999D01*
X172219999Y-84319999D01*
X172219999Y-84319999D01*
X172219999Y-84319999D01*
X172220000Y-84319999D01*
X172220000Y-84319999D01*
X172220000Y-84319999D01*
X172220000Y-84319999D01*
X172220000Y-84319999D01*
X172220000Y-84319999D01*
X172220000Y-84319999D01*
X172220000Y-84319999D01*
X172220000Y-84319999D01*
X172220000Y-84319999D01*
X172220000Y-84319999D01*
X172220000Y-84319999D01*
X172220001Y-84319999D01*
X172220001Y-84319999D01*
X172220001Y-84319999D01*
X172220001Y-84319999D01*
X172220001Y-84319999D01*
X172220001Y-84319999D01*
X172220001Y-84320000D01*
X172220001Y-84320000D01*
X172220001Y-84320000D01*
X172220001Y-84320000D01*
X172220001Y-84320000D01*
X172220001Y-84320000D01*
X172220001Y-84320000D01*
D11*
%TO.C,U11*%
X120680000Y-84642500D02*
X123720000Y-84642500D01*
X120680000Y-89702500D02*
X120680000Y-84642500D01*
X123720000Y-84642500D02*
X123720000Y-89702500D01*
X123720000Y-89702500D02*
X120680000Y-89702500D01*
D13*
X123120000Y-85262500D02*
G75*
G02*
X122820000Y-85262500I-150000J0D01*
G01*
X122820000Y-85262500D02*
G75*
G02*
X123120000Y-85262500I150000J0D01*
G01*
X125120000Y-84522500D02*
G75*
G02*
X124820000Y-84522500I-150000J0D01*
G01*
X124820000Y-84522500D02*
G75*
G02*
X125120000Y-84522500I150000J0D01*
G01*
D10*
%TO.C,C57*%
X155640000Y-88263748D02*
X155640000Y-89686252D01*
X158360000Y-88263748D02*
X158360000Y-89686252D01*
%TO.C,C19*%
X124690000Y-77727836D02*
X124690000Y-77512164D01*
X125410000Y-77727836D02*
X125410000Y-77512164D01*
%TO.C,C43*%
X167790000Y-82722164D02*
X167790000Y-82937836D01*
X168510000Y-82722164D02*
X168510000Y-82937836D01*
%TO.C,R22*%
X107662742Y-95677500D02*
X108137258Y-95677500D01*
X107662742Y-96722500D02*
X108137258Y-96722500D01*
%TO.C,R35*%
X175893641Y-97770000D02*
X175586359Y-97770000D01*
X175893641Y-98530000D02*
X175586359Y-98530000D01*
%TO.C,C7*%
X141927836Y-83940000D02*
X141712164Y-83940000D01*
X141927836Y-84660000D02*
X141712164Y-84660000D01*
%TO.C,C40*%
X173507836Y-83990000D02*
X173292164Y-83990000D01*
X173507836Y-84710000D02*
X173292164Y-84710000D01*
D11*
%TO.C,D9*%
X108820000Y-80150000D02*
X108820000Y-80420000D01*
X108820000Y-81280000D02*
X108820000Y-81550000D01*
X110170000Y-80150000D02*
X110170000Y-81550000D01*
X110680000Y-80150000D02*
X108820000Y-80150000D01*
X110680000Y-81550000D02*
X108820000Y-81550000D01*
D10*
%TO.C,C41*%
X173507836Y-82970000D02*
X173292164Y-82970000D01*
X173507836Y-83690000D02*
X173292164Y-83690000D01*
%TO.C,C12*%
X119677836Y-83890000D02*
X119462164Y-83890000D01*
X119677836Y-84610000D02*
X119462164Y-84610000D01*
%TO.C,R40*%
X107687742Y-76377500D02*
X108162258Y-76377500D01*
X107687742Y-77422500D02*
X108162258Y-77422500D01*
%TO.C,R4*%
X143270000Y-84893641D02*
X143270000Y-84586359D01*
X144030000Y-84893641D02*
X144030000Y-84586359D01*
%TO.C,C11*%
X88377836Y-76090000D02*
X88162164Y-76090000D01*
X88377836Y-76810000D02*
X88162164Y-76810000D01*
%TO.C,R25*%
X168303641Y-83970000D02*
X167996359Y-83970000D01*
X168303641Y-84730000D02*
X167996359Y-84730000D01*
%TO.C,C46*%
X90640000Y-79427836D02*
X90640000Y-79212164D01*
X91360000Y-79427836D02*
X91360000Y-79212164D01*
%TO.C,R7*%
X119665000Y-64327064D02*
X119665000Y-63872936D01*
X121135000Y-64327064D02*
X121135000Y-63872936D01*
D11*
%TO.C,U16*%
X135280000Y-84597500D02*
X138320000Y-84597500D01*
X135280000Y-89657500D02*
X135280000Y-84597500D01*
X138320000Y-84597500D02*
X138320000Y-89657500D01*
X138320000Y-89657500D02*
X135280000Y-89657500D01*
D13*
X134180000Y-89777500D02*
G75*
G02*
X133880000Y-89777500I-150000J0D01*
G01*
X133880000Y-89777500D02*
G75*
G02*
X134180000Y-89777500I150000J0D01*
G01*
X136180000Y-89037500D02*
G75*
G02*
X135880000Y-89037500I-150000J0D01*
G01*
X135880000Y-89037500D02*
G75*
G02*
X136180000Y-89037500I150000J0D01*
G01*
D10*
%TO.C,R27*%
X94543641Y-71620000D02*
X94236359Y-71620000D01*
X94543641Y-72380000D02*
X94236359Y-72380000D01*
%TO.C,C55*%
X159236252Y-72140000D02*
X157813748Y-72140000D01*
X159236252Y-74860000D02*
X157813748Y-74860000D01*
%TO.C,R5*%
X119665000Y-60914564D02*
X119665000Y-60460436D01*
X121135000Y-60914564D02*
X121135000Y-60460436D01*
%TO.C,C14*%
X121417836Y-77537500D02*
X121202164Y-77537500D01*
X121417836Y-78257500D02*
X121202164Y-78257500D01*
%TO.C,C8*%
X142440000Y-77927836D02*
X142440000Y-77712164D01*
X143160000Y-77927836D02*
X143160000Y-77712164D01*
%TO.C,C61*%
X146840000Y-73607836D02*
X146840000Y-73392164D01*
X147560000Y-73607836D02*
X147560000Y-73392164D01*
%TO.C,U18*%
X139545000Y-92875000D02*
X139545000Y-94825000D01*
X139545000Y-96775000D02*
X139545000Y-94825000D01*
X144665000Y-92875000D02*
X144665000Y-94825000D01*
X144665000Y-96775000D02*
X144665000Y-94825000D01*
X139640000Y-92125000D02*
X139310000Y-92365000D01*
X139310000Y-91885000D01*
X139640000Y-92125000D01*
G36*
X139640000Y-92125000D02*
G01*
X139310000Y-92365000D01*
X139310000Y-91885000D01*
X139640000Y-92125000D01*
G37*
%TO.C,C56*%
X155140000Y-78211252D02*
X155140000Y-76788748D01*
X157860000Y-78211252D02*
X157860000Y-76788748D01*
%TD*%
%LPC*%
D15*
%TO.C,H3*%
X84800000Y-147500000D03*
%TD*%
%TO.C,H2*%
X174500000Y-58500000D03*
%TD*%
D16*
%TO.C,C60*%
X93300000Y-94300000D03*
X93300000Y-101800000D03*
%TD*%
D17*
%TO.C,J1*%
X173115022Y-138993263D03*
X173115022Y-133213263D03*
D18*
X172585022Y-140423263D03*
D19*
X176765022Y-140423263D03*
D18*
X172585022Y-131783263D03*
D19*
X176765022Y-131783263D03*
%TD*%
D20*
%TO.C,OLED1*%
X128100000Y-148700000D03*
X128100000Y-120200000D03*
X97700000Y-148700000D03*
X97700000Y-120200000D03*
D21*
X116710000Y-149200000D03*
X114170000Y-149200000D03*
X111630000Y-149200000D03*
X109090000Y-149200000D03*
%TD*%
D22*
%TO.C,J2*%
X167500000Y-139500000D03*
D23*
X167500000Y-142040000D03*
X167500000Y-144579999D03*
X167500000Y-147120000D03*
X167500000Y-149660000D03*
%TD*%
D15*
%TO.C,H4*%
X175000000Y-147500000D03*
%TD*%
D16*
%TO.C,C59*%
X97300000Y-63000000D03*
X104800000Y-63000000D03*
%TD*%
%TO.C,C67*%
X165400000Y-95200000D03*
X165400000Y-102700000D03*
%TD*%
D24*
%TO.C,CN1*%
X95905000Y-84299880D03*
X95905000Y-77099880D03*
D25*
X89905000Y-73949880D03*
X89905000Y-87449880D03*
%TD*%
D16*
%TO.C,C66*%
X162700000Y-63000000D03*
X155200000Y-63000000D03*
%TD*%
D24*
%TO.C,CN2*%
X163695000Y-78000120D03*
X163695000Y-85200120D03*
D25*
X169695000Y-88350120D03*
X169695000Y-74850120D03*
%TD*%
D15*
%TO.C,H1*%
X85500000Y-58790000D03*
%TD*%
D26*
%TO.C,C9*%
X122700000Y-62500000D03*
X124600000Y-62500000D03*
%TD*%
D27*
%TO.C,D3*%
X109850000Y-85250000D03*
X109850000Y-83170000D03*
%TD*%
D28*
%TO.C,U12*%
X173500000Y-93950000D03*
X173000000Y-93950000D03*
X172500000Y-93950000D03*
X172000000Y-93950000D03*
X171500000Y-93950000D03*
X171500000Y-89250000D03*
X172000000Y-89250000D03*
X172500000Y-89250000D03*
X173000000Y-89250000D03*
X173500000Y-89250000D03*
%TD*%
D29*
%TO.C,R31*%
X151300000Y-89800000D03*
X152950000Y-89800000D03*
%TD*%
D27*
%TO.C,D1*%
X130900000Y-96820000D03*
X130900000Y-98900000D03*
%TD*%
D30*
%TO.C,C49*%
X102500000Y-73000000D03*
X99550000Y-73000000D03*
%TD*%
D31*
%TO.C,C51*%
X103000000Y-75500000D03*
X103000000Y-78450000D03*
%TD*%
D32*
%TO.C,R30*%
X141800000Y-78380000D03*
X141800000Y-79400000D03*
%TD*%
D33*
%TO.C,R26*%
X95415000Y-73650000D03*
X93590000Y-73650000D03*
%TD*%
D34*
%TO.C,C17*%
X138900000Y-90400000D03*
X137940000Y-90400000D03*
%TD*%
D35*
%TO.C,U17*%
X134110000Y-83180000D03*
X134110000Y-81900000D03*
X134110000Y-80640000D03*
X134110000Y-79370000D03*
X139650000Y-79370000D03*
X139650000Y-80640000D03*
X139650000Y-81900000D03*
X139650000Y-83180000D03*
%TD*%
D36*
%TO.C,R17*%
X86080000Y-89850000D03*
X87100000Y-89850000D03*
%TD*%
D37*
%TO.C,C24*%
X86820000Y-66700000D03*
X85800000Y-66700000D03*
%TD*%
D38*
%TO.C,U21*%
X140350000Y-75340000D03*
X140350000Y-74070000D03*
X140350000Y-72800000D03*
X140350000Y-71530000D03*
X145300000Y-71530000D03*
X145300000Y-72800000D03*
X145300000Y-74070000D03*
X145300000Y-75340000D03*
%TD*%
D27*
%TO.C,D4*%
X125900000Y-74490000D03*
X125900000Y-72410000D03*
%TD*%
D39*
%TO.C,C10*%
X87790000Y-77400000D03*
X88750000Y-77400000D03*
%TD*%
D40*
%TO.C,C48*%
X132150000Y-84780000D03*
X132150000Y-83820000D03*
%TD*%
D41*
%TO.C,R28*%
X91625000Y-84200000D03*
X85700000Y-84200000D03*
%TD*%
D42*
%TO.C,R39*%
X114725000Y-77000000D03*
X113075000Y-77000000D03*
%TD*%
D43*
%TO.C,D10*%
X124090000Y-71800000D03*
X122010000Y-71800000D03*
%TD*%
D44*
%TO.C,D6*%
X119200000Y-74900000D03*
X122500000Y-74900000D03*
%TD*%
D45*
%TO.C,U8*%
X87800000Y-78500000D03*
X88450000Y-78500000D03*
X89100000Y-78500000D03*
X89100000Y-80800000D03*
X88450000Y-80800000D03*
X87800000Y-80800000D03*
%TD*%
D46*
%TO.C,R14*%
X174950000Y-134350000D03*
X174950000Y-133330000D03*
%TD*%
D35*
%TO.C,U13*%
X125000000Y-79360000D03*
X125000000Y-80640000D03*
X125000000Y-81900000D03*
X125000000Y-83170000D03*
X119460000Y-83170000D03*
X119460000Y-81900000D03*
X119460000Y-80640000D03*
X119460000Y-79360000D03*
%TD*%
D47*
%TO.C,R20*%
X167875000Y-78400000D03*
X173800000Y-78400000D03*
%TD*%
D48*
%TO.C,C47*%
X103500000Y-91000000D03*
X103500000Y-88050000D03*
%TD*%
D46*
%TO.C,R34*%
X176000000Y-97020000D03*
X176000000Y-96000000D03*
%TD*%
D29*
%TO.C,R33*%
X145450000Y-89500000D03*
X147100000Y-89500000D03*
%TD*%
D36*
%TO.C,R18*%
X86090000Y-91250000D03*
X87110000Y-91250000D03*
%TD*%
D49*
%TO.C,C45*%
X90000000Y-78800000D03*
X90000000Y-79760000D03*
%TD*%
D40*
%TO.C,C42*%
X169150000Y-83330000D03*
X169150000Y-82370000D03*
%TD*%
D29*
%TO.C,R32*%
X151100000Y-70650000D03*
X152750000Y-70650000D03*
%TD*%
D27*
%TO.C,D2*%
X132600000Y-96800000D03*
X132600000Y-98880000D03*
%TD*%
D29*
%TO.C,R38*%
X146425000Y-81900000D03*
X148075000Y-81900000D03*
%TD*%
D50*
%TO.C,D7*%
X142000000Y-89700000D03*
X142000000Y-86400000D03*
%TD*%
D40*
%TO.C,C15*%
X134700000Y-91460000D03*
X134700000Y-90500000D03*
%TD*%
D51*
%TO.C,R24*%
X164562500Y-81975000D03*
X166387500Y-81975000D03*
%TD*%
D36*
%TO.C,C50*%
X172980000Y-88000000D03*
X174000000Y-88000000D03*
%TD*%
D32*
%TO.C,R13*%
X174950000Y-137340000D03*
X174950000Y-138360000D03*
%TD*%
D34*
%TO.C,C13*%
X142660000Y-99000000D03*
X141700000Y-99000000D03*
%TD*%
D44*
%TO.C,D8*%
X134350000Y-75250000D03*
X137650000Y-75250000D03*
%TD*%
D36*
%TO.C,R29*%
X174050000Y-95950000D03*
X175070000Y-95950000D03*
%TD*%
D52*
%TO.C,D5*%
X116600000Y-83550000D03*
X116600000Y-86850000D03*
%TD*%
D34*
%TO.C,C16*%
X126060000Y-84250000D03*
X125100000Y-84250000D03*
%TD*%
%TO.C,C31*%
X150980000Y-142450000D03*
X150020000Y-142450000D03*
%TD*%
D49*
%TO.C,C29*%
X152000000Y-140470000D03*
X152000000Y-141430000D03*
%TD*%
D39*
%TO.C,C18*%
X136600000Y-77800000D03*
X137560000Y-77800000D03*
%TD*%
D42*
%TO.C,R21*%
X114425000Y-83400000D03*
X112775000Y-83400000D03*
%TD*%
D28*
%TO.C,U20*%
X89900000Y-70050000D03*
X89400000Y-70050000D03*
X88900000Y-70050000D03*
X88400000Y-70050000D03*
X87900000Y-70050000D03*
X87900000Y-65350000D03*
X88400000Y-65350000D03*
X88900000Y-65350000D03*
X89400000Y-65350000D03*
X89900000Y-65350000D03*
%TD*%
D45*
%TO.C,U15*%
X171600000Y-84200000D03*
X170950000Y-84200000D03*
X170300000Y-84200000D03*
X170300000Y-81900000D03*
X170950000Y-81900000D03*
X171600000Y-81900000D03*
%TD*%
D35*
%TO.C,U11*%
X124970000Y-85262500D03*
X124970000Y-86542500D03*
X124970000Y-87802500D03*
X124970000Y-89072500D03*
X119430000Y-89072500D03*
X119430000Y-87802500D03*
X119430000Y-86542500D03*
X119430000Y-85262500D03*
%TD*%
D48*
%TO.C,C57*%
X157000000Y-90450000D03*
X157000000Y-87500000D03*
%TD*%
D49*
%TO.C,C19*%
X125050000Y-77140000D03*
X125050000Y-78100000D03*
%TD*%
D40*
%TO.C,C43*%
X168150000Y-83310000D03*
X168150000Y-82350000D03*
%TD*%
D42*
%TO.C,R22*%
X108725000Y-96200000D03*
X107075000Y-96200000D03*
%TD*%
D36*
%TO.C,R35*%
X175230000Y-98150000D03*
X176250000Y-98150000D03*
%TD*%
D39*
%TO.C,C7*%
X141340000Y-84300000D03*
X142300000Y-84300000D03*
%TD*%
%TO.C,C40*%
X172920000Y-84350000D03*
X173880000Y-84350000D03*
%TD*%
D43*
%TO.C,D9*%
X108710000Y-80850000D03*
X110790000Y-80850000D03*
%TD*%
D39*
%TO.C,C41*%
X172920000Y-83330000D03*
X173880000Y-83330000D03*
%TD*%
%TO.C,C12*%
X119090000Y-84250000D03*
X120050000Y-84250000D03*
%TD*%
D42*
%TO.C,R40*%
X108750000Y-76900000D03*
X107100000Y-76900000D03*
%TD*%
D32*
%TO.C,R4*%
X143650000Y-84230000D03*
X143650000Y-85250000D03*
%TD*%
D39*
%TO.C,C11*%
X87790000Y-76450000D03*
X88750000Y-76450000D03*
%TD*%
D36*
%TO.C,R25*%
X167640000Y-84350000D03*
X168660000Y-84350000D03*
%TD*%
D49*
%TO.C,C46*%
X91000000Y-78840000D03*
X91000000Y-79800000D03*
%TD*%
D53*
%TO.C,R7*%
X120400000Y-63187500D03*
X120400000Y-65012500D03*
%TD*%
D35*
%TO.C,U16*%
X134030000Y-89037500D03*
X134030000Y-87757500D03*
X134030000Y-86497500D03*
X134030000Y-85227500D03*
X139570000Y-85227500D03*
X139570000Y-86497500D03*
X139570000Y-87757500D03*
X139570000Y-89037500D03*
%TD*%
D36*
%TO.C,R27*%
X93880000Y-72000000D03*
X94900000Y-72000000D03*
%TD*%
D54*
%TO.C,C55*%
X157050000Y-73500000D03*
X160000000Y-73500000D03*
%TD*%
D53*
%TO.C,R5*%
X120400000Y-59775000D03*
X120400000Y-61600000D03*
%TD*%
D39*
%TO.C,C14*%
X120830000Y-77897500D03*
X121790000Y-77897500D03*
%TD*%
D49*
%TO.C,C8*%
X142800000Y-77340000D03*
X142800000Y-78300000D03*
%TD*%
%TO.C,C61*%
X147200000Y-73020000D03*
X147200000Y-73980000D03*
%TD*%
D55*
%TO.C,U18*%
X140200000Y-92350000D03*
X141470000Y-92350000D03*
X142740000Y-92350000D03*
X144010000Y-92350000D03*
X144010000Y-97300000D03*
X142740000Y-97300000D03*
X141470000Y-97300000D03*
X140200000Y-97300000D03*
%TD*%
D31*
%TO.C,C56*%
X156500000Y-76025000D03*
X156500000Y-78975000D03*
%TD*%
%LPD*%
M02*
