G04 #@! TF.GenerationSoftware,KiCad,Pcbnew,8.0.6*
G04 #@! TF.CreationDate,2025-01-07T14:18:53+11:00*
G04 #@! TF.ProjectId,MPPT_V3,4d505054-5f56-4332-9e6b-696361645f70,rev?*
G04 #@! TF.SameCoordinates,Original*
G04 #@! TF.FileFunction,Paste,Bot*
G04 #@! TF.FilePolarity,Positive*
%FSLAX46Y46*%
G04 Gerber Fmt 4.6, Leading zero omitted, Abs format (unit mm)*
G04 Created by KiCad (PCBNEW 8.0.6) date 2025-01-07 14:18:53*
%MOMM*%
%LPD*%
G01*
G04 APERTURE LIST*
G04 Aperture macros list*
%AMRoundRect*
0 Rectangle with rounded corners*
0 $1 Rounding radius*
0 $2 $3 $4 $5 $6 $7 $8 $9 X,Y pos of 4 corners*
0 Add a 4 corners polygon primitive as box body*
4,1,4,$2,$3,$4,$5,$6,$7,$8,$9,$2,$3,0*
0 Add four circle primitives for the rounded corners*
1,1,$1+$1,$2,$3*
1,1,$1+$1,$4,$5*
1,1,$1+$1,$6,$7*
1,1,$1+$1,$8,$9*
0 Add four rect primitives between the rounded corners*
20,1,$1+$1,$2,$3,$4,$5,0*
20,1,$1+$1,$4,$5,$6,$7,0*
20,1,$1+$1,$6,$7,$8,$9,0*
20,1,$1+$1,$8,$9,$2,$3,0*%
G04 Aperture macros list end*
%ADD10R,0.780000X0.500000*%
%ADD11RoundRect,0.250000X-0.250000X-0.475000X0.250000X-0.475000X0.250000X0.475000X-0.250000X0.475000X0*%
%ADD12RoundRect,0.225000X-0.225000X-0.375000X0.225000X-0.375000X0.225000X0.375000X-0.225000X0.375000X0*%
%ADD13R,0.300000X1.300000*%
%ADD14RoundRect,0.140000X0.170000X-0.140000X0.170000X0.140000X-0.170000X0.140000X-0.170000X-0.140000X0*%
%ADD15RoundRect,0.200000X-0.200000X-0.275000X0.200000X-0.275000X0.200000X0.275000X-0.200000X0.275000X0*%
%ADD16RoundRect,0.250000X0.325000X1.100000X-0.325000X1.100000X-0.325000X-1.100000X0.325000X-1.100000X0*%
%ADD17O,2.050000X0.590000*%
%ADD18RoundRect,0.250000X-1.100000X0.325000X-1.100000X-0.325000X1.100000X-0.325000X1.100000X0.325000X0*%
%ADD19RoundRect,0.140000X0.140000X0.170000X-0.140000X0.170000X-0.140000X-0.170000X0.140000X-0.170000X0*%
%ADD20RoundRect,0.250000X0.262500X0.450000X-0.262500X0.450000X-0.262500X-0.450000X0.262500X-0.450000X0*%
%ADD21RoundRect,0.135000X-0.135000X-0.185000X0.135000X-0.185000X0.135000X0.185000X-0.135000X0.185000X0*%
%ADD22RoundRect,0.135000X0.135000X0.185000X-0.135000X0.185000X-0.135000X-0.185000X0.135000X-0.185000X0*%
%ADD23RoundRect,0.150000X-0.825000X-0.150000X0.825000X-0.150000X0.825000X0.150000X-0.825000X0.150000X0*%
%ADD24RoundRect,0.140000X-0.170000X0.140000X-0.170000X-0.140000X0.170000X-0.140000X0.170000X0.140000X0*%
%ADD25RoundRect,0.140000X-0.140000X-0.170000X0.140000X-0.170000X0.140000X0.170000X-0.140000X0.170000X0*%
%ADD26RoundRect,0.135000X0.185000X-0.135000X0.185000X0.135000X-0.185000X0.135000X-0.185000X-0.135000X0*%
%ADD27R,0.500000X0.780000*%
%ADD28RoundRect,0.250000X0.362500X1.425000X-0.362500X1.425000X-0.362500X-1.425000X0.362500X-1.425000X0*%
%ADD29RoundRect,0.200000X0.200000X0.275000X-0.200000X0.275000X-0.200000X-0.275000X0.200000X-0.275000X0*%
%ADD30RoundRect,0.225000X-0.375000X0.225000X-0.375000X-0.225000X0.375000X-0.225000X0.375000X0.225000X0*%
%ADD31R,0.400000X0.800000*%
%ADD32RoundRect,0.250000X-0.362500X-1.425000X0.362500X-1.425000X0.362500X1.425000X-0.362500X1.425000X0*%
%ADD33RoundRect,0.250000X1.100000X-0.325000X1.100000X0.325000X-1.100000X0.325000X-1.100000X-0.325000X0*%
%ADD34RoundRect,0.250000X-0.262500X-0.450000X0.262500X-0.450000X0.262500X0.450000X-0.262500X0.450000X0*%
%ADD35RoundRect,0.135000X-0.185000X0.135000X-0.185000X-0.135000X0.185000X-0.135000X0.185000X0.135000X0*%
%ADD36RoundRect,0.225000X0.225000X0.375000X-0.225000X0.375000X-0.225000X-0.375000X0.225000X-0.375000X0*%
%ADD37O,0.590000X2.050000*%
%ADD38RoundRect,0.250000X-0.450000X0.262500X-0.450000X-0.262500X0.450000X-0.262500X0.450000X0.262500X0*%
%ADD39RoundRect,0.250000X-0.325000X-1.100000X0.325000X-1.100000X0.325000X1.100000X-0.325000X1.100000X0*%
%ADD40RoundRect,0.140000X0.219203X0.021213X0.021213X0.219203X-0.219203X-0.021213X-0.021213X-0.219203X0*%
%ADD41RoundRect,0.150000X0.825000X0.150000X-0.825000X0.150000X-0.825000X-0.150000X0.825000X-0.150000X0*%
G04 APERTURE END LIST*
D10*
X120420000Y-99250000D03*
X122500000Y-99250000D03*
D11*
X122700000Y-62500000D03*
X124600000Y-62500000D03*
D12*
X131800000Y-67700000D03*
X135100000Y-67700000D03*
D13*
X173500000Y-93950000D03*
X173000000Y-93950000D03*
X172500000Y-93950000D03*
X172000000Y-93950000D03*
X171500000Y-93950000D03*
X171500000Y-89250000D03*
X172000000Y-89250000D03*
X172500000Y-89250000D03*
X173000000Y-89250000D03*
X173500000Y-89250000D03*
D14*
X106800000Y-92880000D03*
X106800000Y-91920000D03*
D15*
X151300000Y-89800000D03*
X152950000Y-89800000D03*
D16*
X100500000Y-73000000D03*
X97550000Y-73000000D03*
D17*
X130460000Y-74910000D03*
X130460000Y-73630000D03*
X130460000Y-72370000D03*
X130460000Y-71100000D03*
X136000000Y-71100000D03*
X136000000Y-72370000D03*
X136000000Y-73630000D03*
X136000000Y-74910000D03*
D18*
X103000000Y-75500000D03*
X103000000Y-78450000D03*
D19*
X140100000Y-103900000D03*
X139140000Y-103900000D03*
D10*
X147405000Y-91400000D03*
X145325000Y-91400000D03*
D20*
X95415000Y-73650000D03*
X93590000Y-73650000D03*
D10*
X106760000Y-94200000D03*
X108840000Y-94200000D03*
D21*
X86080000Y-89850000D03*
X87100000Y-89850000D03*
D17*
X122770000Y-71090000D03*
X122770000Y-72370000D03*
X122770000Y-73630000D03*
X122770000Y-74900000D03*
X117230000Y-74900000D03*
X117230000Y-73630000D03*
X117230000Y-72370000D03*
X117230000Y-71090000D03*
D22*
X86820000Y-66700000D03*
X85800000Y-66700000D03*
D23*
X140050000Y-68810000D03*
X140050000Y-67540000D03*
X140050000Y-66270000D03*
X140050000Y-65000000D03*
X145000000Y-65000000D03*
X145000000Y-66270000D03*
X145000000Y-67540000D03*
X145000000Y-68810000D03*
D24*
X138800000Y-98320000D03*
X138800000Y-99280000D03*
D25*
X87790000Y-77400000D03*
X88750000Y-77400000D03*
D10*
X128860000Y-66100000D03*
X130940000Y-66100000D03*
D14*
X107000000Y-75360000D03*
X107000000Y-74400000D03*
D26*
X110100000Y-98319998D03*
X110100000Y-97300000D03*
D27*
X121750000Y-97440000D03*
X121750000Y-95360000D03*
D19*
X124480000Y-69400000D03*
X123520000Y-69400000D03*
D22*
X116409999Y-79000000D03*
X115390001Y-79000000D03*
D25*
X132620000Y-69600000D03*
X133580000Y-69600000D03*
D28*
X91625000Y-84200000D03*
X85700000Y-84200000D03*
D27*
X132300000Y-101280000D03*
X132300000Y-99200000D03*
D29*
X113325000Y-75500000D03*
X111675000Y-75500000D03*
D30*
X119760589Y-93210589D03*
X119760589Y-96510589D03*
D31*
X87800000Y-78500000D03*
X88450000Y-78500000D03*
X89100000Y-78500000D03*
X89100000Y-80800000D03*
X88450000Y-80800000D03*
X87800000Y-80800000D03*
D26*
X174950000Y-134350000D03*
X174950000Y-133330000D03*
D32*
X167875000Y-78400000D03*
X173800000Y-78400000D03*
D33*
X103500000Y-91000000D03*
X103500000Y-88050000D03*
D26*
X176000000Y-97020000D03*
X176000000Y-96000000D03*
D15*
X145450000Y-89500000D03*
X147100000Y-89500000D03*
D21*
X86090000Y-91250000D03*
X87110000Y-91250000D03*
D24*
X90000000Y-78800000D03*
X90000000Y-79760000D03*
D14*
X169150000Y-83330000D03*
X169150000Y-82370000D03*
D15*
X151100000Y-70650000D03*
X152750000Y-70650000D03*
D27*
X126400000Y-69640000D03*
X126400000Y-67560000D03*
D14*
X111960589Y-96260589D03*
X111960589Y-95300589D03*
D10*
X130685000Y-97500000D03*
X132765000Y-97500000D03*
X121040000Y-68200000D03*
X118960000Y-68200000D03*
D15*
X146425000Y-81900000D03*
X148075000Y-81900000D03*
D27*
X170400000Y-140760000D03*
X170400000Y-142840000D03*
X131600000Y-62960000D03*
X131600000Y-65040000D03*
D34*
X164562500Y-81975000D03*
X166387500Y-81975000D03*
D21*
X172980000Y-88000000D03*
X174000000Y-88000000D03*
D35*
X174950000Y-137340000D03*
X174950000Y-138360000D03*
D10*
X139760000Y-100400000D03*
X141840000Y-100400000D03*
D21*
X174050000Y-95950000D03*
X175070000Y-95950000D03*
D10*
X153190000Y-91500000D03*
X151110000Y-91500000D03*
D19*
X150980000Y-142450000D03*
X150020000Y-142450000D03*
D24*
X152000000Y-140470000D03*
X152000000Y-141430000D03*
D29*
X114425000Y-83400000D03*
X112775000Y-83400000D03*
D13*
X89900000Y-70050000D03*
X89400000Y-70050000D03*
X88900000Y-70050000D03*
X88400000Y-70050000D03*
X87900000Y-70050000D03*
X87900000Y-65350000D03*
X88400000Y-65350000D03*
X88900000Y-65350000D03*
X89400000Y-65350000D03*
X89900000Y-65350000D03*
D31*
X171600000Y-84200000D03*
X170950000Y-84200000D03*
X170300000Y-84200000D03*
X170300000Y-81900000D03*
X170950000Y-81900000D03*
X171600000Y-81900000D03*
D33*
X157000000Y-90450000D03*
X157000000Y-87500000D03*
D24*
X153000000Y-72320000D03*
X153000000Y-73280000D03*
D14*
X168150000Y-82350000D03*
X168150000Y-83310000D03*
D29*
X108725000Y-96200000D03*
X107075000Y-96200000D03*
D27*
X123500000Y-97100589D03*
X123500000Y-95020589D03*
D24*
X153200000Y-92840000D03*
X153200000Y-93800000D03*
D10*
X106960000Y-79000000D03*
X109040000Y-79000000D03*
D24*
X147600000Y-95440000D03*
X147600000Y-96400000D03*
D19*
X128060000Y-65300000D03*
X127100000Y-65300000D03*
D12*
X140350000Y-98600000D03*
X143650000Y-98600000D03*
D21*
X175230000Y-98150000D03*
X176250000Y-98150000D03*
D10*
X112360000Y-85200000D03*
X114440000Y-85200000D03*
D19*
X130900000Y-76400000D03*
X129940000Y-76400000D03*
D36*
X114650000Y-71200000D03*
X111350000Y-71200000D03*
D10*
X148240000Y-79800000D03*
X146160000Y-79800000D03*
D25*
X172920000Y-84350000D03*
X173880000Y-84350000D03*
X135800000Y-62200000D03*
X136760000Y-62200000D03*
X172920000Y-83330000D03*
X173880000Y-83330000D03*
D35*
X136700000Y-63580002D03*
X136700000Y-64600000D03*
D29*
X108750000Y-76900000D03*
X107100000Y-76900000D03*
D21*
X132090001Y-94000000D03*
X133109999Y-94000000D03*
D37*
X137910000Y-102570000D03*
X136630000Y-102570000D03*
X135370000Y-102570000D03*
X134100000Y-102570000D03*
X134100000Y-97030000D03*
X135370000Y-97030000D03*
X136630000Y-97030000D03*
X137910000Y-97030000D03*
D25*
X87790000Y-76450000D03*
X88750000Y-76450000D03*
D21*
X167640000Y-84350000D03*
X168660000Y-84350000D03*
D37*
X117298089Y-98630589D03*
X116018089Y-98630589D03*
X114758089Y-98630589D03*
X113488089Y-98630589D03*
X113488089Y-93090589D03*
X114758089Y-93090589D03*
X116018089Y-93090589D03*
X117298089Y-93090589D03*
D24*
X91000000Y-78840000D03*
X91000000Y-79800000D03*
D38*
X120400000Y-63187500D03*
X120400000Y-65012500D03*
D14*
X111500000Y-99760000D03*
X111500000Y-98800000D03*
D25*
X130020000Y-99300000D03*
X130980000Y-99300000D03*
D21*
X93880000Y-72000000D03*
X94900000Y-72000000D03*
D27*
X133700000Y-66340000D03*
X133700000Y-64260000D03*
D39*
X158300000Y-73500000D03*
X161250000Y-73500000D03*
D25*
X118720000Y-69800000D03*
X119680000Y-69800000D03*
D10*
X153080000Y-68800000D03*
X151000000Y-68800000D03*
D27*
X97200000Y-96960000D03*
X97200000Y-99040000D03*
D38*
X120400000Y-59775000D03*
X120400000Y-61600000D03*
D10*
X124280000Y-66800000D03*
X122200000Y-66800000D03*
D27*
X161800000Y-96960000D03*
X161800000Y-99040000D03*
D40*
X119100000Y-100600000D03*
X118421178Y-99921178D03*
D24*
X147200000Y-66400000D03*
X147200000Y-67360000D03*
D41*
X145200000Y-92800000D03*
X145200000Y-94070000D03*
X145200000Y-95340000D03*
X145200000Y-96610000D03*
X140250000Y-96610000D03*
X140250000Y-95340000D03*
X140250000Y-94070000D03*
X140250000Y-92800000D03*
D18*
X156500000Y-76025000D03*
X156500000Y-78975000D03*
D10*
X111160000Y-73800000D03*
X113240000Y-73800000D03*
M02*
