M48
; DRILL file {KiCad 8.0.4} date 2024-08-05T20:39:43+1000
; FORMAT={-:-/ absolute / metric / decimal}
; #@! TF.CreationDate,2024-08-05T20:39:43+10:00
; #@! TF.GenerationSoftware,Kicad,Pcbnew,8.0.4
; #@! TF.FileFunction,Plated,1,4,PTH
FMAT,2
METRIC
; #@! TA.AperFunction,Plated,PTH,ViaDrill
T1C0.300
; #@! TA.AperFunction,Plated,PTH,ViaDrill
T2C0.400
; #@! TA.AperFunction,Plated,PTH,ComponentDrill
T3C0.600
; #@! TA.AperFunction,Plated,PTH,ComponentDrill
T4C0.600
; #@! TA.AperFunction,Plated,PTH,ComponentDrill
T5C1.000
; #@! TA.AperFunction,Plated,PTH,ViaDrill
T6C1.000
; #@! TA.AperFunction,Plated,PTH,ComponentDrill
T7C1.000
; #@! TA.AperFunction,Plated,PTH,ComponentDrill
T8C1.200
; #@! TA.AperFunction,Plated,PTH,ComponentDrill
T9C2.900
; #@! TA.AperFunction,Plated,PTH,ComponentDrill
T10C3.000
%
G90
G05
T1
X85.7Y-89.05
X86.09Y-91.805
X86.15Y-63.7
X86.3Y-65.6
X87.1Y-63.8
X87.3Y-89.0
X87.43Y-92.1
X87.9Y-76.9
X88.0Y-83.5
X88.15Y-71.35
X89.1Y-82.5
X89.75Y-71.75
X90.75Y-70.35
X90.8Y-77.4
X95.9Y-72.05
X106.1Y-96.2
X110.13Y-120.28
X111.75Y-125.75
X111.8Y-83.4
X112.53Y-126.32
X113.25Y-124.5
X113.5Y-85.2
X113.82Y-125.38
X114.43Y-114.28
X122.25Y-115.75
X123.145Y-116.055
X123.81Y-116.71
X124.5Y-115.5
X125.05Y-75.745
X126.8Y-83.17
X127.1Y-83.95
X129.05Y-75.15
X130.1Y-96.8
X131.7Y-98.9
X132.0Y-101.51
X133.2Y-83.954
X133.4Y-96.8
X134.03Y-84.125
X135.56Y-99.11
X136.9Y-83.25
X140.2Y-90.9
X140.8Y-99.0
X141.3Y-76.2
X141.5Y-94.2
X141.7Y-99.82
X141.8Y-74.07
X141.9Y-91.0
X142.0Y-71.6
X142.97Y-98.51
X143.2Y-139.0
X143.73Y-74.07
X144.0Y-90.5
X144.0Y-94.1
X144.2Y-76.1
X146.0Y-133.35
X146.7Y-88.2
X148.1Y-82.8
X148.15Y-142.55
X148.2Y-89.5
X148.8Y-134.2
X150.022Y-141.717
X150.184Y-130.35
X150.75Y-128.75
X150.75Y-129.75
X150.84Y-134.186
X150.88Y-131.0
X150.93Y-138.09
X151.18Y-141.434
X151.5Y-138.7
X151.55Y-116.75
X151.954Y-142.21
X152.16Y-116.11
X152.45Y-139.84
X152.733Y-140.938
X152.79Y-117.92
X153.159Y-117.1
X153.191Y-140.214
X153.39Y-130.35
X153.5Y-134.0
X153.5Y-135.0
X153.75Y-128.25
X153.885Y-129.25
X153.9Y-89.8
X154.186Y-140.95
X154.5Y-134.0
X154.5Y-135.0
X154.5Y-136.0
X154.59Y-129.8
X154.64Y-141.951
X155.09Y-122.15
X155.45Y-141.8
X155.5Y-134.0
X155.5Y-135.0
X155.5Y-136.0
X155.5Y-137.0
X156.0Y-141.151
X156.5Y-134.0
X156.5Y-135.0
X156.5Y-136.0
X156.5Y-137.0
X156.99Y-130.8
X157.89Y-131.89
X158.45Y-139.4
X158.91Y-130.7
X159.34Y-135.35
X159.45Y-138.8
X159.5Y-139.75
X159.94Y-129.53
X159.991Y-132.831
X160.0Y-131.5
X160.299Y-137.751
X160.3Y-138.6
X160.52Y-139.55
X161.1Y-136.2
X161.23Y-135.21
X161.25Y-137.75
X161.25Y-138.75
X164.855Y-139.145
X165.35Y-112.53
X167.25Y-132.75
X168.35Y-132.85
X168.65Y-85.05
X169.25Y-133.45
X170.0Y-132.75
X170.1Y-78.7
X170.2Y-86.45
X170.4Y-138.45
X170.45Y-133.8
X170.984Y-79.584
X172.35Y-87.8
X172.475Y-83.775
X172.525Y-91.16
X172.625Y-95.75
X173.0Y-97.0
X173.04Y-113.94
X173.05Y-108.64
X173.7Y-134.35
X173.75Y-137.35
X174.0Y-94.0
X174.41Y-108.8
X174.41Y-112.18
X174.5Y-90.0
X174.6Y-97.0
X174.8Y-83.3
X174.8Y-84.35
X174.8Y-88.0
X174.95Y-132.45
X174.95Y-139.3
X175.25Y-90.5
X175.25Y-98.85
X175.52Y-113.94
X175.85Y-92.24
X175.875Y-108.63
X177.0Y-82.3
X177.25Y-115.71
T2
X81.25Y-75.75
X81.25Y-76.75
X81.25Y-77.75
X81.25Y-78.75
X81.25Y-79.75
X81.25Y-80.75
X81.25Y-81.75
X81.25Y-82.75
X81.25Y-83.75
X81.25Y-84.75
X81.25Y-85.75
X81.25Y-86.75
X81.25Y-87.75
X82.25Y-75.75
X82.25Y-76.75
X82.25Y-77.75
X82.25Y-78.75
X82.25Y-79.75
X82.25Y-80.75
X82.25Y-81.75
X82.25Y-82.75
X82.25Y-83.75
X82.25Y-84.75
X82.25Y-85.75
X82.25Y-86.75
X82.25Y-87.75
X82.5Y-131.5
X82.5Y-134.5
X82.5Y-137.5
X82.5Y-140.5
X83.25Y-76.75
X83.25Y-77.75
X83.25Y-78.75
X83.25Y-79.75
X83.25Y-80.75
X83.25Y-81.75
X83.25Y-82.75
X83.25Y-83.75
X83.25Y-84.75
X83.25Y-85.75
X83.25Y-86.75
X83.25Y-87.75
X84.0Y-133.0
X84.0Y-136.0
X84.0Y-139.0
X85.5Y-131.5
X85.5Y-134.5
X85.5Y-137.5
X85.5Y-140.5
X87.0Y-133.0
X87.0Y-136.0
X87.0Y-139.0
X88.1Y-67.7
X88.5Y-79.7
X88.5Y-131.5
X88.5Y-134.5
X88.5Y-137.5
X88.5Y-140.5
X89.2Y-75.45
X90.0Y-133.0
X90.0Y-136.0
X90.0Y-139.0
X91.5Y-131.5
X91.5Y-131.5
X91.5Y-134.5
X91.5Y-134.5
X91.5Y-137.5
X91.5Y-137.5
X91.5Y-140.5
X91.5Y-140.5
X93.0Y-133.0
X93.0Y-136.0
X93.0Y-139.0
X94.5Y-131.5
X94.5Y-134.5
X94.5Y-137.5
X94.5Y-140.5
X96.0Y-133.0
X96.0Y-136.0
X96.0Y-139.0
X97.5Y-131.5
X97.5Y-134.5
X97.5Y-137.5
X97.5Y-140.5
X99.0Y-133.0
X99.0Y-136.0
X99.0Y-139.0
X99.5Y-72.0
X99.5Y-73.0
X99.5Y-74.0
X100.4Y-106.4
X100.4Y-116.4
X100.5Y-131.5
X100.5Y-131.5
X100.5Y-134.5
X100.5Y-134.5
X100.5Y-137.5
X100.5Y-137.5
X100.5Y-140.5
X100.5Y-140.5
X102.0Y-78.5
X102.0Y-133.0
X102.0Y-136.0
X102.0Y-139.0
X102.5Y-71.5
X102.5Y-72.5
X102.5Y-73.5
X102.5Y-74.5
X102.5Y-75.5
X102.5Y-88.0
X102.5Y-91.0
X102.5Y-92.0
X102.5Y-93.0
X102.5Y-94.0
X102.5Y-95.0
X103.0Y-78.5
X103.1Y-107.2
X103.4Y-100.1
X103.5Y-71.5
X103.5Y-72.5
X103.5Y-73.5
X103.5Y-74.5
X103.5Y-75.5
X103.5Y-88.0
X103.5Y-91.0
X103.5Y-92.0
X103.5Y-93.0
X103.5Y-94.0
X103.5Y-95.0
X103.5Y-131.5
X103.5Y-134.5
X103.5Y-137.5
X103.5Y-140.5
X104.0Y-78.5
X104.5Y-71.5
X104.5Y-72.5
X104.5Y-73.5
X104.5Y-74.5
X104.5Y-88.0
X104.5Y-91.0
X104.5Y-92.0
X104.5Y-93.0
X104.5Y-94.0
X105.0Y-56.0
X105.0Y-59.0
X105.0Y-65.0
X105.0Y-133.0
X105.0Y-136.0
X105.0Y-139.0
X105.3Y-109.8
X105.3Y-110.8
X105.4Y-106.2
X106.0Y-76.9
X106.1Y-109.3
X106.1Y-110.3
X106.1Y-111.3
X106.5Y-57.5
X106.5Y-60.5
X106.5Y-63.5
X106.5Y-131.5
X106.5Y-134.5
X106.5Y-137.5
X106.5Y-140.5
X106.9Y-109.8
X106.9Y-110.8
X108.0Y-56.0
X108.0Y-59.0
X108.0Y-62.0
X108.0Y-65.0
X108.0Y-133.0
X108.0Y-136.0
X108.0Y-139.0
X108.91Y-127.56
X109.5Y-57.5
X109.5Y-60.5
X109.5Y-63.5
X109.5Y-131.5
X109.5Y-134.5
X109.5Y-137.5
X109.5Y-140.5
X111.0Y-56.0
X111.0Y-59.0
X111.0Y-62.0
X111.0Y-65.0
X111.7Y-77.1
X112.5Y-57.5
X112.5Y-60.5
X112.5Y-63.5
X113.2Y-112.8
X114.0Y-62.0
X114.5Y-56.0
X114.5Y-59.0
X116.6Y-87.9
X120.4Y-66.4
X121.389Y-80.789
X126.1Y-62.5
X130.8Y-79.4
X134.7Y-92.5
X138.9Y-66.7
X139.0Y-69.3
X144.5Y-55.5
X144.5Y-58.5
X144.5Y-61.5
X144.5Y-64.5
X146.0Y-57.0
X146.0Y-60.0
X146.0Y-63.0
X146.75Y-80.35
X147.5Y-55.5
X147.5Y-58.5
X147.5Y-61.5
X147.5Y-64.5
X148.55Y-138.02
X149.0Y-57.0
X149.0Y-60.0
X149.0Y-63.0
X149.0Y-139.04
X150.5Y-55.5
X150.5Y-58.5
X150.5Y-61.5
X150.5Y-64.5
X152.0Y-57.0
X152.0Y-60.0
X152.0Y-63.0
X152.792Y-143.672
X153.4Y-109.6
X153.5Y-61.5
X153.5Y-64.5
X153.9Y-108.8
X153.9Y-110.4
X153.95Y-70.7
X154.0Y-55.5
X154.0Y-58.5
X154.4Y-109.6
X154.9Y-108.8
X154.9Y-110.4
X155.2Y-73.2
X155.2Y-74.2
X155.2Y-75.2
X155.2Y-76.2
X155.2Y-91.6
X155.2Y-92.6
X155.2Y-93.6
X155.2Y-94.6
X155.3Y-104.5
X155.4Y-109.6
X155.5Y-79.0
X156.0Y-87.5
X156.2Y-72.2
X156.2Y-73.2
X156.2Y-74.2
X156.2Y-75.2
X156.2Y-76.2
X156.2Y-90.6
X156.2Y-91.6
X156.2Y-92.6
X156.2Y-93.6
X156.2Y-94.6
X156.5Y-79.0
X157.0Y-87.5
X157.2Y-72.2
X157.2Y-73.2
X157.2Y-74.2
X157.2Y-75.2
X157.2Y-76.2
X157.2Y-90.6
X157.2Y-91.6
X157.2Y-92.6
X157.2Y-93.6
X157.2Y-94.6
X157.5Y-79.0
X157.8Y-105.8
X158.0Y-87.5
X160.0Y-72.5
X160.0Y-73.5
X160.0Y-74.5
X160.5Y-116.5
X160.5Y-119.5
X160.5Y-123.0
X162.0Y-114.5
X162.0Y-118.0
X162.0Y-121.0
X163.0Y-128.5
X163.0Y-130.0
X163.0Y-131.5
X163.5Y-113.0
X163.5Y-116.5
X163.5Y-119.5
X164.0Y-134.5
X165.0Y-133.5
X166.0Y-132.5
X166.5Y-116.5
X166.5Y-119.0
X171.0Y-75.5
X171.0Y-76.5
X172.0Y-74.5
X172.0Y-75.5
X172.0Y-76.5
X173.0Y-75.5
X173.0Y-76.5
X173.0Y-80.5
X174.0Y-75.5
X174.0Y-76.5
X174.0Y-77.5
X174.0Y-78.5
X174.0Y-79.5
X174.0Y-80.5
X174.0Y-119.0
X174.0Y-121.0
X174.0Y-123.0
X174.0Y-125.0
X174.0Y-127.0
X174.0Y-129.0
X175.0Y-76.5
X175.0Y-77.5
X175.0Y-78.5
X175.0Y-79.5
X175.0Y-80.5
X175.5Y-120.0
X175.5Y-122.0
X175.5Y-124.0
X175.5Y-126.0
X175.5Y-128.0
X175.5Y-130.0
X176.77Y-86.56
X177.0Y-119.0
X177.0Y-121.0
X177.0Y-123.0
X177.0Y-125.0
X177.0Y-127.0
X177.0Y-129.0
T5
X109.09Y-149.2
X111.63Y-149.2
X114.17Y-149.2
X116.71Y-149.2
T6
X144.3Y-100.9
X144.8Y-125.9
X146.15Y-127.15
X147.5Y-128.45
X150.539Y-114.251
X151.82Y-112.88
T7
X167.5Y-139.5
X167.5Y-142.04
X167.5Y-144.58
X167.5Y-147.12
X167.5Y-149.66
T8
X93.3Y-94.3
X93.3Y-101.8
X97.3Y-63.0
X104.8Y-63.0
X155.2Y-63.0
X162.7Y-63.0
X165.4Y-95.2
X165.4Y-102.7
T9
X95.905Y-77.1
X95.905Y-84.3
X163.695Y-78.0
X163.695Y-85.2
T10
X84.8Y-147.5
X85.5Y-58.79
X97.7Y-120.2
X97.7Y-148.7
X128.1Y-120.2
X128.1Y-148.7
X174.5Y-58.5
X175.0Y-147.5
T3
X89.405Y-73.95G85X90.405Y-73.95
G05
X89.405Y-87.45G85X90.405Y-87.45
G05
X170.195Y-74.85G85X169.195Y-74.85
G05
X170.195Y-88.35G85X169.195Y-88.35
G05
T4
X172.035Y-131.783G85X173.135Y-131.783
G05
X172.035Y-140.423G85X173.135Y-140.423
G05
X176.465Y-131.783G85X177.065Y-131.783
G05
X176.465Y-140.423G85X177.065Y-140.423
G05
M30
