%TF.GenerationSoftware,KiCad,Pcbnew,8.0.3*%
%TF.CreationDate,2024-07-22T22:22:34+10:00*%
%TF.ProjectId,MPPT,4d505054-2e6b-4696-9361-645f70636258,rev?*%
%TF.SameCoordinates,Original*%
%TF.FileFunction,Copper,L2,Inr*%
%TF.FilePolarity,Positive*%
%FSLAX46Y46*%
G04 Gerber Fmt 4.6, Leading zero omitted, Abs format (unit mm)*
G04 Created by KiCad (PCBNEW 8.0.3) date 2024-07-22 22:22:34*
%MOMM*%
%LPD*%
G01*
G04 APERTURE LIST*
%TA.AperFunction,ComponentPad*%
%ADD10C,6.000000*%
%TD*%
%TA.AperFunction,ComponentPad*%
%ADD11O,2.100000X1.000000*%
%TD*%
%TA.AperFunction,ComponentPad*%
%ADD12O,1.600000X1.000000*%
%TD*%
%TA.AperFunction,ComponentPad*%
%ADD13C,2.200000*%
%TD*%
%TA.AperFunction,ComponentPad*%
%ADD14O,2.200000X1.200000*%
%TD*%
%TA.AperFunction,ComponentPad*%
%ADD15C,3.800000*%
%TD*%
%TA.AperFunction,ComponentPad*%
%ADD16C,1.600000*%
%TD*%
%TA.AperFunction,ComponentPad*%
%ADD17R,1.600000X1.600000*%
%TD*%
%TA.AperFunction,ComponentPad*%
%ADD18C,3.000000*%
%TD*%
%TA.AperFunction,ViaPad*%
%ADD19C,2.000000*%
%TD*%
%TA.AperFunction,ViaPad*%
%ADD20C,0.600000*%
%TD*%
%TA.AperFunction,ViaPad*%
%ADD21C,1.000000*%
%TD*%
%TA.AperFunction,ViaPad*%
%ADD22C,8.000000*%
%TD*%
G04 APERTURE END LIST*
D10*
%TO.N,GND*%
%TO.C,H4*%
X208000000Y-110200000D03*
%TD*%
%TO.N,GND*%
%TO.C,H3*%
X120800000Y-109600000D03*
%TD*%
%TO.N,GND*%
%TO.C,H2*%
X120400000Y-39600000D03*
%TD*%
%TO.N,GND*%
%TO.C,H1*%
X207200000Y-40200000D03*
%TD*%
D11*
%TO.N,GND*%
%TO.C,J1*%
X206730000Y-103120000D03*
D12*
X210910000Y-103120000D03*
D11*
X206730000Y-94480000D03*
D12*
X210910000Y-94480000D03*
%TD*%
D13*
%TO.N,Vout*%
%TO.C,C50*%
X200450000Y-66800000D03*
%TO.N,GND*%
X207950000Y-66800000D03*
%TD*%
%TO.N,GND*%
%TO.C,C47*%
X119250000Y-68000000D03*
%TO.N,VDD*%
X126750000Y-68000000D03*
%TD*%
D14*
%TO.N,GND*%
%TO.C,CN2*%
X203600000Y-77550120D03*
X203600000Y-91050120D03*
D15*
%TO.N,Vout*%
X197600000Y-87900120D03*
%TO.N,Net-(CN2--)*%
X197600000Y-80700120D03*
%TD*%
D16*
%TO.N,Net-(U3-+Vout)*%
%TO.C,U3*%
X203515000Y-55912500D03*
%TO.N,Net-(U3--Vout)*%
X203515000Y-53372500D03*
%TO.N,+12V*%
X203515000Y-50832500D03*
D17*
%TO.N,GND*%
X203515000Y-48292500D03*
%TD*%
%TO.N,GND*%
%TO.C,U2*%
X118800000Y-47980000D03*
D16*
%TO.N,+12V*%
X118800000Y-50520000D03*
%TO.N,Net-(U1-VS)*%
X118800000Y-53060000D03*
%TO.N,Net-(U1-VB)*%
X118800000Y-55600000D03*
%TD*%
%TO.N,GND*%
%TO.C,OLED1*%
X154000000Y-109600000D03*
%TO.N,+3.3V*%
X151460000Y-109600000D03*
%TO.N,/MCU/SCL_DISPL*%
X148920000Y-109600000D03*
%TO.N,/MCU/SDA_DISPL*%
X146380000Y-109600000D03*
D18*
%TO.N,*%
X165390000Y-109100000D03*
X134990000Y-109100000D03*
X165390000Y-80600000D03*
X134990000Y-80600000D03*
%TD*%
D15*
%TO.N,VDD*%
%TO.C,CN1*%
X130000000Y-81600000D03*
%TO.N,Net-(CN1--)*%
X130000000Y-88800000D03*
D14*
%TO.N,GND*%
X124000000Y-78450000D03*
X124000000Y-91950000D03*
%TD*%
D19*
%TO.N,GND*%
X138200000Y-96400000D03*
X138200000Y-97800000D03*
X138200000Y-99400000D03*
X138200000Y-101000000D03*
X136600000Y-100200000D03*
X136600000Y-98600000D03*
X136600000Y-97000000D03*
X136400000Y-95200000D03*
X135000000Y-96200000D03*
X135000000Y-97800000D03*
X135000000Y-99400000D03*
X135000000Y-101000000D03*
X133400000Y-99800000D03*
X133350000Y-98300000D03*
X133350000Y-96500000D03*
%TO.N,Vout*%
X177100000Y-80450000D03*
%TO.N,VDD*%
X141600000Y-79300000D03*
D20*
%TO.N,GND*%
X182200000Y-93400000D03*
X182800000Y-93400000D03*
X183400000Y-93400000D03*
X184000000Y-93400000D03*
X184600000Y-93400000D03*
X184600000Y-94000000D03*
X184600000Y-94600000D03*
X184600000Y-95200000D03*
X184600000Y-95800000D03*
X184000000Y-95800000D03*
X183400000Y-95800000D03*
X182800000Y-95800000D03*
X182200000Y-95800000D03*
X182200000Y-95200000D03*
X182200000Y-94000000D03*
X182200000Y-94600000D03*
X182800000Y-95200000D03*
X184000000Y-95200000D03*
X184000000Y-94000000D03*
X182800000Y-94000000D03*
X182800000Y-94600000D03*
X184000000Y-94600000D03*
X183400000Y-94000000D03*
X183400000Y-95200000D03*
X183400000Y-94600000D03*
D19*
X176500000Y-84300000D03*
X138900000Y-62400000D03*
X137400000Y-62200000D03*
X135900000Y-62500000D03*
X187200000Y-61600000D03*
X185700000Y-61800000D03*
X172300000Y-77400000D03*
X170200000Y-77400000D03*
X168100000Y-77400000D03*
X163970214Y-84575000D03*
X162391084Y-84164788D03*
X160362082Y-81387918D03*
X153620836Y-80850000D03*
X151700000Y-80850000D03*
X176500000Y-84300000D03*
D20*
%TO.N,Net-(U14-CHIP_PU)*%
X185000000Y-100400000D03*
D19*
%TO.N,GND*%
X189200000Y-72300000D03*
X184900000Y-63100000D03*
X183900000Y-61700000D03*
X182000000Y-61600000D03*
X180800000Y-62700000D03*
X144260599Y-62901223D03*
X142300000Y-62300000D03*
X140400000Y-62900000D03*
%TO.N,Net-(U5-SW)*%
X157000000Y-90750000D03*
X157000000Y-89500000D03*
X157000000Y-88000000D03*
D20*
%TO.N,/MCU/D-*%
X179100000Y-92174999D03*
%TO.N,/MCU/D+*%
X178500000Y-92800000D03*
%TO.N,/MCU/D-*%
X188400000Y-94200000D03*
%TO.N,/MCU/D+*%
X187787867Y-94812133D03*
D21*
%TO.N,+3.3V*%
X203000000Y-93600000D03*
%TO.N,GND*%
X208000000Y-82600000D03*
X206600000Y-83600000D03*
D19*
%TO.N,Net-(D1-K)*%
X148150000Y-82000000D03*
D20*
%TO.N,/MCU/D+*%
X190052737Y-97944420D03*
%TO.N,/MCU/D-*%
X190000000Y-98800000D03*
%TO.N,/MCU/D+*%
X195000000Y-98000000D03*
%TO.N,/MCU/D-*%
X195000000Y-99200000D03*
D19*
%TO.N,GND*%
X163000000Y-75600000D03*
X161400000Y-75600000D03*
X165200000Y-71200000D03*
X165200000Y-72800000D03*
X160600000Y-74400000D03*
X160600000Y-73000000D03*
X162200000Y-74400000D03*
X163600000Y-74400000D03*
X163600000Y-72800000D03*
X162200000Y-72800000D03*
X162200000Y-71200000D03*
X163600000Y-71200000D03*
X163600000Y-69600000D03*
X162200000Y-69600000D03*
X160600000Y-68000000D03*
X162200000Y-68000000D03*
X163600000Y-68000000D03*
X165200000Y-66400000D03*
X163600000Y-66400000D03*
X162200000Y-66400000D03*
X162200000Y-64800000D03*
X163600000Y-64800000D03*
X165200000Y-64800000D03*
X165200000Y-63200000D03*
X163600000Y-63200000D03*
X162200000Y-63200000D03*
X160600000Y-63200000D03*
D20*
%TO.N,/MCU/SDA_DISPL*%
X184400000Y-90359998D03*
X178400000Y-89600000D03*
%TO.N,/MCU/SCL_DISPL*%
X184791922Y-92099057D03*
X179214271Y-89862801D03*
%TO.N,GND*%
X202600000Y-113000000D03*
X198000000Y-113000000D03*
X193600000Y-113000000D03*
X189400000Y-113000000D03*
%TO.N,/MCU/IO_BTN4*%
X186800000Y-107000000D03*
%TO.N,/MCU/IO_BTN3*%
X185600000Y-107600000D03*
%TO.N,/MCU/IO_BTN2*%
X184600000Y-108400000D03*
%TO.N,/MCU/IO_BTN1*%
X182400000Y-107600000D03*
%TO.N,GND*%
X188600000Y-98600000D03*
X188800000Y-103800000D03*
X191400000Y-102200000D03*
X161441942Y-99841942D03*
%TO.N,+3.3V*%
X164200015Y-98607088D03*
%TO.N,GND*%
X187400000Y-98600000D03*
X180810268Y-93798179D03*
%TO.N,+3.3V*%
X180809491Y-95398023D03*
D21*
%TO.N,GND*%
X185785204Y-92214797D03*
D20*
%TO.N,+3.3V*%
X186000000Y-93200000D03*
%TO.N,/MCU/ADC_READY*%
X187000000Y-90400000D03*
X172200000Y-92000000D03*
X162200000Y-102000000D03*
%TO.N,/MCU/SCL*%
X186158038Y-89024938D03*
%TO.N,/MCU/SDA*%
X184900000Y-88700000D03*
%TO.N,/MCU/SCL*%
X163800000Y-95600000D03*
%TO.N,/MCU/SDA*%
X164700000Y-95700000D03*
D19*
%TO.N,+3.3V*%
X151851055Y-96348947D03*
X158400000Y-105500000D03*
D20*
%TO.N,GND*%
X189400000Y-99600000D03*
X187140338Y-99397802D03*
%TO.N,Net-(C29-Pad1)*%
X185800000Y-100600000D03*
%TO.N,GND*%
X174200000Y-97600000D03*
X178400000Y-99600000D03*
X176739780Y-97401386D03*
D21*
X176200000Y-94800000D03*
X136400000Y-68400000D03*
X133800000Y-68000000D03*
%TO.N,+3.3V*%
X180068628Y-91200000D03*
%TO.N,GND*%
X177600000Y-91400000D03*
%TO.N,+3.3V*%
X186810000Y-97200002D03*
%TO.N,GND*%
X149800000Y-98400000D03*
D20*
%TO.N,/FETs/Vout_sense*%
X167300000Y-94000000D03*
X176200000Y-87400000D03*
X191400000Y-82600000D03*
%TO.N,GND*%
X206400000Y-89000000D03*
%TO.N,/FETs/OUT_CUR*%
X165900000Y-96600000D03*
%TO.N,/Mid_rail_ref*%
X164800000Y-93800000D03*
%TO.N,/Vin_sense*%
X161800000Y-103000000D03*
X135400000Y-93400000D03*
D19*
%TO.N,GND*%
X141000000Y-98600000D03*
X191000000Y-80600000D03*
D20*
%TO.N,/MCU/IN_HI_PWM*%
X185500000Y-103700000D03*
%TO.N,/MCU/IN_LO_PWM*%
X184874265Y-104225735D03*
%TO.N,/MCU/OUT_LO_PWM*%
X183152787Y-102400000D03*
%TO.N,/MCU/OUT_HI_PWM*%
X181600000Y-97100002D03*
X198200000Y-73400000D03*
%TO.N,/MCU/OUT_LO_PWM*%
X198000000Y-74200000D03*
%TO.N,/MCU/IN_LO_PWM*%
X133600000Y-69600000D03*
%TO.N,/MCU/IN_HI_PWM*%
X133600000Y-70800000D03*
D19*
%TO.N,GND*%
X120600000Y-48600000D03*
X120600000Y-46600000D03*
D20*
%TO.N,Net-(U14-GPIO12)*%
X178624265Y-96200000D03*
%TO.N,Net-(U14-GPIO10)*%
X180200000Y-97600000D03*
%TO.N,Net-(U14-GPIO9)*%
X179600000Y-98200000D03*
%TO.N,Net-(U14-GPIO11)*%
X177600000Y-96200000D03*
%TO.N,GND*%
X162800000Y-103200000D03*
X133595000Y-94450120D03*
%TO.N,/IN_CUR*%
X166200000Y-102900000D03*
X127795000Y-96250120D03*
D21*
%TO.N,GND*%
X192600000Y-63700000D03*
D19*
X201800000Y-47000000D03*
X205400000Y-47000000D03*
D21*
%TO.N,Net-(U3-+Vout)*%
X190563603Y-59363603D03*
%TO.N,Net-(U3--Vout)*%
X192450000Y-58750000D03*
%TO.N,+5V*%
X147222500Y-90587500D03*
X147222500Y-92427500D03*
D20*
%TO.N,GND*%
X194000000Y-94800000D03*
%TO.N,Net-(U14-GPIO0)*%
X185200000Y-102000000D03*
%TO.N,GND*%
X174100000Y-81500000D03*
X170600000Y-79600000D03*
X191600000Y-97400000D03*
%TO.N,/MCU/SPICS0*%
X180200000Y-90000000D03*
X182000000Y-92000000D03*
D21*
%TO.N,Net-(U16-G)*%
X159400000Y-70800000D03*
%TO.N,Net-(U10-G)*%
X159400000Y-65000000D03*
%TO.N,Net-(U9-G)*%
X150693580Y-65125652D03*
%TO.N,Net-(U15-G)*%
X150713415Y-70956699D03*
%TO.N,Net-(U17-G)*%
X175200000Y-75400000D03*
%TO.N,Net-(U18-G)*%
X166400000Y-75600000D03*
%TO.N,Net-(U12-G)*%
X166200000Y-69600000D03*
%TO.N,Net-(U11-G)*%
X175200000Y-69800000D03*
D19*
%TO.N,GND*%
X141922500Y-95127500D03*
X152522500Y-91127500D03*
X151022500Y-90327500D03*
D21*
X208300000Y-79300000D03*
X211700000Y-81200000D03*
X210250000Y-79000000D03*
X122695000Y-94450120D03*
X125295000Y-94350120D03*
X121895000Y-96250120D03*
D19*
X156062500Y-83287500D03*
X155562500Y-85037500D03*
D21*
%TO.N,+12V*%
X164045000Y-90700000D03*
%TO.N,GND*%
X165545000Y-87200000D03*
X160045000Y-88700000D03*
X160045000Y-89700000D03*
D19*
X166295000Y-85200000D03*
X146662500Y-85087500D03*
D21*
%TO.N,Net-(U7-SW)*%
X137162500Y-87587500D03*
X137912500Y-88337500D03*
X137912500Y-89837500D03*
X137162500Y-90587500D03*
X137162500Y-89087500D03*
X137912500Y-87587500D03*
X137162500Y-88337500D03*
X137912500Y-89087500D03*
X137162500Y-89837500D03*
X137912500Y-90587500D03*
X137162500Y-91337500D03*
%TO.N,+5V*%
X144412500Y-90587500D03*
%TO.N,GND*%
X145912500Y-87087500D03*
X140412500Y-88587500D03*
X140412500Y-89587500D03*
D19*
X136412500Y-83087500D03*
X135912500Y-84837500D03*
%TO.N,+12V*%
X168900000Y-80900000D03*
%TO.N,GND*%
X203515000Y-46715000D03*
D22*
%TO.N,Net-(L4-Pad2)*%
X172000000Y-54200000D03*
%TO.N,Net-(L1-Pad1)*%
X153800000Y-54400000D03*
%TD*%
%TA.AperFunction,Conductor*%
%TO.N,GND*%
G36*
X210003032Y-33500648D02*
G01*
X210336929Y-33517052D01*
X210349037Y-33518245D01*
X210452146Y-33533539D01*
X210676699Y-33566849D01*
X210688617Y-33569219D01*
X211009951Y-33649709D01*
X211021588Y-33653240D01*
X211092806Y-33678722D01*
X211333467Y-33764832D01*
X211344688Y-33769479D01*
X211644163Y-33911120D01*
X211654871Y-33916844D01*
X211938988Y-34087137D01*
X211949106Y-34093897D01*
X212215170Y-34291224D01*
X212224576Y-34298944D01*
X212470013Y-34521395D01*
X212478604Y-34529986D01*
X212665755Y-34736475D01*
X212701055Y-34775423D01*
X212708775Y-34784829D01*
X212906102Y-35050893D01*
X212912862Y-35061011D01*
X213041776Y-35276092D01*
X213083148Y-35345116D01*
X213088885Y-35355848D01*
X213230514Y-35655297D01*
X213235170Y-35666540D01*
X213346759Y-35978411D01*
X213350292Y-35990055D01*
X213430777Y-36311369D01*
X213433151Y-36323305D01*
X213481754Y-36650962D01*
X213482947Y-36663071D01*
X213499351Y-36996966D01*
X213499500Y-37003051D01*
X213499500Y-111996948D01*
X213499351Y-112003033D01*
X213482947Y-112336928D01*
X213481754Y-112349037D01*
X213433151Y-112676694D01*
X213430777Y-112688630D01*
X213350292Y-113009944D01*
X213346759Y-113021588D01*
X213235170Y-113333459D01*
X213230514Y-113344702D01*
X213088885Y-113644151D01*
X213083148Y-113654883D01*
X212912862Y-113938988D01*
X212906102Y-113949106D01*
X212708775Y-114215170D01*
X212701055Y-114224576D01*
X212478611Y-114470006D01*
X212470006Y-114478611D01*
X212224576Y-114701055D01*
X212215170Y-114708775D01*
X211949106Y-114906102D01*
X211938988Y-114912862D01*
X211654883Y-115083148D01*
X211644151Y-115088885D01*
X211344702Y-115230514D01*
X211333459Y-115235170D01*
X211021588Y-115346759D01*
X211009944Y-115350292D01*
X210688630Y-115430777D01*
X210676694Y-115433151D01*
X210349037Y-115481754D01*
X210336928Y-115482947D01*
X210021989Y-115498419D01*
X210003031Y-115499351D01*
X209996949Y-115499500D01*
X118003051Y-115499500D01*
X117996968Y-115499351D01*
X117976900Y-115498365D01*
X117663071Y-115482947D01*
X117650962Y-115481754D01*
X117323305Y-115433151D01*
X117311369Y-115430777D01*
X116990055Y-115350292D01*
X116978411Y-115346759D01*
X116666540Y-115235170D01*
X116655301Y-115230515D01*
X116355844Y-115088883D01*
X116345121Y-115083150D01*
X116061011Y-114912862D01*
X116050893Y-114906102D01*
X115784829Y-114708775D01*
X115775423Y-114701055D01*
X115736475Y-114665755D01*
X115529986Y-114478604D01*
X115521395Y-114470013D01*
X115298944Y-114224576D01*
X115291224Y-114215170D01*
X115093897Y-113949106D01*
X115087137Y-113938988D01*
X114916844Y-113654871D01*
X114911120Y-113644163D01*
X114769479Y-113344688D01*
X114764829Y-113333459D01*
X114653240Y-113021588D01*
X114649707Y-113009944D01*
X114640958Y-112975015D01*
X114569219Y-112688617D01*
X114566848Y-112676694D01*
X114518245Y-112349037D01*
X114517052Y-112336927D01*
X114500649Y-112003032D01*
X114500500Y-111996948D01*
X114500500Y-109099998D01*
X132984390Y-109099998D01*
X132984390Y-109100001D01*
X132989184Y-109167028D01*
X132989500Y-109175874D01*
X132989500Y-109231123D01*
X132998360Y-109298429D01*
X132999105Y-109305764D01*
X133004803Y-109385425D01*
X133004805Y-109385438D01*
X133016398Y-109438728D01*
X133018171Y-109448897D01*
X133023731Y-109491121D01*
X133044570Y-109568895D01*
X133045961Y-109574629D01*
X133065629Y-109665042D01*
X133080268Y-109704292D01*
X133083859Y-109715525D01*
X133091601Y-109744417D01*
X133127254Y-109830491D01*
X133128871Y-109834601D01*
X133147685Y-109885042D01*
X133165633Y-109933160D01*
X133165637Y-109933170D01*
X133179633Y-109958803D01*
X133185358Y-109970769D01*
X133191952Y-109986688D01*
X133191960Y-109986704D01*
X133244869Y-110078345D01*
X133246314Y-110080918D01*
X133302773Y-110184315D01*
X133312671Y-110197536D01*
X133320789Y-110209843D01*
X133323076Y-110213803D01*
X133395284Y-110307906D01*
X133395978Y-110308821D01*
X133474254Y-110413385D01*
X133474262Y-110413396D01*
X133474270Y-110413405D01*
X133676591Y-110615726D01*
X133676599Y-110615733D01*
X133676605Y-110615739D01*
X133676608Y-110615741D01*
X133676609Y-110615742D01*
X133781034Y-110693913D01*
X133782211Y-110694805D01*
X133876194Y-110766922D01*
X133880156Y-110769210D01*
X133892460Y-110777326D01*
X133905685Y-110787226D01*
X133977282Y-110826321D01*
X134009080Y-110843684D01*
X134011653Y-110845129D01*
X134103299Y-110898041D01*
X134103314Y-110898048D01*
X134119228Y-110904640D01*
X134131201Y-110910367D01*
X134156839Y-110924367D01*
X134255412Y-110961132D01*
X134259499Y-110962741D01*
X134345567Y-110998393D01*
X134345590Y-110998401D01*
X134364248Y-111003399D01*
X134374469Y-111006137D01*
X134385701Y-111009727D01*
X134424954Y-111024369D01*
X134424955Y-111024369D01*
X134424960Y-111024371D01*
X134503580Y-111041473D01*
X134515348Y-111044033D01*
X134515358Y-111044035D01*
X134521072Y-111045420D01*
X134598884Y-111066270D01*
X134641124Y-111071830D01*
X134651237Y-111073593D01*
X134704572Y-111085196D01*
X134784243Y-111090893D01*
X134791547Y-111091634D01*
X134858880Y-111100500D01*
X134914124Y-111100500D01*
X134922970Y-111100816D01*
X134989999Y-111105610D01*
X134990000Y-111105610D01*
X134990001Y-111105610D01*
X135057030Y-111100816D01*
X135065876Y-111100500D01*
X135121114Y-111100500D01*
X135121120Y-111100500D01*
X135188448Y-111091635D01*
X135195758Y-111090893D01*
X135275428Y-111085196D01*
X135328770Y-111073591D01*
X135338869Y-111071831D01*
X135381116Y-111066270D01*
X135458918Y-111045422D01*
X135464595Y-111044044D01*
X135555046Y-111024369D01*
X135594303Y-111009725D01*
X135605510Y-111006143D01*
X135634419Y-110998398D01*
X135661113Y-110987340D01*
X135720508Y-110962738D01*
X135724612Y-110961122D01*
X135823161Y-110924367D01*
X135848804Y-110910363D01*
X135860763Y-110904642D01*
X135876697Y-110898043D01*
X135968435Y-110845076D01*
X135970868Y-110843711D01*
X136074315Y-110787226D01*
X136087546Y-110777319D01*
X136099850Y-110769205D01*
X136103803Y-110766924D01*
X136197810Y-110694787D01*
X136198892Y-110693967D01*
X136303395Y-110615739D01*
X136505739Y-110413395D01*
X136583967Y-110308892D01*
X136584816Y-110307773D01*
X136627050Y-110252734D01*
X136656924Y-110213803D01*
X136659205Y-110209850D01*
X136667319Y-110197546D01*
X136677226Y-110184315D01*
X136733711Y-110080868D01*
X136735076Y-110078435D01*
X136788043Y-109986697D01*
X136794642Y-109970763D01*
X136800365Y-109958803D01*
X136814367Y-109933161D01*
X136851124Y-109834609D01*
X136852738Y-109830508D01*
X136888395Y-109744426D01*
X136888394Y-109744426D01*
X136888398Y-109744419D01*
X136896143Y-109715510D01*
X136899725Y-109704303D01*
X136914369Y-109665046D01*
X136928518Y-109599998D01*
X145074532Y-109599998D01*
X145074532Y-109600001D01*
X145094364Y-109826686D01*
X145094366Y-109826697D01*
X145153258Y-110046488D01*
X145153261Y-110046497D01*
X145249431Y-110252732D01*
X145249432Y-110252734D01*
X145379954Y-110439141D01*
X145540858Y-110600045D01*
X145540861Y-110600047D01*
X145727266Y-110730568D01*
X145933504Y-110826739D01*
X146153308Y-110885635D01*
X146315230Y-110899801D01*
X146379998Y-110905468D01*
X146380000Y-110905468D01*
X146380002Y-110905468D01*
X146436673Y-110900509D01*
X146606692Y-110885635D01*
X146826496Y-110826739D01*
X147032734Y-110730568D01*
X147219139Y-110600047D01*
X147380047Y-110439139D01*
X147510568Y-110252734D01*
X147537618Y-110194724D01*
X147583790Y-110142285D01*
X147650983Y-110123133D01*
X147717865Y-110143348D01*
X147762381Y-110194724D01*
X147763693Y-110197536D01*
X147789429Y-110252728D01*
X147789432Y-110252734D01*
X147919954Y-110439141D01*
X148080858Y-110600045D01*
X148080861Y-110600047D01*
X148267266Y-110730568D01*
X148473504Y-110826739D01*
X148693308Y-110885635D01*
X148855230Y-110899801D01*
X148919998Y-110905468D01*
X148920000Y-110905468D01*
X148920002Y-110905468D01*
X148976673Y-110900509D01*
X149146692Y-110885635D01*
X149366496Y-110826739D01*
X149572734Y-110730568D01*
X149759139Y-110600047D01*
X149920047Y-110439139D01*
X150050568Y-110252734D01*
X150077618Y-110194724D01*
X150123790Y-110142285D01*
X150190983Y-110123133D01*
X150257865Y-110143348D01*
X150302381Y-110194724D01*
X150303693Y-110197536D01*
X150329429Y-110252728D01*
X150329432Y-110252734D01*
X150459954Y-110439141D01*
X150620858Y-110600045D01*
X150620861Y-110600047D01*
X150807266Y-110730568D01*
X151013504Y-110826739D01*
X151233308Y-110885635D01*
X151395230Y-110899801D01*
X151459998Y-110905468D01*
X151460000Y-110905468D01*
X151460002Y-110905468D01*
X151516673Y-110900509D01*
X151686692Y-110885635D01*
X151906496Y-110826739D01*
X152112734Y-110730568D01*
X152299139Y-110600047D01*
X152460047Y-110439139D01*
X152590568Y-110252734D01*
X152686739Y-110046496D01*
X152745635Y-109826692D01*
X152765468Y-109600000D01*
X152762996Y-109571750D01*
X152751359Y-109438733D01*
X152745635Y-109373308D01*
X152686739Y-109153504D01*
X152661789Y-109099998D01*
X163384390Y-109099998D01*
X163384390Y-109100001D01*
X163389184Y-109167028D01*
X163389500Y-109175874D01*
X163389500Y-109231123D01*
X163398360Y-109298429D01*
X163399105Y-109305764D01*
X163404803Y-109385425D01*
X163404805Y-109385438D01*
X163416398Y-109438728D01*
X163418171Y-109448897D01*
X163423731Y-109491121D01*
X163444570Y-109568895D01*
X163445961Y-109574629D01*
X163465629Y-109665042D01*
X163480268Y-109704292D01*
X163483859Y-109715525D01*
X163491601Y-109744417D01*
X163527254Y-109830491D01*
X163528871Y-109834601D01*
X163547685Y-109885042D01*
X163565633Y-109933160D01*
X163565637Y-109933170D01*
X163579633Y-109958803D01*
X163585358Y-109970769D01*
X163591952Y-109986688D01*
X163591960Y-109986704D01*
X163644869Y-110078345D01*
X163646314Y-110080918D01*
X163702773Y-110184315D01*
X163712671Y-110197536D01*
X163720789Y-110209843D01*
X163723076Y-110213803D01*
X163795284Y-110307906D01*
X163795978Y-110308821D01*
X163874254Y-110413385D01*
X163874262Y-110413396D01*
X163874270Y-110413405D01*
X164076591Y-110615726D01*
X164076599Y-110615733D01*
X164076605Y-110615739D01*
X164076608Y-110615741D01*
X164076609Y-110615742D01*
X164181034Y-110693913D01*
X164182211Y-110694805D01*
X164276194Y-110766922D01*
X164280156Y-110769210D01*
X164292460Y-110777326D01*
X164305685Y-110787226D01*
X164377282Y-110826321D01*
X164409080Y-110843684D01*
X164411653Y-110845129D01*
X164503299Y-110898041D01*
X164503314Y-110898048D01*
X164519228Y-110904640D01*
X164531201Y-110910367D01*
X164556839Y-110924367D01*
X164655412Y-110961132D01*
X164659499Y-110962741D01*
X164745567Y-110998393D01*
X164745590Y-110998401D01*
X164764248Y-111003399D01*
X164774469Y-111006137D01*
X164785701Y-111009727D01*
X164824954Y-111024369D01*
X164824955Y-111024369D01*
X164824960Y-111024371D01*
X164903580Y-111041473D01*
X164915348Y-111044033D01*
X164915358Y-111044035D01*
X164921072Y-111045420D01*
X164998884Y-111066270D01*
X165041124Y-111071830D01*
X165051237Y-111073593D01*
X165104572Y-111085196D01*
X165184243Y-111090893D01*
X165191547Y-111091634D01*
X165258880Y-111100500D01*
X165314124Y-111100500D01*
X165322970Y-111100816D01*
X165389999Y-111105610D01*
X165390000Y-111105610D01*
X165390001Y-111105610D01*
X165457030Y-111100816D01*
X165465876Y-111100500D01*
X165521114Y-111100500D01*
X165521120Y-111100500D01*
X165588448Y-111091635D01*
X165595758Y-111090893D01*
X165675428Y-111085196D01*
X165728770Y-111073591D01*
X165738869Y-111071831D01*
X165781116Y-111066270D01*
X165858918Y-111045422D01*
X165864595Y-111044044D01*
X165955046Y-111024369D01*
X165994303Y-111009725D01*
X166005510Y-111006143D01*
X166034419Y-110998398D01*
X166061113Y-110987340D01*
X166120508Y-110962738D01*
X166124612Y-110961122D01*
X166223161Y-110924367D01*
X166248804Y-110910363D01*
X166260763Y-110904642D01*
X166276697Y-110898043D01*
X166368435Y-110845076D01*
X166370868Y-110843711D01*
X166474315Y-110787226D01*
X166487546Y-110777319D01*
X166499850Y-110769205D01*
X166503803Y-110766924D01*
X166597810Y-110694787D01*
X166598892Y-110693967D01*
X166703395Y-110615739D01*
X166905739Y-110413395D01*
X166983967Y-110308892D01*
X166984816Y-110307773D01*
X167027050Y-110252734D01*
X167056924Y-110213803D01*
X167059205Y-110209850D01*
X167067319Y-110197546D01*
X167077226Y-110184315D01*
X167133711Y-110080868D01*
X167135076Y-110078435D01*
X167188043Y-109986697D01*
X167194642Y-109970763D01*
X167200365Y-109958803D01*
X167214367Y-109933161D01*
X167251124Y-109834609D01*
X167252738Y-109830508D01*
X167288395Y-109744426D01*
X167288394Y-109744426D01*
X167288398Y-109744419D01*
X167296143Y-109715510D01*
X167299725Y-109704303D01*
X167314369Y-109665046D01*
X167334044Y-109574595D01*
X167335425Y-109568909D01*
X167335429Y-109568895D01*
X167356270Y-109491116D01*
X167361831Y-109448869D01*
X167363591Y-109438770D01*
X167375196Y-109385428D01*
X167380893Y-109305758D01*
X167381637Y-109298432D01*
X167381638Y-109298429D01*
X167390500Y-109231120D01*
X167390500Y-109175874D01*
X167390816Y-109167028D01*
X167395610Y-109100001D01*
X167395610Y-109099998D01*
X167390816Y-109032970D01*
X167390500Y-109024124D01*
X167390500Y-108968880D01*
X167387654Y-108947265D01*
X167381634Y-108901547D01*
X167380893Y-108894234D01*
X167375196Y-108814572D01*
X167363593Y-108761237D01*
X167361830Y-108751124D01*
X167356270Y-108708884D01*
X167335420Y-108631072D01*
X167334035Y-108625358D01*
X167314371Y-108534960D01*
X167314369Y-108534954D01*
X167299727Y-108495701D01*
X167296136Y-108484463D01*
X167288401Y-108455590D01*
X167288393Y-108455567D01*
X167252741Y-108369499D01*
X167251132Y-108365412D01*
X167214367Y-108266839D01*
X167200362Y-108241190D01*
X167194640Y-108229228D01*
X167188048Y-108213314D01*
X167188041Y-108213299D01*
X167135129Y-108121653D01*
X167133684Y-108119080D01*
X167077229Y-108015691D01*
X167077226Y-108015685D01*
X167067326Y-108002460D01*
X167059210Y-107990156D01*
X167057730Y-107987594D01*
X167056924Y-107986197D01*
X167056922Y-107986195D01*
X167056922Y-107986194D01*
X166984805Y-107892211D01*
X166983913Y-107891034D01*
X166905742Y-107786609D01*
X166905741Y-107786608D01*
X166905739Y-107786605D01*
X166905734Y-107786600D01*
X166905726Y-107786591D01*
X166719131Y-107599996D01*
X181594435Y-107599996D01*
X181594435Y-107600003D01*
X181614630Y-107779249D01*
X181614631Y-107779254D01*
X181674211Y-107949523D01*
X181737646Y-108050478D01*
X181770184Y-108102262D01*
X181897738Y-108229816D01*
X182050478Y-108325789D01*
X182163617Y-108365378D01*
X182220745Y-108385368D01*
X182220750Y-108385369D01*
X182399996Y-108405565D01*
X182400000Y-108405565D01*
X182400004Y-108405565D01*
X182449430Y-108399996D01*
X183794435Y-108399996D01*
X183794435Y-108400003D01*
X183814630Y-108579249D01*
X183814631Y-108579254D01*
X183874211Y-108749523D01*
X183915086Y-108814574D01*
X183970184Y-108902262D01*
X184097738Y-109029816D01*
X184250478Y-109125789D01*
X184380961Y-109171447D01*
X184420745Y-109185368D01*
X184420750Y-109185369D01*
X184599996Y-109205565D01*
X184600000Y-109205565D01*
X184600004Y-109205565D01*
X184779249Y-109185369D01*
X184779252Y-109185368D01*
X184779255Y-109185368D01*
X184949522Y-109125789D01*
X185102262Y-109029816D01*
X185229816Y-108902262D01*
X185325789Y-108749522D01*
X185385368Y-108579255D01*
X185390360Y-108534954D01*
X185393500Y-108507083D01*
X185420566Y-108442669D01*
X185478161Y-108403114D01*
X185530604Y-108397746D01*
X185599998Y-108405565D01*
X185600000Y-108405565D01*
X185600004Y-108405565D01*
X185779249Y-108385369D01*
X185779252Y-108385368D01*
X185779255Y-108385368D01*
X185949522Y-108325789D01*
X186102262Y-108229816D01*
X186229816Y-108102262D01*
X186325789Y-107949522D01*
X186368183Y-107828365D01*
X186408905Y-107771590D01*
X186473857Y-107745842D01*
X186526180Y-107752279D01*
X186620737Y-107785366D01*
X186620743Y-107785367D01*
X186620745Y-107785368D01*
X186620746Y-107785368D01*
X186620750Y-107785369D01*
X186799996Y-107805565D01*
X186800000Y-107805565D01*
X186800004Y-107805565D01*
X186979249Y-107785369D01*
X186979252Y-107785368D01*
X186979255Y-107785368D01*
X187149522Y-107725789D01*
X187302262Y-107629816D01*
X187429816Y-107502262D01*
X187525789Y-107349522D01*
X187585368Y-107179255D01*
X187585369Y-107179249D01*
X187605565Y-107000003D01*
X187605565Y-106999996D01*
X187585369Y-106820750D01*
X187585368Y-106820745D01*
X187525788Y-106650476D01*
X187429815Y-106497737D01*
X187302262Y-106370184D01*
X187149523Y-106274211D01*
X186979254Y-106214631D01*
X186979249Y-106214630D01*
X186800004Y-106194435D01*
X186799996Y-106194435D01*
X186620750Y-106214630D01*
X186620745Y-106214631D01*
X186450476Y-106274211D01*
X186297737Y-106370184D01*
X186170184Y-106497737D01*
X186074210Y-106650478D01*
X186031817Y-106771633D01*
X185991095Y-106828409D01*
X185926142Y-106854157D01*
X185873821Y-106847721D01*
X185779257Y-106814632D01*
X185779249Y-106814630D01*
X185600004Y-106794435D01*
X185599996Y-106794435D01*
X185420750Y-106814630D01*
X185420745Y-106814631D01*
X185250476Y-106874211D01*
X185097737Y-106970184D01*
X184970184Y-107097737D01*
X184874211Y-107250476D01*
X184814631Y-107420745D01*
X184814630Y-107420749D01*
X184806499Y-107492917D01*
X184779432Y-107557331D01*
X184721837Y-107596886D01*
X184669396Y-107602253D01*
X184600004Y-107594435D01*
X184599996Y-107594435D01*
X184420750Y-107614630D01*
X184420745Y-107614631D01*
X184250476Y-107674211D01*
X184097737Y-107770184D01*
X183970184Y-107897737D01*
X183874211Y-108050476D01*
X183814631Y-108220745D01*
X183814630Y-108220750D01*
X183794435Y-108399996D01*
X182449430Y-108399996D01*
X182579249Y-108385369D01*
X182579252Y-108385368D01*
X182579255Y-108385368D01*
X182749522Y-108325789D01*
X182902262Y-108229816D01*
X183029816Y-108102262D01*
X183125789Y-107949522D01*
X183185368Y-107779255D01*
X183186390Y-107770184D01*
X183205565Y-107600003D01*
X183205565Y-107599996D01*
X183185369Y-107420750D01*
X183185368Y-107420745D01*
X183162822Y-107356312D01*
X183125789Y-107250478D01*
X183118498Y-107238875D01*
X183066400Y-107155961D01*
X183029816Y-107097738D01*
X182902262Y-106970184D01*
X182804701Y-106908882D01*
X182749523Y-106874211D01*
X182579254Y-106814631D01*
X182579249Y-106814630D01*
X182400004Y-106794435D01*
X182399996Y-106794435D01*
X182220750Y-106814630D01*
X182220745Y-106814631D01*
X182050476Y-106874211D01*
X181897737Y-106970184D01*
X181770184Y-107097737D01*
X181674211Y-107250476D01*
X181614631Y-107420745D01*
X181614630Y-107420750D01*
X181594435Y-107599996D01*
X166719131Y-107599996D01*
X166703405Y-107584270D01*
X166703396Y-107584262D01*
X166703383Y-107584252D01*
X166598821Y-107505978D01*
X166597906Y-107505284D01*
X166503803Y-107433076D01*
X166499843Y-107430789D01*
X166487536Y-107422671D01*
X166474315Y-107412773D01*
X166370918Y-107356314D01*
X166368345Y-107354869D01*
X166276704Y-107301960D01*
X166276688Y-107301952D01*
X166260769Y-107295358D01*
X166248803Y-107289633D01*
X166223170Y-107275637D01*
X166223163Y-107275634D01*
X166223161Y-107275633D01*
X166124596Y-107238870D01*
X166120491Y-107237254D01*
X166034417Y-107201601D01*
X166005525Y-107193859D01*
X165994292Y-107190268D01*
X165955042Y-107175629D01*
X165864629Y-107155961D01*
X165858895Y-107154570D01*
X165781121Y-107133731D01*
X165781118Y-107133730D01*
X165781116Y-107133730D01*
X165759450Y-107130877D01*
X165738897Y-107128171D01*
X165728728Y-107126398D01*
X165675438Y-107114805D01*
X165675425Y-107114803D01*
X165595764Y-107109105D01*
X165588429Y-107108360D01*
X165521123Y-107099500D01*
X165521120Y-107099500D01*
X165465876Y-107099500D01*
X165457030Y-107099184D01*
X165390001Y-107094390D01*
X165389999Y-107094390D01*
X165322970Y-107099184D01*
X165314124Y-107099500D01*
X165258877Y-107099500D01*
X165191569Y-107108360D01*
X165184234Y-107109105D01*
X165104574Y-107114803D01*
X165104557Y-107114806D01*
X165051269Y-107126398D01*
X165041101Y-107128171D01*
X164998876Y-107133731D01*
X164921102Y-107154570D01*
X164915369Y-107155961D01*
X164824953Y-107175630D01*
X164824946Y-107175632D01*
X164785712Y-107190266D01*
X164774479Y-107193857D01*
X164745582Y-107201601D01*
X164745576Y-107201603D01*
X164659516Y-107237250D01*
X164655399Y-107238870D01*
X164556841Y-107275631D01*
X164556837Y-107275633D01*
X164531190Y-107289636D01*
X164519233Y-107295357D01*
X164503302Y-107301957D01*
X164411656Y-107354868D01*
X164409085Y-107356312D01*
X164305681Y-107412776D01*
X164292454Y-107422677D01*
X164280156Y-107430789D01*
X164276210Y-107433067D01*
X164276195Y-107433077D01*
X164182196Y-107505204D01*
X164181022Y-107506093D01*
X164076615Y-107584252D01*
X164076594Y-107584270D01*
X163874270Y-107786594D01*
X163874252Y-107786615D01*
X163796093Y-107891022D01*
X163795204Y-107892196D01*
X163723077Y-107986195D01*
X163723067Y-107986210D01*
X163720789Y-107990156D01*
X163712677Y-108002454D01*
X163702776Y-108015681D01*
X163646312Y-108119085D01*
X163644868Y-108121656D01*
X163591957Y-108213302D01*
X163585357Y-108229233D01*
X163579636Y-108241190D01*
X163565633Y-108266837D01*
X163565631Y-108266841D01*
X163528870Y-108365399D01*
X163527250Y-108369516D01*
X163491603Y-108455576D01*
X163491601Y-108455582D01*
X163483857Y-108484479D01*
X163480266Y-108495712D01*
X163465632Y-108534946D01*
X163465630Y-108534953D01*
X163445961Y-108625369D01*
X163444570Y-108631102D01*
X163423731Y-108708876D01*
X163418171Y-108751101D01*
X163416398Y-108761269D01*
X163404806Y-108814557D01*
X163404803Y-108814574D01*
X163399105Y-108894234D01*
X163398360Y-108901569D01*
X163389500Y-108968876D01*
X163389500Y-109024124D01*
X163389184Y-109032970D01*
X163384390Y-109099998D01*
X152661789Y-109099998D01*
X152590568Y-108947266D01*
X152460047Y-108760861D01*
X152460045Y-108760858D01*
X152299141Y-108599954D01*
X152112734Y-108469432D01*
X152112732Y-108469431D01*
X151906497Y-108373261D01*
X151906488Y-108373258D01*
X151686697Y-108314366D01*
X151686693Y-108314365D01*
X151686692Y-108314365D01*
X151686691Y-108314364D01*
X151686686Y-108314364D01*
X151460002Y-108294532D01*
X151459998Y-108294532D01*
X151233313Y-108314364D01*
X151233302Y-108314366D01*
X151013511Y-108373258D01*
X151013502Y-108373261D01*
X150807267Y-108469431D01*
X150807265Y-108469432D01*
X150620858Y-108599954D01*
X150459954Y-108760858D01*
X150329432Y-108947265D01*
X150329431Y-108947267D01*
X150302382Y-109005275D01*
X150256209Y-109057714D01*
X150189016Y-109076866D01*
X150122135Y-109056650D01*
X150077618Y-109005275D01*
X150050568Y-108947266D01*
X149920047Y-108760861D01*
X149920045Y-108760858D01*
X149759141Y-108599954D01*
X149572734Y-108469432D01*
X149572732Y-108469431D01*
X149366497Y-108373261D01*
X149366488Y-108373258D01*
X149146697Y-108314366D01*
X149146693Y-108314365D01*
X149146692Y-108314365D01*
X149146691Y-108314364D01*
X149146686Y-108314364D01*
X148920002Y-108294532D01*
X148919998Y-108294532D01*
X148693313Y-108314364D01*
X148693302Y-108314366D01*
X148473511Y-108373258D01*
X148473502Y-108373261D01*
X148267267Y-108469431D01*
X148267265Y-108469432D01*
X148080858Y-108599954D01*
X147919954Y-108760858D01*
X147789432Y-108947265D01*
X147789431Y-108947267D01*
X147762382Y-109005275D01*
X147716209Y-109057714D01*
X147649016Y-109076866D01*
X147582135Y-109056650D01*
X147537618Y-109005275D01*
X147510568Y-108947266D01*
X147380047Y-108760861D01*
X147380045Y-108760858D01*
X147219141Y-108599954D01*
X147032734Y-108469432D01*
X147032732Y-108469431D01*
X146826497Y-108373261D01*
X146826488Y-108373258D01*
X146606697Y-108314366D01*
X146606693Y-108314365D01*
X146606692Y-108314365D01*
X146606691Y-108314364D01*
X146606686Y-108314364D01*
X146380002Y-108294532D01*
X146379998Y-108294532D01*
X146153313Y-108314364D01*
X146153302Y-108314366D01*
X145933511Y-108373258D01*
X145933502Y-108373261D01*
X145727267Y-108469431D01*
X145727265Y-108469432D01*
X145540858Y-108599954D01*
X145379954Y-108760858D01*
X145249432Y-108947265D01*
X145249431Y-108947267D01*
X145153261Y-109153502D01*
X145153258Y-109153511D01*
X145094366Y-109373302D01*
X145094364Y-109373313D01*
X145074532Y-109599998D01*
X136928518Y-109599998D01*
X136934044Y-109574595D01*
X136935425Y-109568909D01*
X136935429Y-109568895D01*
X136956270Y-109491116D01*
X136961831Y-109448869D01*
X136963591Y-109438770D01*
X136975196Y-109385428D01*
X136980893Y-109305758D01*
X136981637Y-109298432D01*
X136981638Y-109298429D01*
X136990500Y-109231120D01*
X136990500Y-109175874D01*
X136990816Y-109167028D01*
X136995610Y-109100001D01*
X136995610Y-109099998D01*
X136990816Y-109032970D01*
X136990500Y-109024124D01*
X136990500Y-108968880D01*
X136987654Y-108947265D01*
X136981634Y-108901547D01*
X136980893Y-108894234D01*
X136975196Y-108814572D01*
X136963593Y-108761237D01*
X136961830Y-108751124D01*
X136956270Y-108708884D01*
X136935420Y-108631072D01*
X136934035Y-108625358D01*
X136914371Y-108534960D01*
X136914369Y-108534954D01*
X136899727Y-108495701D01*
X136896136Y-108484463D01*
X136888401Y-108455590D01*
X136888393Y-108455567D01*
X136852741Y-108369499D01*
X136851132Y-108365412D01*
X136814367Y-108266839D01*
X136800362Y-108241190D01*
X136794640Y-108229228D01*
X136788048Y-108213314D01*
X136788041Y-108213299D01*
X136735129Y-108121653D01*
X136733684Y-108119080D01*
X136677229Y-108015691D01*
X136677226Y-108015685D01*
X136667326Y-108002460D01*
X136659210Y-107990156D01*
X136657730Y-107987594D01*
X136656924Y-107986197D01*
X136656922Y-107986195D01*
X136656922Y-107986194D01*
X136584805Y-107892211D01*
X136583913Y-107891034D01*
X136505742Y-107786609D01*
X136505741Y-107786608D01*
X136505739Y-107786605D01*
X136505734Y-107786600D01*
X136505726Y-107786591D01*
X136303405Y-107584270D01*
X136303396Y-107584262D01*
X136303383Y-107584252D01*
X136198821Y-107505978D01*
X136197906Y-107505284D01*
X136103803Y-107433076D01*
X136099843Y-107430789D01*
X136087536Y-107422671D01*
X136074315Y-107412773D01*
X135970918Y-107356314D01*
X135968345Y-107354869D01*
X135876704Y-107301960D01*
X135876688Y-107301952D01*
X135860769Y-107295358D01*
X135848803Y-107289633D01*
X135823170Y-107275637D01*
X135823163Y-107275634D01*
X135823161Y-107275633D01*
X135724596Y-107238870D01*
X135720491Y-107237254D01*
X135634417Y-107201601D01*
X135605525Y-107193859D01*
X135594292Y-107190268D01*
X135555042Y-107175629D01*
X135464629Y-107155961D01*
X135458895Y-107154570D01*
X135381121Y-107133731D01*
X135381118Y-107133730D01*
X135381116Y-107133730D01*
X135359450Y-107130877D01*
X135338897Y-107128171D01*
X135328728Y-107126398D01*
X135275438Y-107114805D01*
X135275425Y-107114803D01*
X135195764Y-107109105D01*
X135188429Y-107108360D01*
X135121123Y-107099500D01*
X135121120Y-107099500D01*
X135065876Y-107099500D01*
X135057030Y-107099184D01*
X134990001Y-107094390D01*
X134989999Y-107094390D01*
X134922970Y-107099184D01*
X134914124Y-107099500D01*
X134858877Y-107099500D01*
X134791569Y-107108360D01*
X134784234Y-107109105D01*
X134704574Y-107114803D01*
X134704557Y-107114806D01*
X134651269Y-107126398D01*
X134641101Y-107128171D01*
X134598876Y-107133731D01*
X134521102Y-107154570D01*
X134515369Y-107155961D01*
X134424953Y-107175630D01*
X134424946Y-107175632D01*
X134385712Y-107190266D01*
X134374479Y-107193857D01*
X134345582Y-107201601D01*
X134345576Y-107201603D01*
X134259516Y-107237250D01*
X134255399Y-107238870D01*
X134156841Y-107275631D01*
X134156837Y-107275633D01*
X134131190Y-107289636D01*
X134119233Y-107295357D01*
X134103302Y-107301957D01*
X134011656Y-107354868D01*
X134009085Y-107356312D01*
X133905681Y-107412776D01*
X133892454Y-107422677D01*
X133880156Y-107430789D01*
X133876210Y-107433067D01*
X133876195Y-107433077D01*
X133782196Y-107505204D01*
X133781022Y-107506093D01*
X133676615Y-107584252D01*
X133676594Y-107584270D01*
X133474270Y-107786594D01*
X133474252Y-107786615D01*
X133396093Y-107891022D01*
X133395204Y-107892196D01*
X133323077Y-107986195D01*
X133323067Y-107986210D01*
X133320789Y-107990156D01*
X133312677Y-108002454D01*
X133302776Y-108015681D01*
X133246312Y-108119085D01*
X133244868Y-108121656D01*
X133191957Y-108213302D01*
X133185357Y-108229233D01*
X133179636Y-108241190D01*
X133165633Y-108266837D01*
X133165631Y-108266841D01*
X133128870Y-108365399D01*
X133127250Y-108369516D01*
X133091603Y-108455576D01*
X133091601Y-108455582D01*
X133083857Y-108484479D01*
X133080266Y-108495712D01*
X133065632Y-108534946D01*
X133065630Y-108534953D01*
X133045961Y-108625369D01*
X133044570Y-108631102D01*
X133023731Y-108708876D01*
X133018171Y-108751101D01*
X133016398Y-108761269D01*
X133004806Y-108814557D01*
X133004803Y-108814574D01*
X132999105Y-108894234D01*
X132998360Y-108901569D01*
X132989500Y-108968876D01*
X132989500Y-109024124D01*
X132989184Y-109032970D01*
X132984390Y-109099998D01*
X114500500Y-109099998D01*
X114500500Y-105499994D01*
X156894357Y-105499994D01*
X156894357Y-105500005D01*
X156914890Y-105747812D01*
X156914892Y-105747824D01*
X156975936Y-105988881D01*
X157075826Y-106216606D01*
X157211833Y-106424782D01*
X157211836Y-106424785D01*
X157380256Y-106607738D01*
X157576491Y-106760474D01*
X157576493Y-106760475D01*
X157786658Y-106874211D01*
X157795190Y-106878828D01*
X158030386Y-106959571D01*
X158275665Y-107000500D01*
X158524335Y-107000500D01*
X158769614Y-106959571D01*
X159004810Y-106878828D01*
X159223509Y-106760474D01*
X159419744Y-106607738D01*
X159588164Y-106424785D01*
X159724173Y-106216607D01*
X159824063Y-105988881D01*
X159885108Y-105747821D01*
X159905643Y-105500000D01*
X159885108Y-105252179D01*
X159824063Y-105011119D01*
X159824056Y-105011104D01*
X159724173Y-104783393D01*
X159588166Y-104575217D01*
X159504823Y-104484683D01*
X159419744Y-104392262D01*
X159223509Y-104239526D01*
X159223507Y-104239525D01*
X159223506Y-104239524D01*
X159198019Y-104225731D01*
X184068700Y-104225731D01*
X184068700Y-104225738D01*
X184088895Y-104404984D01*
X184088896Y-104404989D01*
X184148476Y-104575258D01*
X184244449Y-104727997D01*
X184372003Y-104855551D01*
X184524743Y-104951524D01*
X184695010Y-105011103D01*
X184695015Y-105011104D01*
X184874261Y-105031300D01*
X184874265Y-105031300D01*
X184874269Y-105031300D01*
X185053514Y-105011104D01*
X185053517Y-105011103D01*
X185053520Y-105011103D01*
X185223787Y-104951524D01*
X185376527Y-104855551D01*
X185504081Y-104727997D01*
X185600054Y-104575257D01*
X185605121Y-104560774D01*
X185645841Y-104503997D01*
X185681205Y-104484685D01*
X185849522Y-104425789D01*
X186002262Y-104329816D01*
X186129816Y-104202262D01*
X186225789Y-104049522D01*
X186285368Y-103879255D01*
X186293671Y-103805565D01*
X186305565Y-103700003D01*
X186305565Y-103699996D01*
X186285369Y-103520750D01*
X186285368Y-103520745D01*
X186225789Y-103350478D01*
X186225188Y-103349522D01*
X186129815Y-103197737D01*
X186002262Y-103070184D01*
X185849523Y-102974211D01*
X185679253Y-102914631D01*
X185666544Y-102913199D01*
X185602131Y-102886130D01*
X185562578Y-102828534D01*
X185560443Y-102758697D01*
X185596403Y-102698791D01*
X185614454Y-102684988D01*
X185702262Y-102629816D01*
X185829816Y-102502262D01*
X185925789Y-102349522D01*
X185985368Y-102179255D01*
X185985369Y-102179249D01*
X186005565Y-102000003D01*
X186005565Y-101999996D01*
X185985369Y-101820750D01*
X185985368Y-101820745D01*
X185925788Y-101650475D01*
X185903016Y-101614234D01*
X206684500Y-101614234D01*
X206684500Y-101765765D01*
X206723719Y-101912136D01*
X206761602Y-101977750D01*
X206799485Y-102043365D01*
X206906635Y-102150515D01*
X207037865Y-102226281D01*
X207184234Y-102265500D01*
X207184236Y-102265500D01*
X207335764Y-102265500D01*
X207335766Y-102265500D01*
X207482135Y-102226281D01*
X207613365Y-102150515D01*
X207720515Y-102043365D01*
X207796281Y-101912135D01*
X207835500Y-101765766D01*
X207835500Y-101614234D01*
X207796281Y-101467865D01*
X207720515Y-101336635D01*
X207613365Y-101229485D01*
X207547750Y-101191602D01*
X207482136Y-101153719D01*
X207377901Y-101125790D01*
X207335766Y-101114500D01*
X207184234Y-101114500D01*
X207037863Y-101153719D01*
X206906635Y-101229485D01*
X206906632Y-101229487D01*
X206799487Y-101336632D01*
X206799485Y-101336635D01*
X206723719Y-101467863D01*
X206684500Y-101614234D01*
X185903016Y-101614234D01*
X185878752Y-101575619D01*
X185859751Y-101508382D01*
X185880118Y-101441547D01*
X185933386Y-101396332D01*
X185969865Y-101386425D01*
X185979255Y-101385368D01*
X186149522Y-101325789D01*
X186302262Y-101229816D01*
X186429816Y-101102262D01*
X186525789Y-100949522D01*
X186585368Y-100779255D01*
X186605565Y-100600000D01*
X186585368Y-100420745D01*
X186525789Y-100250478D01*
X186507106Y-100220745D01*
X186429815Y-100097737D01*
X186302262Y-99970184D01*
X186149523Y-99874211D01*
X185979254Y-99814631D01*
X185979249Y-99814630D01*
X185800004Y-99794435D01*
X185799996Y-99794435D01*
X185613825Y-99815411D01*
X185613482Y-99812371D01*
X185557117Y-99808711D01*
X185512007Y-99779929D01*
X185502262Y-99770184D01*
X185349523Y-99674211D01*
X185179254Y-99614631D01*
X185179249Y-99614630D01*
X185000004Y-99594435D01*
X184999996Y-99594435D01*
X184820750Y-99614630D01*
X184820745Y-99614631D01*
X184650476Y-99674211D01*
X184497737Y-99770184D01*
X184370184Y-99897737D01*
X184274211Y-100050476D01*
X184214631Y-100220745D01*
X184214630Y-100220750D01*
X184194435Y-100399996D01*
X184194435Y-100400003D01*
X184214630Y-100579249D01*
X184214631Y-100579254D01*
X184274211Y-100749523D01*
X184370184Y-100902262D01*
X184497738Y-101029816D01*
X184613035Y-101102262D01*
X184650480Y-101125790D01*
X184687618Y-101138785D01*
X184744395Y-101179505D01*
X184770144Y-101244458D01*
X184756689Y-101313019D01*
X184712642Y-101360819D01*
X184697736Y-101370185D01*
X184570184Y-101497737D01*
X184474211Y-101650476D01*
X184414631Y-101820745D01*
X184414630Y-101820750D01*
X184394435Y-101999996D01*
X184394435Y-102000003D01*
X184414630Y-102179249D01*
X184414631Y-102179254D01*
X184474211Y-102349523D01*
X184504507Y-102397738D01*
X184570184Y-102502262D01*
X184697738Y-102629816D01*
X184764598Y-102671827D01*
X184842450Y-102720745D01*
X184850478Y-102725789D01*
X184918306Y-102749523D01*
X185020745Y-102785368D01*
X185020750Y-102785369D01*
X185033449Y-102786800D01*
X185097864Y-102813866D01*
X185137419Y-102871460D01*
X185139558Y-102941297D01*
X185103600Y-103001204D01*
X185085540Y-103015013D01*
X184997740Y-103070182D01*
X184997737Y-103070184D01*
X184870184Y-103197737D01*
X184774212Y-103350475D01*
X184769140Y-103364969D01*
X184728415Y-103421743D01*
X184693055Y-103441051D01*
X184524742Y-103499946D01*
X184372002Y-103595919D01*
X184244449Y-103723472D01*
X184148476Y-103876211D01*
X184088896Y-104046480D01*
X184088895Y-104046485D01*
X184068700Y-104225731D01*
X159198019Y-104225731D01*
X159004811Y-104121172D01*
X159004802Y-104121169D01*
X158769616Y-104040429D01*
X158524335Y-103999500D01*
X158275665Y-103999500D01*
X158030383Y-104040429D01*
X157795197Y-104121169D01*
X157795188Y-104121172D01*
X157576493Y-104239524D01*
X157380257Y-104392261D01*
X157211833Y-104575217D01*
X157075826Y-104783393D01*
X156975936Y-105011118D01*
X156914892Y-105252175D01*
X156914890Y-105252187D01*
X156894357Y-105499994D01*
X114500500Y-105499994D01*
X114500500Y-102999996D01*
X160994435Y-102999996D01*
X160994435Y-103000003D01*
X161014630Y-103179249D01*
X161014631Y-103179254D01*
X161074211Y-103349523D01*
X161168729Y-103499946D01*
X161170184Y-103502262D01*
X161297738Y-103629816D01*
X161386148Y-103685368D01*
X161446790Y-103723472D01*
X161450478Y-103725789D01*
X161620745Y-103785368D01*
X161620750Y-103785369D01*
X161799996Y-103805565D01*
X161800000Y-103805565D01*
X161800004Y-103805565D01*
X161979249Y-103785369D01*
X161979252Y-103785368D01*
X161979255Y-103785368D01*
X162149522Y-103725789D01*
X162302262Y-103629816D01*
X162429816Y-103502262D01*
X162525789Y-103349522D01*
X162585368Y-103179255D01*
X162591392Y-103125789D01*
X162605565Y-103000003D01*
X162605565Y-102999996D01*
X162594298Y-102899996D01*
X165394435Y-102899996D01*
X165394435Y-102900003D01*
X165414630Y-103079249D01*
X165414631Y-103079254D01*
X165474211Y-103249523D01*
X165537646Y-103350478D01*
X165570184Y-103402262D01*
X165697738Y-103529816D01*
X165850478Y-103625789D01*
X165861984Y-103629815D01*
X166020745Y-103685368D01*
X166020750Y-103685369D01*
X166199996Y-103705565D01*
X166200000Y-103705565D01*
X166200004Y-103705565D01*
X166379249Y-103685369D01*
X166379252Y-103685368D01*
X166379255Y-103685368D01*
X166549522Y-103625789D01*
X166702262Y-103529816D01*
X166829816Y-103402262D01*
X166925789Y-103249522D01*
X166985368Y-103079255D01*
X166986390Y-103070184D01*
X167005565Y-102900003D01*
X167005565Y-102899996D01*
X166985369Y-102720750D01*
X166985368Y-102720745D01*
X166968251Y-102671827D01*
X166925789Y-102550478D01*
X166831235Y-102399996D01*
X182347222Y-102399996D01*
X182347222Y-102400003D01*
X182367417Y-102579249D01*
X182367418Y-102579254D01*
X182426998Y-102749523D01*
X182503617Y-102871460D01*
X182522971Y-102902262D01*
X182650525Y-103029816D01*
X182803265Y-103125789D01*
X182956045Y-103179249D01*
X182973532Y-103185368D01*
X182973537Y-103185369D01*
X183152783Y-103205565D01*
X183152787Y-103205565D01*
X183152791Y-103205565D01*
X183332036Y-103185369D01*
X183332039Y-103185368D01*
X183332042Y-103185368D01*
X183502309Y-103125789D01*
X183655049Y-103029816D01*
X183782603Y-102902262D01*
X183878576Y-102749522D01*
X183938155Y-102579255D01*
X183938156Y-102579249D01*
X183958352Y-102400003D01*
X183958352Y-102399996D01*
X183938156Y-102220750D01*
X183938155Y-102220745D01*
X183878575Y-102050476D01*
X183782602Y-101897737D01*
X183655049Y-101770184D01*
X183502310Y-101674211D01*
X183332041Y-101614631D01*
X183332036Y-101614630D01*
X183152791Y-101594435D01*
X183152783Y-101594435D01*
X182973537Y-101614630D01*
X182973532Y-101614631D01*
X182803263Y-101674211D01*
X182650524Y-101770184D01*
X182522971Y-101897737D01*
X182426998Y-102050476D01*
X182367418Y-102220745D01*
X182367417Y-102220750D01*
X182347222Y-102399996D01*
X166831235Y-102399996D01*
X166829816Y-102397738D01*
X166702262Y-102270184D01*
X166549523Y-102174211D01*
X166379254Y-102114631D01*
X166379249Y-102114630D01*
X166200004Y-102094435D01*
X166199996Y-102094435D01*
X166020750Y-102114630D01*
X166020745Y-102114631D01*
X165850476Y-102174211D01*
X165697737Y-102270184D01*
X165570184Y-102397737D01*
X165474211Y-102550476D01*
X165414631Y-102720745D01*
X165414630Y-102720750D01*
X165394435Y-102899996D01*
X162594298Y-102899996D01*
X162585369Y-102820753D01*
X162585369Y-102820751D01*
X162585368Y-102820749D01*
X162585368Y-102820745D01*
X162584329Y-102817777D01*
X162584225Y-102815743D01*
X162583819Y-102813961D01*
X162584131Y-102813889D01*
X162580765Y-102748003D01*
X162615492Y-102687374D01*
X162635389Y-102671834D01*
X162702262Y-102629816D01*
X162829816Y-102502262D01*
X162925789Y-102349522D01*
X162985368Y-102179255D01*
X162985369Y-102179249D01*
X163005565Y-102000003D01*
X163005565Y-101999996D01*
X162985369Y-101820750D01*
X162985368Y-101820745D01*
X162966129Y-101765764D01*
X162925789Y-101650478D01*
X162903265Y-101614632D01*
X162829815Y-101497737D01*
X162702262Y-101370184D01*
X162549523Y-101274211D01*
X162379254Y-101214631D01*
X162379249Y-101214630D01*
X162200004Y-101194435D01*
X162199996Y-101194435D01*
X162020750Y-101214630D01*
X162020745Y-101214631D01*
X161850476Y-101274211D01*
X161697737Y-101370184D01*
X161570184Y-101497737D01*
X161474211Y-101650476D01*
X161414631Y-101820745D01*
X161414630Y-101820750D01*
X161394435Y-101999996D01*
X161394435Y-102000003D01*
X161414631Y-102179253D01*
X161414631Y-102179254D01*
X161415670Y-102182223D01*
X161415773Y-102184260D01*
X161416181Y-102186044D01*
X161415868Y-102186115D01*
X161419231Y-102252002D01*
X161384501Y-102312629D01*
X161364602Y-102328169D01*
X161297738Y-102370183D01*
X161170184Y-102497737D01*
X161074211Y-102650476D01*
X161014631Y-102820745D01*
X161014630Y-102820750D01*
X160994435Y-102999996D01*
X114500500Y-102999996D01*
X114500500Y-98607084D01*
X163394450Y-98607084D01*
X163394450Y-98607091D01*
X163414645Y-98786337D01*
X163414646Y-98786342D01*
X163474226Y-98956611D01*
X163514528Y-99020750D01*
X163570199Y-99109350D01*
X163697753Y-99236904D01*
X163788095Y-99293670D01*
X163801769Y-99302262D01*
X163850493Y-99332877D01*
X163983017Y-99379249D01*
X164020760Y-99392456D01*
X164020765Y-99392457D01*
X164200011Y-99412653D01*
X164200015Y-99412653D01*
X164200019Y-99412653D01*
X164379264Y-99392457D01*
X164379267Y-99392456D01*
X164379270Y-99392456D01*
X164549537Y-99332877D01*
X164702277Y-99236904D01*
X164829831Y-99109350D01*
X164925804Y-98956610D01*
X164985383Y-98786343D01*
X164994857Y-98702262D01*
X165005580Y-98607091D01*
X165005580Y-98607084D01*
X164985384Y-98427838D01*
X164985383Y-98427833D01*
X164980604Y-98414175D01*
X164925804Y-98257566D01*
X164889630Y-98199996D01*
X178794435Y-98199996D01*
X178794435Y-98200003D01*
X178814630Y-98379249D01*
X178814631Y-98379254D01*
X178874211Y-98549523D01*
X178922490Y-98626358D01*
X178970184Y-98702262D01*
X179097738Y-98829816D01*
X179250478Y-98925789D01*
X179403258Y-98979249D01*
X179420745Y-98985368D01*
X179420750Y-98985369D01*
X179599996Y-99005565D01*
X179600000Y-99005565D01*
X179600004Y-99005565D01*
X179779249Y-98985369D01*
X179779252Y-98985368D01*
X179779255Y-98985368D01*
X179949522Y-98925789D01*
X180102262Y-98829816D01*
X180132082Y-98799996D01*
X189194435Y-98799996D01*
X189194435Y-98800003D01*
X189214630Y-98979249D01*
X189214631Y-98979254D01*
X189274211Y-99149523D01*
X189305926Y-99199996D01*
X189370184Y-99302262D01*
X189497738Y-99429816D01*
X189650478Y-99525789D01*
X189718306Y-99549523D01*
X189820745Y-99585368D01*
X189820750Y-99585369D01*
X189999996Y-99605565D01*
X190000000Y-99605565D01*
X190000004Y-99605565D01*
X190179249Y-99585369D01*
X190179252Y-99585368D01*
X190179255Y-99585368D01*
X190349522Y-99525789D01*
X190502262Y-99429816D01*
X190629816Y-99302262D01*
X190725789Y-99149522D01*
X190785368Y-98979255D01*
X190785369Y-98979249D01*
X190805565Y-98800003D01*
X190805565Y-98799996D01*
X190785369Y-98620750D01*
X190785368Y-98620745D01*
X190729193Y-98460206D01*
X190725632Y-98390427D01*
X190741239Y-98353282D01*
X190778526Y-98293942D01*
X190838105Y-98123675D01*
X190847993Y-98035915D01*
X190852040Y-97999996D01*
X194194435Y-97999996D01*
X194194435Y-98000003D01*
X194214630Y-98179249D01*
X194214631Y-98179254D01*
X194274211Y-98349523D01*
X194370184Y-98502262D01*
X194380241Y-98512319D01*
X194413726Y-98573642D01*
X194408742Y-98643334D01*
X194380241Y-98687681D01*
X194370184Y-98697737D01*
X194274211Y-98850476D01*
X194214631Y-99020745D01*
X194214630Y-99020750D01*
X194194435Y-99199996D01*
X194194435Y-99200003D01*
X194214630Y-99379249D01*
X194214631Y-99379254D01*
X194274211Y-99549523D01*
X194315122Y-99614632D01*
X194370184Y-99702262D01*
X194497738Y-99829816D01*
X194504114Y-99833822D01*
X194605833Y-99897737D01*
X194650478Y-99925789D01*
X194777352Y-99970184D01*
X194820745Y-99985368D01*
X194820750Y-99985369D01*
X194999996Y-100005565D01*
X195000000Y-100005565D01*
X195000004Y-100005565D01*
X195179249Y-99985369D01*
X195179252Y-99985368D01*
X195179255Y-99985368D01*
X195349522Y-99925789D01*
X195502262Y-99829816D01*
X195629816Y-99702262D01*
X195725789Y-99549522D01*
X195785368Y-99379255D01*
X195785369Y-99379249D01*
X195805565Y-99200003D01*
X195805565Y-99199996D01*
X195785369Y-99020750D01*
X195785368Y-99020745D01*
X195770848Y-98979249D01*
X195725789Y-98850478D01*
X195629816Y-98697738D01*
X195619759Y-98687681D01*
X195586274Y-98626358D01*
X195591258Y-98556666D01*
X195619759Y-98512319D01*
X195629816Y-98502262D01*
X195725789Y-98349522D01*
X195785368Y-98179255D01*
X195791051Y-98128816D01*
X195805565Y-98000003D01*
X195805565Y-97999996D01*
X195785369Y-97820750D01*
X195785368Y-97820745D01*
X195763602Y-97758541D01*
X195725789Y-97650478D01*
X195690864Y-97594896D01*
X195629815Y-97497737D01*
X195502262Y-97370184D01*
X195349523Y-97274211D01*
X195179254Y-97214631D01*
X195179249Y-97214630D01*
X195000004Y-97194435D01*
X194999996Y-97194435D01*
X194820750Y-97214630D01*
X194820745Y-97214631D01*
X194650476Y-97274211D01*
X194497737Y-97370184D01*
X194370184Y-97497737D01*
X194274211Y-97650476D01*
X194214631Y-97820745D01*
X194214630Y-97820750D01*
X194194435Y-97999996D01*
X190852040Y-97999996D01*
X190858302Y-97944423D01*
X190858302Y-97944416D01*
X190838106Y-97765170D01*
X190838105Y-97765165D01*
X190831080Y-97745090D01*
X190778526Y-97594898D01*
X190772136Y-97584729D01*
X190717476Y-97497738D01*
X190682553Y-97442158D01*
X190554999Y-97314604D01*
X190489947Y-97273729D01*
X190402260Y-97218631D01*
X190231991Y-97159051D01*
X190231986Y-97159050D01*
X190052741Y-97138855D01*
X190052733Y-97138855D01*
X189873487Y-97159050D01*
X189873482Y-97159051D01*
X189703213Y-97218631D01*
X189550474Y-97314604D01*
X189422921Y-97442157D01*
X189326948Y-97594896D01*
X189267368Y-97765165D01*
X189267367Y-97765170D01*
X189247172Y-97944416D01*
X189247172Y-97944423D01*
X189267367Y-98123669D01*
X189267369Y-98123677D01*
X189323543Y-98284213D01*
X189327104Y-98353991D01*
X189311496Y-98391137D01*
X189274209Y-98450480D01*
X189214633Y-98620737D01*
X189214630Y-98620750D01*
X189194435Y-98799996D01*
X180132082Y-98799996D01*
X180229816Y-98702262D01*
X180325789Y-98549522D01*
X180364060Y-98440147D01*
X180404782Y-98383372D01*
X180440146Y-98364060D01*
X180549522Y-98325789D01*
X180702262Y-98229816D01*
X180829816Y-98102262D01*
X180925789Y-97949522D01*
X180968446Y-97827612D01*
X181009168Y-97770838D01*
X181074120Y-97745090D01*
X181142682Y-97758546D01*
X181151460Y-97763574D01*
X181243995Y-97821718D01*
X181250478Y-97825791D01*
X181409111Y-97881299D01*
X181420745Y-97885370D01*
X181420750Y-97885371D01*
X181599996Y-97905567D01*
X181600000Y-97905567D01*
X181600004Y-97905567D01*
X181779249Y-97885371D01*
X181779252Y-97885370D01*
X181779255Y-97885370D01*
X181949522Y-97825791D01*
X182102262Y-97729818D01*
X182229816Y-97602264D01*
X182325789Y-97449524D01*
X182385368Y-97279257D01*
X182392199Y-97218631D01*
X182394298Y-97200002D01*
X185804659Y-97200002D01*
X185823975Y-97396131D01*
X185881188Y-97584735D01*
X185974086Y-97758534D01*
X185974090Y-97758541D01*
X186099116Y-97910885D01*
X186251460Y-98035911D01*
X186251467Y-98035915D01*
X186425266Y-98128813D01*
X186425269Y-98128813D01*
X186425273Y-98128816D01*
X186613868Y-98186026D01*
X186810000Y-98205343D01*
X187006132Y-98186026D01*
X187194727Y-98128816D01*
X187204342Y-98123677D01*
X187368532Y-98035915D01*
X187368538Y-98035912D01*
X187520883Y-97910885D01*
X187645910Y-97758540D01*
X187703670Y-97650478D01*
X187738811Y-97584735D01*
X187738811Y-97584734D01*
X187738814Y-97584729D01*
X187796024Y-97396134D01*
X187815341Y-97200002D01*
X187796024Y-97003870D01*
X187738814Y-96815275D01*
X187738811Y-96815271D01*
X187738811Y-96815268D01*
X187645913Y-96641469D01*
X187645909Y-96641462D01*
X187520883Y-96489118D01*
X187368539Y-96364092D01*
X187368532Y-96364088D01*
X187194733Y-96271190D01*
X187194727Y-96271188D01*
X187006132Y-96213978D01*
X187006129Y-96213977D01*
X186810000Y-96194661D01*
X186613870Y-96213977D01*
X186425266Y-96271190D01*
X186251467Y-96364088D01*
X186251460Y-96364092D01*
X186099116Y-96489118D01*
X185974090Y-96641462D01*
X185974086Y-96641469D01*
X185881188Y-96815268D01*
X185823975Y-97003872D01*
X185804659Y-97200002D01*
X182394298Y-97200002D01*
X182405565Y-97100005D01*
X182405565Y-97099998D01*
X182385369Y-96920752D01*
X182385368Y-96920747D01*
X182353550Y-96829816D01*
X182325789Y-96750480D01*
X182229816Y-96597740D01*
X182102262Y-96470186D01*
X182092248Y-96463894D01*
X181949523Y-96374213D01*
X181779254Y-96314633D01*
X181779249Y-96314632D01*
X181600004Y-96294437D01*
X181599996Y-96294437D01*
X181420750Y-96314632D01*
X181420745Y-96314633D01*
X181250476Y-96374213D01*
X181097737Y-96470186D01*
X180970184Y-96597739D01*
X180874209Y-96750482D01*
X180831552Y-96872388D01*
X180790830Y-96929164D01*
X180725878Y-96954911D01*
X180657316Y-96941455D01*
X180648539Y-96936427D01*
X180549523Y-96874211D01*
X180379254Y-96814631D01*
X180379249Y-96814630D01*
X180200004Y-96794435D01*
X180199996Y-96794435D01*
X180020750Y-96814630D01*
X180020745Y-96814631D01*
X179850476Y-96874211D01*
X179697737Y-96970184D01*
X179570184Y-97097737D01*
X179474212Y-97250475D01*
X179474211Y-97250476D01*
X179435938Y-97359853D01*
X179395216Y-97416628D01*
X179359853Y-97435938D01*
X179250476Y-97474211D01*
X179250475Y-97474212D01*
X179097737Y-97570184D01*
X178970184Y-97697737D01*
X178874211Y-97850476D01*
X178814631Y-98020745D01*
X178814630Y-98020750D01*
X178794435Y-98199996D01*
X164889630Y-98199996D01*
X164829831Y-98104826D01*
X164702277Y-97977272D01*
X164658112Y-97949521D01*
X164549538Y-97881299D01*
X164379269Y-97821719D01*
X164379264Y-97821718D01*
X164200019Y-97801523D01*
X164200011Y-97801523D01*
X164020765Y-97821718D01*
X164020760Y-97821719D01*
X163850491Y-97881299D01*
X163697752Y-97977272D01*
X163570199Y-98104825D01*
X163474226Y-98257564D01*
X163414646Y-98427833D01*
X163414645Y-98427838D01*
X163394450Y-98607084D01*
X114500500Y-98607084D01*
X114500500Y-96250116D01*
X126989435Y-96250116D01*
X126989435Y-96250123D01*
X127009630Y-96429369D01*
X127009631Y-96429374D01*
X127069211Y-96599643D01*
X127133691Y-96702262D01*
X127165184Y-96752382D01*
X127292738Y-96879936D01*
X127357688Y-96920747D01*
X127436366Y-96970184D01*
X127445478Y-96975909D01*
X127525386Y-97003870D01*
X127615745Y-97035488D01*
X127615750Y-97035489D01*
X127794996Y-97055685D01*
X127795000Y-97055685D01*
X127795004Y-97055685D01*
X127974249Y-97035489D01*
X127974252Y-97035488D01*
X127974255Y-97035488D01*
X128144522Y-96975909D01*
X128297262Y-96879936D01*
X128424816Y-96752382D01*
X128520789Y-96599642D01*
X128580368Y-96429375D01*
X128581340Y-96420750D01*
X128589431Y-96348941D01*
X150345412Y-96348941D01*
X150345412Y-96348952D01*
X150365945Y-96596759D01*
X150365947Y-96596771D01*
X150426991Y-96837828D01*
X150526881Y-97065553D01*
X150662888Y-97273729D01*
X150667976Y-97279256D01*
X150831311Y-97456685D01*
X151027546Y-97609421D01*
X151246245Y-97727775D01*
X151481441Y-97808518D01*
X151726720Y-97849447D01*
X151975390Y-97849447D01*
X152220669Y-97808518D01*
X152455865Y-97727775D01*
X152674564Y-97609421D01*
X152870799Y-97456685D01*
X153039219Y-97273732D01*
X153175228Y-97065554D01*
X153275118Y-96837828D01*
X153336163Y-96596768D01*
X153336164Y-96596759D01*
X153356698Y-96348952D01*
X153356698Y-96348941D01*
X153336164Y-96101134D01*
X153336162Y-96101122D01*
X153275118Y-95860065D01*
X153175228Y-95632340D01*
X153154097Y-95599996D01*
X162994435Y-95599996D01*
X162994435Y-95600003D01*
X163014630Y-95779249D01*
X163014631Y-95779254D01*
X163074211Y-95949523D01*
X163123420Y-96027838D01*
X163170184Y-96102262D01*
X163297738Y-96229816D01*
X163351131Y-96263365D01*
X163432721Y-96314632D01*
X163450478Y-96325789D01*
X163559942Y-96364092D01*
X163620745Y-96385368D01*
X163620750Y-96385369D01*
X163799996Y-96405565D01*
X163800000Y-96405565D01*
X163800004Y-96405565D01*
X163979249Y-96385369D01*
X163979252Y-96385368D01*
X163979255Y-96385368D01*
X163979256Y-96385367D01*
X163979259Y-96385367D01*
X164040058Y-96364092D01*
X164120012Y-96336114D01*
X164189788Y-96332552D01*
X164226935Y-96348161D01*
X164269280Y-96374769D01*
X164350475Y-96425788D01*
X164520745Y-96485368D01*
X164520750Y-96485369D01*
X164699996Y-96505565D01*
X164700000Y-96505565D01*
X164700004Y-96505565D01*
X164879249Y-96485369D01*
X164879250Y-96485368D01*
X164879255Y-96485368D01*
X164930442Y-96467456D01*
X165000218Y-96463894D01*
X165060846Y-96498622D01*
X165093074Y-96560615D01*
X165094400Y-96593036D01*
X165094435Y-96593036D01*
X165094435Y-96593892D01*
X165094618Y-96598367D01*
X165094435Y-96599992D01*
X165094435Y-96600003D01*
X165114630Y-96779249D01*
X165114631Y-96779254D01*
X165174211Y-96949523D01*
X165240918Y-97055685D01*
X165270184Y-97102262D01*
X165397738Y-97229816D01*
X165550478Y-97325789D01*
X165677352Y-97370184D01*
X165720745Y-97385368D01*
X165720750Y-97385369D01*
X165899996Y-97405565D01*
X165900000Y-97405565D01*
X165900004Y-97405565D01*
X166079249Y-97385369D01*
X166079252Y-97385368D01*
X166079255Y-97385368D01*
X166249522Y-97325789D01*
X166402262Y-97229816D01*
X166529816Y-97102262D01*
X166625789Y-96949522D01*
X166685368Y-96779255D01*
X166688610Y-96750480D01*
X166705565Y-96600003D01*
X166705565Y-96599996D01*
X166685369Y-96420750D01*
X166685368Y-96420745D01*
X166665543Y-96364088D01*
X166625789Y-96250478D01*
X166594069Y-96199996D01*
X176794435Y-96199996D01*
X176794435Y-96200003D01*
X176814630Y-96379249D01*
X176814631Y-96379254D01*
X176874211Y-96549523D01*
X176905704Y-96599643D01*
X176970184Y-96702262D01*
X177097738Y-96829816D01*
X177188080Y-96886582D01*
X177242461Y-96920752D01*
X177250478Y-96925789D01*
X177318306Y-96949523D01*
X177420745Y-96985368D01*
X177420750Y-96985369D01*
X177599996Y-97005565D01*
X177600000Y-97005565D01*
X177600004Y-97005565D01*
X177779249Y-96985369D01*
X177779252Y-96985368D01*
X177779255Y-96985368D01*
X177949522Y-96925789D01*
X177957539Y-96920752D01*
X177971212Y-96912159D01*
X178046161Y-96865066D01*
X178113395Y-96846066D01*
X178178105Y-96865067D01*
X178274740Y-96925788D01*
X178445010Y-96985368D01*
X178445015Y-96985369D01*
X178624261Y-97005565D01*
X178624265Y-97005565D01*
X178624269Y-97005565D01*
X178803514Y-96985369D01*
X178803517Y-96985368D01*
X178803520Y-96985368D01*
X178973787Y-96925789D01*
X179126527Y-96829816D01*
X179254081Y-96702262D01*
X179350054Y-96549522D01*
X179409633Y-96379255D01*
X179409634Y-96379249D01*
X179429830Y-96200003D01*
X179429830Y-96199996D01*
X179409634Y-96020750D01*
X179409633Y-96020745D01*
X179367482Y-95900285D01*
X179350054Y-95850478D01*
X179339848Y-95834236D01*
X179305298Y-95779249D01*
X179254081Y-95697738D01*
X179126527Y-95570184D01*
X179100664Y-95553933D01*
X178973788Y-95474211D01*
X178803519Y-95414631D01*
X178803514Y-95414630D01*
X178656080Y-95398019D01*
X180003926Y-95398019D01*
X180003926Y-95398026D01*
X180024121Y-95577272D01*
X180024122Y-95577277D01*
X180083702Y-95747546D01*
X180166461Y-95879255D01*
X180179675Y-95900285D01*
X180307229Y-96027839D01*
X180397571Y-96084605D01*
X180418472Y-96097738D01*
X180459969Y-96123812D01*
X180483758Y-96132136D01*
X180630236Y-96183391D01*
X180630241Y-96183392D01*
X180809487Y-96203588D01*
X180809491Y-96203588D01*
X180809495Y-96203588D01*
X180988740Y-96183392D01*
X180988743Y-96183391D01*
X180988746Y-96183391D01*
X181159013Y-96123812D01*
X181311753Y-96027839D01*
X181439307Y-95900285D01*
X181480810Y-95834234D01*
X206684500Y-95834234D01*
X206684500Y-95985766D01*
X206693874Y-96020750D01*
X206723719Y-96132136D01*
X206753312Y-96183391D01*
X206799485Y-96263365D01*
X206906635Y-96370515D01*
X207037865Y-96446281D01*
X207184234Y-96485500D01*
X207184236Y-96485500D01*
X207335764Y-96485500D01*
X207335766Y-96485500D01*
X207482135Y-96446281D01*
X207613365Y-96370515D01*
X207720515Y-96263365D01*
X207796281Y-96132135D01*
X207835500Y-95985766D01*
X207835500Y-95834234D01*
X207796281Y-95687865D01*
X207720515Y-95556635D01*
X207613365Y-95449485D01*
X207518016Y-95394435D01*
X207482136Y-95373719D01*
X207395390Y-95350476D01*
X207335766Y-95334500D01*
X207184234Y-95334500D01*
X207037863Y-95373719D01*
X206906635Y-95449485D01*
X206906632Y-95449487D01*
X206799487Y-95556632D01*
X206799485Y-95556635D01*
X206723719Y-95687863D01*
X206689752Y-95814632D01*
X206684500Y-95834234D01*
X181480810Y-95834234D01*
X181535280Y-95747545D01*
X181594859Y-95577278D01*
X181594860Y-95577272D01*
X181615056Y-95398026D01*
X181615056Y-95398019D01*
X181594860Y-95218773D01*
X181594859Y-95218768D01*
X181535279Y-95048499D01*
X181484198Y-94967205D01*
X181439307Y-94895761D01*
X181355675Y-94812129D01*
X186982302Y-94812129D01*
X186982302Y-94812136D01*
X187002497Y-94991382D01*
X187002498Y-94991387D01*
X187062078Y-95161656D01*
X187112065Y-95241209D01*
X187158051Y-95314395D01*
X187285605Y-95441949D01*
X187438345Y-95537922D01*
X187608612Y-95597501D01*
X187608617Y-95597502D01*
X187787863Y-95617698D01*
X187787867Y-95617698D01*
X187787871Y-95617698D01*
X187967116Y-95597502D01*
X187967119Y-95597501D01*
X187967122Y-95597501D01*
X188137389Y-95537922D01*
X188290129Y-95441949D01*
X188417683Y-95314395D01*
X188513656Y-95161655D01*
X188555073Y-95043291D01*
X188595793Y-94986517D01*
X188631156Y-94967206D01*
X188749522Y-94925789D01*
X188902262Y-94829816D01*
X189029816Y-94702262D01*
X189125789Y-94549522D01*
X189185368Y-94379255D01*
X189205565Y-94200000D01*
X189203916Y-94185369D01*
X189185369Y-94020750D01*
X189185368Y-94020745D01*
X189143909Y-93902262D01*
X189125789Y-93850478D01*
X189107106Y-93820745D01*
X189062354Y-93749522D01*
X189029816Y-93697738D01*
X188932078Y-93600000D01*
X201994659Y-93600000D01*
X202013975Y-93796129D01*
X202071188Y-93984733D01*
X202164086Y-94158532D01*
X202164090Y-94158539D01*
X202289116Y-94310883D01*
X202441460Y-94435909D01*
X202441467Y-94435913D01*
X202615266Y-94528811D01*
X202615269Y-94528811D01*
X202615273Y-94528814D01*
X202803868Y-94586024D01*
X203000000Y-94605341D01*
X203196132Y-94586024D01*
X203384727Y-94528814D01*
X203390387Y-94525789D01*
X203558532Y-94435913D01*
X203558538Y-94435910D01*
X203710883Y-94310883D01*
X203835910Y-94158538D01*
X203896637Y-94044926D01*
X203928811Y-93984733D01*
X203928811Y-93984732D01*
X203928814Y-93984727D01*
X203986024Y-93796132D01*
X204005341Y-93600000D01*
X203986024Y-93403868D01*
X203928814Y-93215273D01*
X203928811Y-93215269D01*
X203928811Y-93215266D01*
X203835913Y-93041467D01*
X203835909Y-93041460D01*
X203710883Y-92889116D01*
X203558539Y-92764090D01*
X203558532Y-92764086D01*
X203384733Y-92671188D01*
X203384727Y-92671186D01*
X203248346Y-92629815D01*
X203196129Y-92613975D01*
X203000000Y-92594659D01*
X202803870Y-92613975D01*
X202615266Y-92671188D01*
X202441467Y-92764086D01*
X202441460Y-92764090D01*
X202289116Y-92889116D01*
X202164090Y-93041460D01*
X202164086Y-93041467D01*
X202071188Y-93215266D01*
X202013975Y-93403870D01*
X201994659Y-93600000D01*
X188932078Y-93600000D01*
X188902262Y-93570184D01*
X188831608Y-93525789D01*
X188749523Y-93474211D01*
X188579254Y-93414631D01*
X188579249Y-93414630D01*
X188400004Y-93394435D01*
X188399996Y-93394435D01*
X188220750Y-93414630D01*
X188220745Y-93414631D01*
X188050476Y-93474211D01*
X187897737Y-93570184D01*
X187770184Y-93697737D01*
X187674209Y-93850480D01*
X187632793Y-93968840D01*
X187592072Y-94025616D01*
X187556707Y-94044926D01*
X187438347Y-94086342D01*
X187285604Y-94182317D01*
X187158051Y-94309870D01*
X187062078Y-94462609D01*
X187002498Y-94632878D01*
X187002497Y-94632883D01*
X186982302Y-94812129D01*
X181355675Y-94812129D01*
X181311753Y-94768207D01*
X181159014Y-94672234D01*
X180988745Y-94612654D01*
X180988740Y-94612653D01*
X180809495Y-94592458D01*
X180809487Y-94592458D01*
X180630241Y-94612653D01*
X180630236Y-94612654D01*
X180459967Y-94672234D01*
X180307228Y-94768207D01*
X180179675Y-94895760D01*
X180083702Y-95048499D01*
X180024122Y-95218768D01*
X180024121Y-95218773D01*
X180003926Y-95398019D01*
X178656080Y-95398019D01*
X178624269Y-95394435D01*
X178624261Y-95394435D01*
X178445015Y-95414630D01*
X178445010Y-95414631D01*
X178274741Y-95474211D01*
X178178104Y-95534933D01*
X178110867Y-95553933D01*
X178046160Y-95534933D01*
X177949522Y-95474211D01*
X177779254Y-95414631D01*
X177779249Y-95414630D01*
X177600004Y-95394435D01*
X177599996Y-95394435D01*
X177420750Y-95414630D01*
X177420745Y-95414631D01*
X177250476Y-95474211D01*
X177097737Y-95570184D01*
X176970184Y-95697737D01*
X176874211Y-95850476D01*
X176814631Y-96020745D01*
X176814630Y-96020750D01*
X176794435Y-96199996D01*
X166594069Y-96199996D01*
X166529816Y-96097738D01*
X166402262Y-95970184D01*
X166369379Y-95949522D01*
X166249523Y-95874211D01*
X166079254Y-95814631D01*
X166079249Y-95814630D01*
X165900004Y-95794435D01*
X165899996Y-95794435D01*
X165720750Y-95814630D01*
X165720742Y-95814632D01*
X165669557Y-95832543D01*
X165599779Y-95836104D01*
X165539151Y-95801375D01*
X165506924Y-95739382D01*
X165505601Y-95706964D01*
X165505565Y-95706964D01*
X165505565Y-95706076D01*
X165505383Y-95701616D01*
X165505565Y-95700000D01*
X165505565Y-95699996D01*
X165485369Y-95520750D01*
X165485368Y-95520745D01*
X165465775Y-95464751D01*
X165425789Y-95350478D01*
X165415749Y-95334500D01*
X165362955Y-95250478D01*
X165329816Y-95197738D01*
X165202262Y-95070184D01*
X165167751Y-95048499D01*
X165049523Y-94974211D01*
X164879254Y-94914631D01*
X164879249Y-94914630D01*
X164700004Y-94894435D01*
X164699996Y-94894435D01*
X164520750Y-94914630D01*
X164520742Y-94914632D01*
X164379988Y-94963884D01*
X164310209Y-94967445D01*
X164273062Y-94951836D01*
X164149523Y-94874211D01*
X163979254Y-94814631D01*
X163979249Y-94814630D01*
X163800004Y-94794435D01*
X163799996Y-94794435D01*
X163620750Y-94814630D01*
X163620745Y-94814631D01*
X163450476Y-94874211D01*
X163297737Y-94970184D01*
X163170184Y-95097737D01*
X163074211Y-95250476D01*
X163014631Y-95420745D01*
X163014630Y-95420750D01*
X162994435Y-95599996D01*
X153154097Y-95599996D01*
X153039221Y-95424164D01*
X152938171Y-95314395D01*
X152870799Y-95241209D01*
X152674564Y-95088473D01*
X152674562Y-95088472D01*
X152674561Y-95088471D01*
X152455866Y-94970119D01*
X152455857Y-94970116D01*
X152220671Y-94889376D01*
X151975390Y-94848447D01*
X151726720Y-94848447D01*
X151481438Y-94889376D01*
X151246252Y-94970116D01*
X151246243Y-94970119D01*
X151027548Y-95088471D01*
X150831312Y-95241208D01*
X150662888Y-95424164D01*
X150526881Y-95632340D01*
X150426991Y-95860065D01*
X150365947Y-96101122D01*
X150365945Y-96101134D01*
X150345412Y-96348941D01*
X128589431Y-96348941D01*
X128600565Y-96250123D01*
X128600565Y-96250116D01*
X128580369Y-96070870D01*
X128580368Y-96070865D01*
X128520789Y-95900598D01*
X128520592Y-95900285D01*
X128424815Y-95747857D01*
X128297262Y-95620304D01*
X128144523Y-95524331D01*
X127974254Y-95464751D01*
X127974249Y-95464750D01*
X127795004Y-95444555D01*
X127794996Y-95444555D01*
X127615750Y-95464750D01*
X127615745Y-95464751D01*
X127445476Y-95524331D01*
X127292737Y-95620304D01*
X127165184Y-95747857D01*
X127069211Y-95900596D01*
X127009631Y-96070865D01*
X127009630Y-96070870D01*
X126989435Y-96250116D01*
X114500500Y-96250116D01*
X114500500Y-93399996D01*
X134594435Y-93399996D01*
X134594435Y-93400003D01*
X134614630Y-93579249D01*
X134614631Y-93579254D01*
X134674211Y-93749523D01*
X134737646Y-93850478D01*
X134770184Y-93902262D01*
X134897738Y-94029816D01*
X135050478Y-94125789D01*
X135203258Y-94179249D01*
X135220745Y-94185368D01*
X135220750Y-94185369D01*
X135399996Y-94205565D01*
X135400000Y-94205565D01*
X135400004Y-94205565D01*
X135579249Y-94185369D01*
X135579252Y-94185368D01*
X135579255Y-94185368D01*
X135749522Y-94125789D01*
X135902262Y-94029816D01*
X136029816Y-93902262D01*
X136094074Y-93799996D01*
X163994435Y-93799996D01*
X163994435Y-93800003D01*
X164014630Y-93979249D01*
X164014631Y-93979254D01*
X164074211Y-94149523D01*
X164096735Y-94185369D01*
X164170184Y-94302262D01*
X164297738Y-94429816D01*
X164450478Y-94525789D01*
X164518306Y-94549523D01*
X164620745Y-94585368D01*
X164620750Y-94585369D01*
X164799996Y-94605565D01*
X164800000Y-94605565D01*
X164800004Y-94605565D01*
X164979249Y-94585369D01*
X164979252Y-94585368D01*
X164979255Y-94585368D01*
X165149522Y-94525789D01*
X165302262Y-94429816D01*
X165429816Y-94302262D01*
X165525789Y-94149522D01*
X165578110Y-93999996D01*
X166494435Y-93999996D01*
X166494435Y-94000003D01*
X166514630Y-94179249D01*
X166514631Y-94179254D01*
X166574211Y-94349523D01*
X166670184Y-94502262D01*
X166797738Y-94629816D01*
X166950478Y-94725789D01*
X167071702Y-94768207D01*
X167120745Y-94785368D01*
X167120750Y-94785369D01*
X167299996Y-94805565D01*
X167300000Y-94805565D01*
X167300004Y-94805565D01*
X167479249Y-94785369D01*
X167479252Y-94785368D01*
X167479255Y-94785368D01*
X167649522Y-94725789D01*
X167802262Y-94629816D01*
X167929816Y-94502262D01*
X168025789Y-94349522D01*
X168085368Y-94179255D01*
X168087702Y-94158539D01*
X168105565Y-94000003D01*
X168105565Y-93999996D01*
X168085369Y-93820750D01*
X168085368Y-93820745D01*
X168078108Y-93799996D01*
X168025789Y-93650478D01*
X168007106Y-93620745D01*
X167962354Y-93549522D01*
X167929816Y-93497738D01*
X167802262Y-93370184D01*
X167780183Y-93356311D01*
X167649523Y-93274211D01*
X167479254Y-93214631D01*
X167479249Y-93214630D01*
X167300004Y-93194435D01*
X167299996Y-93194435D01*
X167120750Y-93214630D01*
X167120745Y-93214631D01*
X166950476Y-93274211D01*
X166797737Y-93370184D01*
X166670184Y-93497737D01*
X166574211Y-93650476D01*
X166514631Y-93820745D01*
X166514630Y-93820750D01*
X166494435Y-93999996D01*
X165578110Y-93999996D01*
X165585368Y-93979255D01*
X165585369Y-93979249D01*
X165605565Y-93800003D01*
X165605565Y-93799996D01*
X165585369Y-93620750D01*
X165585368Y-93620745D01*
X165542326Y-93497738D01*
X165525789Y-93450478D01*
X165503265Y-93414632D01*
X165466620Y-93356311D01*
X165429816Y-93297738D01*
X165302262Y-93170184D01*
X165251651Y-93138383D01*
X165149523Y-93074211D01*
X164979254Y-93014631D01*
X164979249Y-93014630D01*
X164800004Y-92994435D01*
X164799996Y-92994435D01*
X164620750Y-93014630D01*
X164620745Y-93014631D01*
X164450476Y-93074211D01*
X164297737Y-93170184D01*
X164170184Y-93297737D01*
X164074211Y-93450476D01*
X164014631Y-93620745D01*
X164014630Y-93620750D01*
X163994435Y-93799996D01*
X136094074Y-93799996D01*
X136125789Y-93749522D01*
X136185368Y-93579255D01*
X136191392Y-93525789D01*
X136205565Y-93400003D01*
X136205565Y-93399996D01*
X136185369Y-93220750D01*
X136185368Y-93220745D01*
X136156548Y-93138383D01*
X136125789Y-93050478D01*
X136107106Y-93020745D01*
X136081033Y-92979249D01*
X136029816Y-92897738D01*
X135902262Y-92770184D01*
X135749523Y-92674211D01*
X135579254Y-92614631D01*
X135579249Y-92614630D01*
X135400004Y-92594435D01*
X135399996Y-92594435D01*
X135220750Y-92614630D01*
X135220745Y-92614631D01*
X135050476Y-92674211D01*
X134897737Y-92770184D01*
X134770184Y-92897737D01*
X134674211Y-93050476D01*
X134614631Y-93220745D01*
X134614630Y-93220750D01*
X134594435Y-93399996D01*
X114500500Y-93399996D01*
X114500500Y-88799994D01*
X127594754Y-88799994D01*
X127594754Y-88800005D01*
X127613718Y-89101446D01*
X127613719Y-89101453D01*
X127633317Y-89204187D01*
X127669700Y-89394917D01*
X127670320Y-89398164D01*
X127763659Y-89685431D01*
X127763661Y-89685436D01*
X127892265Y-89958732D01*
X127892268Y-89958738D01*
X128054111Y-90213763D01*
X128054114Y-90213767D01*
X128054115Y-90213768D01*
X128246651Y-90446504D01*
X128463563Y-90650199D01*
X128466836Y-90653272D01*
X128466846Y-90653280D01*
X128711193Y-90830808D01*
X128711198Y-90830810D01*
X128711205Y-90830816D01*
X128975896Y-90976332D01*
X128975901Y-90976334D01*
X128975903Y-90976335D01*
X128975904Y-90976336D01*
X129256734Y-91087524D01*
X129256737Y-91087525D01*
X129354259Y-91112564D01*
X129549302Y-91162642D01*
X129696039Y-91181179D01*
X129848963Y-91200499D01*
X129848969Y-91200499D01*
X129848973Y-91200500D01*
X129848975Y-91200500D01*
X130151025Y-91200500D01*
X130151027Y-91200500D01*
X130151032Y-91200499D01*
X130151036Y-91200499D01*
X130245342Y-91188585D01*
X130450698Y-91162642D01*
X130743262Y-91087525D01*
X130747652Y-91085787D01*
X131024095Y-90976336D01*
X131024096Y-90976335D01*
X131024094Y-90976335D01*
X131024104Y-90976332D01*
X131288795Y-90830816D01*
X131533162Y-90653274D01*
X131753349Y-90446504D01*
X131945885Y-90213768D01*
X132107733Y-89958736D01*
X132236341Y-89685430D01*
X132329681Y-89398160D01*
X132386280Y-89101457D01*
X132387376Y-89084044D01*
X132405246Y-88800005D01*
X132405246Y-88799994D01*
X132386281Y-88498553D01*
X132386280Y-88498546D01*
X132386280Y-88498543D01*
X132329681Y-88201840D01*
X132236341Y-87914570D01*
X132230549Y-87902262D01*
X132159929Y-87752187D01*
X132107733Y-87641264D01*
X132073613Y-87587500D01*
X136157159Y-87587500D01*
X136176475Y-87783630D01*
X136219816Y-87926505D01*
X136220439Y-87996372D01*
X136219816Y-87998495D01*
X136176475Y-88141369D01*
X136157159Y-88337500D01*
X136176475Y-88533630D01*
X136219816Y-88676505D01*
X136220439Y-88746372D01*
X136219816Y-88748495D01*
X136176475Y-88891369D01*
X136157159Y-89087500D01*
X136176475Y-89283630D01*
X136219816Y-89426505D01*
X136220439Y-89496372D01*
X136219816Y-89498495D01*
X136176475Y-89641369D01*
X136157159Y-89837500D01*
X136176475Y-90033630D01*
X136219816Y-90176505D01*
X136220439Y-90246372D01*
X136219816Y-90248495D01*
X136176475Y-90391369D01*
X136157159Y-90587500D01*
X136176475Y-90783630D01*
X136219816Y-90926505D01*
X136220439Y-90996372D01*
X136219816Y-90998495D01*
X136176475Y-91141369D01*
X136157159Y-91337500D01*
X136176475Y-91533629D01*
X136176476Y-91533632D01*
X136228563Y-91705340D01*
X136233688Y-91722233D01*
X136326586Y-91896032D01*
X136326590Y-91896039D01*
X136451616Y-92048383D01*
X136603960Y-92173409D01*
X136603967Y-92173413D01*
X136777766Y-92266311D01*
X136777769Y-92266311D01*
X136777773Y-92266314D01*
X136966368Y-92323524D01*
X137162500Y-92342841D01*
X137358632Y-92323524D01*
X137547227Y-92266314D01*
X137721038Y-92173410D01*
X137873383Y-92048383D01*
X137998410Y-91896038D01*
X138091314Y-91722227D01*
X138119999Y-91627662D01*
X138158295Y-91569226D01*
X138202660Y-91545000D01*
X138297227Y-91516314D01*
X138471038Y-91423410D01*
X138623383Y-91298383D01*
X138748410Y-91146038D01*
X138810533Y-91029815D01*
X138841311Y-90972233D01*
X138841311Y-90972232D01*
X138841314Y-90972227D01*
X138898524Y-90783632D01*
X138917841Y-90587500D01*
X143407159Y-90587500D01*
X143426475Y-90783629D01*
X143483688Y-90972233D01*
X143576586Y-91146032D01*
X143576590Y-91146039D01*
X143701616Y-91298383D01*
X143853960Y-91423409D01*
X143853967Y-91423413D01*
X144027766Y-91516311D01*
X144027769Y-91516311D01*
X144027773Y-91516314D01*
X144216368Y-91573524D01*
X144412500Y-91592841D01*
X144608632Y-91573524D01*
X144797227Y-91516314D01*
X144971038Y-91423410D01*
X145123383Y-91298383D01*
X145248410Y-91146038D01*
X145310533Y-91029815D01*
X145341311Y-90972233D01*
X145341311Y-90972232D01*
X145341314Y-90972227D01*
X145398524Y-90783632D01*
X145417841Y-90587500D01*
X146217159Y-90587500D01*
X146236475Y-90783629D01*
X146293688Y-90972233D01*
X146386586Y-91146032D01*
X146386590Y-91146039D01*
X146511616Y-91298383D01*
X146649628Y-91411647D01*
X146688962Y-91469393D01*
X146690833Y-91539237D01*
X146654645Y-91599006D01*
X146649628Y-91603353D01*
X146511616Y-91716616D01*
X146386590Y-91868960D01*
X146386586Y-91868967D01*
X146293688Y-92042766D01*
X146236475Y-92231370D01*
X146217159Y-92427500D01*
X146236475Y-92623629D01*
X146236476Y-92623632D01*
X146285538Y-92785368D01*
X146293688Y-92812233D01*
X146386586Y-92986032D01*
X146386590Y-92986039D01*
X146511616Y-93138383D01*
X146663960Y-93263409D01*
X146663967Y-93263413D01*
X146837766Y-93356311D01*
X146837769Y-93356311D01*
X146837773Y-93356314D01*
X147026368Y-93413524D01*
X147222500Y-93432841D01*
X147418632Y-93413524D01*
X147607227Y-93356314D01*
X147781038Y-93263410D01*
X147933383Y-93138383D01*
X148058410Y-92986038D01*
X148129320Y-92853375D01*
X148151311Y-92812233D01*
X148151311Y-92812232D01*
X148151314Y-92812227D01*
X148208524Y-92623632D01*
X148227841Y-92427500D01*
X148208524Y-92231368D01*
X148151314Y-92042773D01*
X148151311Y-92042769D01*
X148151311Y-92042766D01*
X148058413Y-91868967D01*
X148058409Y-91868960D01*
X147933383Y-91716616D01*
X147795371Y-91603353D01*
X147756037Y-91545608D01*
X147754166Y-91475763D01*
X147790353Y-91415995D01*
X147795371Y-91411647D01*
X147822075Y-91389732D01*
X147933383Y-91298383D01*
X148058410Y-91146038D01*
X148120533Y-91029815D01*
X148151311Y-90972233D01*
X148151311Y-90972232D01*
X148151314Y-90972227D01*
X148208524Y-90783632D01*
X148227841Y-90587500D01*
X148208524Y-90391368D01*
X148151314Y-90202773D01*
X148151311Y-90202769D01*
X148151311Y-90202766D01*
X148058413Y-90028967D01*
X148058409Y-90028960D01*
X147933383Y-89876616D01*
X147781039Y-89751590D01*
X147781032Y-89751586D01*
X147607233Y-89658688D01*
X147607227Y-89658686D01*
X147418632Y-89601476D01*
X147418629Y-89601475D01*
X147222500Y-89582159D01*
X147026370Y-89601475D01*
X146837766Y-89658688D01*
X146663967Y-89751586D01*
X146663960Y-89751590D01*
X146511616Y-89876616D01*
X146386590Y-90028960D01*
X146386586Y-90028967D01*
X146293688Y-90202766D01*
X146236475Y-90391370D01*
X146217159Y-90587500D01*
X145417841Y-90587500D01*
X145398524Y-90391368D01*
X145341314Y-90202773D01*
X145341311Y-90202769D01*
X145341311Y-90202766D01*
X145248413Y-90028967D01*
X145248409Y-90028960D01*
X145123383Y-89876616D01*
X144971039Y-89751590D01*
X144971032Y-89751586D01*
X144797233Y-89658688D01*
X144797227Y-89658686D01*
X144608632Y-89601476D01*
X144608629Y-89601475D01*
X144412500Y-89582159D01*
X144216370Y-89601475D01*
X144027766Y-89658688D01*
X143853967Y-89751586D01*
X143853960Y-89751590D01*
X143701616Y-89876616D01*
X143576590Y-90028960D01*
X143576586Y-90028967D01*
X143483688Y-90202766D01*
X143426475Y-90391370D01*
X143407159Y-90587500D01*
X138917841Y-90587500D01*
X138898524Y-90391368D01*
X138855182Y-90248494D01*
X138854558Y-90178630D01*
X138855159Y-90176583D01*
X138898524Y-90033632D01*
X138917841Y-89837500D01*
X138898524Y-89641368D01*
X138855182Y-89498494D01*
X138854558Y-89428630D01*
X138855159Y-89426583D01*
X138898524Y-89283632D01*
X138917841Y-89087500D01*
X138898524Y-88891368D01*
X138855182Y-88748494D01*
X138854558Y-88678630D01*
X138855159Y-88676583D01*
X138898524Y-88533632D01*
X138917841Y-88337500D01*
X138898524Y-88141368D01*
X138855637Y-87999994D01*
X155494357Y-87999994D01*
X155494357Y-88000005D01*
X155514890Y-88247812D01*
X155514892Y-88247824D01*
X155575937Y-88488881D01*
X155668625Y-88700190D01*
X155677528Y-88769490D01*
X155668625Y-88799810D01*
X155575937Y-89011118D01*
X155514892Y-89252175D01*
X155514890Y-89252187D01*
X155494357Y-89499994D01*
X155494357Y-89500005D01*
X155514890Y-89747812D01*
X155514892Y-89747824D01*
X155575936Y-89988879D01*
X155575938Y-89988883D01*
X155613795Y-90075191D01*
X155622698Y-90144491D01*
X155613795Y-90174809D01*
X155575938Y-90261116D01*
X155575936Y-90261120D01*
X155514892Y-90502175D01*
X155514890Y-90502187D01*
X155494357Y-90749994D01*
X155494357Y-90750005D01*
X155514890Y-90997806D01*
X155514892Y-90997824D01*
X155575936Y-91238881D01*
X155675826Y-91466606D01*
X155811833Y-91674782D01*
X155811836Y-91674785D01*
X155980256Y-91857738D01*
X156176491Y-92010474D01*
X156176493Y-92010475D01*
X156395158Y-92128811D01*
X156395190Y-92128828D01*
X156630386Y-92209571D01*
X156875665Y-92250500D01*
X157124335Y-92250500D01*
X157369614Y-92209571D01*
X157604810Y-92128828D01*
X157823509Y-92010474D01*
X157836971Y-91999996D01*
X171394435Y-91999996D01*
X171394435Y-92000003D01*
X171414630Y-92179249D01*
X171414631Y-92179254D01*
X171474211Y-92349523D01*
X171537646Y-92450478D01*
X171570184Y-92502262D01*
X171697738Y-92629816D01*
X171763578Y-92671186D01*
X171805833Y-92697737D01*
X171850478Y-92725789D01*
X171859292Y-92728873D01*
X172020745Y-92785368D01*
X172020750Y-92785369D01*
X172199996Y-92805565D01*
X172200000Y-92805565D01*
X172200004Y-92805565D01*
X172379249Y-92785369D01*
X172379252Y-92785368D01*
X172379255Y-92785368D01*
X172549522Y-92725789D01*
X172702262Y-92629816D01*
X172829816Y-92502262D01*
X172925789Y-92349522D01*
X172985368Y-92179255D01*
X172985369Y-92179249D01*
X173005565Y-92000003D01*
X173005565Y-91999996D01*
X172985369Y-91820750D01*
X172985368Y-91820745D01*
X172963599Y-91758532D01*
X172925789Y-91650478D01*
X172829816Y-91497738D01*
X172702262Y-91370184D01*
X172612351Y-91313689D01*
X172549523Y-91274211D01*
X172379254Y-91214631D01*
X172379249Y-91214630D01*
X172200004Y-91194435D01*
X172199996Y-91194435D01*
X172020750Y-91214630D01*
X172020745Y-91214631D01*
X171850476Y-91274211D01*
X171697737Y-91370184D01*
X171570184Y-91497737D01*
X171474211Y-91650476D01*
X171414631Y-91820745D01*
X171414630Y-91820750D01*
X171394435Y-91999996D01*
X157836971Y-91999996D01*
X158019744Y-91857738D01*
X158188164Y-91674785D01*
X158324173Y-91466607D01*
X158424063Y-91238881D01*
X158485108Y-90997821D01*
X158485108Y-90997815D01*
X158485110Y-90997806D01*
X158505643Y-90750005D01*
X158505643Y-90749994D01*
X158501500Y-90700000D01*
X163039659Y-90700000D01*
X163058975Y-90896129D01*
X163116188Y-91084733D01*
X163209086Y-91258532D01*
X163209090Y-91258539D01*
X163334116Y-91410883D01*
X163486460Y-91535909D01*
X163486467Y-91535913D01*
X163660266Y-91628811D01*
X163660269Y-91628811D01*
X163660273Y-91628814D01*
X163848868Y-91686024D01*
X164045000Y-91705341D01*
X164241132Y-91686024D01*
X164429727Y-91628814D01*
X164603538Y-91535910D01*
X164755883Y-91410883D01*
X164880910Y-91258538D01*
X164951866Y-91125789D01*
X164973811Y-91084733D01*
X164973811Y-91084732D01*
X164973814Y-91084727D01*
X165031024Y-90896132D01*
X165050341Y-90700000D01*
X165031024Y-90503868D01*
X164973814Y-90315273D01*
X164973811Y-90315269D01*
X164973811Y-90315266D01*
X164880913Y-90141467D01*
X164880909Y-90141460D01*
X164755883Y-89989116D01*
X164603539Y-89864090D01*
X164603532Y-89864086D01*
X164429733Y-89771188D01*
X164429727Y-89771186D01*
X164241132Y-89713976D01*
X164241129Y-89713975D01*
X164045000Y-89694659D01*
X163848870Y-89713975D01*
X163660266Y-89771188D01*
X163486467Y-89864086D01*
X163486460Y-89864090D01*
X163334116Y-89989116D01*
X163209090Y-90141460D01*
X163209086Y-90141467D01*
X163116188Y-90315266D01*
X163058975Y-90503870D01*
X163039659Y-90700000D01*
X158501500Y-90700000D01*
X158485109Y-90502187D01*
X158485107Y-90502175D01*
X158459233Y-90400003D01*
X158424063Y-90261119D01*
X158386203Y-90174809D01*
X158377301Y-90105511D01*
X158386204Y-90075189D01*
X158424063Y-89988881D01*
X158485108Y-89747821D01*
X158486910Y-89726079D01*
X158497358Y-89599996D01*
X177594435Y-89599996D01*
X177594435Y-89600003D01*
X177614630Y-89779249D01*
X177614631Y-89779254D01*
X177674211Y-89949523D01*
X177737646Y-90050478D01*
X177770184Y-90102262D01*
X177897738Y-90229816D01*
X177947558Y-90261120D01*
X178033730Y-90315266D01*
X178050478Y-90325789D01*
X178201849Y-90378756D01*
X178220745Y-90385368D01*
X178220750Y-90385369D01*
X178399996Y-90405565D01*
X178400000Y-90405565D01*
X178400003Y-90405565D01*
X178477501Y-90396832D01*
X178542837Y-90389471D01*
X178611659Y-90401525D01*
X178644402Y-90425010D01*
X178712009Y-90492617D01*
X178761901Y-90523966D01*
X178863012Y-90587499D01*
X178864749Y-90588590D01*
X179015860Y-90641466D01*
X179035016Y-90648169D01*
X179035020Y-90648170D01*
X179037540Y-90648454D01*
X179039056Y-90649091D01*
X179041803Y-90649718D01*
X179041693Y-90650199D01*
X179101954Y-90675521D01*
X179141509Y-90733116D01*
X179143646Y-90802953D01*
X179141479Y-90809412D01*
X179141583Y-90809444D01*
X179139815Y-90815269D01*
X179139814Y-90815273D01*
X179115286Y-90896132D01*
X179082603Y-91003870D01*
X179063287Y-91200000D01*
X179063287Y-91200001D01*
X179068209Y-91249981D01*
X179055189Y-91318627D01*
X179007124Y-91369337D01*
X178958692Y-91385354D01*
X178920750Y-91389629D01*
X178750478Y-91449209D01*
X178597737Y-91545183D01*
X178470184Y-91672736D01*
X178374210Y-91825477D01*
X178325971Y-91963339D01*
X178285249Y-92020115D01*
X178249884Y-92039426D01*
X178150480Y-92074209D01*
X177997737Y-92170184D01*
X177870184Y-92297737D01*
X177774211Y-92450476D01*
X177714631Y-92620745D01*
X177714630Y-92620750D01*
X177694435Y-92799996D01*
X177694435Y-92800003D01*
X177714630Y-92979249D01*
X177714631Y-92979254D01*
X177774211Y-93149523D01*
X177852558Y-93274211D01*
X177870184Y-93302262D01*
X177997738Y-93429816D01*
X178068392Y-93474211D01*
X178105833Y-93497737D01*
X178150478Y-93525789D01*
X178218306Y-93549523D01*
X178320745Y-93585368D01*
X178320750Y-93585369D01*
X178499996Y-93605565D01*
X178500000Y-93605565D01*
X178500004Y-93605565D01*
X178679249Y-93585369D01*
X178679252Y-93585368D01*
X178679255Y-93585368D01*
X178849522Y-93525789D01*
X179002262Y-93429816D01*
X179129816Y-93302262D01*
X179225789Y-93149522D01*
X179274030Y-93011656D01*
X179314750Y-92954882D01*
X179350116Y-92935570D01*
X179449522Y-92900788D01*
X179602262Y-92804815D01*
X179729816Y-92677261D01*
X179825789Y-92524521D01*
X179885368Y-92354254D01*
X179890283Y-92310626D01*
X179917348Y-92246216D01*
X179974942Y-92206659D01*
X180025654Y-92201108D01*
X180068628Y-92205341D01*
X180264760Y-92186024D01*
X180453355Y-92128814D01*
X180509027Y-92099057D01*
X180555514Y-92074209D01*
X180627166Y-92035910D01*
X180670927Y-91999996D01*
X181194435Y-91999996D01*
X181194435Y-92000003D01*
X181214630Y-92179249D01*
X181214631Y-92179254D01*
X181274211Y-92349523D01*
X181337646Y-92450478D01*
X181370184Y-92502262D01*
X181497738Y-92629816D01*
X181563578Y-92671186D01*
X181605833Y-92697737D01*
X181650478Y-92725789D01*
X181659292Y-92728873D01*
X181820745Y-92785368D01*
X181820750Y-92785369D01*
X181999996Y-92805565D01*
X182000000Y-92805565D01*
X182000004Y-92805565D01*
X182179249Y-92785369D01*
X182179252Y-92785368D01*
X182179255Y-92785368D01*
X182349522Y-92725789D01*
X182502262Y-92629816D01*
X182629816Y-92502262D01*
X182725789Y-92349522D01*
X182785368Y-92179255D01*
X182785369Y-92179249D01*
X182805565Y-92000003D01*
X182805565Y-91999996D01*
X182785369Y-91820750D01*
X182785368Y-91820745D01*
X182763599Y-91758532D01*
X182725789Y-91650478D01*
X182629816Y-91497738D01*
X182502262Y-91370184D01*
X182412351Y-91313689D01*
X182349523Y-91274211D01*
X182179254Y-91214631D01*
X182179249Y-91214630D01*
X182000004Y-91194435D01*
X181999996Y-91194435D01*
X181820750Y-91214630D01*
X181820745Y-91214631D01*
X181650476Y-91274211D01*
X181497737Y-91370184D01*
X181370184Y-91497737D01*
X181274211Y-91650476D01*
X181214631Y-91820745D01*
X181214630Y-91820750D01*
X181194435Y-91999996D01*
X180670927Y-91999996D01*
X180779511Y-91910883D01*
X180904538Y-91758538D01*
X180997442Y-91584727D01*
X181054652Y-91396132D01*
X181073969Y-91200000D01*
X181054652Y-91003868D01*
X180997442Y-90815273D01*
X180997439Y-90815269D01*
X180997439Y-90815266D01*
X180904541Y-90641467D01*
X180904540Y-90641466D01*
X180904538Y-90641462D01*
X180869328Y-90598558D01*
X180842016Y-90534251D01*
X180853807Y-90465383D01*
X180860180Y-90453936D01*
X180919205Y-90360001D01*
X180919209Y-90359994D01*
X183594435Y-90359994D01*
X183594435Y-90360001D01*
X183614630Y-90539247D01*
X183614631Y-90539252D01*
X183674211Y-90709521D01*
X183740660Y-90815273D01*
X183770184Y-90862260D01*
X183897738Y-90989814D01*
X183910486Y-90997824D01*
X184048800Y-91084733D01*
X184050478Y-91085787D01*
X184164797Y-91125789D01*
X184220745Y-91145366D01*
X184220750Y-91145367D01*
X184364106Y-91161519D01*
X184428520Y-91188585D01*
X184468075Y-91246180D01*
X184470213Y-91316017D01*
X184434255Y-91375923D01*
X184416196Y-91389732D01*
X184289661Y-91469239D01*
X184162106Y-91596794D01*
X184066133Y-91749533D01*
X184006553Y-91919802D01*
X184006552Y-91919807D01*
X183986357Y-92099053D01*
X183986357Y-92099060D01*
X184006552Y-92278306D01*
X184006553Y-92278311D01*
X184066133Y-92448580D01*
X184157780Y-92594435D01*
X184162106Y-92601319D01*
X184289660Y-92728873D01*
X184355406Y-92770184D01*
X184422326Y-92812233D01*
X184442400Y-92824846D01*
X184612661Y-92884423D01*
X184612667Y-92884425D01*
X184612672Y-92884426D01*
X184791918Y-92904622D01*
X184791922Y-92904622D01*
X184791926Y-92904622D01*
X184971171Y-92884426D01*
X184971173Y-92884425D01*
X184971177Y-92884425D01*
X184971180Y-92884423D01*
X184971184Y-92884423D01*
X185059915Y-92853375D01*
X185129694Y-92849813D01*
X185190321Y-92884541D01*
X185222549Y-92946535D01*
X185217912Y-93011370D01*
X185214632Y-93020742D01*
X185214630Y-93020750D01*
X185194435Y-93199996D01*
X185194435Y-93200003D01*
X185214630Y-93379249D01*
X185214631Y-93379254D01*
X185274211Y-93549523D01*
X185337646Y-93650478D01*
X185370184Y-93702262D01*
X185497738Y-93829816D01*
X185650478Y-93925789D01*
X185773511Y-93968840D01*
X185820745Y-93985368D01*
X185820750Y-93985369D01*
X185999996Y-94005565D01*
X186000000Y-94005565D01*
X186000004Y-94005565D01*
X186179249Y-93985369D01*
X186179252Y-93985368D01*
X186179255Y-93985368D01*
X186349522Y-93925789D01*
X186502262Y-93829816D01*
X186629816Y-93702262D01*
X186725789Y-93549522D01*
X186785368Y-93379255D01*
X186798420Y-93263413D01*
X186805565Y-93200003D01*
X186805565Y-93199996D01*
X186785369Y-93020750D01*
X186785368Y-93020745D01*
X186763190Y-92957364D01*
X186725789Y-92850478D01*
X186629816Y-92697738D01*
X186502262Y-92570184D01*
X186349523Y-92474211D01*
X186179254Y-92414631D01*
X186179249Y-92414630D01*
X186000004Y-92394435D01*
X185999996Y-92394435D01*
X185820750Y-92414630D01*
X185820739Y-92414633D01*
X185732004Y-92445682D01*
X185662226Y-92449243D01*
X185601599Y-92414513D01*
X185569372Y-92352520D01*
X185574011Y-92287680D01*
X185577290Y-92278312D01*
X185578642Y-92266314D01*
X185597487Y-92099060D01*
X185597487Y-92099053D01*
X185577291Y-91919807D01*
X185577290Y-91919802D01*
X185568975Y-91896038D01*
X185517711Y-91749535D01*
X185421738Y-91596795D01*
X185294184Y-91469241D01*
X185262303Y-91449209D01*
X185141445Y-91373268D01*
X184971176Y-91313688D01*
X184971172Y-91313687D01*
X184827814Y-91297535D01*
X184763400Y-91270468D01*
X184723845Y-91212873D01*
X184721708Y-91143036D01*
X184757666Y-91083130D01*
X184775719Y-91069326D01*
X184902262Y-90989814D01*
X185029816Y-90862260D01*
X185125789Y-90709520D01*
X185185368Y-90539253D01*
X185185932Y-90534251D01*
X185205565Y-90360001D01*
X185205565Y-90359994D01*
X185185369Y-90180748D01*
X185185368Y-90180743D01*
X185139786Y-90050478D01*
X185125789Y-90010476D01*
X185119208Y-90000003D01*
X185048762Y-89887889D01*
X185029816Y-89857736D01*
X184902262Y-89730182D01*
X184902255Y-89730176D01*
X184898847Y-89728035D01*
X184897117Y-89726079D01*
X184896816Y-89725839D01*
X184896858Y-89725786D01*
X184852558Y-89675699D01*
X184841913Y-89606645D01*
X184870292Y-89542798D01*
X184928683Y-89504429D01*
X184950936Y-89499825D01*
X185010742Y-89493087D01*
X185079250Y-89485369D01*
X185079253Y-89485368D01*
X185079255Y-89485368D01*
X185249522Y-89425789D01*
X185257550Y-89420745D01*
X185298654Y-89394917D01*
X185365890Y-89375916D01*
X185432726Y-89396283D01*
X185469620Y-89433937D01*
X185528220Y-89527198D01*
X185528222Y-89527200D01*
X185655776Y-89654754D01*
X185746118Y-89711520D01*
X185803876Y-89747812D01*
X185808516Y-89750727D01*
X185978783Y-89810306D01*
X185978788Y-89810307D01*
X186158034Y-89830503D01*
X186158038Y-89830503D01*
X186158041Y-89830503D01*
X186175942Y-89828486D01*
X186244764Y-89840540D01*
X186296144Y-89887889D01*
X186313768Y-89955500D01*
X186294820Y-90017677D01*
X186274212Y-90050474D01*
X186214631Y-90220745D01*
X186214630Y-90220750D01*
X186194435Y-90399996D01*
X186194435Y-90400003D01*
X186214630Y-90579249D01*
X186214631Y-90579254D01*
X186274211Y-90749523D01*
X186315525Y-90815273D01*
X186370184Y-90902262D01*
X186497738Y-91029816D01*
X186650478Y-91125789D01*
X186755798Y-91162642D01*
X186820745Y-91185368D01*
X186820750Y-91185369D01*
X186999996Y-91205565D01*
X187000000Y-91205565D01*
X187000004Y-91205565D01*
X187179249Y-91185369D01*
X187179252Y-91185368D01*
X187179255Y-91185368D01*
X187349522Y-91125789D01*
X187502262Y-91029816D01*
X187629816Y-90902262D01*
X187725789Y-90749522D01*
X187785368Y-90579255D01*
X187789875Y-90539253D01*
X187805565Y-90400003D01*
X187805565Y-90399996D01*
X187785369Y-90220750D01*
X187785368Y-90220745D01*
X187769294Y-90174809D01*
X187725789Y-90050478D01*
X187725786Y-90050474D01*
X187662354Y-89949522D01*
X187629816Y-89897738D01*
X187502262Y-89770184D01*
X187349523Y-89674211D01*
X187179254Y-89614631D01*
X187179249Y-89614630D01*
X187000004Y-89594435D01*
X186999997Y-89594435D01*
X186982089Y-89596452D01*
X186913268Y-89584394D01*
X186861891Y-89537043D01*
X186844269Y-89469432D01*
X186863218Y-89407258D01*
X186883827Y-89374460D01*
X186943406Y-89204193D01*
X186943624Y-89202262D01*
X186963603Y-89024941D01*
X186963603Y-89024934D01*
X186943407Y-88845688D01*
X186943406Y-88845683D01*
X186932540Y-88814630D01*
X186883827Y-88675416D01*
X186787854Y-88522676D01*
X186660300Y-88395122D01*
X186589250Y-88350478D01*
X186507561Y-88299149D01*
X186337292Y-88239569D01*
X186337287Y-88239568D01*
X186158042Y-88219373D01*
X186158034Y-88219373D01*
X185978788Y-88239568D01*
X185978783Y-88239569D01*
X185808512Y-88299150D01*
X185759381Y-88330021D01*
X185692144Y-88349021D01*
X185625309Y-88328653D01*
X185588416Y-88290999D01*
X185556100Y-88239569D01*
X185529816Y-88197738D01*
X185402262Y-88070184D01*
X185338017Y-88029816D01*
X185249523Y-87974211D01*
X185079254Y-87914631D01*
X185079249Y-87914630D01*
X184950409Y-87900114D01*
X195194754Y-87900114D01*
X195194754Y-87900125D01*
X195213718Y-88201566D01*
X195213719Y-88201573D01*
X195222540Y-88247812D01*
X195252670Y-88405763D01*
X195270320Y-88498284D01*
X195363659Y-88785551D01*
X195363661Y-88785556D01*
X195492265Y-89058852D01*
X195492268Y-89058858D01*
X195654111Y-89313883D01*
X195654114Y-89313887D01*
X195654115Y-89313888D01*
X195846651Y-89546624D01*
X196060903Y-89747821D01*
X196066836Y-89753392D01*
X196066846Y-89753400D01*
X196311193Y-89930928D01*
X196311198Y-89930930D01*
X196311205Y-89930936D01*
X196575896Y-90076452D01*
X196575901Y-90076454D01*
X196575903Y-90076455D01*
X196575904Y-90076456D01*
X196856734Y-90187644D01*
X196856737Y-90187645D01*
X196915631Y-90202766D01*
X197149302Y-90262762D01*
X197296039Y-90281299D01*
X197448963Y-90300619D01*
X197448969Y-90300619D01*
X197448973Y-90300620D01*
X197448975Y-90300620D01*
X197751025Y-90300620D01*
X197751027Y-90300620D01*
X197751032Y-90300619D01*
X197751036Y-90300619D01*
X197830591Y-90290568D01*
X198050698Y-90262762D01*
X198343262Y-90187645D01*
X198360682Y-90180748D01*
X198624095Y-90076456D01*
X198624096Y-90076455D01*
X198624094Y-90076455D01*
X198624104Y-90076452D01*
X198888795Y-89930936D01*
X199133162Y-89753394D01*
X199353349Y-89546624D01*
X199545885Y-89313888D01*
X199707733Y-89058856D01*
X199836341Y-88785550D01*
X199929681Y-88498280D01*
X199986280Y-88201577D01*
X199991048Y-88125789D01*
X200005246Y-87900125D01*
X200005246Y-87900114D01*
X199986281Y-87598673D01*
X199986280Y-87598666D01*
X199986280Y-87598663D01*
X199929681Y-87301960D01*
X199836341Y-87014690D01*
X199707733Y-86741384D01*
X199631444Y-86621172D01*
X199545888Y-86486356D01*
X199545885Y-86486352D01*
X199353349Y-86253616D01*
X199133162Y-86046846D01*
X199133159Y-86046844D01*
X199133153Y-86046839D01*
X198888806Y-85869311D01*
X198888799Y-85869306D01*
X198888795Y-85869304D01*
X198624104Y-85723788D01*
X198624101Y-85723786D01*
X198624096Y-85723784D01*
X198624095Y-85723783D01*
X198343265Y-85612595D01*
X198343262Y-85612594D01*
X198050695Y-85537477D01*
X197751036Y-85499620D01*
X197751027Y-85499620D01*
X197448973Y-85499620D01*
X197448963Y-85499620D01*
X197149304Y-85537477D01*
X196856737Y-85612594D01*
X196856734Y-85612595D01*
X196575904Y-85723783D01*
X196575903Y-85723784D01*
X196311205Y-85869304D01*
X196311193Y-85869311D01*
X196066846Y-86046839D01*
X196066836Y-86046847D01*
X195846652Y-86253614D01*
X195654111Y-86486356D01*
X195492268Y-86741381D01*
X195492265Y-86741387D01*
X195363661Y-87014683D01*
X195363659Y-87014688D01*
X195270320Y-87301955D01*
X195213719Y-87598666D01*
X195213718Y-87598673D01*
X195194754Y-87900114D01*
X184950409Y-87900114D01*
X184900004Y-87894435D01*
X184899996Y-87894435D01*
X184720750Y-87914630D01*
X184720745Y-87914631D01*
X184550476Y-87974211D01*
X184397737Y-88070184D01*
X184270184Y-88197737D01*
X184174211Y-88350476D01*
X184114631Y-88520745D01*
X184114630Y-88520750D01*
X184094435Y-88699996D01*
X184094435Y-88700003D01*
X184114630Y-88879249D01*
X184114631Y-88879254D01*
X184174211Y-89049523D01*
X184270184Y-89202262D01*
X184397737Y-89329815D01*
X184397742Y-89329819D01*
X184401149Y-89331960D01*
X184402878Y-89333915D01*
X184403184Y-89334159D01*
X184403141Y-89334212D01*
X184447439Y-89384295D01*
X184458086Y-89453349D01*
X184429710Y-89517197D01*
X184371319Y-89555567D01*
X184349059Y-89560172D01*
X184220749Y-89574628D01*
X184220745Y-89574629D01*
X184050476Y-89634209D01*
X183897737Y-89730182D01*
X183770184Y-89857735D01*
X183674211Y-90010474D01*
X183614631Y-90180743D01*
X183614630Y-90180748D01*
X183594435Y-90359994D01*
X180919209Y-90359994D01*
X180925788Y-90349524D01*
X180925789Y-90349522D01*
X180985368Y-90179255D01*
X180985369Y-90179249D01*
X181005565Y-90000003D01*
X181005565Y-89999996D01*
X180985369Y-89820750D01*
X180985368Y-89820745D01*
X180968027Y-89771188D01*
X180925789Y-89650478D01*
X180920065Y-89641369D01*
X180831237Y-89500000D01*
X180829816Y-89497738D01*
X180702262Y-89370184D01*
X180644929Y-89334159D01*
X180549523Y-89274211D01*
X180379254Y-89214631D01*
X180379249Y-89214630D01*
X180200004Y-89194435D01*
X180199996Y-89194435D01*
X180020750Y-89214630D01*
X180020742Y-89214632D01*
X179855333Y-89272511D01*
X179785554Y-89276072D01*
X179726698Y-89243150D01*
X179716533Y-89232985D01*
X179563794Y-89137012D01*
X179393525Y-89077432D01*
X179393520Y-89077431D01*
X179214275Y-89057236D01*
X179214267Y-89057236D01*
X179071432Y-89073329D01*
X179002610Y-89061274D01*
X178969868Y-89037790D01*
X178902262Y-88970184D01*
X178749523Y-88874211D01*
X178579254Y-88814631D01*
X178579249Y-88814630D01*
X178400004Y-88794435D01*
X178399996Y-88794435D01*
X178220750Y-88814630D01*
X178220745Y-88814631D01*
X178050476Y-88874211D01*
X177897737Y-88970184D01*
X177770184Y-89097737D01*
X177674211Y-89250476D01*
X177614631Y-89420745D01*
X177614630Y-89420750D01*
X177594435Y-89599996D01*
X158497358Y-89599996D01*
X158505643Y-89500005D01*
X158505643Y-89499994D01*
X158485109Y-89252187D01*
X158485107Y-89252175D01*
X158424063Y-89011118D01*
X158331460Y-88800005D01*
X158331373Y-88799809D01*
X158322471Y-88730510D01*
X158331374Y-88700190D01*
X158331458Y-88700000D01*
X158424063Y-88488881D01*
X158485108Y-88247821D01*
X158485792Y-88239568D01*
X158505643Y-88000005D01*
X158505643Y-87999994D01*
X158485109Y-87752187D01*
X158485107Y-87752175D01*
X158424063Y-87511118D01*
X158375320Y-87399996D01*
X175394435Y-87399996D01*
X175394435Y-87400003D01*
X175414630Y-87579249D01*
X175414631Y-87579254D01*
X175474211Y-87749523D01*
X175565266Y-87894435D01*
X175570184Y-87902262D01*
X175697738Y-88029816D01*
X175850478Y-88125789D01*
X176020745Y-88185368D01*
X176020750Y-88185369D01*
X176199996Y-88205565D01*
X176200000Y-88205565D01*
X176200004Y-88205565D01*
X176379249Y-88185369D01*
X176379252Y-88185368D01*
X176379255Y-88185368D01*
X176549522Y-88125789D01*
X176702262Y-88029816D01*
X176829816Y-87902262D01*
X176925789Y-87749522D01*
X176985368Y-87579255D01*
X177005565Y-87400000D01*
X177004592Y-87391368D01*
X176985369Y-87220750D01*
X176985368Y-87220745D01*
X176979077Y-87202766D01*
X176925789Y-87050478D01*
X176903297Y-87014683D01*
X176829815Y-86897737D01*
X176702262Y-86770184D01*
X176549523Y-86674211D01*
X176379254Y-86614631D01*
X176379249Y-86614630D01*
X176200004Y-86594435D01*
X176199996Y-86594435D01*
X176020750Y-86614630D01*
X176020745Y-86614631D01*
X175850476Y-86674211D01*
X175697737Y-86770184D01*
X175570184Y-86897737D01*
X175474211Y-87050476D01*
X175414631Y-87220745D01*
X175414630Y-87220750D01*
X175394435Y-87399996D01*
X158375320Y-87399996D01*
X158324173Y-87283393D01*
X158188166Y-87075217D01*
X158132440Y-87014683D01*
X158019744Y-86892262D01*
X157823509Y-86739526D01*
X157823507Y-86739525D01*
X157823506Y-86739524D01*
X157604811Y-86621172D01*
X157604802Y-86621169D01*
X157369616Y-86540429D01*
X157124335Y-86499500D01*
X156875665Y-86499500D01*
X156630383Y-86540429D01*
X156395197Y-86621169D01*
X156395188Y-86621172D01*
X156176493Y-86739524D01*
X155980257Y-86892261D01*
X155811833Y-87075217D01*
X155675826Y-87283393D01*
X155575936Y-87511118D01*
X155514892Y-87752175D01*
X155514890Y-87752187D01*
X155494357Y-87999994D01*
X138855637Y-87999994D01*
X138855182Y-87998494D01*
X138854558Y-87928630D01*
X138855159Y-87926583D01*
X138898524Y-87783632D01*
X138917841Y-87587500D01*
X138898524Y-87391368D01*
X138841314Y-87202773D01*
X138841311Y-87202769D01*
X138841311Y-87202766D01*
X138748413Y-87028967D01*
X138748409Y-87028960D01*
X138623383Y-86876616D01*
X138471039Y-86751590D01*
X138471032Y-86751586D01*
X138297233Y-86658688D01*
X138297227Y-86658686D01*
X138108632Y-86601476D01*
X138108629Y-86601475D01*
X137912500Y-86582159D01*
X137716369Y-86601475D01*
X137573495Y-86644816D01*
X137503628Y-86645439D01*
X137501505Y-86644816D01*
X137358630Y-86601475D01*
X137162500Y-86582159D01*
X136966370Y-86601475D01*
X136777766Y-86658688D01*
X136603967Y-86751586D01*
X136603960Y-86751590D01*
X136451616Y-86876616D01*
X136326590Y-87028960D01*
X136326586Y-87028967D01*
X136233688Y-87202766D01*
X136176475Y-87391370D01*
X136157159Y-87587500D01*
X132073613Y-87587500D01*
X132025140Y-87511118D01*
X131945888Y-87386236D01*
X131794114Y-87202773D01*
X131753349Y-87153496D01*
X131669988Y-87075215D01*
X131533163Y-86946727D01*
X131533153Y-86946719D01*
X131288806Y-86769191D01*
X131288799Y-86769186D01*
X131288795Y-86769184D01*
X131024104Y-86623668D01*
X131024101Y-86623666D01*
X131024096Y-86623664D01*
X131024095Y-86623663D01*
X130743265Y-86512475D01*
X130743262Y-86512474D01*
X130450695Y-86437357D01*
X130151036Y-86399500D01*
X130151027Y-86399500D01*
X129848973Y-86399500D01*
X129848963Y-86399500D01*
X129549304Y-86437357D01*
X129256737Y-86512474D01*
X129256734Y-86512475D01*
X128975904Y-86623663D01*
X128975903Y-86623664D01*
X128711205Y-86769184D01*
X128711193Y-86769191D01*
X128466846Y-86946719D01*
X128466836Y-86946727D01*
X128246652Y-87153494D01*
X128054111Y-87386236D01*
X127892268Y-87641261D01*
X127892265Y-87641267D01*
X127763661Y-87914563D01*
X127763659Y-87914568D01*
X127670320Y-88201835D01*
X127613719Y-88498546D01*
X127613718Y-88498553D01*
X127594754Y-88799994D01*
X114500500Y-88799994D01*
X114500500Y-81599994D01*
X127594754Y-81599994D01*
X127594754Y-81600005D01*
X127613718Y-81901446D01*
X127613719Y-81901453D01*
X127670320Y-82198164D01*
X127763659Y-82485431D01*
X127763661Y-82485436D01*
X127892265Y-82758732D01*
X127892268Y-82758738D01*
X128054111Y-83013763D01*
X128054114Y-83013767D01*
X128054115Y-83013768D01*
X128232845Y-83229816D01*
X128246652Y-83246505D01*
X128466836Y-83453272D01*
X128466846Y-83453280D01*
X128711193Y-83630808D01*
X128711198Y-83630810D01*
X128711205Y-83630816D01*
X128975896Y-83776332D01*
X128975901Y-83776334D01*
X128975903Y-83776335D01*
X128975904Y-83776336D01*
X129256734Y-83887524D01*
X129256737Y-83887525D01*
X129354259Y-83912564D01*
X129549302Y-83962642D01*
X129696039Y-83981179D01*
X129848963Y-84000499D01*
X129848969Y-84000499D01*
X129848973Y-84000500D01*
X129848975Y-84000500D01*
X130151025Y-84000500D01*
X130151027Y-84000500D01*
X130151032Y-84000499D01*
X130151036Y-84000499D01*
X130230591Y-83990448D01*
X130450698Y-83962642D01*
X130743262Y-83887525D01*
X130743265Y-83887524D01*
X131024095Y-83776336D01*
X131024096Y-83776335D01*
X131024094Y-83776335D01*
X131024104Y-83776332D01*
X131288795Y-83630816D01*
X131533162Y-83453274D01*
X131753349Y-83246504D01*
X131945885Y-83013768D01*
X132107733Y-82758736D01*
X132236341Y-82485430D01*
X132329681Y-82198160D01*
X132386280Y-81901457D01*
X132388960Y-81858858D01*
X132405246Y-81600005D01*
X132405246Y-81599994D01*
X132386281Y-81298553D01*
X132386280Y-81298546D01*
X132386280Y-81298543D01*
X132329681Y-81001840D01*
X132236341Y-80714570D01*
X132229541Y-80700120D01*
X132182428Y-80600000D01*
X132984390Y-80600000D01*
X132988122Y-80652187D01*
X132989184Y-80667028D01*
X132989500Y-80675874D01*
X132989500Y-80731123D01*
X132998360Y-80798429D01*
X132999105Y-80805764D01*
X133004803Y-80885425D01*
X133004805Y-80885438D01*
X133016398Y-80938728D01*
X133018171Y-80948897D01*
X133023731Y-80991121D01*
X133044570Y-81068895D01*
X133045961Y-81074629D01*
X133065629Y-81165042D01*
X133080268Y-81204292D01*
X133083859Y-81215525D01*
X133091601Y-81244417D01*
X133127254Y-81330491D01*
X133128871Y-81334601D01*
X133149117Y-81388881D01*
X133165633Y-81433160D01*
X133165637Y-81433170D01*
X133179633Y-81458803D01*
X133185358Y-81470769D01*
X133191952Y-81486688D01*
X133191960Y-81486704D01*
X133244869Y-81578345D01*
X133246314Y-81580918D01*
X133302773Y-81684315D01*
X133312671Y-81697536D01*
X133320789Y-81709843D01*
X133323076Y-81713803D01*
X133395284Y-81807906D01*
X133395978Y-81808821D01*
X133474254Y-81913385D01*
X133474262Y-81913396D01*
X133474270Y-81913405D01*
X133676591Y-82115726D01*
X133676599Y-82115733D01*
X133676605Y-82115739D01*
X133676608Y-82115741D01*
X133676609Y-82115742D01*
X133781034Y-82193913D01*
X133782211Y-82194805D01*
X133876194Y-82266922D01*
X133880156Y-82269210D01*
X133892460Y-82277326D01*
X133905685Y-82287226D01*
X133977282Y-82326321D01*
X134009080Y-82343684D01*
X134011653Y-82345129D01*
X134103299Y-82398041D01*
X134103314Y-82398048D01*
X134119228Y-82404640D01*
X134131201Y-82410367D01*
X134156839Y-82424367D01*
X134255412Y-82461132D01*
X134259499Y-82462741D01*
X134345567Y-82498393D01*
X134345590Y-82498401D01*
X134364248Y-82503399D01*
X134374469Y-82506137D01*
X134385701Y-82509727D01*
X134424954Y-82524369D01*
X134424955Y-82524369D01*
X134424960Y-82524371D01*
X134503580Y-82541473D01*
X134515348Y-82544033D01*
X134515358Y-82544035D01*
X134521072Y-82545420D01*
X134598884Y-82566270D01*
X134641124Y-82571830D01*
X134651237Y-82573593D01*
X134704572Y-82585196D01*
X134784243Y-82590893D01*
X134791547Y-82591634D01*
X134858880Y-82600500D01*
X134914124Y-82600500D01*
X134922970Y-82600816D01*
X134989999Y-82605610D01*
X134990000Y-82605610D01*
X134990001Y-82605610D01*
X135057030Y-82600816D01*
X135065876Y-82600500D01*
X135121114Y-82600500D01*
X135121120Y-82600500D01*
X135188448Y-82591635D01*
X135195758Y-82590893D01*
X135275428Y-82585196D01*
X135328770Y-82573591D01*
X135338869Y-82571831D01*
X135381116Y-82566270D01*
X135458918Y-82545422D01*
X135464595Y-82544044D01*
X135555046Y-82524369D01*
X135594303Y-82509725D01*
X135605510Y-82506143D01*
X135634419Y-82498398D01*
X135665726Y-82485430D01*
X135720508Y-82462738D01*
X135724612Y-82461122D01*
X135823161Y-82424367D01*
X135848804Y-82410363D01*
X135860763Y-82404642D01*
X135876697Y-82398043D01*
X135968435Y-82345076D01*
X135970868Y-82343711D01*
X136074315Y-82287226D01*
X136087546Y-82277319D01*
X136099850Y-82269205D01*
X136103803Y-82266924D01*
X136197810Y-82194787D01*
X136198892Y-82193967D01*
X136303395Y-82115739D01*
X136419140Y-81999994D01*
X146644357Y-81999994D01*
X146644357Y-82000005D01*
X146664890Y-82247812D01*
X146664892Y-82247824D01*
X146725936Y-82488881D01*
X146825826Y-82716606D01*
X146961833Y-82924782D01*
X146961836Y-82924785D01*
X147130256Y-83107738D01*
X147326491Y-83260474D01*
X147545190Y-83378828D01*
X147780386Y-83459571D01*
X148025665Y-83500500D01*
X148274335Y-83500500D01*
X148519614Y-83459571D01*
X148754810Y-83378828D01*
X148973509Y-83260474D01*
X149169744Y-83107738D01*
X149338164Y-82924785D01*
X149474173Y-82716607D01*
X149574063Y-82488881D01*
X149635108Y-82247821D01*
X149646052Y-82115746D01*
X149655643Y-82000005D01*
X149655643Y-81999994D01*
X149635109Y-81752187D01*
X149635107Y-81752175D01*
X149574063Y-81511118D01*
X149474173Y-81283393D01*
X149338166Y-81075217D01*
X149316557Y-81051744D01*
X149169744Y-80892262D01*
X148973509Y-80739526D01*
X148973507Y-80739525D01*
X148973506Y-80739524D01*
X148754811Y-80621172D01*
X148754802Y-80621169D01*
X148693139Y-80600000D01*
X163384390Y-80600000D01*
X163388122Y-80652187D01*
X163389184Y-80667028D01*
X163389500Y-80675874D01*
X163389500Y-80731123D01*
X163398360Y-80798429D01*
X163399105Y-80805764D01*
X163404803Y-80885425D01*
X163404805Y-80885438D01*
X163416398Y-80938728D01*
X163418171Y-80948897D01*
X163423731Y-80991121D01*
X163444570Y-81068895D01*
X163445961Y-81074629D01*
X163465629Y-81165042D01*
X163480268Y-81204292D01*
X163483859Y-81215525D01*
X163491601Y-81244417D01*
X163527254Y-81330491D01*
X163528871Y-81334601D01*
X163549117Y-81388881D01*
X163565633Y-81433160D01*
X163565637Y-81433170D01*
X163579633Y-81458803D01*
X163585358Y-81470769D01*
X163591952Y-81486688D01*
X163591960Y-81486704D01*
X163644869Y-81578345D01*
X163646314Y-81580918D01*
X163702773Y-81684315D01*
X163712671Y-81697536D01*
X163720789Y-81709843D01*
X163723076Y-81713803D01*
X163795284Y-81807906D01*
X163795978Y-81808821D01*
X163874254Y-81913385D01*
X163874262Y-81913396D01*
X163874270Y-81913405D01*
X164076591Y-82115726D01*
X164076599Y-82115733D01*
X164076605Y-82115739D01*
X164076608Y-82115741D01*
X164076609Y-82115742D01*
X164181034Y-82193913D01*
X164182211Y-82194805D01*
X164276194Y-82266922D01*
X164280156Y-82269210D01*
X164292460Y-82277326D01*
X164305685Y-82287226D01*
X164377282Y-82326321D01*
X164409080Y-82343684D01*
X164411653Y-82345129D01*
X164503299Y-82398041D01*
X164503314Y-82398048D01*
X164519228Y-82404640D01*
X164531201Y-82410367D01*
X164556839Y-82424367D01*
X164655412Y-82461132D01*
X164659499Y-82462741D01*
X164745567Y-82498393D01*
X164745590Y-82498401D01*
X164764248Y-82503399D01*
X164774469Y-82506137D01*
X164785701Y-82509727D01*
X164824954Y-82524369D01*
X164824955Y-82524369D01*
X164824960Y-82524371D01*
X164903580Y-82541473D01*
X164915348Y-82544033D01*
X164915358Y-82544035D01*
X164921072Y-82545420D01*
X164998884Y-82566270D01*
X165041124Y-82571830D01*
X165051237Y-82573593D01*
X165104572Y-82585196D01*
X165184243Y-82590893D01*
X165191547Y-82591634D01*
X165258880Y-82600500D01*
X165314124Y-82600500D01*
X165322970Y-82600816D01*
X165389999Y-82605610D01*
X165390000Y-82605610D01*
X165390001Y-82605610D01*
X165457030Y-82600816D01*
X165465876Y-82600500D01*
X165521114Y-82600500D01*
X165521120Y-82600500D01*
X165524948Y-82599996D01*
X190594435Y-82599996D01*
X190594435Y-82600003D01*
X190614630Y-82779249D01*
X190614631Y-82779254D01*
X190674211Y-82949523D01*
X190698165Y-82987645D01*
X190770184Y-83102262D01*
X190897738Y-83229816D01*
X191050478Y-83325789D01*
X191220745Y-83385368D01*
X191220750Y-83385369D01*
X191399996Y-83405565D01*
X191400000Y-83405565D01*
X191400004Y-83405565D01*
X191579249Y-83385369D01*
X191579252Y-83385368D01*
X191579255Y-83385368D01*
X191749522Y-83325789D01*
X191902262Y-83229816D01*
X192029816Y-83102262D01*
X192125789Y-82949522D01*
X192185368Y-82779255D01*
X192187680Y-82758736D01*
X192205565Y-82600003D01*
X192205565Y-82599996D01*
X192185369Y-82420750D01*
X192185368Y-82420745D01*
X192177424Y-82398043D01*
X192125789Y-82250478D01*
X192124121Y-82247824D01*
X192041131Y-82115746D01*
X192029816Y-82097738D01*
X191902262Y-81970184D01*
X191811885Y-81913396D01*
X191749523Y-81874211D01*
X191579254Y-81814631D01*
X191579249Y-81814630D01*
X191400004Y-81794435D01*
X191399996Y-81794435D01*
X191220750Y-81814630D01*
X191220745Y-81814631D01*
X191050476Y-81874211D01*
X190897737Y-81970184D01*
X190770184Y-82097737D01*
X190674211Y-82250476D01*
X190614631Y-82420745D01*
X190614630Y-82420750D01*
X190594435Y-82599996D01*
X165524948Y-82599996D01*
X165588448Y-82591635D01*
X165595758Y-82590893D01*
X165675428Y-82585196D01*
X165728770Y-82573591D01*
X165738869Y-82571831D01*
X165781116Y-82566270D01*
X165858918Y-82545422D01*
X165864595Y-82544044D01*
X165955046Y-82524369D01*
X165994303Y-82509725D01*
X166005510Y-82506143D01*
X166034419Y-82498398D01*
X166065726Y-82485430D01*
X166120508Y-82462738D01*
X166124612Y-82461122D01*
X166223161Y-82424367D01*
X166248804Y-82410363D01*
X166260763Y-82404642D01*
X166276697Y-82398043D01*
X166368435Y-82345076D01*
X166370868Y-82343711D01*
X166474315Y-82287226D01*
X166487546Y-82277319D01*
X166499850Y-82269205D01*
X166503803Y-82266924D01*
X166597810Y-82194787D01*
X166598892Y-82193967D01*
X166703395Y-82115739D01*
X166905739Y-81913395D01*
X166983967Y-81808892D01*
X166984816Y-81807773D01*
X167027479Y-81752175D01*
X167056924Y-81713803D01*
X167059205Y-81709850D01*
X167067319Y-81697546D01*
X167077226Y-81684315D01*
X167133711Y-81580868D01*
X167135076Y-81578435D01*
X167188043Y-81486697D01*
X167194642Y-81470763D01*
X167200365Y-81458803D01*
X167214367Y-81433161D01*
X167237988Y-81369826D01*
X167279858Y-81313894D01*
X167345322Y-81289476D01*
X167413595Y-81304327D01*
X167463001Y-81353731D01*
X167474374Y-81382712D01*
X167475936Y-81388879D01*
X167575826Y-81616606D01*
X167711833Y-81824782D01*
X167743197Y-81858852D01*
X167880256Y-82007738D01*
X168076491Y-82160474D01*
X168146129Y-82198160D01*
X168292414Y-82277326D01*
X168295190Y-82278828D01*
X168530386Y-82359571D01*
X168775665Y-82400500D01*
X169024335Y-82400500D01*
X169269614Y-82359571D01*
X169504810Y-82278828D01*
X169723509Y-82160474D01*
X169919744Y-82007738D01*
X170088164Y-81824785D01*
X170224173Y-81616607D01*
X170324063Y-81388881D01*
X170385108Y-81147821D01*
X170391124Y-81075217D01*
X170405643Y-80900005D01*
X170405643Y-80899994D01*
X170385109Y-80652187D01*
X170385107Y-80652175D01*
X170333908Y-80449994D01*
X175594357Y-80449994D01*
X175594357Y-80450005D01*
X175614890Y-80697812D01*
X175614892Y-80697824D01*
X175675936Y-80938881D01*
X175775826Y-81166606D01*
X175911833Y-81374782D01*
X175911836Y-81374785D01*
X176080256Y-81557738D01*
X176276491Y-81710474D01*
X176495190Y-81828828D01*
X176730386Y-81909571D01*
X176975665Y-81950500D01*
X177224335Y-81950500D01*
X177469614Y-81909571D01*
X177704810Y-81828828D01*
X177923509Y-81710474D01*
X178119744Y-81557738D01*
X178288164Y-81374785D01*
X178424173Y-81166607D01*
X178524063Y-80938881D01*
X178584527Y-80700114D01*
X195194754Y-80700114D01*
X195194754Y-80700125D01*
X195213718Y-81001566D01*
X195213719Y-81001573D01*
X195241616Y-81147812D01*
X195260044Y-81244419D01*
X195270320Y-81298284D01*
X195363659Y-81585551D01*
X195363661Y-81585556D01*
X195492265Y-81858852D01*
X195492268Y-81858858D01*
X195654111Y-82113883D01*
X195654114Y-82113887D01*
X195654115Y-82113888D01*
X195797514Y-82287228D01*
X195846652Y-82346625D01*
X195901408Y-82398044D01*
X196016513Y-82506136D01*
X196066836Y-82553392D01*
X196066846Y-82553400D01*
X196311193Y-82730928D01*
X196311198Y-82730930D01*
X196311205Y-82730936D01*
X196575896Y-82876452D01*
X196575901Y-82876454D01*
X196575903Y-82876455D01*
X196575904Y-82876456D01*
X196856734Y-82987644D01*
X196856737Y-82987645D01*
X196954259Y-83012684D01*
X197149302Y-83062762D01*
X197296039Y-83081299D01*
X197448963Y-83100619D01*
X197448969Y-83100619D01*
X197448973Y-83100620D01*
X197448975Y-83100620D01*
X197751025Y-83100620D01*
X197751027Y-83100620D01*
X197751032Y-83100619D01*
X197751036Y-83100619D01*
X197830591Y-83090568D01*
X198050698Y-83062762D01*
X198343262Y-82987645D01*
X198343265Y-82987644D01*
X198624095Y-82876456D01*
X198624096Y-82876455D01*
X198624094Y-82876455D01*
X198624104Y-82876452D01*
X198888795Y-82730936D01*
X199133162Y-82553394D01*
X199353349Y-82346624D01*
X199545885Y-82113888D01*
X199707733Y-81858856D01*
X199836341Y-81585550D01*
X199929681Y-81298280D01*
X199986280Y-81001577D01*
X199986938Y-80991116D01*
X200005246Y-80700125D01*
X200005246Y-80700114D01*
X199986281Y-80398673D01*
X199986280Y-80398666D01*
X199986280Y-80398663D01*
X199929681Y-80101960D01*
X199836341Y-79814690D01*
X199707733Y-79541384D01*
X199613056Y-79392196D01*
X199545888Y-79286356D01*
X199545885Y-79286352D01*
X199353349Y-79053616D01*
X199351814Y-79052175D01*
X199143242Y-78856312D01*
X199133162Y-78846846D01*
X199133159Y-78846844D01*
X199133153Y-78846839D01*
X198888806Y-78669311D01*
X198888799Y-78669306D01*
X198888795Y-78669304D01*
X198624104Y-78523788D01*
X198624101Y-78523786D01*
X198624096Y-78523784D01*
X198624095Y-78523783D01*
X198343265Y-78412595D01*
X198343262Y-78412594D01*
X198050695Y-78337477D01*
X197751036Y-78299620D01*
X197751027Y-78299620D01*
X197448973Y-78299620D01*
X197448963Y-78299620D01*
X197149304Y-78337477D01*
X196856737Y-78412594D01*
X196856734Y-78412595D01*
X196575904Y-78523783D01*
X196575903Y-78523784D01*
X196311205Y-78669304D01*
X196311193Y-78669311D01*
X196066846Y-78846839D01*
X196066836Y-78846847D01*
X195846652Y-79053614D01*
X195654111Y-79286356D01*
X195492268Y-79541381D01*
X195492265Y-79541387D01*
X195363661Y-79814683D01*
X195363659Y-79814688D01*
X195270320Y-80101955D01*
X195213719Y-80398666D01*
X195213718Y-80398673D01*
X195194754Y-80700114D01*
X178584527Y-80700114D01*
X178585108Y-80697821D01*
X178586927Y-80675874D01*
X178605643Y-80450005D01*
X178605643Y-80449994D01*
X178585109Y-80202187D01*
X178585107Y-80202175D01*
X178524063Y-79961118D01*
X178424173Y-79733393D01*
X178288166Y-79525217D01*
X178252245Y-79486197D01*
X178119744Y-79342262D01*
X177923509Y-79189526D01*
X177923507Y-79189525D01*
X177923506Y-79189524D01*
X177704811Y-79071172D01*
X177704802Y-79071169D01*
X177469616Y-78990429D01*
X177224335Y-78949500D01*
X176975665Y-78949500D01*
X176730383Y-78990429D01*
X176495197Y-79071169D01*
X176495188Y-79071172D01*
X176276493Y-79189524D01*
X176080257Y-79342261D01*
X175911833Y-79525217D01*
X175775826Y-79733393D01*
X175675936Y-79961118D01*
X175614892Y-80202175D01*
X175614890Y-80202187D01*
X175594357Y-80449994D01*
X170333908Y-80449994D01*
X170324063Y-80411118D01*
X170224173Y-80183393D01*
X170088166Y-79975217D01*
X169990861Y-79869516D01*
X169919744Y-79792262D01*
X169723509Y-79639526D01*
X169723507Y-79639525D01*
X169723506Y-79639524D01*
X169504811Y-79521172D01*
X169504802Y-79521169D01*
X169269616Y-79440429D01*
X169024335Y-79399500D01*
X168775665Y-79399500D01*
X168530383Y-79440429D01*
X168295197Y-79521169D01*
X168295188Y-79521172D01*
X168076493Y-79639524D01*
X167880257Y-79792261D01*
X167711833Y-79975217D01*
X167575823Y-80183397D01*
X167573385Y-80187904D01*
X167571608Y-80186942D01*
X167532186Y-80233801D01*
X167465440Y-80254460D01*
X167398121Y-80235754D01*
X167351602Y-80183622D01*
X167343859Y-80162567D01*
X167335428Y-80131102D01*
X167335420Y-80131072D01*
X167334035Y-80125358D01*
X167314371Y-80034960D01*
X167314369Y-80034954D01*
X167299727Y-79995701D01*
X167296136Y-79984463D01*
X167293658Y-79975215D01*
X167289882Y-79961118D01*
X167288401Y-79955590D01*
X167288393Y-79955567D01*
X167252741Y-79869499D01*
X167251132Y-79865412D01*
X167214367Y-79766839D01*
X167200362Y-79741190D01*
X167194640Y-79729228D01*
X167188048Y-79713314D01*
X167188041Y-79713299D01*
X167135129Y-79621653D01*
X167133684Y-79619080D01*
X167094775Y-79547824D01*
X167077226Y-79515685D01*
X167067326Y-79502460D01*
X167059210Y-79490156D01*
X167057730Y-79487594D01*
X167056924Y-79486197D01*
X167056922Y-79486195D01*
X167056922Y-79486194D01*
X166984805Y-79392211D01*
X166983913Y-79391034D01*
X166905742Y-79286609D01*
X166905741Y-79286608D01*
X166905739Y-79286605D01*
X166905734Y-79286600D01*
X166905726Y-79286591D01*
X166703405Y-79084270D01*
X166703396Y-79084262D01*
X166703383Y-79084252D01*
X166598821Y-79005978D01*
X166597906Y-79005284D01*
X166503803Y-78933076D01*
X166499843Y-78930789D01*
X166487536Y-78922671D01*
X166474315Y-78912773D01*
X166370918Y-78856314D01*
X166368345Y-78854869D01*
X166276704Y-78801960D01*
X166276688Y-78801952D01*
X166260769Y-78795358D01*
X166248803Y-78789633D01*
X166223170Y-78775637D01*
X166223163Y-78775634D01*
X166223161Y-78775633D01*
X166124596Y-78738870D01*
X166120491Y-78737254D01*
X166034417Y-78701601D01*
X166005525Y-78693859D01*
X165994292Y-78690268D01*
X165955042Y-78675629D01*
X165864629Y-78655961D01*
X165858895Y-78654570D01*
X165781121Y-78633731D01*
X165781118Y-78633730D01*
X165781116Y-78633730D01*
X165759450Y-78630877D01*
X165738897Y-78628171D01*
X165728728Y-78626398D01*
X165675438Y-78614805D01*
X165675425Y-78614803D01*
X165595764Y-78609105D01*
X165588429Y-78608360D01*
X165521123Y-78599500D01*
X165521120Y-78599500D01*
X165465876Y-78599500D01*
X165457030Y-78599184D01*
X165390001Y-78594390D01*
X165389999Y-78594390D01*
X165322970Y-78599184D01*
X165314124Y-78599500D01*
X165258877Y-78599500D01*
X165191569Y-78608360D01*
X165184234Y-78609105D01*
X165104574Y-78614803D01*
X165104557Y-78614806D01*
X165051269Y-78626398D01*
X165041101Y-78628171D01*
X164998876Y-78633731D01*
X164921102Y-78654570D01*
X164915369Y-78655961D01*
X164824953Y-78675630D01*
X164824946Y-78675632D01*
X164785712Y-78690266D01*
X164774479Y-78693857D01*
X164745582Y-78701601D01*
X164745576Y-78701603D01*
X164659516Y-78737250D01*
X164655399Y-78738870D01*
X164556841Y-78775631D01*
X164556837Y-78775633D01*
X164531190Y-78789636D01*
X164519233Y-78795357D01*
X164503302Y-78801957D01*
X164411656Y-78854868D01*
X164409085Y-78856312D01*
X164305681Y-78912776D01*
X164292454Y-78922677D01*
X164280156Y-78930789D01*
X164276210Y-78933067D01*
X164276195Y-78933077D01*
X164182196Y-79005204D01*
X164181022Y-79006093D01*
X164076615Y-79084252D01*
X164076594Y-79084270D01*
X163874270Y-79286594D01*
X163874252Y-79286615D01*
X163796093Y-79391022D01*
X163795204Y-79392196D01*
X163723077Y-79486195D01*
X163723067Y-79486210D01*
X163720789Y-79490156D01*
X163712677Y-79502454D01*
X163702776Y-79515681D01*
X163646312Y-79619085D01*
X163644868Y-79621656D01*
X163591957Y-79713302D01*
X163585357Y-79729233D01*
X163579636Y-79741190D01*
X163565633Y-79766837D01*
X163565631Y-79766841D01*
X163528870Y-79865399D01*
X163527250Y-79869516D01*
X163491603Y-79955576D01*
X163491601Y-79955582D01*
X163483857Y-79984479D01*
X163480266Y-79995712D01*
X163465632Y-80034946D01*
X163465630Y-80034953D01*
X163445961Y-80125369D01*
X163444570Y-80131102D01*
X163423731Y-80208876D01*
X163418171Y-80251101D01*
X163416398Y-80261269D01*
X163404806Y-80314557D01*
X163404803Y-80314574D01*
X163399105Y-80394234D01*
X163398360Y-80401569D01*
X163389500Y-80468876D01*
X163389500Y-80524124D01*
X163389183Y-80532970D01*
X163384390Y-80600000D01*
X148693139Y-80600000D01*
X148519616Y-80540429D01*
X148274335Y-80499500D01*
X148025665Y-80499500D01*
X147780383Y-80540429D01*
X147545197Y-80621169D01*
X147545188Y-80621172D01*
X147326493Y-80739524D01*
X147130257Y-80892261D01*
X146961833Y-81075217D01*
X146825826Y-81283393D01*
X146725936Y-81511118D01*
X146664892Y-81752175D01*
X146664890Y-81752187D01*
X146644357Y-81999994D01*
X136419140Y-81999994D01*
X136505739Y-81913395D01*
X136583967Y-81808892D01*
X136584816Y-81807773D01*
X136627479Y-81752175D01*
X136656924Y-81713803D01*
X136659205Y-81709850D01*
X136667319Y-81697546D01*
X136677226Y-81684315D01*
X136733711Y-81580868D01*
X136735076Y-81578435D01*
X136788043Y-81486697D01*
X136794642Y-81470763D01*
X136800365Y-81458803D01*
X136814367Y-81433161D01*
X136851124Y-81334609D01*
X136852738Y-81330508D01*
X136888395Y-81244426D01*
X136888394Y-81244426D01*
X136888398Y-81244419D01*
X136896143Y-81215510D01*
X136899725Y-81204303D01*
X136914369Y-81165046D01*
X136934044Y-81074595D01*
X136935425Y-81068909D01*
X136935429Y-81068895D01*
X136956270Y-80991116D01*
X136961831Y-80948869D01*
X136963591Y-80938770D01*
X136975196Y-80885428D01*
X136980893Y-80805758D01*
X136981637Y-80798432D01*
X136981638Y-80798429D01*
X136990500Y-80731120D01*
X136990500Y-80675874D01*
X136990816Y-80667028D01*
X136991878Y-80652187D01*
X136995610Y-80600000D01*
X136990816Y-80532970D01*
X136990500Y-80524124D01*
X136990500Y-80468880D01*
X136986864Y-80441264D01*
X136981634Y-80401547D01*
X136980893Y-80394234D01*
X136975196Y-80314572D01*
X136963593Y-80261237D01*
X136961830Y-80251124D01*
X136956270Y-80208884D01*
X136935420Y-80131072D01*
X136934035Y-80125358D01*
X136914371Y-80034960D01*
X136914369Y-80034954D01*
X136899727Y-79995701D01*
X136896136Y-79984463D01*
X136893658Y-79975215D01*
X136889882Y-79961118D01*
X136888401Y-79955590D01*
X136888393Y-79955567D01*
X136852741Y-79869499D01*
X136851132Y-79865412D01*
X136814367Y-79766839D01*
X136800362Y-79741190D01*
X136794640Y-79729228D01*
X136788048Y-79713314D01*
X136788041Y-79713299D01*
X136735129Y-79621653D01*
X136733684Y-79619080D01*
X136694775Y-79547824D01*
X136677226Y-79515685D01*
X136667326Y-79502460D01*
X136659210Y-79490156D01*
X136657730Y-79487594D01*
X136656924Y-79486197D01*
X136656922Y-79486195D01*
X136656922Y-79486194D01*
X136584805Y-79392211D01*
X136583913Y-79391034D01*
X136515762Y-79299994D01*
X140094357Y-79299994D01*
X140094357Y-79300005D01*
X140114890Y-79547812D01*
X140114892Y-79547824D01*
X140175936Y-79788881D01*
X140275826Y-80016606D01*
X140411833Y-80224782D01*
X140411836Y-80224785D01*
X140580256Y-80407738D01*
X140776491Y-80560474D01*
X140885840Y-80619651D01*
X140973385Y-80667028D01*
X140995190Y-80678828D01*
X141230386Y-80759571D01*
X141475665Y-80800500D01*
X141724335Y-80800500D01*
X141969614Y-80759571D01*
X142204810Y-80678828D01*
X142423509Y-80560474D01*
X142619744Y-80407738D01*
X142788164Y-80224785D01*
X142924173Y-80016607D01*
X143024063Y-79788881D01*
X143085108Y-79547821D01*
X143085641Y-79541387D01*
X143105643Y-79300005D01*
X143105643Y-79299994D01*
X143085109Y-79052187D01*
X143085107Y-79052175D01*
X143024063Y-78811118D01*
X142924173Y-78583393D01*
X142788166Y-78375217D01*
X142718574Y-78299620D01*
X142619744Y-78192262D01*
X142423509Y-78039526D01*
X142423507Y-78039525D01*
X142423506Y-78039524D01*
X142204811Y-77921172D01*
X142204802Y-77921169D01*
X141969616Y-77840429D01*
X141724335Y-77799500D01*
X141475665Y-77799500D01*
X141230383Y-77840429D01*
X140995197Y-77921169D01*
X140995188Y-77921172D01*
X140776493Y-78039524D01*
X140580257Y-78192261D01*
X140411833Y-78375217D01*
X140275826Y-78583393D01*
X140175936Y-78811118D01*
X140114892Y-79052175D01*
X140114890Y-79052187D01*
X140094357Y-79299994D01*
X136515762Y-79299994D01*
X136505742Y-79286609D01*
X136505741Y-79286608D01*
X136505739Y-79286605D01*
X136505734Y-79286600D01*
X136505726Y-79286591D01*
X136303405Y-79084270D01*
X136303396Y-79084262D01*
X136303383Y-79084252D01*
X136198821Y-79005978D01*
X136197906Y-79005284D01*
X136103803Y-78933076D01*
X136099843Y-78930789D01*
X136087536Y-78922671D01*
X136074315Y-78912773D01*
X135970918Y-78856314D01*
X135968345Y-78854869D01*
X135876704Y-78801960D01*
X135876688Y-78801952D01*
X135860769Y-78795358D01*
X135848803Y-78789633D01*
X135823170Y-78775637D01*
X135823163Y-78775634D01*
X135823161Y-78775633D01*
X135724596Y-78738870D01*
X135720491Y-78737254D01*
X135634417Y-78701601D01*
X135605525Y-78693859D01*
X135594292Y-78690268D01*
X135555042Y-78675629D01*
X135464629Y-78655961D01*
X135458895Y-78654570D01*
X135381121Y-78633731D01*
X135381118Y-78633730D01*
X135381116Y-78633730D01*
X135359450Y-78630877D01*
X135338897Y-78628171D01*
X135328728Y-78626398D01*
X135275438Y-78614805D01*
X135275425Y-78614803D01*
X135195764Y-78609105D01*
X135188429Y-78608360D01*
X135121123Y-78599500D01*
X135121120Y-78599500D01*
X135065876Y-78599500D01*
X135057030Y-78599184D01*
X134990001Y-78594390D01*
X134989999Y-78594390D01*
X134922970Y-78599184D01*
X134914124Y-78599500D01*
X134858877Y-78599500D01*
X134791569Y-78608360D01*
X134784234Y-78609105D01*
X134704574Y-78614803D01*
X134704557Y-78614806D01*
X134651269Y-78626398D01*
X134641101Y-78628171D01*
X134598876Y-78633731D01*
X134521102Y-78654570D01*
X134515369Y-78655961D01*
X134424953Y-78675630D01*
X134424946Y-78675632D01*
X134385712Y-78690266D01*
X134374479Y-78693857D01*
X134345582Y-78701601D01*
X134345576Y-78701603D01*
X134259516Y-78737250D01*
X134255399Y-78738870D01*
X134156841Y-78775631D01*
X134156837Y-78775633D01*
X134131190Y-78789636D01*
X134119233Y-78795357D01*
X134103302Y-78801957D01*
X134011656Y-78854868D01*
X134009085Y-78856312D01*
X133905681Y-78912776D01*
X133892454Y-78922677D01*
X133880156Y-78930789D01*
X133876210Y-78933067D01*
X133876195Y-78933077D01*
X133782196Y-79005204D01*
X133781022Y-79006093D01*
X133676615Y-79084252D01*
X133676594Y-79084270D01*
X133474270Y-79286594D01*
X133474252Y-79286615D01*
X133396093Y-79391022D01*
X133395204Y-79392196D01*
X133323077Y-79486195D01*
X133323067Y-79486210D01*
X133320789Y-79490156D01*
X133312677Y-79502454D01*
X133302776Y-79515681D01*
X133246312Y-79619085D01*
X133244868Y-79621656D01*
X133191957Y-79713302D01*
X133185357Y-79729233D01*
X133179636Y-79741190D01*
X133165633Y-79766837D01*
X133165631Y-79766841D01*
X133128870Y-79865399D01*
X133127250Y-79869516D01*
X133091603Y-79955576D01*
X133091601Y-79955582D01*
X133083857Y-79984479D01*
X133080266Y-79995712D01*
X133065632Y-80034946D01*
X133065630Y-80034953D01*
X133045961Y-80125369D01*
X133044570Y-80131102D01*
X133023731Y-80208876D01*
X133018171Y-80251101D01*
X133016398Y-80261269D01*
X133004806Y-80314557D01*
X133004803Y-80314574D01*
X132999105Y-80394234D01*
X132998360Y-80401569D01*
X132989500Y-80468876D01*
X132989500Y-80524124D01*
X132989183Y-80532970D01*
X132984390Y-80600000D01*
X132182428Y-80600000D01*
X132154396Y-80540429D01*
X132107733Y-80441264D01*
X132027331Y-80314571D01*
X131945888Y-80186236D01*
X131943726Y-80183622D01*
X131753349Y-79953496D01*
X131533162Y-79746726D01*
X131533159Y-79746724D01*
X131533153Y-79746719D01*
X131288806Y-79569191D01*
X131288799Y-79569186D01*
X131288795Y-79569184D01*
X131024104Y-79423668D01*
X131024101Y-79423666D01*
X131024096Y-79423664D01*
X131024095Y-79423663D01*
X130743265Y-79312475D01*
X130743262Y-79312474D01*
X130450695Y-79237357D01*
X130151036Y-79199500D01*
X130151027Y-79199500D01*
X129848973Y-79199500D01*
X129848963Y-79199500D01*
X129549304Y-79237357D01*
X129256737Y-79312474D01*
X129256734Y-79312475D01*
X128975904Y-79423663D01*
X128975903Y-79423664D01*
X128711205Y-79569184D01*
X128711193Y-79569191D01*
X128466846Y-79746719D01*
X128466836Y-79746727D01*
X128246652Y-79953494D01*
X128054111Y-80186236D01*
X127892268Y-80441261D01*
X127892265Y-80441267D01*
X127763661Y-80714563D01*
X127763659Y-80714568D01*
X127670320Y-81001835D01*
X127613719Y-81298546D01*
X127613718Y-81298553D01*
X127594754Y-81599994D01*
X114500500Y-81599994D01*
X114500500Y-75600000D01*
X165394659Y-75600000D01*
X165413975Y-75796129D01*
X165471188Y-75984733D01*
X165564086Y-76158532D01*
X165564090Y-76158539D01*
X165689116Y-76310883D01*
X165841460Y-76435909D01*
X165841467Y-76435913D01*
X166015266Y-76528811D01*
X166015269Y-76528811D01*
X166015273Y-76528814D01*
X166203868Y-76586024D01*
X166400000Y-76605341D01*
X166596132Y-76586024D01*
X166784727Y-76528814D01*
X166958538Y-76435910D01*
X167110883Y-76310883D01*
X167235910Y-76158538D01*
X167328814Y-75984727D01*
X167386024Y-75796132D01*
X167405341Y-75600000D01*
X167386024Y-75403868D01*
X167384851Y-75400000D01*
X174194659Y-75400000D01*
X174213975Y-75596129D01*
X174271188Y-75784733D01*
X174364086Y-75958532D01*
X174364090Y-75958539D01*
X174489116Y-76110883D01*
X174641460Y-76235909D01*
X174641467Y-76235913D01*
X174815266Y-76328811D01*
X174815269Y-76328811D01*
X174815273Y-76328814D01*
X175003868Y-76386024D01*
X175200000Y-76405341D01*
X175396132Y-76386024D01*
X175584727Y-76328814D01*
X175758538Y-76235910D01*
X175910883Y-76110883D01*
X176035910Y-75958538D01*
X176122718Y-75796132D01*
X176128811Y-75784733D01*
X176128811Y-75784732D01*
X176128814Y-75784727D01*
X176186024Y-75596132D01*
X176205341Y-75400000D01*
X176186024Y-75203868D01*
X176128814Y-75015273D01*
X176128811Y-75015269D01*
X176128811Y-75015266D01*
X176035913Y-74841467D01*
X176035909Y-74841460D01*
X175910883Y-74689116D01*
X175758539Y-74564090D01*
X175758532Y-74564086D01*
X175584733Y-74471188D01*
X175584727Y-74471186D01*
X175396132Y-74413976D01*
X175396129Y-74413975D01*
X175200000Y-74394659D01*
X175003870Y-74413975D01*
X174815266Y-74471188D01*
X174641467Y-74564086D01*
X174641460Y-74564090D01*
X174489116Y-74689116D01*
X174364090Y-74841460D01*
X174364086Y-74841467D01*
X174271188Y-75015266D01*
X174213975Y-75203870D01*
X174194659Y-75400000D01*
X167384851Y-75400000D01*
X167328814Y-75215273D01*
X167328811Y-75215269D01*
X167328811Y-75215266D01*
X167235913Y-75041467D01*
X167235909Y-75041460D01*
X167110883Y-74889116D01*
X166958539Y-74764090D01*
X166958532Y-74764086D01*
X166784733Y-74671188D01*
X166784727Y-74671186D01*
X166596132Y-74613976D01*
X166596129Y-74613975D01*
X166400000Y-74594659D01*
X166203870Y-74613975D01*
X166015266Y-74671188D01*
X165841467Y-74764086D01*
X165841460Y-74764090D01*
X165689116Y-74889116D01*
X165564090Y-75041460D01*
X165564086Y-75041467D01*
X165471188Y-75215266D01*
X165413975Y-75403870D01*
X165394659Y-75600000D01*
X114500500Y-75600000D01*
X114500500Y-74199996D01*
X197194435Y-74199996D01*
X197194435Y-74200003D01*
X197214630Y-74379249D01*
X197214631Y-74379254D01*
X197274211Y-74549523D01*
X197314710Y-74613976D01*
X197370184Y-74702262D01*
X197497738Y-74829816D01*
X197650478Y-74925789D01*
X197820745Y-74985368D01*
X197820750Y-74985369D01*
X197999996Y-75005565D01*
X198000000Y-75005565D01*
X198000004Y-75005565D01*
X198179249Y-74985369D01*
X198179252Y-74985368D01*
X198179255Y-74985368D01*
X198349522Y-74925789D01*
X198502262Y-74829816D01*
X198629816Y-74702262D01*
X198725789Y-74549522D01*
X198785368Y-74379255D01*
X198805565Y-74200000D01*
X198785369Y-74020750D01*
X198784589Y-74013825D01*
X198787726Y-74013471D01*
X198791093Y-73957654D01*
X198820073Y-73912005D01*
X198821366Y-73910711D01*
X198829816Y-73902262D01*
X198925789Y-73749522D01*
X198985368Y-73579255D01*
X199005565Y-73400000D01*
X198985368Y-73220745D01*
X198925789Y-73050478D01*
X198829816Y-72897738D01*
X198702262Y-72770184D01*
X198549523Y-72674211D01*
X198379254Y-72614631D01*
X198379249Y-72614630D01*
X198200004Y-72594435D01*
X198199996Y-72594435D01*
X198020750Y-72614630D01*
X198020745Y-72614631D01*
X197850476Y-72674211D01*
X197697737Y-72770184D01*
X197570184Y-72897737D01*
X197474211Y-73050476D01*
X197414631Y-73220745D01*
X197414630Y-73220750D01*
X197394435Y-73399996D01*
X197394435Y-73400003D01*
X197415411Y-73586175D01*
X197412334Y-73586521D01*
X197408783Y-73642684D01*
X197379932Y-73687988D01*
X197370187Y-73697732D01*
X197370186Y-73697734D01*
X197274211Y-73850476D01*
X197214631Y-74020745D01*
X197214630Y-74020750D01*
X197194435Y-74199996D01*
X114500500Y-74199996D01*
X114500500Y-68000000D01*
X125144551Y-68000000D01*
X125164317Y-68251151D01*
X125223126Y-68496110D01*
X125319533Y-68728859D01*
X125451160Y-68943653D01*
X125451161Y-68943656D01*
X125473818Y-68970184D01*
X125614776Y-69135224D01*
X125739165Y-69241462D01*
X125806343Y-69298838D01*
X125806346Y-69298839D01*
X126021140Y-69430466D01*
X126253889Y-69526873D01*
X126498852Y-69585683D01*
X126750000Y-69605449D01*
X126819286Y-69599996D01*
X132794435Y-69599996D01*
X132794435Y-69600003D01*
X132814630Y-69779249D01*
X132814631Y-69779254D01*
X132874211Y-69949523D01*
X132970184Y-70102262D01*
X132980241Y-70112319D01*
X133013726Y-70173642D01*
X133008742Y-70243334D01*
X132980241Y-70287681D01*
X132970184Y-70297737D01*
X132874211Y-70450476D01*
X132814631Y-70620745D01*
X132814630Y-70620750D01*
X132794435Y-70799996D01*
X132794435Y-70800003D01*
X132814630Y-70979249D01*
X132814631Y-70979254D01*
X132874211Y-71149523D01*
X132970184Y-71302262D01*
X133097738Y-71429816D01*
X133188080Y-71486582D01*
X133233684Y-71515237D01*
X133250478Y-71525789D01*
X133420745Y-71585368D01*
X133420750Y-71585369D01*
X133599996Y-71605565D01*
X133600000Y-71605565D01*
X133600004Y-71605565D01*
X133779249Y-71585369D01*
X133779252Y-71585368D01*
X133779255Y-71585368D01*
X133949522Y-71525789D01*
X134102262Y-71429816D01*
X134229816Y-71302262D01*
X134325789Y-71149522D01*
X134385368Y-70979255D01*
X134385369Y-70979249D01*
X134387910Y-70956699D01*
X149708074Y-70956699D01*
X149727390Y-71152828D01*
X149784603Y-71341432D01*
X149877501Y-71515231D01*
X149877505Y-71515238D01*
X150002531Y-71667582D01*
X150154875Y-71792608D01*
X150154882Y-71792612D01*
X150328681Y-71885510D01*
X150328684Y-71885510D01*
X150328688Y-71885513D01*
X150517283Y-71942723D01*
X150713415Y-71962040D01*
X150909547Y-71942723D01*
X151098142Y-71885513D01*
X151271953Y-71792609D01*
X151424298Y-71667582D01*
X151549325Y-71515237D01*
X151633082Y-71358539D01*
X151642226Y-71341432D01*
X151642226Y-71341431D01*
X151642229Y-71341426D01*
X151699439Y-71152831D01*
X151718756Y-70956699D01*
X151703323Y-70800000D01*
X158394659Y-70800000D01*
X158413975Y-70996129D01*
X158413976Y-70996132D01*
X158461510Y-71152831D01*
X158471188Y-71184733D01*
X158564086Y-71358532D01*
X158564090Y-71358539D01*
X158689116Y-71510883D01*
X158841460Y-71635909D01*
X158841467Y-71635913D01*
X159015266Y-71728811D01*
X159015269Y-71728811D01*
X159015273Y-71728814D01*
X159203868Y-71786024D01*
X159400000Y-71805341D01*
X159596132Y-71786024D01*
X159784727Y-71728814D01*
X159958538Y-71635910D01*
X160110883Y-71510883D01*
X160235910Y-71358538D01*
X160328814Y-71184727D01*
X160386024Y-70996132D01*
X160405341Y-70800000D01*
X160386024Y-70603868D01*
X160328814Y-70415273D01*
X160328811Y-70415269D01*
X160328811Y-70415266D01*
X160235913Y-70241467D01*
X160235909Y-70241460D01*
X160110883Y-70089116D01*
X159958539Y-69964090D01*
X159958532Y-69964086D01*
X159784733Y-69871188D01*
X159784727Y-69871186D01*
X159596132Y-69813976D01*
X159596129Y-69813975D01*
X159400000Y-69794659D01*
X159203870Y-69813975D01*
X159015266Y-69871188D01*
X158841467Y-69964086D01*
X158841460Y-69964090D01*
X158689116Y-70089116D01*
X158564090Y-70241460D01*
X158564086Y-70241467D01*
X158471188Y-70415266D01*
X158413975Y-70603870D01*
X158394659Y-70800000D01*
X151703323Y-70800000D01*
X151699439Y-70760567D01*
X151642229Y-70571972D01*
X151642226Y-70571968D01*
X151642226Y-70571965D01*
X151549328Y-70398166D01*
X151549324Y-70398159D01*
X151424298Y-70245815D01*
X151271954Y-70120789D01*
X151271947Y-70120785D01*
X151098148Y-70027887D01*
X151098142Y-70027885D01*
X150909547Y-69970675D01*
X150909544Y-69970674D01*
X150713415Y-69951358D01*
X150517285Y-69970674D01*
X150328681Y-70027887D01*
X150154882Y-70120785D01*
X150154875Y-70120789D01*
X150002531Y-70245815D01*
X149877505Y-70398159D01*
X149877501Y-70398166D01*
X149784603Y-70571965D01*
X149727390Y-70760569D01*
X149708074Y-70956699D01*
X134387910Y-70956699D01*
X134405565Y-70800003D01*
X134405565Y-70799996D01*
X134385369Y-70620750D01*
X134385368Y-70620745D01*
X134353199Y-70528811D01*
X134325789Y-70450478D01*
X134316635Y-70435910D01*
X134268015Y-70358532D01*
X134229816Y-70297738D01*
X134219759Y-70287681D01*
X134186274Y-70226358D01*
X134191258Y-70156666D01*
X134219759Y-70112319D01*
X134229816Y-70102262D01*
X134325789Y-69949522D01*
X134385368Y-69779255D01*
X134404951Y-69605449D01*
X134405565Y-69600003D01*
X134405565Y-69600000D01*
X165194659Y-69600000D01*
X165213975Y-69796129D01*
X165213976Y-69796132D01*
X165266923Y-69970675D01*
X165271188Y-69984733D01*
X165364086Y-70158532D01*
X165364090Y-70158539D01*
X165489116Y-70310883D01*
X165641460Y-70435909D01*
X165641467Y-70435913D01*
X165815266Y-70528811D01*
X165815269Y-70528811D01*
X165815273Y-70528814D01*
X166003868Y-70586024D01*
X166200000Y-70605341D01*
X166396132Y-70586024D01*
X166584727Y-70528814D01*
X166758538Y-70435910D01*
X166910883Y-70310883D01*
X167035910Y-70158538D01*
X167082362Y-70071632D01*
X167128811Y-69984733D01*
X167128811Y-69984732D01*
X167128814Y-69984727D01*
X167184851Y-69800000D01*
X174194659Y-69800000D01*
X174213975Y-69996129D01*
X174213976Y-69996132D01*
X174267823Y-70173642D01*
X174271188Y-70184733D01*
X174364086Y-70358532D01*
X174364090Y-70358539D01*
X174489116Y-70510883D01*
X174641460Y-70635909D01*
X174641467Y-70635913D01*
X174815266Y-70728811D01*
X174815269Y-70728811D01*
X174815273Y-70728814D01*
X175003868Y-70786024D01*
X175200000Y-70805341D01*
X175396132Y-70786024D01*
X175584727Y-70728814D01*
X175758538Y-70635910D01*
X175910883Y-70510883D01*
X176035910Y-70358538D01*
X176098486Y-70241467D01*
X176128811Y-70184733D01*
X176128811Y-70184732D01*
X176128814Y-70184727D01*
X176186024Y-69996132D01*
X176205341Y-69800000D01*
X176186024Y-69603868D01*
X176128814Y-69415273D01*
X176128811Y-69415269D01*
X176128811Y-69415266D01*
X176035913Y-69241467D01*
X176035909Y-69241460D01*
X175910883Y-69089116D01*
X175758539Y-68964090D01*
X175758532Y-68964086D01*
X175584733Y-68871188D01*
X175584727Y-68871186D01*
X175398295Y-68814632D01*
X175396129Y-68813975D01*
X175200000Y-68794659D01*
X175003870Y-68813975D01*
X174815266Y-68871188D01*
X174641467Y-68964086D01*
X174641460Y-68964090D01*
X174489116Y-69089116D01*
X174364090Y-69241460D01*
X174364086Y-69241467D01*
X174271188Y-69415266D01*
X174213975Y-69603870D01*
X174194659Y-69800000D01*
X167184851Y-69800000D01*
X167186024Y-69796132D01*
X167205341Y-69600000D01*
X167186024Y-69403868D01*
X167128814Y-69215273D01*
X167128811Y-69215269D01*
X167128811Y-69215266D01*
X167035913Y-69041467D01*
X167035909Y-69041460D01*
X166910883Y-68889116D01*
X166758539Y-68764090D01*
X166758532Y-68764086D01*
X166584733Y-68671188D01*
X166584727Y-68671186D01*
X166396132Y-68613976D01*
X166396129Y-68613975D01*
X166200000Y-68594659D01*
X166003870Y-68613975D01*
X165815266Y-68671188D01*
X165641467Y-68764086D01*
X165641460Y-68764090D01*
X165489116Y-68889116D01*
X165364090Y-69041460D01*
X165364086Y-69041467D01*
X165271188Y-69215266D01*
X165213975Y-69403870D01*
X165194659Y-69600000D01*
X134405565Y-69600000D01*
X134405565Y-69599996D01*
X134385369Y-69420750D01*
X134385368Y-69420745D01*
X134325788Y-69250476D01*
X134229815Y-69097737D01*
X134102262Y-68970184D01*
X133949523Y-68874211D01*
X133779254Y-68814631D01*
X133779249Y-68814630D01*
X133600004Y-68794435D01*
X133599996Y-68794435D01*
X133420750Y-68814630D01*
X133420745Y-68814631D01*
X133250476Y-68874211D01*
X133097737Y-68970184D01*
X132970184Y-69097737D01*
X132874211Y-69250476D01*
X132814631Y-69420745D01*
X132814630Y-69420750D01*
X132794435Y-69599996D01*
X126819286Y-69599996D01*
X127001148Y-69585683D01*
X127246111Y-69526873D01*
X127478859Y-69430466D01*
X127693659Y-69298836D01*
X127885224Y-69135224D01*
X128048836Y-68943659D01*
X128180466Y-68728859D01*
X128276873Y-68496111D01*
X128335683Y-68251148D01*
X128355449Y-68000000D01*
X128335683Y-67748852D01*
X128276873Y-67503889D01*
X128190809Y-67296111D01*
X128180466Y-67271140D01*
X128048839Y-67056346D01*
X128048838Y-67056343D01*
X128011875Y-67013066D01*
X127885224Y-66864776D01*
X127809381Y-66800000D01*
X198844551Y-66800000D01*
X198864317Y-67051151D01*
X198923126Y-67296110D01*
X199019533Y-67528859D01*
X199151160Y-67743653D01*
X199151161Y-67743656D01*
X199155599Y-67748852D01*
X199314776Y-67935224D01*
X199463066Y-68061875D01*
X199506343Y-68098838D01*
X199506346Y-68098839D01*
X199721140Y-68230466D01*
X199953889Y-68326873D01*
X200198852Y-68385683D01*
X200450000Y-68405449D01*
X200701148Y-68385683D01*
X200946111Y-68326873D01*
X201178859Y-68230466D01*
X201393659Y-68098836D01*
X201585224Y-67935224D01*
X201748836Y-67743659D01*
X201880466Y-67528859D01*
X201976873Y-67296111D01*
X202035683Y-67051148D01*
X202055449Y-66800000D01*
X202035683Y-66548852D01*
X201976873Y-66303889D01*
X201880466Y-66071140D01*
X201748839Y-65856346D01*
X201748838Y-65856343D01*
X201711875Y-65813066D01*
X201585224Y-65664776D01*
X201458571Y-65556604D01*
X201393656Y-65501161D01*
X201393653Y-65501160D01*
X201178859Y-65369533D01*
X200946110Y-65273126D01*
X200701151Y-65214317D01*
X200450000Y-65194551D01*
X200198848Y-65214317D01*
X199953889Y-65273126D01*
X199721140Y-65369533D01*
X199506346Y-65501160D01*
X199506343Y-65501161D01*
X199314776Y-65664776D01*
X199151161Y-65856343D01*
X199151160Y-65856346D01*
X199019533Y-66071140D01*
X198923126Y-66303889D01*
X198864317Y-66548848D01*
X198844551Y-66800000D01*
X127809381Y-66800000D01*
X127758571Y-66756604D01*
X127693656Y-66701161D01*
X127693653Y-66701160D01*
X127478859Y-66569533D01*
X127246110Y-66473126D01*
X127001151Y-66414317D01*
X126750000Y-66394551D01*
X126498848Y-66414317D01*
X126253889Y-66473126D01*
X126021140Y-66569533D01*
X125806346Y-66701160D01*
X125806343Y-66701161D01*
X125614776Y-66864776D01*
X125451161Y-67056343D01*
X125451160Y-67056346D01*
X125319533Y-67271140D01*
X125223126Y-67503889D01*
X125164317Y-67748848D01*
X125144551Y-68000000D01*
X114500500Y-68000000D01*
X114500500Y-65125652D01*
X149688239Y-65125652D01*
X149707555Y-65321781D01*
X149707556Y-65321784D01*
X149761969Y-65501160D01*
X149764768Y-65510385D01*
X149857666Y-65684184D01*
X149857670Y-65684191D01*
X149982696Y-65836535D01*
X150135040Y-65961561D01*
X150135047Y-65961565D01*
X150308846Y-66054463D01*
X150308849Y-66054463D01*
X150308853Y-66054466D01*
X150497448Y-66111676D01*
X150693580Y-66130993D01*
X150889712Y-66111676D01*
X151078307Y-66054466D01*
X151252118Y-65961562D01*
X151404463Y-65836535D01*
X151529490Y-65684190D01*
X151596652Y-65558539D01*
X151622391Y-65510385D01*
X151622391Y-65510384D01*
X151622394Y-65510379D01*
X151679604Y-65321784D01*
X151698921Y-65125652D01*
X151686546Y-65000000D01*
X158394659Y-65000000D01*
X158413975Y-65196129D01*
X158413976Y-65196132D01*
X158452091Y-65321781D01*
X158471188Y-65384733D01*
X158564086Y-65558532D01*
X158564090Y-65558539D01*
X158689116Y-65710883D01*
X158841460Y-65835909D01*
X158841467Y-65835913D01*
X159015266Y-65928811D01*
X159015269Y-65928811D01*
X159015273Y-65928814D01*
X159203868Y-65986024D01*
X159400000Y-66005341D01*
X159596132Y-65986024D01*
X159784727Y-65928814D01*
X159958538Y-65835910D01*
X160110883Y-65710883D01*
X160235910Y-65558538D01*
X160328814Y-65384727D01*
X160386024Y-65196132D01*
X160405341Y-65000000D01*
X160386024Y-64803868D01*
X160328814Y-64615273D01*
X160328811Y-64615269D01*
X160328811Y-64615266D01*
X160235913Y-64441467D01*
X160235909Y-64441460D01*
X160110883Y-64289116D01*
X159958539Y-64164090D01*
X159958532Y-64164086D01*
X159784733Y-64071188D01*
X159784727Y-64071186D01*
X159596132Y-64013976D01*
X159596129Y-64013975D01*
X159400000Y-63994659D01*
X159203870Y-64013975D01*
X159015266Y-64071188D01*
X158841467Y-64164086D01*
X158841460Y-64164090D01*
X158689116Y-64289116D01*
X158564090Y-64441460D01*
X158564086Y-64441467D01*
X158471188Y-64615266D01*
X158413975Y-64803870D01*
X158394659Y-65000000D01*
X151686546Y-65000000D01*
X151679604Y-64929520D01*
X151622394Y-64740925D01*
X151622391Y-64740921D01*
X151622391Y-64740918D01*
X151529493Y-64567119D01*
X151529489Y-64567112D01*
X151404463Y-64414768D01*
X151252119Y-64289742D01*
X151252112Y-64289738D01*
X151078313Y-64196840D01*
X151078307Y-64196838D01*
X150889712Y-64139628D01*
X150889709Y-64139627D01*
X150693580Y-64120311D01*
X150497450Y-64139627D01*
X150308846Y-64196840D01*
X150135047Y-64289738D01*
X150135040Y-64289742D01*
X149982696Y-64414768D01*
X149857670Y-64567112D01*
X149857666Y-64567119D01*
X149764768Y-64740918D01*
X149707555Y-64929522D01*
X149688239Y-65125652D01*
X114500500Y-65125652D01*
X114500500Y-59363603D01*
X189558262Y-59363603D01*
X189577578Y-59559732D01*
X189577579Y-59559735D01*
X189613701Y-59678814D01*
X189634791Y-59748336D01*
X189727689Y-59922135D01*
X189727693Y-59922142D01*
X189852719Y-60074486D01*
X190005063Y-60199512D01*
X190005070Y-60199516D01*
X190178869Y-60292414D01*
X190178872Y-60292414D01*
X190178876Y-60292417D01*
X190367471Y-60349627D01*
X190563603Y-60368944D01*
X190759735Y-60349627D01*
X190948330Y-60292417D01*
X191122141Y-60199513D01*
X191274486Y-60074486D01*
X191399513Y-59922141D01*
X191492417Y-59748330D01*
X191549627Y-59559735D01*
X191550067Y-59555268D01*
X191576226Y-59490481D01*
X191633260Y-59450121D01*
X191703060Y-59447002D01*
X191752135Y-59471567D01*
X191891460Y-59585909D01*
X191891467Y-59585913D01*
X192065266Y-59678811D01*
X192065269Y-59678811D01*
X192065273Y-59678814D01*
X192253868Y-59736024D01*
X192450000Y-59755341D01*
X192646132Y-59736024D01*
X192834727Y-59678814D01*
X193008538Y-59585910D01*
X193160883Y-59460883D01*
X193285910Y-59308538D01*
X193378814Y-59134727D01*
X193436024Y-58946132D01*
X193455341Y-58750000D01*
X193436024Y-58553868D01*
X193378814Y-58365273D01*
X193378811Y-58365269D01*
X193378811Y-58365266D01*
X193285913Y-58191467D01*
X193285909Y-58191460D01*
X193160883Y-58039116D01*
X193008539Y-57914090D01*
X193008532Y-57914086D01*
X192834733Y-57821188D01*
X192834727Y-57821186D01*
X192646132Y-57763976D01*
X192646129Y-57763975D01*
X192450000Y-57744659D01*
X192253870Y-57763975D01*
X192065266Y-57821188D01*
X191891467Y-57914086D01*
X191891460Y-57914090D01*
X191739116Y-58039116D01*
X191614090Y-58191460D01*
X191614086Y-58191467D01*
X191521188Y-58365266D01*
X191463974Y-58553873D01*
X191463534Y-58558346D01*
X191437368Y-58623131D01*
X191380330Y-58663486D01*
X191310529Y-58666597D01*
X191261467Y-58642035D01*
X191122142Y-58527693D01*
X191122135Y-58527689D01*
X190948336Y-58434791D01*
X190948330Y-58434789D01*
X190759735Y-58377579D01*
X190759732Y-58377578D01*
X190563603Y-58358262D01*
X190367473Y-58377578D01*
X190178869Y-58434791D01*
X190005070Y-58527689D01*
X190005063Y-58527693D01*
X189852719Y-58652719D01*
X189727693Y-58805063D01*
X189727689Y-58805070D01*
X189634791Y-58978869D01*
X189577578Y-59167473D01*
X189558262Y-59363603D01*
X114500500Y-59363603D01*
X114500500Y-50519998D01*
X117494532Y-50519998D01*
X117494532Y-50520001D01*
X117514364Y-50746686D01*
X117514366Y-50746697D01*
X117573258Y-50966488D01*
X117573261Y-50966497D01*
X117669431Y-51172732D01*
X117669432Y-51172734D01*
X117799954Y-51359141D01*
X117960858Y-51520045D01*
X117960861Y-51520047D01*
X118147266Y-51650568D01*
X118192453Y-51671639D01*
X118205275Y-51677618D01*
X118257714Y-51723791D01*
X118276866Y-51790984D01*
X118256650Y-51857865D01*
X118205275Y-51902382D01*
X118147267Y-51929431D01*
X118147265Y-51929432D01*
X117960858Y-52059954D01*
X117799954Y-52220858D01*
X117669432Y-52407265D01*
X117669431Y-52407267D01*
X117573261Y-52613502D01*
X117573258Y-52613511D01*
X117514366Y-52833302D01*
X117514364Y-52833313D01*
X117494532Y-53059998D01*
X117494532Y-53060001D01*
X117514364Y-53286686D01*
X117514366Y-53286697D01*
X117573258Y-53506488D01*
X117573261Y-53506497D01*
X117669431Y-53712732D01*
X117669432Y-53712734D01*
X117799954Y-53899141D01*
X117960858Y-54060045D01*
X117960861Y-54060047D01*
X118147266Y-54190568D01*
X118192453Y-54211639D01*
X118205275Y-54217618D01*
X118257714Y-54263791D01*
X118276866Y-54330984D01*
X118256650Y-54397865D01*
X118205275Y-54442382D01*
X118147267Y-54469431D01*
X118147265Y-54469432D01*
X117960858Y-54599954D01*
X117799954Y-54760858D01*
X117669432Y-54947265D01*
X117669431Y-54947267D01*
X117573261Y-55153502D01*
X117573258Y-55153511D01*
X117514366Y-55373302D01*
X117514364Y-55373313D01*
X117494532Y-55599998D01*
X117494532Y-55600001D01*
X117514364Y-55826686D01*
X117514366Y-55826697D01*
X117573258Y-56046488D01*
X117573261Y-56046497D01*
X117669431Y-56252732D01*
X117669432Y-56252734D01*
X117799954Y-56439141D01*
X117960858Y-56600045D01*
X117960861Y-56600047D01*
X118147266Y-56730568D01*
X118353504Y-56826739D01*
X118573308Y-56885635D01*
X118735230Y-56899801D01*
X118799998Y-56905468D01*
X118800000Y-56905468D01*
X118800002Y-56905468D01*
X118856673Y-56900509D01*
X119026692Y-56885635D01*
X119246496Y-56826739D01*
X119452734Y-56730568D01*
X119639139Y-56600047D01*
X119800047Y-56439139D01*
X119930568Y-56252734D01*
X120026739Y-56046496D01*
X120085635Y-55826692D01*
X120105468Y-55600000D01*
X120085635Y-55373308D01*
X120026739Y-55153504D01*
X119930568Y-54947266D01*
X119800047Y-54760861D01*
X119800045Y-54760858D01*
X119639141Y-54599954D01*
X119452734Y-54469432D01*
X119452728Y-54469429D01*
X119394725Y-54442382D01*
X119346590Y-54400000D01*
X149294693Y-54400000D01*
X149313912Y-54815697D01*
X149313912Y-54815702D01*
X149313913Y-54815707D01*
X149371403Y-55227845D01*
X149371405Y-55227853D01*
X149466679Y-55632933D01*
X149598929Y-56027514D01*
X149767010Y-56408177D01*
X149767020Y-56408198D01*
X149969506Y-56771731D01*
X149969509Y-56771735D01*
X149969511Y-56771739D01*
X150204687Y-57115054D01*
X150204689Y-57115056D01*
X150204696Y-57115066D01*
X150470528Y-57435194D01*
X150470538Y-57435206D01*
X150764794Y-57729462D01*
X150764805Y-57729471D01*
X151084933Y-57995303D01*
X151084939Y-57995307D01*
X151084946Y-57995313D01*
X151428261Y-58230489D01*
X151428267Y-58230492D01*
X151428268Y-58230493D01*
X151734520Y-58401074D01*
X151791812Y-58432985D01*
X151982153Y-58517029D01*
X152172485Y-58601070D01*
X152172488Y-58601071D01*
X152172495Y-58601074D01*
X152567064Y-58733320D01*
X152972152Y-58828596D01*
X153384303Y-58886088D01*
X153800000Y-58905307D01*
X154215697Y-58886088D01*
X154627848Y-58828596D01*
X155032936Y-58733320D01*
X155427505Y-58601074D01*
X155808188Y-58432985D01*
X156171739Y-58230489D01*
X156515054Y-57995313D01*
X156835206Y-57729462D01*
X157129462Y-57435206D01*
X157395313Y-57115054D01*
X157630489Y-56771739D01*
X157832985Y-56408188D01*
X158001074Y-56027505D01*
X158133320Y-55632936D01*
X158228596Y-55227848D01*
X158286088Y-54815697D01*
X158305307Y-54400000D01*
X158296060Y-54200000D01*
X167494693Y-54200000D01*
X167513912Y-54615697D01*
X167513912Y-54615702D01*
X167513913Y-54615707D01*
X167571403Y-55027845D01*
X167571405Y-55027853D01*
X167666679Y-55432933D01*
X167798929Y-55827514D01*
X167967010Y-56208177D01*
X167967020Y-56208198D01*
X168169506Y-56571731D01*
X168169509Y-56571735D01*
X168169511Y-56571739D01*
X168404687Y-56915054D01*
X168404689Y-56915056D01*
X168404696Y-56915066D01*
X168656224Y-57217968D01*
X168670538Y-57235206D01*
X168964794Y-57529462D01*
X168964805Y-57529471D01*
X169284933Y-57795303D01*
X169284939Y-57795307D01*
X169284946Y-57795313D01*
X169628261Y-58030489D01*
X169628267Y-58030492D01*
X169628268Y-58030493D01*
X169917272Y-58191467D01*
X169991812Y-58232985D01*
X170182153Y-58317029D01*
X170372485Y-58401070D01*
X170372488Y-58401071D01*
X170372495Y-58401074D01*
X170767064Y-58533320D01*
X171172152Y-58628596D01*
X171584303Y-58686088D01*
X172000000Y-58705307D01*
X172415697Y-58686088D01*
X172827848Y-58628596D01*
X173232936Y-58533320D01*
X173627505Y-58401074D01*
X174008188Y-58232985D01*
X174371739Y-58030489D01*
X174715054Y-57795313D01*
X175035206Y-57529462D01*
X175329462Y-57235206D01*
X175595313Y-56915054D01*
X175830489Y-56571739D01*
X176032985Y-56208188D01*
X176201074Y-55827505D01*
X176333320Y-55432936D01*
X176428596Y-55027848D01*
X176486088Y-54615697D01*
X176505307Y-54200000D01*
X176486088Y-53784303D01*
X176428596Y-53372152D01*
X176333320Y-52967064D01*
X176201074Y-52572495D01*
X176183793Y-52533358D01*
X176032989Y-52191822D01*
X176032985Y-52191812D01*
X175920642Y-51990118D01*
X175830493Y-51828268D01*
X175830492Y-51828267D01*
X175830489Y-51828261D01*
X175595313Y-51484946D01*
X175595307Y-51484939D01*
X175595303Y-51484933D01*
X175329471Y-51164805D01*
X175329462Y-51164794D01*
X175035206Y-50870538D01*
X174989396Y-50832498D01*
X202209532Y-50832498D01*
X202209532Y-50832501D01*
X202229364Y-51059186D01*
X202229366Y-51059197D01*
X202288258Y-51278988D01*
X202288261Y-51278997D01*
X202384431Y-51485232D01*
X202384432Y-51485234D01*
X202514954Y-51671641D01*
X202675858Y-51832545D01*
X202675861Y-51832547D01*
X202862266Y-51963068D01*
X202920275Y-51990118D01*
X202972714Y-52036291D01*
X202991866Y-52103484D01*
X202971650Y-52170365D01*
X202920275Y-52214882D01*
X202862267Y-52241931D01*
X202862265Y-52241932D01*
X202675858Y-52372454D01*
X202514954Y-52533358D01*
X202384432Y-52719765D01*
X202384431Y-52719767D01*
X202288261Y-52926002D01*
X202288258Y-52926011D01*
X202229366Y-53145802D01*
X202229364Y-53145813D01*
X202209532Y-53372498D01*
X202209532Y-53372501D01*
X202229364Y-53599186D01*
X202229366Y-53599197D01*
X202288258Y-53818988D01*
X202288261Y-53818997D01*
X202384431Y-54025232D01*
X202384432Y-54025234D01*
X202514954Y-54211641D01*
X202675858Y-54372545D01*
X202675861Y-54372547D01*
X202862266Y-54503068D01*
X202920275Y-54530118D01*
X202972714Y-54576291D01*
X202991866Y-54643484D01*
X202971650Y-54710365D01*
X202920275Y-54754882D01*
X202862267Y-54781931D01*
X202862265Y-54781932D01*
X202675858Y-54912454D01*
X202514954Y-55073358D01*
X202384432Y-55259765D01*
X202384431Y-55259767D01*
X202288261Y-55466002D01*
X202288258Y-55466011D01*
X202229366Y-55685802D01*
X202229364Y-55685813D01*
X202209532Y-55912498D01*
X202209532Y-55912501D01*
X202229364Y-56139186D01*
X202229366Y-56139197D01*
X202288258Y-56358988D01*
X202288261Y-56358997D01*
X202384431Y-56565232D01*
X202384432Y-56565234D01*
X202514954Y-56751641D01*
X202675858Y-56912545D01*
X202722693Y-56945339D01*
X202862266Y-57043068D01*
X203068504Y-57139239D01*
X203288308Y-57198135D01*
X203450230Y-57212301D01*
X203514998Y-57217968D01*
X203515000Y-57217968D01*
X203515002Y-57217968D01*
X203571673Y-57213009D01*
X203741692Y-57198135D01*
X203961496Y-57139239D01*
X204167734Y-57043068D01*
X204354139Y-56912547D01*
X204515047Y-56751639D01*
X204645568Y-56565234D01*
X204741739Y-56358996D01*
X204800635Y-56139192D01*
X204820468Y-55912500D01*
X204800635Y-55685808D01*
X204741739Y-55466004D01*
X204645568Y-55259766D01*
X204515047Y-55073361D01*
X204515045Y-55073358D01*
X204354141Y-54912454D01*
X204167734Y-54781932D01*
X204167728Y-54781929D01*
X204109725Y-54754882D01*
X204057285Y-54708710D01*
X204038133Y-54641517D01*
X204058348Y-54574635D01*
X204109725Y-54530118D01*
X204167734Y-54503068D01*
X204354139Y-54372547D01*
X204515047Y-54211639D01*
X204645568Y-54025234D01*
X204741739Y-53818996D01*
X204800635Y-53599192D01*
X204820468Y-53372500D01*
X204800635Y-53145808D01*
X204755916Y-52978915D01*
X204741741Y-52926011D01*
X204741738Y-52926002D01*
X204645568Y-52719767D01*
X204645567Y-52719765D01*
X204515045Y-52533358D01*
X204354141Y-52372454D01*
X204167734Y-52241932D01*
X204167728Y-52241929D01*
X204109725Y-52214882D01*
X204057285Y-52168710D01*
X204038133Y-52101517D01*
X204058348Y-52034635D01*
X204109725Y-51990118D01*
X204167734Y-51963068D01*
X204354139Y-51832547D01*
X204515047Y-51671639D01*
X204645568Y-51485234D01*
X204741739Y-51278996D01*
X204800635Y-51059192D01*
X204820468Y-50832500D01*
X204818035Y-50804696D01*
X204800635Y-50605813D01*
X204800635Y-50605808D01*
X204741739Y-50386004D01*
X204645568Y-50179766D01*
X204515047Y-49993361D01*
X204515045Y-49993358D01*
X204354141Y-49832454D01*
X204167734Y-49701932D01*
X204167732Y-49701931D01*
X203961497Y-49605761D01*
X203961488Y-49605758D01*
X203741697Y-49546866D01*
X203741693Y-49546865D01*
X203741692Y-49546865D01*
X203741691Y-49546864D01*
X203741686Y-49546864D01*
X203515002Y-49527032D01*
X203514998Y-49527032D01*
X203288313Y-49546864D01*
X203288302Y-49546866D01*
X203068511Y-49605758D01*
X203068502Y-49605761D01*
X202862267Y-49701931D01*
X202862265Y-49701932D01*
X202675858Y-49832454D01*
X202514954Y-49993358D01*
X202384432Y-50179765D01*
X202384431Y-50179767D01*
X202288261Y-50386002D01*
X202288258Y-50386011D01*
X202229366Y-50605802D01*
X202229364Y-50605813D01*
X202209532Y-50832498D01*
X174989396Y-50832498D01*
X174955905Y-50804687D01*
X174715066Y-50604696D01*
X174715056Y-50604689D01*
X174715054Y-50604687D01*
X174371739Y-50369511D01*
X174371735Y-50369509D01*
X174371731Y-50369506D01*
X174008198Y-50167020D01*
X174008177Y-50167010D01*
X173627514Y-49998929D01*
X173232933Y-49866679D01*
X172827853Y-49771405D01*
X172827845Y-49771403D01*
X172415707Y-49713913D01*
X172415702Y-49713912D01*
X172415697Y-49713912D01*
X172000000Y-49694693D01*
X171584303Y-49713912D01*
X171584297Y-49713912D01*
X171584292Y-49713913D01*
X171172154Y-49771403D01*
X171172146Y-49771405D01*
X170767066Y-49866679D01*
X170372485Y-49998929D01*
X169991822Y-50167010D01*
X169991801Y-50167020D01*
X169628268Y-50369506D01*
X169628262Y-50369510D01*
X169284943Y-50604689D01*
X169284933Y-50604696D01*
X168964805Y-50870528D01*
X168964785Y-50870546D01*
X168670546Y-51164785D01*
X168670528Y-51164805D01*
X168404696Y-51484933D01*
X168404689Y-51484943D01*
X168169510Y-51828262D01*
X168169506Y-51828268D01*
X167967020Y-52191801D01*
X167967010Y-52191822D01*
X167798929Y-52572485D01*
X167666679Y-52967066D01*
X167571405Y-53372146D01*
X167571403Y-53372154D01*
X167513913Y-53784292D01*
X167513912Y-53784297D01*
X167513912Y-53784303D01*
X167494693Y-54200000D01*
X158296060Y-54200000D01*
X158286088Y-53984303D01*
X158228596Y-53572152D01*
X158133320Y-53167064D01*
X158001074Y-52772495D01*
X157977791Y-52719765D01*
X157839809Y-52407267D01*
X157832985Y-52391812D01*
X157630489Y-52028261D01*
X157395313Y-51684946D01*
X157395307Y-51684939D01*
X157395303Y-51684933D01*
X157129471Y-51364805D01*
X157129462Y-51364794D01*
X156835206Y-51070538D01*
X156821535Y-51059186D01*
X156515066Y-50804696D01*
X156515056Y-50804689D01*
X156515054Y-50804687D01*
X156171739Y-50569511D01*
X156171735Y-50569509D01*
X156171731Y-50569506D01*
X155808198Y-50367020D01*
X155808177Y-50367010D01*
X155427514Y-50198929D01*
X155032933Y-50066679D01*
X154627853Y-49971405D01*
X154627845Y-49971403D01*
X154215707Y-49913913D01*
X154215702Y-49913912D01*
X154215697Y-49913912D01*
X153800000Y-49894693D01*
X153384303Y-49913912D01*
X153384297Y-49913912D01*
X153384292Y-49913913D01*
X152972154Y-49971403D01*
X152972146Y-49971405D01*
X152567066Y-50066679D01*
X152172485Y-50198929D01*
X151791822Y-50367010D01*
X151791801Y-50367020D01*
X151428268Y-50569506D01*
X151428262Y-50569510D01*
X151084943Y-50804689D01*
X151084933Y-50804696D01*
X150764805Y-51070528D01*
X150764785Y-51070546D01*
X150470546Y-51364785D01*
X150470528Y-51364805D01*
X150204696Y-51684933D01*
X150204689Y-51684943D01*
X149969510Y-52028262D01*
X149969506Y-52028268D01*
X149767020Y-52391801D01*
X149767010Y-52391822D01*
X149598929Y-52772485D01*
X149466679Y-53167066D01*
X149371405Y-53572146D01*
X149371403Y-53572154D01*
X149313913Y-53984292D01*
X149313912Y-53984297D01*
X149313912Y-53984303D01*
X149294693Y-54400000D01*
X119346590Y-54400000D01*
X119342285Y-54396210D01*
X119323133Y-54329017D01*
X119343348Y-54262135D01*
X119394725Y-54217618D01*
X119452734Y-54190568D01*
X119639139Y-54060047D01*
X119800047Y-53899139D01*
X119930568Y-53712734D01*
X120026739Y-53506496D01*
X120085635Y-53286692D01*
X120105468Y-53060000D01*
X120085635Y-52833308D01*
X120026739Y-52613504D01*
X119930568Y-52407266D01*
X119800047Y-52220861D01*
X119800045Y-52220858D01*
X119639141Y-52059954D01*
X119452734Y-51929432D01*
X119452728Y-51929429D01*
X119394725Y-51902382D01*
X119342285Y-51856210D01*
X119323133Y-51789017D01*
X119343348Y-51722135D01*
X119394725Y-51677618D01*
X119452734Y-51650568D01*
X119639139Y-51520047D01*
X119800047Y-51359139D01*
X119930568Y-51172734D01*
X120026739Y-50966496D01*
X120085635Y-50746692D01*
X120105468Y-50520000D01*
X120085635Y-50293308D01*
X120026739Y-50073504D01*
X119930568Y-49867266D01*
X119800047Y-49680861D01*
X119800045Y-49680858D01*
X119639141Y-49519954D01*
X119452734Y-49389432D01*
X119452732Y-49389431D01*
X119246497Y-49293261D01*
X119246488Y-49293258D01*
X119026697Y-49234366D01*
X119026693Y-49234365D01*
X119026692Y-49234365D01*
X119026691Y-49234364D01*
X119026686Y-49234364D01*
X118800002Y-49214532D01*
X118799998Y-49214532D01*
X118573313Y-49234364D01*
X118573302Y-49234366D01*
X118353511Y-49293258D01*
X118353502Y-49293261D01*
X118147267Y-49389431D01*
X118147265Y-49389432D01*
X117960858Y-49519954D01*
X117799954Y-49680858D01*
X117669432Y-49867265D01*
X117669431Y-49867267D01*
X117573261Y-50073502D01*
X117573258Y-50073511D01*
X117514366Y-50293302D01*
X117514364Y-50293313D01*
X117494532Y-50519998D01*
X114500500Y-50519998D01*
X114500500Y-37003051D01*
X114500649Y-36996967D01*
X114517052Y-36663072D01*
X114518245Y-36650962D01*
X114566849Y-36323296D01*
X114569218Y-36311385D01*
X114649710Y-35990043D01*
X114653240Y-35978411D01*
X114764835Y-35666525D01*
X114769476Y-35655318D01*
X114911124Y-35355828D01*
X114916840Y-35345136D01*
X115087145Y-35060998D01*
X115093888Y-35050905D01*
X115291232Y-34784818D01*
X115298935Y-34775433D01*
X115521405Y-34529975D01*
X115529975Y-34521405D01*
X115775433Y-34298935D01*
X115784818Y-34291232D01*
X116050905Y-34093888D01*
X116060998Y-34087145D01*
X116345136Y-33916840D01*
X116355828Y-33911124D01*
X116655318Y-33769476D01*
X116666525Y-33764835D01*
X116978412Y-33653239D01*
X116990043Y-33649710D01*
X117311385Y-33569218D01*
X117323296Y-33566849D01*
X117650962Y-33518244D01*
X117663068Y-33517052D01*
X117996967Y-33500648D01*
X118003051Y-33500500D01*
X118065892Y-33500500D01*
X209934108Y-33500500D01*
X209996949Y-33500500D01*
X210003032Y-33500648D01*
G37*
%TD.AperFunction*%
%TD*%
M02*
