%TF.GenerationSoftware,KiCad,Pcbnew,8.0.3*%
%TF.CreationDate,2024-07-22T22:22:34+10:00*%
%TF.ProjectId,MPPT,4d505054-2e6b-4696-9361-645f70636258,rev?*%
%TF.SameCoordinates,Original*%
%TF.FileFunction,Paste,Top*%
%TF.FilePolarity,Positive*%
%FSLAX46Y46*%
G04 Gerber Fmt 4.6, Leading zero omitted, Abs format (unit mm)*
G04 Created by KiCad (PCBNEW 8.0.3) date 2024-07-22 22:22:34*
%MOMM*%
%LPD*%
G01*
G04 APERTURE LIST*
G04 Aperture macros list*
%AMRoundRect*
0 Rectangle with rounded corners*
0 $1 Rounding radius*
0 $2 $3 $4 $5 $6 $7 $8 $9 X,Y pos of 4 corners*
0 Add a 4 corners polygon primitive as box body*
4,1,4,$2,$3,$4,$5,$6,$7,$8,$9,$2,$3,0*
0 Add four circle primitives for the rounded corners*
1,1,$1+$1,$2,$3*
1,1,$1+$1,$4,$5*
1,1,$1+$1,$6,$7*
1,1,$1+$1,$8,$9*
0 Add four rect primitives between the rounded corners*
20,1,$1+$1,$2,$3,$4,$5,0*
20,1,$1+$1,$4,$5,$6,$7,0*
20,1,$1+$1,$6,$7,$8,$9,0*
20,1,$1+$1,$8,$9,$2,$3,0*%
%AMFreePoly0*
4,1,149,1.029806,0.999029,1.079806,0.989029,1.082127,0.988507,1.120971,0.978796,1.169806,0.969029,1.172127,0.968507,1.252127,0.948507,1.262361,0.944721,1.297451,0.927176,1.332127,0.918507,1.342361,0.914721,1.422361,0.874721,1.430000,0.870000,1.466394,0.842704,1.502361,0.824721,1.515355,0.815355,1.542840,0.787870,1.580000,0.760000,1.585355,0.755355,1.705355,0.635355,
1.710000,0.630000,1.737870,0.592840,1.765355,0.565355,1.774721,0.552361,1.834721,0.432361,1.838507,0.422127,1.849039,0.380000,3.510000,0.380000,3.545355,0.365355,3.560000,0.330000,3.560000,-0.330000,3.545355,-0.365355,3.510000,-0.380000,1.849039,-0.380000,1.838507,-0.422127,1.834721,-0.432361,1.774721,-0.552361,1.765355,-0.565355,1.737870,-0.592840,1.710000,-0.630000,
1.705355,-0.635355,1.647870,-0.692840,1.620000,-0.730000,1.607735,-0.741603,1.578884,-0.760837,1.542840,-0.787870,1.515355,-0.815355,1.502361,-0.824721,1.466394,-0.842704,1.430000,-0.870000,1.422361,-0.874721,1.342361,-0.914721,1.332127,-0.918507,1.297451,-0.927176,1.262361,-0.944721,1.252127,-0.948507,1.172127,-0.968507,1.169806,-0.969029,1.120971,-0.978796,1.082127,-0.988507,
1.079806,-0.989029,1.029806,-0.999029,1.020000,-1.000000,-1.010000,-1.000000,-1.022127,-0.998507,-1.060971,-0.988796,-1.109806,-0.979029,-1.112127,-0.978507,-1.190971,-0.958796,-1.239806,-0.949029,-1.252361,-0.944721,-1.287451,-0.927176,-1.322127,-0.918507,-1.332361,-0.914721,-1.412361,-0.874721,-1.420000,-0.870000,-1.458884,-0.840837,-1.487735,-0.821603,-1.490000,-0.820000,-1.530000,-0.790000,
-1.535355,-0.785355,-1.559617,-0.761093,-1.592361,-0.744721,-1.610000,-0.730000,-1.637870,-0.692840,-1.695355,-0.635355,-1.700000,-0.630000,-1.730000,-0.590000,-1.731603,-0.587735,-1.751603,-0.557735,-1.754721,-0.552361,-1.772704,-0.516394,-1.800000,-0.480000,-1.804721,-0.472361,-1.844721,-0.392361,-1.848507,-0.382127,-1.857176,-0.347451,-1.874721,-0.312361,-1.879029,-0.299806,-1.888796,-0.250971,
-1.908507,-0.172127,-1.910000,-0.160000,-1.910000,-0.116155,-1.918507,-0.082127,-1.920000,-0.070000,-1.920000,0.070000,-1.918507,0.082127,-1.910000,0.116155,-1.910000,0.150000,-1.909029,0.159806,-1.899029,0.209806,-1.898507,0.212127,-1.878507,0.292127,-1.876424,0.298570,-1.857683,0.345421,-1.848507,0.382127,-1.844721,0.392361,-1.804721,0.472361,-1.800000,0.480000,-1.772704,0.516394,
-1.754721,0.552361,-1.751603,0.557735,-1.731603,0.587735,-1.730000,0.590000,-1.700000,0.630000,-1.695355,0.635355,-1.605355,0.725355,-1.600000,0.730000,-1.562840,0.757870,-1.535355,0.785355,-1.530000,0.790000,-1.490000,0.820000,-1.487735,0.821603,-1.458884,0.840837,-1.420000,0.870000,-1.412361,0.874721,-1.332361,0.914721,-1.322127,0.918507,-1.287451,0.927176,-1.252361,0.944721,
-1.239806,0.949029,-1.190971,0.958796,-1.112127,0.978507,-1.109806,0.979029,-1.060971,0.988796,-1.022127,0.998507,-1.010000,1.000000,1.020000,1.000000,1.029806,0.999029,1.029806,0.999029,$1*%
G04 Aperture macros list end*
%ADD10R,1.450000X0.600000*%
%ADD11R,1.450000X0.300000*%
%ADD12RoundRect,0.250000X1.100000X-0.325000X1.100000X0.325000X-1.100000X0.325000X-1.100000X-0.325000X0*%
%ADD13RoundRect,0.250000X0.325000X1.100000X-0.325000X1.100000X-0.325000X-1.100000X0.325000X-1.100000X0*%
%ADD14RoundRect,0.250000X-0.325000X-1.100000X0.325000X-1.100000X0.325000X1.100000X-0.325000X1.100000X0*%
%ADD15RoundRect,0.135000X-0.135000X-0.185000X0.135000X-0.185000X0.135000X0.185000X-0.135000X0.185000X0*%
%ADD16RoundRect,0.135000X0.135000X0.185000X-0.135000X0.185000X-0.135000X-0.185000X0.135000X-0.185000X0*%
%ADD17RoundRect,0.135000X-0.185000X0.135000X-0.185000X-0.135000X0.185000X-0.135000X0.185000X0.135000X0*%
%ADD18RoundRect,0.250000X-0.450000X0.262500X-0.450000X-0.262500X0.450000X-0.262500X0.450000X0.262500X0*%
%ADD19RoundRect,0.135000X0.185000X-0.135000X0.185000X0.135000X-0.185000X0.135000X-0.185000X-0.135000X0*%
%ADD20RoundRect,0.250000X0.262500X0.450000X-0.262500X0.450000X-0.262500X-0.450000X0.262500X-0.450000X0*%
%ADD21RoundRect,0.140000X0.140000X0.170000X-0.140000X0.170000X-0.140000X-0.170000X0.140000X-0.170000X0*%
%ADD22RoundRect,0.140000X-0.170000X0.140000X-0.170000X-0.140000X0.170000X-0.140000X0.170000X0.140000X0*%
%ADD23RoundRect,0.140000X0.170000X-0.140000X0.170000X0.140000X-0.170000X0.140000X-0.170000X-0.140000X0*%
%ADD24RoundRect,0.140000X-0.140000X-0.170000X0.140000X-0.170000X0.140000X0.170000X-0.140000X0.170000X0*%
%ADD25RoundRect,0.250000X0.475000X-0.250000X0.475000X0.250000X-0.475000X0.250000X-0.475000X-0.250000X0*%
%ADD26R,3.000000X5.500000*%
%ADD27RoundRect,0.250000X-0.650000X0.325000X-0.650000X-0.325000X0.650000X-0.325000X0.650000X0.325000X0*%
%ADD28RoundRect,0.225000X-0.250000X0.225000X-0.250000X-0.225000X0.250000X-0.225000X0.250000X0.225000X0*%
%ADD29R,0.300000X1.300000*%
%ADD30R,4.000000X4.410000*%
%ADD31R,1.000000X0.600000*%
%ADD32R,0.800000X0.400000*%
%ADD33FreePoly0,90.000000*%
%ADD34R,0.670000X1.580000*%
%ADD35RoundRect,0.200000X0.800000X-0.200000X0.800000X0.200000X-0.800000X0.200000X-0.800000X-0.200000X0*%
%ADD36RoundRect,0.200000X-0.800000X0.200000X-0.800000X-0.200000X0.800000X-0.200000X0.800000X0.200000X0*%
%ADD37RoundRect,0.250000X-1.425000X0.362500X-1.425000X-0.362500X1.425000X-0.362500X1.425000X0.362500X0*%
%ADD38RoundRect,0.147500X0.147500X0.172500X-0.147500X0.172500X-0.147500X-0.172500X0.147500X-0.172500X0*%
%ADD39R,5.590000X5.330000*%
%ADD40R,5.280000X6.350000*%
%ADD41RoundRect,0.250000X0.250000X0.475000X-0.250000X0.475000X-0.250000X-0.475000X0.250000X-0.475000X0*%
%ADD42RoundRect,0.225000X-0.225000X-0.250000X0.225000X-0.250000X0.225000X0.250000X-0.225000X0.250000X0*%
G04 APERTURE END LIST*
D10*
%TO.C,J1*%
X205815000Y-102050000D03*
X205815000Y-101250000D03*
D11*
X205815000Y-100050000D03*
X205815000Y-99050000D03*
X205815000Y-98550000D03*
X205815000Y-97550000D03*
D10*
X205815000Y-96350000D03*
X205815000Y-95550000D03*
X205815000Y-95550000D03*
X205815000Y-96350000D03*
D11*
X205815000Y-97050000D03*
X205815000Y-98050000D03*
X205815000Y-99550000D03*
X205815000Y-100550000D03*
D10*
X205815000Y-101250000D03*
X205815000Y-102050000D03*
%TD*%
D12*
%TO.C,C56*%
X186700000Y-65875000D03*
X186700000Y-62925000D03*
%TD*%
D13*
%TO.C,C55*%
X177575000Y-77800000D03*
X174625000Y-77800000D03*
%TD*%
D14*
%TO.C,C54*%
X148825000Y-78300000D03*
X151775000Y-78300000D03*
%TD*%
D12*
%TO.C,C53*%
X137700000Y-66500000D03*
X137700000Y-63550000D03*
%TD*%
%TO.C,C52*%
X142300000Y-66550000D03*
X142300000Y-63600000D03*
%TD*%
%TO.C,C51*%
X182900000Y-66000000D03*
X182900000Y-63050000D03*
%TD*%
D15*
%TO.C,R37*%
X148980000Y-106800000D03*
X150000000Y-106800000D03*
%TD*%
D16*
%TO.C,R36*%
X148980000Y-107800000D03*
X150000000Y-107800000D03*
%TD*%
D17*
%TO.C,R27*%
X134195000Y-91830120D03*
X134195000Y-92850120D03*
%TD*%
D18*
%TO.C,R26*%
X134195000Y-87737620D03*
X134195000Y-89562620D03*
%TD*%
D15*
%TO.C,R23*%
X167490000Y-94800000D03*
X168510000Y-94800000D03*
%TD*%
%TO.C,R22*%
X167580000Y-98400000D03*
X168600000Y-98400000D03*
%TD*%
%TO.C,R21*%
X167490000Y-96000000D03*
X168510000Y-96000000D03*
%TD*%
%TO.C,R20*%
X167490000Y-97200000D03*
X168510000Y-97200000D03*
%TD*%
D19*
%TO.C,R19*%
X161400000Y-101820000D03*
X161400000Y-100800000D03*
%TD*%
D16*
%TO.C,R16*%
X200400000Y-98000000D03*
X199380000Y-98000000D03*
%TD*%
%TO.C,R15*%
X200400000Y-99200000D03*
X199380000Y-99200000D03*
%TD*%
D19*
%TO.C,R14*%
X204075000Y-96790000D03*
X204075000Y-95770000D03*
%TD*%
D17*
%TO.C,R13*%
X204075000Y-100570000D03*
X204075000Y-101590000D03*
%TD*%
D20*
%TO.C,R5*%
X144512500Y-100000000D03*
X142687500Y-100000000D03*
%TD*%
%TO.C,R4*%
X148312500Y-100000000D03*
X146487500Y-100000000D03*
%TD*%
D21*
%TO.C,C43*%
X175960000Y-97600000D03*
X175000000Y-97600000D03*
%TD*%
%TO.C,C42*%
X179960000Y-99600000D03*
X179000000Y-99600000D03*
%TD*%
%TO.C,C41*%
X177200000Y-95400000D03*
X178160000Y-95400000D03*
%TD*%
%TO.C,C40*%
X177520000Y-97500000D03*
X178480000Y-97500000D03*
%TD*%
D22*
%TO.C,C39*%
X187000000Y-97400000D03*
X187000000Y-98360000D03*
%TD*%
D21*
%TO.C,C38*%
X185880000Y-97000000D03*
X184920000Y-97000000D03*
%TD*%
D23*
%TO.C,C37*%
X186000000Y-93280000D03*
X186000000Y-92320000D03*
%TD*%
%TO.C,C35*%
X180800000Y-95280000D03*
X180800000Y-94320000D03*
%TD*%
D24*
%TO.C,C31*%
X188520000Y-100600000D03*
X189480000Y-100600000D03*
%TD*%
D25*
%TO.C,C7*%
X150400000Y-101550000D03*
X150400000Y-99650000D03*
%TD*%
D26*
%TO.C,L2*%
X157715000Y-89100000D03*
X162375000Y-89100000D03*
%TD*%
D27*
%TO.C,C6*%
X168045000Y-86725000D03*
X168045000Y-89675000D03*
%TD*%
D28*
%TO.C,C5*%
X164795000Y-86900000D03*
X164795000Y-88450000D03*
%TD*%
D29*
%TO.C,U20*%
X163200000Y-102300000D03*
X163700000Y-102300000D03*
X164200000Y-102300000D03*
X164700000Y-102300000D03*
X165200000Y-102300000D03*
X165200000Y-97600000D03*
X164700000Y-97600000D03*
X164200000Y-97600000D03*
X163700000Y-97600000D03*
X163200000Y-97600000D03*
%TD*%
D30*
%TO.C,U17*%
X178010000Y-73112500D03*
D31*
X180320000Y-71202500D03*
X180320000Y-72482500D03*
X180320000Y-73742500D03*
X180320000Y-75012500D03*
X174480000Y-75012500D03*
X174480000Y-73742500D03*
X174480000Y-72482500D03*
X174480000Y-71202500D03*
%TD*%
D30*
%TO.C,U16*%
X156700000Y-73187500D03*
D31*
X154390000Y-75097500D03*
X154390000Y-73817500D03*
X154390000Y-72557500D03*
X154390000Y-71287500D03*
X160230000Y-71287500D03*
X160230000Y-72557500D03*
X160230000Y-73817500D03*
X160230000Y-75097500D03*
%TD*%
%TO.C,U15*%
X151550000Y-75167500D03*
X151550000Y-73887500D03*
X151550000Y-72627500D03*
X151550000Y-71357500D03*
X145710000Y-71357500D03*
X145710000Y-72627500D03*
X145710000Y-73887500D03*
X145710000Y-75167500D03*
D30*
X148020000Y-73257500D03*
%TD*%
D31*
%TO.C,U12*%
X165590000Y-65440000D03*
X165590000Y-66720000D03*
X165590000Y-67980000D03*
X165590000Y-69250000D03*
X171430000Y-69250000D03*
X171430000Y-67980000D03*
X171430000Y-66720000D03*
X171430000Y-65440000D03*
D30*
X169120000Y-67350000D03*
%TD*%
%TO.C,U11*%
X178000000Y-67350000D03*
D31*
X180310000Y-65440000D03*
X180310000Y-66720000D03*
X180310000Y-67980000D03*
X180310000Y-69250000D03*
X174470000Y-69250000D03*
X174470000Y-67980000D03*
X174470000Y-66720000D03*
X174470000Y-65440000D03*
%TD*%
D30*
%TO.C,U10*%
X156710000Y-67450000D03*
D31*
X154400000Y-69360000D03*
X154400000Y-68080000D03*
X154400000Y-66820000D03*
X154400000Y-65550000D03*
X160240000Y-65550000D03*
X160240000Y-66820000D03*
X160240000Y-68080000D03*
X160240000Y-69360000D03*
%TD*%
%TO.C,U9*%
X151545000Y-69412500D03*
X151545000Y-68132500D03*
X151545000Y-66872500D03*
X151545000Y-65602500D03*
X145705000Y-65602500D03*
X145705000Y-66872500D03*
X145705000Y-68132500D03*
X145705000Y-69412500D03*
D30*
X148015000Y-67502500D03*
%TD*%
D32*
%TO.C,U8*%
X124495000Y-97450120D03*
X126795000Y-97450120D03*
X126795000Y-96800120D03*
X126795000Y-98100120D03*
X124495000Y-98100120D03*
X124495000Y-96800120D03*
%TD*%
D33*
%TO.C,U6*%
X148722500Y-95147500D03*
D34*
X147222500Y-92427500D03*
X150222500Y-92427500D03*
%TD*%
D35*
%TO.C,SW6*%
X202600000Y-109700000D03*
X202600000Y-113900000D03*
%TD*%
%TO.C,SW5*%
X198150000Y-109700000D03*
X198150000Y-113900000D03*
%TD*%
%TO.C,SW4*%
X193700000Y-109700000D03*
X193700000Y-113900000D03*
%TD*%
%TO.C,SW3*%
X189250000Y-109700000D03*
X189250000Y-113900000D03*
%TD*%
D36*
%TO.C,SW2*%
X170600000Y-78700000D03*
X170600000Y-82900000D03*
%TD*%
%TO.C,SW1*%
X174100000Y-80300000D03*
X174100000Y-84500000D03*
%TD*%
D37*
%TO.C,R28*%
X130395000Y-94700120D03*
X130395000Y-100625120D03*
%TD*%
D16*
%TO.C,R12*%
X175510000Y-88300000D03*
X174490000Y-88300000D03*
%TD*%
D38*
%TO.C,L5*%
X187485000Y-100600000D03*
X186515000Y-100600000D03*
%TD*%
D39*
%TO.C,L4*%
X173000000Y-52370000D03*
D40*
X195080000Y-47150000D03*
D39*
X173000000Y-41930000D03*
%TD*%
D26*
%TO.C,L3*%
X138082500Y-88987500D03*
X142742500Y-88987500D03*
%TD*%
D39*
%TO.C,L1*%
X153000000Y-41930000D03*
D40*
X130920000Y-47150000D03*
D39*
X153000000Y-52370000D03*
%TD*%
D23*
%TO.C,C46*%
X122395000Y-98110120D03*
X122395000Y-97150120D03*
%TD*%
%TO.C,C45*%
X123395000Y-98110120D03*
X123395000Y-97150120D03*
%TD*%
D41*
%TO.C,C44*%
X144072500Y-96027500D03*
X145972500Y-96027500D03*
%TD*%
D15*
%TO.C,C36*%
X174380000Y-86700000D03*
X175400000Y-86700000D03*
%TD*%
D42*
%TO.C,C34*%
X188825000Y-102000000D03*
X190375000Y-102000000D03*
%TD*%
D24*
%TO.C,C30*%
X187920000Y-99600000D03*
X188880000Y-99600000D03*
%TD*%
%TO.C,C29*%
X185920000Y-99600000D03*
X186880000Y-99600000D03*
%TD*%
D27*
%TO.C,C23*%
X148412500Y-86612500D03*
X148412500Y-89562500D03*
%TD*%
D28*
%TO.C,C22*%
X145162500Y-86787500D03*
X145162500Y-88337500D03*
%TD*%
D23*
%TO.C,C11*%
X123395000Y-95910120D03*
X123395000Y-94950120D03*
%TD*%
%TO.C,C10*%
X124395000Y-95930120D03*
X124395000Y-94970120D03*
%TD*%
D41*
%TO.C,C4*%
X144022500Y-94027500D03*
X145922500Y-94027500D03*
%TD*%
D30*
%TO.C,U18*%
X169090000Y-73230000D03*
D31*
X171400000Y-71320000D03*
X171400000Y-72600000D03*
X171400000Y-73860000D03*
X171400000Y-75130000D03*
X165560000Y-75130000D03*
X165560000Y-73860000D03*
X165560000Y-72600000D03*
X165560000Y-71320000D03*
%TD*%
D21*
%TO.C,C28*%
X179000000Y-90900000D03*
X178040000Y-90900000D03*
%TD*%
M02*
