%TF.GenerationSoftware,KiCad,Pcbnew,8.0.3*%
%TF.CreationDate,2024-07-22T22:22:34+10:00*%
%TF.ProjectId,MPPT,4d505054-2e6b-4696-9361-645f70636258,rev?*%
%TF.SameCoordinates,Original*%
%TF.FileFunction,Legend,Top*%
%TF.FilePolarity,Positive*%
%FSLAX46Y46*%
G04 Gerber Fmt 4.6, Leading zero omitted, Abs format (unit mm)*
G04 Created by KiCad (PCBNEW 8.0.3) date 2024-07-22 22:22:34*
%MOMM*%
%LPD*%
G01*
G04 APERTURE LIST*
%ADD10C,0.150000*%
%ADD11C,0.200000*%
%ADD12C,0.120000*%
%ADD13C,0.250000*%
%ADD14C,0.300000*%
G04 APERTURE END LIST*
D10*
X207238095Y-106654819D02*
X207238095Y-105654819D01*
X207238095Y-106131009D02*
X207809523Y-106131009D01*
X207809523Y-106654819D02*
X207809523Y-105654819D01*
X208714285Y-105988152D02*
X208714285Y-106654819D01*
X208476190Y-105607200D02*
X208238095Y-106321485D01*
X208238095Y-106321485D02*
X208857142Y-106321485D01*
X120038095Y-106054819D02*
X120038095Y-105054819D01*
X120038095Y-105531009D02*
X120609523Y-105531009D01*
X120609523Y-106054819D02*
X120609523Y-105054819D01*
X120990476Y-105054819D02*
X121609523Y-105054819D01*
X121609523Y-105054819D02*
X121276190Y-105435771D01*
X121276190Y-105435771D02*
X121419047Y-105435771D01*
X121419047Y-105435771D02*
X121514285Y-105483390D01*
X121514285Y-105483390D02*
X121561904Y-105531009D01*
X121561904Y-105531009D02*
X121609523Y-105626247D01*
X121609523Y-105626247D02*
X121609523Y-105864342D01*
X121609523Y-105864342D02*
X121561904Y-105959580D01*
X121561904Y-105959580D02*
X121514285Y-106007200D01*
X121514285Y-106007200D02*
X121419047Y-106054819D01*
X121419047Y-106054819D02*
X121133333Y-106054819D01*
X121133333Y-106054819D02*
X121038095Y-106007200D01*
X121038095Y-106007200D02*
X120990476Y-105959580D01*
X119638095Y-36054819D02*
X119638095Y-35054819D01*
X119638095Y-35531009D02*
X120209523Y-35531009D01*
X120209523Y-36054819D02*
X120209523Y-35054819D01*
X120638095Y-35150057D02*
X120685714Y-35102438D01*
X120685714Y-35102438D02*
X120780952Y-35054819D01*
X120780952Y-35054819D02*
X121019047Y-35054819D01*
X121019047Y-35054819D02*
X121114285Y-35102438D01*
X121114285Y-35102438D02*
X121161904Y-35150057D01*
X121161904Y-35150057D02*
X121209523Y-35245295D01*
X121209523Y-35245295D02*
X121209523Y-35340533D01*
X121209523Y-35340533D02*
X121161904Y-35483390D01*
X121161904Y-35483390D02*
X120590476Y-36054819D01*
X120590476Y-36054819D02*
X121209523Y-36054819D01*
X206438095Y-36654819D02*
X206438095Y-35654819D01*
X206438095Y-36131009D02*
X207009523Y-36131009D01*
X207009523Y-36654819D02*
X207009523Y-35654819D01*
X208009523Y-36654819D02*
X207438095Y-36654819D01*
X207723809Y-36654819D02*
X207723809Y-35654819D01*
X207723809Y-35654819D02*
X207628571Y-35797676D01*
X207628571Y-35797676D02*
X207533333Y-35892914D01*
X207533333Y-35892914D02*
X207438095Y-35940533D01*
X203669819Y-99133333D02*
X204384104Y-99133333D01*
X204384104Y-99133333D02*
X204526961Y-99180952D01*
X204526961Y-99180952D02*
X204622200Y-99276190D01*
X204622200Y-99276190D02*
X204669819Y-99419047D01*
X204669819Y-99419047D02*
X204669819Y-99514285D01*
X204669819Y-98133333D02*
X204669819Y-98704761D01*
X204669819Y-98419047D02*
X203669819Y-98419047D01*
X203669819Y-98419047D02*
X203812676Y-98514285D01*
X203812676Y-98514285D02*
X203907914Y-98609523D01*
X203907914Y-98609523D02*
X203955533Y-98704761D01*
X186057142Y-64759580D02*
X186009523Y-64807200D01*
X186009523Y-64807200D02*
X185866666Y-64854819D01*
X185866666Y-64854819D02*
X185771428Y-64854819D01*
X185771428Y-64854819D02*
X185628571Y-64807200D01*
X185628571Y-64807200D02*
X185533333Y-64711961D01*
X185533333Y-64711961D02*
X185485714Y-64616723D01*
X185485714Y-64616723D02*
X185438095Y-64426247D01*
X185438095Y-64426247D02*
X185438095Y-64283390D01*
X185438095Y-64283390D02*
X185485714Y-64092914D01*
X185485714Y-64092914D02*
X185533333Y-63997676D01*
X185533333Y-63997676D02*
X185628571Y-63902438D01*
X185628571Y-63902438D02*
X185771428Y-63854819D01*
X185771428Y-63854819D02*
X185866666Y-63854819D01*
X185866666Y-63854819D02*
X186009523Y-63902438D01*
X186009523Y-63902438D02*
X186057142Y-63950057D01*
X186961904Y-63854819D02*
X186485714Y-63854819D01*
X186485714Y-63854819D02*
X186438095Y-64331009D01*
X186438095Y-64331009D02*
X186485714Y-64283390D01*
X186485714Y-64283390D02*
X186580952Y-64235771D01*
X186580952Y-64235771D02*
X186819047Y-64235771D01*
X186819047Y-64235771D02*
X186914285Y-64283390D01*
X186914285Y-64283390D02*
X186961904Y-64331009D01*
X186961904Y-64331009D02*
X187009523Y-64426247D01*
X187009523Y-64426247D02*
X187009523Y-64664342D01*
X187009523Y-64664342D02*
X186961904Y-64759580D01*
X186961904Y-64759580D02*
X186914285Y-64807200D01*
X186914285Y-64807200D02*
X186819047Y-64854819D01*
X186819047Y-64854819D02*
X186580952Y-64854819D01*
X186580952Y-64854819D02*
X186485714Y-64807200D01*
X186485714Y-64807200D02*
X186438095Y-64759580D01*
X187866666Y-63854819D02*
X187676190Y-63854819D01*
X187676190Y-63854819D02*
X187580952Y-63902438D01*
X187580952Y-63902438D02*
X187533333Y-63950057D01*
X187533333Y-63950057D02*
X187438095Y-64092914D01*
X187438095Y-64092914D02*
X187390476Y-64283390D01*
X187390476Y-64283390D02*
X187390476Y-64664342D01*
X187390476Y-64664342D02*
X187438095Y-64759580D01*
X187438095Y-64759580D02*
X187485714Y-64807200D01*
X187485714Y-64807200D02*
X187580952Y-64854819D01*
X187580952Y-64854819D02*
X187771428Y-64854819D01*
X187771428Y-64854819D02*
X187866666Y-64807200D01*
X187866666Y-64807200D02*
X187914285Y-64759580D01*
X187914285Y-64759580D02*
X187961904Y-64664342D01*
X187961904Y-64664342D02*
X187961904Y-64426247D01*
X187961904Y-64426247D02*
X187914285Y-64331009D01*
X187914285Y-64331009D02*
X187866666Y-64283390D01*
X187866666Y-64283390D02*
X187771428Y-64235771D01*
X187771428Y-64235771D02*
X187580952Y-64235771D01*
X187580952Y-64235771D02*
X187485714Y-64283390D01*
X187485714Y-64283390D02*
X187438095Y-64331009D01*
X187438095Y-64331009D02*
X187390476Y-64426247D01*
X175457142Y-80459580D02*
X175409523Y-80507200D01*
X175409523Y-80507200D02*
X175266666Y-80554819D01*
X175266666Y-80554819D02*
X175171428Y-80554819D01*
X175171428Y-80554819D02*
X175028571Y-80507200D01*
X175028571Y-80507200D02*
X174933333Y-80411961D01*
X174933333Y-80411961D02*
X174885714Y-80316723D01*
X174885714Y-80316723D02*
X174838095Y-80126247D01*
X174838095Y-80126247D02*
X174838095Y-79983390D01*
X174838095Y-79983390D02*
X174885714Y-79792914D01*
X174885714Y-79792914D02*
X174933333Y-79697676D01*
X174933333Y-79697676D02*
X175028571Y-79602438D01*
X175028571Y-79602438D02*
X175171428Y-79554819D01*
X175171428Y-79554819D02*
X175266666Y-79554819D01*
X175266666Y-79554819D02*
X175409523Y-79602438D01*
X175409523Y-79602438D02*
X175457142Y-79650057D01*
X176361904Y-79554819D02*
X175885714Y-79554819D01*
X175885714Y-79554819D02*
X175838095Y-80031009D01*
X175838095Y-80031009D02*
X175885714Y-79983390D01*
X175885714Y-79983390D02*
X175980952Y-79935771D01*
X175980952Y-79935771D02*
X176219047Y-79935771D01*
X176219047Y-79935771D02*
X176314285Y-79983390D01*
X176314285Y-79983390D02*
X176361904Y-80031009D01*
X176361904Y-80031009D02*
X176409523Y-80126247D01*
X176409523Y-80126247D02*
X176409523Y-80364342D01*
X176409523Y-80364342D02*
X176361904Y-80459580D01*
X176361904Y-80459580D02*
X176314285Y-80507200D01*
X176314285Y-80507200D02*
X176219047Y-80554819D01*
X176219047Y-80554819D02*
X175980952Y-80554819D01*
X175980952Y-80554819D02*
X175885714Y-80507200D01*
X175885714Y-80507200D02*
X175838095Y-80459580D01*
X177314285Y-79554819D02*
X176838095Y-79554819D01*
X176838095Y-79554819D02*
X176790476Y-80031009D01*
X176790476Y-80031009D02*
X176838095Y-79983390D01*
X176838095Y-79983390D02*
X176933333Y-79935771D01*
X176933333Y-79935771D02*
X177171428Y-79935771D01*
X177171428Y-79935771D02*
X177266666Y-79983390D01*
X177266666Y-79983390D02*
X177314285Y-80031009D01*
X177314285Y-80031009D02*
X177361904Y-80126247D01*
X177361904Y-80126247D02*
X177361904Y-80364342D01*
X177361904Y-80364342D02*
X177314285Y-80459580D01*
X177314285Y-80459580D02*
X177266666Y-80507200D01*
X177266666Y-80507200D02*
X177171428Y-80554819D01*
X177171428Y-80554819D02*
X176933333Y-80554819D01*
X176933333Y-80554819D02*
X176838095Y-80507200D01*
X176838095Y-80507200D02*
X176790476Y-80459580D01*
X149657142Y-76359580D02*
X149609523Y-76407200D01*
X149609523Y-76407200D02*
X149466666Y-76454819D01*
X149466666Y-76454819D02*
X149371428Y-76454819D01*
X149371428Y-76454819D02*
X149228571Y-76407200D01*
X149228571Y-76407200D02*
X149133333Y-76311961D01*
X149133333Y-76311961D02*
X149085714Y-76216723D01*
X149085714Y-76216723D02*
X149038095Y-76026247D01*
X149038095Y-76026247D02*
X149038095Y-75883390D01*
X149038095Y-75883390D02*
X149085714Y-75692914D01*
X149085714Y-75692914D02*
X149133333Y-75597676D01*
X149133333Y-75597676D02*
X149228571Y-75502438D01*
X149228571Y-75502438D02*
X149371428Y-75454819D01*
X149371428Y-75454819D02*
X149466666Y-75454819D01*
X149466666Y-75454819D02*
X149609523Y-75502438D01*
X149609523Y-75502438D02*
X149657142Y-75550057D01*
X150561904Y-75454819D02*
X150085714Y-75454819D01*
X150085714Y-75454819D02*
X150038095Y-75931009D01*
X150038095Y-75931009D02*
X150085714Y-75883390D01*
X150085714Y-75883390D02*
X150180952Y-75835771D01*
X150180952Y-75835771D02*
X150419047Y-75835771D01*
X150419047Y-75835771D02*
X150514285Y-75883390D01*
X150514285Y-75883390D02*
X150561904Y-75931009D01*
X150561904Y-75931009D02*
X150609523Y-76026247D01*
X150609523Y-76026247D02*
X150609523Y-76264342D01*
X150609523Y-76264342D02*
X150561904Y-76359580D01*
X150561904Y-76359580D02*
X150514285Y-76407200D01*
X150514285Y-76407200D02*
X150419047Y-76454819D01*
X150419047Y-76454819D02*
X150180952Y-76454819D01*
X150180952Y-76454819D02*
X150085714Y-76407200D01*
X150085714Y-76407200D02*
X150038095Y-76359580D01*
X151466666Y-75788152D02*
X151466666Y-76454819D01*
X151228571Y-75407200D02*
X150990476Y-76121485D01*
X150990476Y-76121485D02*
X151609523Y-76121485D01*
X135759580Y-65667857D02*
X135807200Y-65715476D01*
X135807200Y-65715476D02*
X135854819Y-65858333D01*
X135854819Y-65858333D02*
X135854819Y-65953571D01*
X135854819Y-65953571D02*
X135807200Y-66096428D01*
X135807200Y-66096428D02*
X135711961Y-66191666D01*
X135711961Y-66191666D02*
X135616723Y-66239285D01*
X135616723Y-66239285D02*
X135426247Y-66286904D01*
X135426247Y-66286904D02*
X135283390Y-66286904D01*
X135283390Y-66286904D02*
X135092914Y-66239285D01*
X135092914Y-66239285D02*
X134997676Y-66191666D01*
X134997676Y-66191666D02*
X134902438Y-66096428D01*
X134902438Y-66096428D02*
X134854819Y-65953571D01*
X134854819Y-65953571D02*
X134854819Y-65858333D01*
X134854819Y-65858333D02*
X134902438Y-65715476D01*
X134902438Y-65715476D02*
X134950057Y-65667857D01*
X134854819Y-64763095D02*
X134854819Y-65239285D01*
X134854819Y-65239285D02*
X135331009Y-65286904D01*
X135331009Y-65286904D02*
X135283390Y-65239285D01*
X135283390Y-65239285D02*
X135235771Y-65144047D01*
X135235771Y-65144047D02*
X135235771Y-64905952D01*
X135235771Y-64905952D02*
X135283390Y-64810714D01*
X135283390Y-64810714D02*
X135331009Y-64763095D01*
X135331009Y-64763095D02*
X135426247Y-64715476D01*
X135426247Y-64715476D02*
X135664342Y-64715476D01*
X135664342Y-64715476D02*
X135759580Y-64763095D01*
X135759580Y-64763095D02*
X135807200Y-64810714D01*
X135807200Y-64810714D02*
X135854819Y-64905952D01*
X135854819Y-64905952D02*
X135854819Y-65144047D01*
X135854819Y-65144047D02*
X135807200Y-65239285D01*
X135807200Y-65239285D02*
X135759580Y-65286904D01*
X134854819Y-64382142D02*
X134854819Y-63763095D01*
X134854819Y-63763095D02*
X135235771Y-64096428D01*
X135235771Y-64096428D02*
X135235771Y-63953571D01*
X135235771Y-63953571D02*
X135283390Y-63858333D01*
X135283390Y-63858333D02*
X135331009Y-63810714D01*
X135331009Y-63810714D02*
X135426247Y-63763095D01*
X135426247Y-63763095D02*
X135664342Y-63763095D01*
X135664342Y-63763095D02*
X135759580Y-63810714D01*
X135759580Y-63810714D02*
X135807200Y-63858333D01*
X135807200Y-63858333D02*
X135854819Y-63953571D01*
X135854819Y-63953571D02*
X135854819Y-64239285D01*
X135854819Y-64239285D02*
X135807200Y-64334523D01*
X135807200Y-64334523D02*
X135759580Y-64382142D01*
X140359580Y-65717857D02*
X140407200Y-65765476D01*
X140407200Y-65765476D02*
X140454819Y-65908333D01*
X140454819Y-65908333D02*
X140454819Y-66003571D01*
X140454819Y-66003571D02*
X140407200Y-66146428D01*
X140407200Y-66146428D02*
X140311961Y-66241666D01*
X140311961Y-66241666D02*
X140216723Y-66289285D01*
X140216723Y-66289285D02*
X140026247Y-66336904D01*
X140026247Y-66336904D02*
X139883390Y-66336904D01*
X139883390Y-66336904D02*
X139692914Y-66289285D01*
X139692914Y-66289285D02*
X139597676Y-66241666D01*
X139597676Y-66241666D02*
X139502438Y-66146428D01*
X139502438Y-66146428D02*
X139454819Y-66003571D01*
X139454819Y-66003571D02*
X139454819Y-65908333D01*
X139454819Y-65908333D02*
X139502438Y-65765476D01*
X139502438Y-65765476D02*
X139550057Y-65717857D01*
X139454819Y-64813095D02*
X139454819Y-65289285D01*
X139454819Y-65289285D02*
X139931009Y-65336904D01*
X139931009Y-65336904D02*
X139883390Y-65289285D01*
X139883390Y-65289285D02*
X139835771Y-65194047D01*
X139835771Y-65194047D02*
X139835771Y-64955952D01*
X139835771Y-64955952D02*
X139883390Y-64860714D01*
X139883390Y-64860714D02*
X139931009Y-64813095D01*
X139931009Y-64813095D02*
X140026247Y-64765476D01*
X140026247Y-64765476D02*
X140264342Y-64765476D01*
X140264342Y-64765476D02*
X140359580Y-64813095D01*
X140359580Y-64813095D02*
X140407200Y-64860714D01*
X140407200Y-64860714D02*
X140454819Y-64955952D01*
X140454819Y-64955952D02*
X140454819Y-65194047D01*
X140454819Y-65194047D02*
X140407200Y-65289285D01*
X140407200Y-65289285D02*
X140359580Y-65336904D01*
X139550057Y-64384523D02*
X139502438Y-64336904D01*
X139502438Y-64336904D02*
X139454819Y-64241666D01*
X139454819Y-64241666D02*
X139454819Y-64003571D01*
X139454819Y-64003571D02*
X139502438Y-63908333D01*
X139502438Y-63908333D02*
X139550057Y-63860714D01*
X139550057Y-63860714D02*
X139645295Y-63813095D01*
X139645295Y-63813095D02*
X139740533Y-63813095D01*
X139740533Y-63813095D02*
X139883390Y-63860714D01*
X139883390Y-63860714D02*
X140454819Y-64432142D01*
X140454819Y-64432142D02*
X140454819Y-63813095D01*
X182257142Y-64884580D02*
X182209523Y-64932200D01*
X182209523Y-64932200D02*
X182066666Y-64979819D01*
X182066666Y-64979819D02*
X181971428Y-64979819D01*
X181971428Y-64979819D02*
X181828571Y-64932200D01*
X181828571Y-64932200D02*
X181733333Y-64836961D01*
X181733333Y-64836961D02*
X181685714Y-64741723D01*
X181685714Y-64741723D02*
X181638095Y-64551247D01*
X181638095Y-64551247D02*
X181638095Y-64408390D01*
X181638095Y-64408390D02*
X181685714Y-64217914D01*
X181685714Y-64217914D02*
X181733333Y-64122676D01*
X181733333Y-64122676D02*
X181828571Y-64027438D01*
X181828571Y-64027438D02*
X181971428Y-63979819D01*
X181971428Y-63979819D02*
X182066666Y-63979819D01*
X182066666Y-63979819D02*
X182209523Y-64027438D01*
X182209523Y-64027438D02*
X182257142Y-64075057D01*
X183161904Y-63979819D02*
X182685714Y-63979819D01*
X182685714Y-63979819D02*
X182638095Y-64456009D01*
X182638095Y-64456009D02*
X182685714Y-64408390D01*
X182685714Y-64408390D02*
X182780952Y-64360771D01*
X182780952Y-64360771D02*
X183019047Y-64360771D01*
X183019047Y-64360771D02*
X183114285Y-64408390D01*
X183114285Y-64408390D02*
X183161904Y-64456009D01*
X183161904Y-64456009D02*
X183209523Y-64551247D01*
X183209523Y-64551247D02*
X183209523Y-64789342D01*
X183209523Y-64789342D02*
X183161904Y-64884580D01*
X183161904Y-64884580D02*
X183114285Y-64932200D01*
X183114285Y-64932200D02*
X183019047Y-64979819D01*
X183019047Y-64979819D02*
X182780952Y-64979819D01*
X182780952Y-64979819D02*
X182685714Y-64932200D01*
X182685714Y-64932200D02*
X182638095Y-64884580D01*
X184161904Y-64979819D02*
X183590476Y-64979819D01*
X183876190Y-64979819D02*
X183876190Y-63979819D01*
X183876190Y-63979819D02*
X183780952Y-64122676D01*
X183780952Y-64122676D02*
X183685714Y-64217914D01*
X183685714Y-64217914D02*
X183590476Y-64265533D01*
X203557142Y-63159580D02*
X203509523Y-63207200D01*
X203509523Y-63207200D02*
X203366666Y-63254819D01*
X203366666Y-63254819D02*
X203271428Y-63254819D01*
X203271428Y-63254819D02*
X203128571Y-63207200D01*
X203128571Y-63207200D02*
X203033333Y-63111961D01*
X203033333Y-63111961D02*
X202985714Y-63016723D01*
X202985714Y-63016723D02*
X202938095Y-62826247D01*
X202938095Y-62826247D02*
X202938095Y-62683390D01*
X202938095Y-62683390D02*
X202985714Y-62492914D01*
X202985714Y-62492914D02*
X203033333Y-62397676D01*
X203033333Y-62397676D02*
X203128571Y-62302438D01*
X203128571Y-62302438D02*
X203271428Y-62254819D01*
X203271428Y-62254819D02*
X203366666Y-62254819D01*
X203366666Y-62254819D02*
X203509523Y-62302438D01*
X203509523Y-62302438D02*
X203557142Y-62350057D01*
X204461904Y-62254819D02*
X203985714Y-62254819D01*
X203985714Y-62254819D02*
X203938095Y-62731009D01*
X203938095Y-62731009D02*
X203985714Y-62683390D01*
X203985714Y-62683390D02*
X204080952Y-62635771D01*
X204080952Y-62635771D02*
X204319047Y-62635771D01*
X204319047Y-62635771D02*
X204414285Y-62683390D01*
X204414285Y-62683390D02*
X204461904Y-62731009D01*
X204461904Y-62731009D02*
X204509523Y-62826247D01*
X204509523Y-62826247D02*
X204509523Y-63064342D01*
X204509523Y-63064342D02*
X204461904Y-63159580D01*
X204461904Y-63159580D02*
X204414285Y-63207200D01*
X204414285Y-63207200D02*
X204319047Y-63254819D01*
X204319047Y-63254819D02*
X204080952Y-63254819D01*
X204080952Y-63254819D02*
X203985714Y-63207200D01*
X203985714Y-63207200D02*
X203938095Y-63159580D01*
X205128571Y-62254819D02*
X205223809Y-62254819D01*
X205223809Y-62254819D02*
X205319047Y-62302438D01*
X205319047Y-62302438D02*
X205366666Y-62350057D01*
X205366666Y-62350057D02*
X205414285Y-62445295D01*
X205414285Y-62445295D02*
X205461904Y-62635771D01*
X205461904Y-62635771D02*
X205461904Y-62873866D01*
X205461904Y-62873866D02*
X205414285Y-63064342D01*
X205414285Y-63064342D02*
X205366666Y-63159580D01*
X205366666Y-63159580D02*
X205319047Y-63207200D01*
X205319047Y-63207200D02*
X205223809Y-63254819D01*
X205223809Y-63254819D02*
X205128571Y-63254819D01*
X205128571Y-63254819D02*
X205033333Y-63207200D01*
X205033333Y-63207200D02*
X204985714Y-63159580D01*
X204985714Y-63159580D02*
X204938095Y-63064342D01*
X204938095Y-63064342D02*
X204890476Y-62873866D01*
X204890476Y-62873866D02*
X204890476Y-62635771D01*
X204890476Y-62635771D02*
X204938095Y-62445295D01*
X204938095Y-62445295D02*
X204985714Y-62350057D01*
X204985714Y-62350057D02*
X205033333Y-62302438D01*
X205033333Y-62302438D02*
X205128571Y-62254819D01*
X122357142Y-72359580D02*
X122309523Y-72407200D01*
X122309523Y-72407200D02*
X122166666Y-72454819D01*
X122166666Y-72454819D02*
X122071428Y-72454819D01*
X122071428Y-72454819D02*
X121928571Y-72407200D01*
X121928571Y-72407200D02*
X121833333Y-72311961D01*
X121833333Y-72311961D02*
X121785714Y-72216723D01*
X121785714Y-72216723D02*
X121738095Y-72026247D01*
X121738095Y-72026247D02*
X121738095Y-71883390D01*
X121738095Y-71883390D02*
X121785714Y-71692914D01*
X121785714Y-71692914D02*
X121833333Y-71597676D01*
X121833333Y-71597676D02*
X121928571Y-71502438D01*
X121928571Y-71502438D02*
X122071428Y-71454819D01*
X122071428Y-71454819D02*
X122166666Y-71454819D01*
X122166666Y-71454819D02*
X122309523Y-71502438D01*
X122309523Y-71502438D02*
X122357142Y-71550057D01*
X123214285Y-71788152D02*
X123214285Y-72454819D01*
X122976190Y-71407200D02*
X122738095Y-72121485D01*
X122738095Y-72121485D02*
X123357142Y-72121485D01*
X123642857Y-71454819D02*
X124309523Y-71454819D01*
X124309523Y-71454819D02*
X123880952Y-72454819D01*
X146557142Y-107254819D02*
X146223809Y-106778628D01*
X145985714Y-107254819D02*
X145985714Y-106254819D01*
X145985714Y-106254819D02*
X146366666Y-106254819D01*
X146366666Y-106254819D02*
X146461904Y-106302438D01*
X146461904Y-106302438D02*
X146509523Y-106350057D01*
X146509523Y-106350057D02*
X146557142Y-106445295D01*
X146557142Y-106445295D02*
X146557142Y-106588152D01*
X146557142Y-106588152D02*
X146509523Y-106683390D01*
X146509523Y-106683390D02*
X146461904Y-106731009D01*
X146461904Y-106731009D02*
X146366666Y-106778628D01*
X146366666Y-106778628D02*
X145985714Y-106778628D01*
X146890476Y-106254819D02*
X147509523Y-106254819D01*
X147509523Y-106254819D02*
X147176190Y-106635771D01*
X147176190Y-106635771D02*
X147319047Y-106635771D01*
X147319047Y-106635771D02*
X147414285Y-106683390D01*
X147414285Y-106683390D02*
X147461904Y-106731009D01*
X147461904Y-106731009D02*
X147509523Y-106826247D01*
X147509523Y-106826247D02*
X147509523Y-107064342D01*
X147509523Y-107064342D02*
X147461904Y-107159580D01*
X147461904Y-107159580D02*
X147414285Y-107207200D01*
X147414285Y-107207200D02*
X147319047Y-107254819D01*
X147319047Y-107254819D02*
X147033333Y-107254819D01*
X147033333Y-107254819D02*
X146938095Y-107207200D01*
X146938095Y-107207200D02*
X146890476Y-107159580D01*
X147842857Y-106254819D02*
X148509523Y-106254819D01*
X148509523Y-106254819D02*
X148080952Y-107254819D01*
X151957142Y-106654819D02*
X151623809Y-106178628D01*
X151385714Y-106654819D02*
X151385714Y-105654819D01*
X151385714Y-105654819D02*
X151766666Y-105654819D01*
X151766666Y-105654819D02*
X151861904Y-105702438D01*
X151861904Y-105702438D02*
X151909523Y-105750057D01*
X151909523Y-105750057D02*
X151957142Y-105845295D01*
X151957142Y-105845295D02*
X151957142Y-105988152D01*
X151957142Y-105988152D02*
X151909523Y-106083390D01*
X151909523Y-106083390D02*
X151861904Y-106131009D01*
X151861904Y-106131009D02*
X151766666Y-106178628D01*
X151766666Y-106178628D02*
X151385714Y-106178628D01*
X152290476Y-105654819D02*
X152909523Y-105654819D01*
X152909523Y-105654819D02*
X152576190Y-106035771D01*
X152576190Y-106035771D02*
X152719047Y-106035771D01*
X152719047Y-106035771D02*
X152814285Y-106083390D01*
X152814285Y-106083390D02*
X152861904Y-106131009D01*
X152861904Y-106131009D02*
X152909523Y-106226247D01*
X152909523Y-106226247D02*
X152909523Y-106464342D01*
X152909523Y-106464342D02*
X152861904Y-106559580D01*
X152861904Y-106559580D02*
X152814285Y-106607200D01*
X152814285Y-106607200D02*
X152719047Y-106654819D01*
X152719047Y-106654819D02*
X152433333Y-106654819D01*
X152433333Y-106654819D02*
X152338095Y-106607200D01*
X152338095Y-106607200D02*
X152290476Y-106559580D01*
X153766666Y-105654819D02*
X153576190Y-105654819D01*
X153576190Y-105654819D02*
X153480952Y-105702438D01*
X153480952Y-105702438D02*
X153433333Y-105750057D01*
X153433333Y-105750057D02*
X153338095Y-105892914D01*
X153338095Y-105892914D02*
X153290476Y-106083390D01*
X153290476Y-106083390D02*
X153290476Y-106464342D01*
X153290476Y-106464342D02*
X153338095Y-106559580D01*
X153338095Y-106559580D02*
X153385714Y-106607200D01*
X153385714Y-106607200D02*
X153480952Y-106654819D01*
X153480952Y-106654819D02*
X153671428Y-106654819D01*
X153671428Y-106654819D02*
X153766666Y-106607200D01*
X153766666Y-106607200D02*
X153814285Y-106559580D01*
X153814285Y-106559580D02*
X153861904Y-106464342D01*
X153861904Y-106464342D02*
X153861904Y-106226247D01*
X153861904Y-106226247D02*
X153814285Y-106131009D01*
X153814285Y-106131009D02*
X153766666Y-106083390D01*
X153766666Y-106083390D02*
X153671428Y-106035771D01*
X153671428Y-106035771D02*
X153480952Y-106035771D01*
X153480952Y-106035771D02*
X153385714Y-106083390D01*
X153385714Y-106083390D02*
X153338095Y-106131009D01*
X153338095Y-106131009D02*
X153290476Y-106226247D01*
X135819819Y-92982977D02*
X135343628Y-93316310D01*
X135819819Y-93554405D02*
X134819819Y-93554405D01*
X134819819Y-93554405D02*
X134819819Y-93173453D01*
X134819819Y-93173453D02*
X134867438Y-93078215D01*
X134867438Y-93078215D02*
X134915057Y-93030596D01*
X134915057Y-93030596D02*
X135010295Y-92982977D01*
X135010295Y-92982977D02*
X135153152Y-92982977D01*
X135153152Y-92982977D02*
X135248390Y-93030596D01*
X135248390Y-93030596D02*
X135296009Y-93078215D01*
X135296009Y-93078215D02*
X135343628Y-93173453D01*
X135343628Y-93173453D02*
X135343628Y-93554405D01*
X134915057Y-92602024D02*
X134867438Y-92554405D01*
X134867438Y-92554405D02*
X134819819Y-92459167D01*
X134819819Y-92459167D02*
X134819819Y-92221072D01*
X134819819Y-92221072D02*
X134867438Y-92125834D01*
X134867438Y-92125834D02*
X134915057Y-92078215D01*
X134915057Y-92078215D02*
X135010295Y-92030596D01*
X135010295Y-92030596D02*
X135105533Y-92030596D01*
X135105533Y-92030596D02*
X135248390Y-92078215D01*
X135248390Y-92078215D02*
X135819819Y-92649643D01*
X135819819Y-92649643D02*
X135819819Y-92030596D01*
X134819819Y-91697262D02*
X134819819Y-91030596D01*
X134819819Y-91030596D02*
X135819819Y-91459167D01*
X136299819Y-89292977D02*
X135823628Y-89626310D01*
X136299819Y-89864405D02*
X135299819Y-89864405D01*
X135299819Y-89864405D02*
X135299819Y-89483453D01*
X135299819Y-89483453D02*
X135347438Y-89388215D01*
X135347438Y-89388215D02*
X135395057Y-89340596D01*
X135395057Y-89340596D02*
X135490295Y-89292977D01*
X135490295Y-89292977D02*
X135633152Y-89292977D01*
X135633152Y-89292977D02*
X135728390Y-89340596D01*
X135728390Y-89340596D02*
X135776009Y-89388215D01*
X135776009Y-89388215D02*
X135823628Y-89483453D01*
X135823628Y-89483453D02*
X135823628Y-89864405D01*
X135395057Y-88912024D02*
X135347438Y-88864405D01*
X135347438Y-88864405D02*
X135299819Y-88769167D01*
X135299819Y-88769167D02*
X135299819Y-88531072D01*
X135299819Y-88531072D02*
X135347438Y-88435834D01*
X135347438Y-88435834D02*
X135395057Y-88388215D01*
X135395057Y-88388215D02*
X135490295Y-88340596D01*
X135490295Y-88340596D02*
X135585533Y-88340596D01*
X135585533Y-88340596D02*
X135728390Y-88388215D01*
X135728390Y-88388215D02*
X136299819Y-88959643D01*
X136299819Y-88959643D02*
X136299819Y-88340596D01*
X135299819Y-87483453D02*
X135299819Y-87673929D01*
X135299819Y-87673929D02*
X135347438Y-87769167D01*
X135347438Y-87769167D02*
X135395057Y-87816786D01*
X135395057Y-87816786D02*
X135537914Y-87912024D01*
X135537914Y-87912024D02*
X135728390Y-87959643D01*
X135728390Y-87959643D02*
X136109342Y-87959643D01*
X136109342Y-87959643D02*
X136204580Y-87912024D01*
X136204580Y-87912024D02*
X136252200Y-87864405D01*
X136252200Y-87864405D02*
X136299819Y-87769167D01*
X136299819Y-87769167D02*
X136299819Y-87578691D01*
X136299819Y-87578691D02*
X136252200Y-87483453D01*
X136252200Y-87483453D02*
X136204580Y-87435834D01*
X136204580Y-87435834D02*
X136109342Y-87388215D01*
X136109342Y-87388215D02*
X135871247Y-87388215D01*
X135871247Y-87388215D02*
X135776009Y-87435834D01*
X135776009Y-87435834D02*
X135728390Y-87483453D01*
X135728390Y-87483453D02*
X135680771Y-87578691D01*
X135680771Y-87578691D02*
X135680771Y-87769167D01*
X135680771Y-87769167D02*
X135728390Y-87864405D01*
X135728390Y-87864405D02*
X135776009Y-87912024D01*
X135776009Y-87912024D02*
X135871247Y-87959643D01*
X169467142Y-95254819D02*
X169133809Y-94778628D01*
X168895714Y-95254819D02*
X168895714Y-94254819D01*
X168895714Y-94254819D02*
X169276666Y-94254819D01*
X169276666Y-94254819D02*
X169371904Y-94302438D01*
X169371904Y-94302438D02*
X169419523Y-94350057D01*
X169419523Y-94350057D02*
X169467142Y-94445295D01*
X169467142Y-94445295D02*
X169467142Y-94588152D01*
X169467142Y-94588152D02*
X169419523Y-94683390D01*
X169419523Y-94683390D02*
X169371904Y-94731009D01*
X169371904Y-94731009D02*
X169276666Y-94778628D01*
X169276666Y-94778628D02*
X168895714Y-94778628D01*
X169848095Y-94350057D02*
X169895714Y-94302438D01*
X169895714Y-94302438D02*
X169990952Y-94254819D01*
X169990952Y-94254819D02*
X170229047Y-94254819D01*
X170229047Y-94254819D02*
X170324285Y-94302438D01*
X170324285Y-94302438D02*
X170371904Y-94350057D01*
X170371904Y-94350057D02*
X170419523Y-94445295D01*
X170419523Y-94445295D02*
X170419523Y-94540533D01*
X170419523Y-94540533D02*
X170371904Y-94683390D01*
X170371904Y-94683390D02*
X169800476Y-95254819D01*
X169800476Y-95254819D02*
X170419523Y-95254819D01*
X170752857Y-94254819D02*
X171371904Y-94254819D01*
X171371904Y-94254819D02*
X171038571Y-94635771D01*
X171038571Y-94635771D02*
X171181428Y-94635771D01*
X171181428Y-94635771D02*
X171276666Y-94683390D01*
X171276666Y-94683390D02*
X171324285Y-94731009D01*
X171324285Y-94731009D02*
X171371904Y-94826247D01*
X171371904Y-94826247D02*
X171371904Y-95064342D01*
X171371904Y-95064342D02*
X171324285Y-95159580D01*
X171324285Y-95159580D02*
X171276666Y-95207200D01*
X171276666Y-95207200D02*
X171181428Y-95254819D01*
X171181428Y-95254819D02*
X170895714Y-95254819D01*
X170895714Y-95254819D02*
X170800476Y-95207200D01*
X170800476Y-95207200D02*
X170752857Y-95159580D01*
X169557142Y-98854819D02*
X169223809Y-98378628D01*
X168985714Y-98854819D02*
X168985714Y-97854819D01*
X168985714Y-97854819D02*
X169366666Y-97854819D01*
X169366666Y-97854819D02*
X169461904Y-97902438D01*
X169461904Y-97902438D02*
X169509523Y-97950057D01*
X169509523Y-97950057D02*
X169557142Y-98045295D01*
X169557142Y-98045295D02*
X169557142Y-98188152D01*
X169557142Y-98188152D02*
X169509523Y-98283390D01*
X169509523Y-98283390D02*
X169461904Y-98331009D01*
X169461904Y-98331009D02*
X169366666Y-98378628D01*
X169366666Y-98378628D02*
X168985714Y-98378628D01*
X169938095Y-97950057D02*
X169985714Y-97902438D01*
X169985714Y-97902438D02*
X170080952Y-97854819D01*
X170080952Y-97854819D02*
X170319047Y-97854819D01*
X170319047Y-97854819D02*
X170414285Y-97902438D01*
X170414285Y-97902438D02*
X170461904Y-97950057D01*
X170461904Y-97950057D02*
X170509523Y-98045295D01*
X170509523Y-98045295D02*
X170509523Y-98140533D01*
X170509523Y-98140533D02*
X170461904Y-98283390D01*
X170461904Y-98283390D02*
X169890476Y-98854819D01*
X169890476Y-98854819D02*
X170509523Y-98854819D01*
X170890476Y-97950057D02*
X170938095Y-97902438D01*
X170938095Y-97902438D02*
X171033333Y-97854819D01*
X171033333Y-97854819D02*
X171271428Y-97854819D01*
X171271428Y-97854819D02*
X171366666Y-97902438D01*
X171366666Y-97902438D02*
X171414285Y-97950057D01*
X171414285Y-97950057D02*
X171461904Y-98045295D01*
X171461904Y-98045295D02*
X171461904Y-98140533D01*
X171461904Y-98140533D02*
X171414285Y-98283390D01*
X171414285Y-98283390D02*
X170842857Y-98854819D01*
X170842857Y-98854819D02*
X171461904Y-98854819D01*
X169467142Y-96454819D02*
X169133809Y-95978628D01*
X168895714Y-96454819D02*
X168895714Y-95454819D01*
X168895714Y-95454819D02*
X169276666Y-95454819D01*
X169276666Y-95454819D02*
X169371904Y-95502438D01*
X169371904Y-95502438D02*
X169419523Y-95550057D01*
X169419523Y-95550057D02*
X169467142Y-95645295D01*
X169467142Y-95645295D02*
X169467142Y-95788152D01*
X169467142Y-95788152D02*
X169419523Y-95883390D01*
X169419523Y-95883390D02*
X169371904Y-95931009D01*
X169371904Y-95931009D02*
X169276666Y-95978628D01*
X169276666Y-95978628D02*
X168895714Y-95978628D01*
X169848095Y-95550057D02*
X169895714Y-95502438D01*
X169895714Y-95502438D02*
X169990952Y-95454819D01*
X169990952Y-95454819D02*
X170229047Y-95454819D01*
X170229047Y-95454819D02*
X170324285Y-95502438D01*
X170324285Y-95502438D02*
X170371904Y-95550057D01*
X170371904Y-95550057D02*
X170419523Y-95645295D01*
X170419523Y-95645295D02*
X170419523Y-95740533D01*
X170419523Y-95740533D02*
X170371904Y-95883390D01*
X170371904Y-95883390D02*
X169800476Y-96454819D01*
X169800476Y-96454819D02*
X170419523Y-96454819D01*
X171371904Y-96454819D02*
X170800476Y-96454819D01*
X171086190Y-96454819D02*
X171086190Y-95454819D01*
X171086190Y-95454819D02*
X170990952Y-95597676D01*
X170990952Y-95597676D02*
X170895714Y-95692914D01*
X170895714Y-95692914D02*
X170800476Y-95740533D01*
X169467142Y-97654819D02*
X169133809Y-97178628D01*
X168895714Y-97654819D02*
X168895714Y-96654819D01*
X168895714Y-96654819D02*
X169276666Y-96654819D01*
X169276666Y-96654819D02*
X169371904Y-96702438D01*
X169371904Y-96702438D02*
X169419523Y-96750057D01*
X169419523Y-96750057D02*
X169467142Y-96845295D01*
X169467142Y-96845295D02*
X169467142Y-96988152D01*
X169467142Y-96988152D02*
X169419523Y-97083390D01*
X169419523Y-97083390D02*
X169371904Y-97131009D01*
X169371904Y-97131009D02*
X169276666Y-97178628D01*
X169276666Y-97178628D02*
X168895714Y-97178628D01*
X169848095Y-96750057D02*
X169895714Y-96702438D01*
X169895714Y-96702438D02*
X169990952Y-96654819D01*
X169990952Y-96654819D02*
X170229047Y-96654819D01*
X170229047Y-96654819D02*
X170324285Y-96702438D01*
X170324285Y-96702438D02*
X170371904Y-96750057D01*
X170371904Y-96750057D02*
X170419523Y-96845295D01*
X170419523Y-96845295D02*
X170419523Y-96940533D01*
X170419523Y-96940533D02*
X170371904Y-97083390D01*
X170371904Y-97083390D02*
X169800476Y-97654819D01*
X169800476Y-97654819D02*
X170419523Y-97654819D01*
X171038571Y-96654819D02*
X171133809Y-96654819D01*
X171133809Y-96654819D02*
X171229047Y-96702438D01*
X171229047Y-96702438D02*
X171276666Y-96750057D01*
X171276666Y-96750057D02*
X171324285Y-96845295D01*
X171324285Y-96845295D02*
X171371904Y-97035771D01*
X171371904Y-97035771D02*
X171371904Y-97273866D01*
X171371904Y-97273866D02*
X171324285Y-97464342D01*
X171324285Y-97464342D02*
X171276666Y-97559580D01*
X171276666Y-97559580D02*
X171229047Y-97607200D01*
X171229047Y-97607200D02*
X171133809Y-97654819D01*
X171133809Y-97654819D02*
X171038571Y-97654819D01*
X171038571Y-97654819D02*
X170943333Y-97607200D01*
X170943333Y-97607200D02*
X170895714Y-97559580D01*
X170895714Y-97559580D02*
X170848095Y-97464342D01*
X170848095Y-97464342D02*
X170800476Y-97273866D01*
X170800476Y-97273866D02*
X170800476Y-97035771D01*
X170800476Y-97035771D02*
X170848095Y-96845295D01*
X170848095Y-96845295D02*
X170895714Y-96750057D01*
X170895714Y-96750057D02*
X170943333Y-96702438D01*
X170943333Y-96702438D02*
X171038571Y-96654819D01*
X160684819Y-101952857D02*
X160208628Y-102286190D01*
X160684819Y-102524285D02*
X159684819Y-102524285D01*
X159684819Y-102524285D02*
X159684819Y-102143333D01*
X159684819Y-102143333D02*
X159732438Y-102048095D01*
X159732438Y-102048095D02*
X159780057Y-102000476D01*
X159780057Y-102000476D02*
X159875295Y-101952857D01*
X159875295Y-101952857D02*
X160018152Y-101952857D01*
X160018152Y-101952857D02*
X160113390Y-102000476D01*
X160113390Y-102000476D02*
X160161009Y-102048095D01*
X160161009Y-102048095D02*
X160208628Y-102143333D01*
X160208628Y-102143333D02*
X160208628Y-102524285D01*
X160684819Y-101000476D02*
X160684819Y-101571904D01*
X160684819Y-101286190D02*
X159684819Y-101286190D01*
X159684819Y-101286190D02*
X159827676Y-101381428D01*
X159827676Y-101381428D02*
X159922914Y-101476666D01*
X159922914Y-101476666D02*
X159970533Y-101571904D01*
X160684819Y-100524285D02*
X160684819Y-100333809D01*
X160684819Y-100333809D02*
X160637200Y-100238571D01*
X160637200Y-100238571D02*
X160589580Y-100190952D01*
X160589580Y-100190952D02*
X160446723Y-100095714D01*
X160446723Y-100095714D02*
X160256247Y-100048095D01*
X160256247Y-100048095D02*
X159875295Y-100048095D01*
X159875295Y-100048095D02*
X159780057Y-100095714D01*
X159780057Y-100095714D02*
X159732438Y-100143333D01*
X159732438Y-100143333D02*
X159684819Y-100238571D01*
X159684819Y-100238571D02*
X159684819Y-100429047D01*
X159684819Y-100429047D02*
X159732438Y-100524285D01*
X159732438Y-100524285D02*
X159780057Y-100571904D01*
X159780057Y-100571904D02*
X159875295Y-100619523D01*
X159875295Y-100619523D02*
X160113390Y-100619523D01*
X160113390Y-100619523D02*
X160208628Y-100571904D01*
X160208628Y-100571904D02*
X160256247Y-100524285D01*
X160256247Y-100524285D02*
X160303866Y-100429047D01*
X160303866Y-100429047D02*
X160303866Y-100238571D01*
X160303866Y-100238571D02*
X160256247Y-100143333D01*
X160256247Y-100143333D02*
X160208628Y-100095714D01*
X160208628Y-100095714D02*
X160113390Y-100048095D01*
X199157142Y-97254819D02*
X198823809Y-96778628D01*
X198585714Y-97254819D02*
X198585714Y-96254819D01*
X198585714Y-96254819D02*
X198966666Y-96254819D01*
X198966666Y-96254819D02*
X199061904Y-96302438D01*
X199061904Y-96302438D02*
X199109523Y-96350057D01*
X199109523Y-96350057D02*
X199157142Y-96445295D01*
X199157142Y-96445295D02*
X199157142Y-96588152D01*
X199157142Y-96588152D02*
X199109523Y-96683390D01*
X199109523Y-96683390D02*
X199061904Y-96731009D01*
X199061904Y-96731009D02*
X198966666Y-96778628D01*
X198966666Y-96778628D02*
X198585714Y-96778628D01*
X200109523Y-97254819D02*
X199538095Y-97254819D01*
X199823809Y-97254819D02*
X199823809Y-96254819D01*
X199823809Y-96254819D02*
X199728571Y-96397676D01*
X199728571Y-96397676D02*
X199633333Y-96492914D01*
X199633333Y-96492914D02*
X199538095Y-96540533D01*
X200966666Y-96254819D02*
X200776190Y-96254819D01*
X200776190Y-96254819D02*
X200680952Y-96302438D01*
X200680952Y-96302438D02*
X200633333Y-96350057D01*
X200633333Y-96350057D02*
X200538095Y-96492914D01*
X200538095Y-96492914D02*
X200490476Y-96683390D01*
X200490476Y-96683390D02*
X200490476Y-97064342D01*
X200490476Y-97064342D02*
X200538095Y-97159580D01*
X200538095Y-97159580D02*
X200585714Y-97207200D01*
X200585714Y-97207200D02*
X200680952Y-97254819D01*
X200680952Y-97254819D02*
X200871428Y-97254819D01*
X200871428Y-97254819D02*
X200966666Y-97207200D01*
X200966666Y-97207200D02*
X201014285Y-97159580D01*
X201014285Y-97159580D02*
X201061904Y-97064342D01*
X201061904Y-97064342D02*
X201061904Y-96826247D01*
X201061904Y-96826247D02*
X201014285Y-96731009D01*
X201014285Y-96731009D02*
X200966666Y-96683390D01*
X200966666Y-96683390D02*
X200871428Y-96635771D01*
X200871428Y-96635771D02*
X200680952Y-96635771D01*
X200680952Y-96635771D02*
X200585714Y-96683390D01*
X200585714Y-96683390D02*
X200538095Y-96731009D01*
X200538095Y-96731009D02*
X200490476Y-96826247D01*
X199357142Y-100854819D02*
X199023809Y-100378628D01*
X198785714Y-100854819D02*
X198785714Y-99854819D01*
X198785714Y-99854819D02*
X199166666Y-99854819D01*
X199166666Y-99854819D02*
X199261904Y-99902438D01*
X199261904Y-99902438D02*
X199309523Y-99950057D01*
X199309523Y-99950057D02*
X199357142Y-100045295D01*
X199357142Y-100045295D02*
X199357142Y-100188152D01*
X199357142Y-100188152D02*
X199309523Y-100283390D01*
X199309523Y-100283390D02*
X199261904Y-100331009D01*
X199261904Y-100331009D02*
X199166666Y-100378628D01*
X199166666Y-100378628D02*
X198785714Y-100378628D01*
X200309523Y-100854819D02*
X199738095Y-100854819D01*
X200023809Y-100854819D02*
X200023809Y-99854819D01*
X200023809Y-99854819D02*
X199928571Y-99997676D01*
X199928571Y-99997676D02*
X199833333Y-100092914D01*
X199833333Y-100092914D02*
X199738095Y-100140533D01*
X201214285Y-99854819D02*
X200738095Y-99854819D01*
X200738095Y-99854819D02*
X200690476Y-100331009D01*
X200690476Y-100331009D02*
X200738095Y-100283390D01*
X200738095Y-100283390D02*
X200833333Y-100235771D01*
X200833333Y-100235771D02*
X201071428Y-100235771D01*
X201071428Y-100235771D02*
X201166666Y-100283390D01*
X201166666Y-100283390D02*
X201214285Y-100331009D01*
X201214285Y-100331009D02*
X201261904Y-100426247D01*
X201261904Y-100426247D02*
X201261904Y-100664342D01*
X201261904Y-100664342D02*
X201214285Y-100759580D01*
X201214285Y-100759580D02*
X201166666Y-100807200D01*
X201166666Y-100807200D02*
X201071428Y-100854819D01*
X201071428Y-100854819D02*
X200833333Y-100854819D01*
X200833333Y-100854819D02*
X200738095Y-100807200D01*
X200738095Y-100807200D02*
X200690476Y-100759580D01*
X203359819Y-96922857D02*
X202883628Y-97256190D01*
X203359819Y-97494285D02*
X202359819Y-97494285D01*
X202359819Y-97494285D02*
X202359819Y-97113333D01*
X202359819Y-97113333D02*
X202407438Y-97018095D01*
X202407438Y-97018095D02*
X202455057Y-96970476D01*
X202455057Y-96970476D02*
X202550295Y-96922857D01*
X202550295Y-96922857D02*
X202693152Y-96922857D01*
X202693152Y-96922857D02*
X202788390Y-96970476D01*
X202788390Y-96970476D02*
X202836009Y-97018095D01*
X202836009Y-97018095D02*
X202883628Y-97113333D01*
X202883628Y-97113333D02*
X202883628Y-97494285D01*
X203359819Y-95970476D02*
X203359819Y-96541904D01*
X203359819Y-96256190D02*
X202359819Y-96256190D01*
X202359819Y-96256190D02*
X202502676Y-96351428D01*
X202502676Y-96351428D02*
X202597914Y-96446666D01*
X202597914Y-96446666D02*
X202645533Y-96541904D01*
X202693152Y-95113333D02*
X203359819Y-95113333D01*
X202312200Y-95351428D02*
X203026485Y-95589523D01*
X203026485Y-95589523D02*
X203026485Y-94970476D01*
X203329819Y-101922857D02*
X202853628Y-102256190D01*
X203329819Y-102494285D02*
X202329819Y-102494285D01*
X202329819Y-102494285D02*
X202329819Y-102113333D01*
X202329819Y-102113333D02*
X202377438Y-102018095D01*
X202377438Y-102018095D02*
X202425057Y-101970476D01*
X202425057Y-101970476D02*
X202520295Y-101922857D01*
X202520295Y-101922857D02*
X202663152Y-101922857D01*
X202663152Y-101922857D02*
X202758390Y-101970476D01*
X202758390Y-101970476D02*
X202806009Y-102018095D01*
X202806009Y-102018095D02*
X202853628Y-102113333D01*
X202853628Y-102113333D02*
X202853628Y-102494285D01*
X203329819Y-100970476D02*
X203329819Y-101541904D01*
X203329819Y-101256190D02*
X202329819Y-101256190D01*
X202329819Y-101256190D02*
X202472676Y-101351428D01*
X202472676Y-101351428D02*
X202567914Y-101446666D01*
X202567914Y-101446666D02*
X202615533Y-101541904D01*
X202329819Y-100637142D02*
X202329819Y-100018095D01*
X202329819Y-100018095D02*
X202710771Y-100351428D01*
X202710771Y-100351428D02*
X202710771Y-100208571D01*
X202710771Y-100208571D02*
X202758390Y-100113333D01*
X202758390Y-100113333D02*
X202806009Y-100065714D01*
X202806009Y-100065714D02*
X202901247Y-100018095D01*
X202901247Y-100018095D02*
X203139342Y-100018095D01*
X203139342Y-100018095D02*
X203234580Y-100065714D01*
X203234580Y-100065714D02*
X203282200Y-100113333D01*
X203282200Y-100113333D02*
X203329819Y-100208571D01*
X203329819Y-100208571D02*
X203329819Y-100494285D01*
X203329819Y-100494285D02*
X203282200Y-100589523D01*
X203282200Y-100589523D02*
X203234580Y-100637142D01*
X143433333Y-102104819D02*
X143100000Y-101628628D01*
X142861905Y-102104819D02*
X142861905Y-101104819D01*
X142861905Y-101104819D02*
X143242857Y-101104819D01*
X143242857Y-101104819D02*
X143338095Y-101152438D01*
X143338095Y-101152438D02*
X143385714Y-101200057D01*
X143385714Y-101200057D02*
X143433333Y-101295295D01*
X143433333Y-101295295D02*
X143433333Y-101438152D01*
X143433333Y-101438152D02*
X143385714Y-101533390D01*
X143385714Y-101533390D02*
X143338095Y-101581009D01*
X143338095Y-101581009D02*
X143242857Y-101628628D01*
X143242857Y-101628628D02*
X142861905Y-101628628D01*
X144338095Y-101104819D02*
X143861905Y-101104819D01*
X143861905Y-101104819D02*
X143814286Y-101581009D01*
X143814286Y-101581009D02*
X143861905Y-101533390D01*
X143861905Y-101533390D02*
X143957143Y-101485771D01*
X143957143Y-101485771D02*
X144195238Y-101485771D01*
X144195238Y-101485771D02*
X144290476Y-101533390D01*
X144290476Y-101533390D02*
X144338095Y-101581009D01*
X144338095Y-101581009D02*
X144385714Y-101676247D01*
X144385714Y-101676247D02*
X144385714Y-101914342D01*
X144385714Y-101914342D02*
X144338095Y-102009580D01*
X144338095Y-102009580D02*
X144290476Y-102057200D01*
X144290476Y-102057200D02*
X144195238Y-102104819D01*
X144195238Y-102104819D02*
X143957143Y-102104819D01*
X143957143Y-102104819D02*
X143861905Y-102057200D01*
X143861905Y-102057200D02*
X143814286Y-102009580D01*
X147233333Y-102104819D02*
X146900000Y-101628628D01*
X146661905Y-102104819D02*
X146661905Y-101104819D01*
X146661905Y-101104819D02*
X147042857Y-101104819D01*
X147042857Y-101104819D02*
X147138095Y-101152438D01*
X147138095Y-101152438D02*
X147185714Y-101200057D01*
X147185714Y-101200057D02*
X147233333Y-101295295D01*
X147233333Y-101295295D02*
X147233333Y-101438152D01*
X147233333Y-101438152D02*
X147185714Y-101533390D01*
X147185714Y-101533390D02*
X147138095Y-101581009D01*
X147138095Y-101581009D02*
X147042857Y-101628628D01*
X147042857Y-101628628D02*
X146661905Y-101628628D01*
X148090476Y-101438152D02*
X148090476Y-102104819D01*
X147852381Y-101057200D02*
X147614286Y-101771485D01*
X147614286Y-101771485D02*
X148233333Y-101771485D01*
X174837142Y-99119580D02*
X174789523Y-99167200D01*
X174789523Y-99167200D02*
X174646666Y-99214819D01*
X174646666Y-99214819D02*
X174551428Y-99214819D01*
X174551428Y-99214819D02*
X174408571Y-99167200D01*
X174408571Y-99167200D02*
X174313333Y-99071961D01*
X174313333Y-99071961D02*
X174265714Y-98976723D01*
X174265714Y-98976723D02*
X174218095Y-98786247D01*
X174218095Y-98786247D02*
X174218095Y-98643390D01*
X174218095Y-98643390D02*
X174265714Y-98452914D01*
X174265714Y-98452914D02*
X174313333Y-98357676D01*
X174313333Y-98357676D02*
X174408571Y-98262438D01*
X174408571Y-98262438D02*
X174551428Y-98214819D01*
X174551428Y-98214819D02*
X174646666Y-98214819D01*
X174646666Y-98214819D02*
X174789523Y-98262438D01*
X174789523Y-98262438D02*
X174837142Y-98310057D01*
X175694285Y-98548152D02*
X175694285Y-99214819D01*
X175456190Y-98167200D02*
X175218095Y-98881485D01*
X175218095Y-98881485D02*
X175837142Y-98881485D01*
X176122857Y-98214819D02*
X176741904Y-98214819D01*
X176741904Y-98214819D02*
X176408571Y-98595771D01*
X176408571Y-98595771D02*
X176551428Y-98595771D01*
X176551428Y-98595771D02*
X176646666Y-98643390D01*
X176646666Y-98643390D02*
X176694285Y-98691009D01*
X176694285Y-98691009D02*
X176741904Y-98786247D01*
X176741904Y-98786247D02*
X176741904Y-99024342D01*
X176741904Y-99024342D02*
X176694285Y-99119580D01*
X176694285Y-99119580D02*
X176646666Y-99167200D01*
X176646666Y-99167200D02*
X176551428Y-99214819D01*
X176551428Y-99214819D02*
X176265714Y-99214819D01*
X176265714Y-99214819D02*
X176170476Y-99167200D01*
X176170476Y-99167200D02*
X176122857Y-99119580D01*
X178837142Y-101119580D02*
X178789523Y-101167200D01*
X178789523Y-101167200D02*
X178646666Y-101214819D01*
X178646666Y-101214819D02*
X178551428Y-101214819D01*
X178551428Y-101214819D02*
X178408571Y-101167200D01*
X178408571Y-101167200D02*
X178313333Y-101071961D01*
X178313333Y-101071961D02*
X178265714Y-100976723D01*
X178265714Y-100976723D02*
X178218095Y-100786247D01*
X178218095Y-100786247D02*
X178218095Y-100643390D01*
X178218095Y-100643390D02*
X178265714Y-100452914D01*
X178265714Y-100452914D02*
X178313333Y-100357676D01*
X178313333Y-100357676D02*
X178408571Y-100262438D01*
X178408571Y-100262438D02*
X178551428Y-100214819D01*
X178551428Y-100214819D02*
X178646666Y-100214819D01*
X178646666Y-100214819D02*
X178789523Y-100262438D01*
X178789523Y-100262438D02*
X178837142Y-100310057D01*
X179694285Y-100548152D02*
X179694285Y-101214819D01*
X179456190Y-100167200D02*
X179218095Y-100881485D01*
X179218095Y-100881485D02*
X179837142Y-100881485D01*
X180170476Y-100310057D02*
X180218095Y-100262438D01*
X180218095Y-100262438D02*
X180313333Y-100214819D01*
X180313333Y-100214819D02*
X180551428Y-100214819D01*
X180551428Y-100214819D02*
X180646666Y-100262438D01*
X180646666Y-100262438D02*
X180694285Y-100310057D01*
X180694285Y-100310057D02*
X180741904Y-100405295D01*
X180741904Y-100405295D02*
X180741904Y-100500533D01*
X180741904Y-100500533D02*
X180694285Y-100643390D01*
X180694285Y-100643390D02*
X180122857Y-101214819D01*
X180122857Y-101214819D02*
X180741904Y-101214819D01*
X177157142Y-94759580D02*
X177109523Y-94807200D01*
X177109523Y-94807200D02*
X176966666Y-94854819D01*
X176966666Y-94854819D02*
X176871428Y-94854819D01*
X176871428Y-94854819D02*
X176728571Y-94807200D01*
X176728571Y-94807200D02*
X176633333Y-94711961D01*
X176633333Y-94711961D02*
X176585714Y-94616723D01*
X176585714Y-94616723D02*
X176538095Y-94426247D01*
X176538095Y-94426247D02*
X176538095Y-94283390D01*
X176538095Y-94283390D02*
X176585714Y-94092914D01*
X176585714Y-94092914D02*
X176633333Y-93997676D01*
X176633333Y-93997676D02*
X176728571Y-93902438D01*
X176728571Y-93902438D02*
X176871428Y-93854819D01*
X176871428Y-93854819D02*
X176966666Y-93854819D01*
X176966666Y-93854819D02*
X177109523Y-93902438D01*
X177109523Y-93902438D02*
X177157142Y-93950057D01*
X178014285Y-94188152D02*
X178014285Y-94854819D01*
X177776190Y-93807200D02*
X177538095Y-94521485D01*
X177538095Y-94521485D02*
X178157142Y-94521485D01*
X179061904Y-94854819D02*
X178490476Y-94854819D01*
X178776190Y-94854819D02*
X178776190Y-93854819D01*
X178776190Y-93854819D02*
X178680952Y-93997676D01*
X178680952Y-93997676D02*
X178585714Y-94092914D01*
X178585714Y-94092914D02*
X178490476Y-94140533D01*
X177357142Y-99019580D02*
X177309523Y-99067200D01*
X177309523Y-99067200D02*
X177166666Y-99114819D01*
X177166666Y-99114819D02*
X177071428Y-99114819D01*
X177071428Y-99114819D02*
X176928571Y-99067200D01*
X176928571Y-99067200D02*
X176833333Y-98971961D01*
X176833333Y-98971961D02*
X176785714Y-98876723D01*
X176785714Y-98876723D02*
X176738095Y-98686247D01*
X176738095Y-98686247D02*
X176738095Y-98543390D01*
X176738095Y-98543390D02*
X176785714Y-98352914D01*
X176785714Y-98352914D02*
X176833333Y-98257676D01*
X176833333Y-98257676D02*
X176928571Y-98162438D01*
X176928571Y-98162438D02*
X177071428Y-98114819D01*
X177071428Y-98114819D02*
X177166666Y-98114819D01*
X177166666Y-98114819D02*
X177309523Y-98162438D01*
X177309523Y-98162438D02*
X177357142Y-98210057D01*
X178214285Y-98448152D02*
X178214285Y-99114819D01*
X177976190Y-98067200D02*
X177738095Y-98781485D01*
X177738095Y-98781485D02*
X178357142Y-98781485D01*
X178928571Y-98114819D02*
X179023809Y-98114819D01*
X179023809Y-98114819D02*
X179119047Y-98162438D01*
X179119047Y-98162438D02*
X179166666Y-98210057D01*
X179166666Y-98210057D02*
X179214285Y-98305295D01*
X179214285Y-98305295D02*
X179261904Y-98495771D01*
X179261904Y-98495771D02*
X179261904Y-98733866D01*
X179261904Y-98733866D02*
X179214285Y-98924342D01*
X179214285Y-98924342D02*
X179166666Y-99019580D01*
X179166666Y-99019580D02*
X179119047Y-99067200D01*
X179119047Y-99067200D02*
X179023809Y-99114819D01*
X179023809Y-99114819D02*
X178928571Y-99114819D01*
X178928571Y-99114819D02*
X178833333Y-99067200D01*
X178833333Y-99067200D02*
X178785714Y-99019580D01*
X178785714Y-99019580D02*
X178738095Y-98924342D01*
X178738095Y-98924342D02*
X178690476Y-98733866D01*
X178690476Y-98733866D02*
X178690476Y-98495771D01*
X178690476Y-98495771D02*
X178738095Y-98305295D01*
X178738095Y-98305295D02*
X178785714Y-98210057D01*
X178785714Y-98210057D02*
X178833333Y-98162438D01*
X178833333Y-98162438D02*
X178928571Y-98114819D01*
X183757142Y-96359580D02*
X183709523Y-96407200D01*
X183709523Y-96407200D02*
X183566666Y-96454819D01*
X183566666Y-96454819D02*
X183471428Y-96454819D01*
X183471428Y-96454819D02*
X183328571Y-96407200D01*
X183328571Y-96407200D02*
X183233333Y-96311961D01*
X183233333Y-96311961D02*
X183185714Y-96216723D01*
X183185714Y-96216723D02*
X183138095Y-96026247D01*
X183138095Y-96026247D02*
X183138095Y-95883390D01*
X183138095Y-95883390D02*
X183185714Y-95692914D01*
X183185714Y-95692914D02*
X183233333Y-95597676D01*
X183233333Y-95597676D02*
X183328571Y-95502438D01*
X183328571Y-95502438D02*
X183471428Y-95454819D01*
X183471428Y-95454819D02*
X183566666Y-95454819D01*
X183566666Y-95454819D02*
X183709523Y-95502438D01*
X183709523Y-95502438D02*
X183757142Y-95550057D01*
X184090476Y-95454819D02*
X184709523Y-95454819D01*
X184709523Y-95454819D02*
X184376190Y-95835771D01*
X184376190Y-95835771D02*
X184519047Y-95835771D01*
X184519047Y-95835771D02*
X184614285Y-95883390D01*
X184614285Y-95883390D02*
X184661904Y-95931009D01*
X184661904Y-95931009D02*
X184709523Y-96026247D01*
X184709523Y-96026247D02*
X184709523Y-96264342D01*
X184709523Y-96264342D02*
X184661904Y-96359580D01*
X184661904Y-96359580D02*
X184614285Y-96407200D01*
X184614285Y-96407200D02*
X184519047Y-96454819D01*
X184519047Y-96454819D02*
X184233333Y-96454819D01*
X184233333Y-96454819D02*
X184138095Y-96407200D01*
X184138095Y-96407200D02*
X184090476Y-96359580D01*
X185280952Y-95883390D02*
X185185714Y-95835771D01*
X185185714Y-95835771D02*
X185138095Y-95788152D01*
X185138095Y-95788152D02*
X185090476Y-95692914D01*
X185090476Y-95692914D02*
X185090476Y-95645295D01*
X185090476Y-95645295D02*
X185138095Y-95550057D01*
X185138095Y-95550057D02*
X185185714Y-95502438D01*
X185185714Y-95502438D02*
X185280952Y-95454819D01*
X185280952Y-95454819D02*
X185471428Y-95454819D01*
X185471428Y-95454819D02*
X185566666Y-95502438D01*
X185566666Y-95502438D02*
X185614285Y-95550057D01*
X185614285Y-95550057D02*
X185661904Y-95645295D01*
X185661904Y-95645295D02*
X185661904Y-95692914D01*
X185661904Y-95692914D02*
X185614285Y-95788152D01*
X185614285Y-95788152D02*
X185566666Y-95835771D01*
X185566666Y-95835771D02*
X185471428Y-95883390D01*
X185471428Y-95883390D02*
X185280952Y-95883390D01*
X185280952Y-95883390D02*
X185185714Y-95931009D01*
X185185714Y-95931009D02*
X185138095Y-95978628D01*
X185138095Y-95978628D02*
X185090476Y-96073866D01*
X185090476Y-96073866D02*
X185090476Y-96264342D01*
X185090476Y-96264342D02*
X185138095Y-96359580D01*
X185138095Y-96359580D02*
X185185714Y-96407200D01*
X185185714Y-96407200D02*
X185280952Y-96454819D01*
X185280952Y-96454819D02*
X185471428Y-96454819D01*
X185471428Y-96454819D02*
X185566666Y-96407200D01*
X185566666Y-96407200D02*
X185614285Y-96359580D01*
X185614285Y-96359580D02*
X185661904Y-96264342D01*
X185661904Y-96264342D02*
X185661904Y-96073866D01*
X185661904Y-96073866D02*
X185614285Y-95978628D01*
X185614285Y-95978628D02*
X185566666Y-95931009D01*
X185566666Y-95931009D02*
X185471428Y-95883390D01*
X188559580Y-93242857D02*
X188607200Y-93290476D01*
X188607200Y-93290476D02*
X188654819Y-93433333D01*
X188654819Y-93433333D02*
X188654819Y-93528571D01*
X188654819Y-93528571D02*
X188607200Y-93671428D01*
X188607200Y-93671428D02*
X188511961Y-93766666D01*
X188511961Y-93766666D02*
X188416723Y-93814285D01*
X188416723Y-93814285D02*
X188226247Y-93861904D01*
X188226247Y-93861904D02*
X188083390Y-93861904D01*
X188083390Y-93861904D02*
X187892914Y-93814285D01*
X187892914Y-93814285D02*
X187797676Y-93766666D01*
X187797676Y-93766666D02*
X187702438Y-93671428D01*
X187702438Y-93671428D02*
X187654819Y-93528571D01*
X187654819Y-93528571D02*
X187654819Y-93433333D01*
X187654819Y-93433333D02*
X187702438Y-93290476D01*
X187702438Y-93290476D02*
X187750057Y-93242857D01*
X187654819Y-92909523D02*
X187654819Y-92290476D01*
X187654819Y-92290476D02*
X188035771Y-92623809D01*
X188035771Y-92623809D02*
X188035771Y-92480952D01*
X188035771Y-92480952D02*
X188083390Y-92385714D01*
X188083390Y-92385714D02*
X188131009Y-92338095D01*
X188131009Y-92338095D02*
X188226247Y-92290476D01*
X188226247Y-92290476D02*
X188464342Y-92290476D01*
X188464342Y-92290476D02*
X188559580Y-92338095D01*
X188559580Y-92338095D02*
X188607200Y-92385714D01*
X188607200Y-92385714D02*
X188654819Y-92480952D01*
X188654819Y-92480952D02*
X188654819Y-92766666D01*
X188654819Y-92766666D02*
X188607200Y-92861904D01*
X188607200Y-92861904D02*
X188559580Y-92909523D01*
X187654819Y-91957142D02*
X187654819Y-91290476D01*
X187654819Y-91290476D02*
X188654819Y-91719047D01*
X179999580Y-95442857D02*
X180047200Y-95490476D01*
X180047200Y-95490476D02*
X180094819Y-95633333D01*
X180094819Y-95633333D02*
X180094819Y-95728571D01*
X180094819Y-95728571D02*
X180047200Y-95871428D01*
X180047200Y-95871428D02*
X179951961Y-95966666D01*
X179951961Y-95966666D02*
X179856723Y-96014285D01*
X179856723Y-96014285D02*
X179666247Y-96061904D01*
X179666247Y-96061904D02*
X179523390Y-96061904D01*
X179523390Y-96061904D02*
X179332914Y-96014285D01*
X179332914Y-96014285D02*
X179237676Y-95966666D01*
X179237676Y-95966666D02*
X179142438Y-95871428D01*
X179142438Y-95871428D02*
X179094819Y-95728571D01*
X179094819Y-95728571D02*
X179094819Y-95633333D01*
X179094819Y-95633333D02*
X179142438Y-95490476D01*
X179142438Y-95490476D02*
X179190057Y-95442857D01*
X179094819Y-95109523D02*
X179094819Y-94490476D01*
X179094819Y-94490476D02*
X179475771Y-94823809D01*
X179475771Y-94823809D02*
X179475771Y-94680952D01*
X179475771Y-94680952D02*
X179523390Y-94585714D01*
X179523390Y-94585714D02*
X179571009Y-94538095D01*
X179571009Y-94538095D02*
X179666247Y-94490476D01*
X179666247Y-94490476D02*
X179904342Y-94490476D01*
X179904342Y-94490476D02*
X179999580Y-94538095D01*
X179999580Y-94538095D02*
X180047200Y-94585714D01*
X180047200Y-94585714D02*
X180094819Y-94680952D01*
X180094819Y-94680952D02*
X180094819Y-94966666D01*
X180094819Y-94966666D02*
X180047200Y-95061904D01*
X180047200Y-95061904D02*
X179999580Y-95109523D01*
X179094819Y-93585714D02*
X179094819Y-94061904D01*
X179094819Y-94061904D02*
X179571009Y-94109523D01*
X179571009Y-94109523D02*
X179523390Y-94061904D01*
X179523390Y-94061904D02*
X179475771Y-93966666D01*
X179475771Y-93966666D02*
X179475771Y-93728571D01*
X179475771Y-93728571D02*
X179523390Y-93633333D01*
X179523390Y-93633333D02*
X179571009Y-93585714D01*
X179571009Y-93585714D02*
X179666247Y-93538095D01*
X179666247Y-93538095D02*
X179904342Y-93538095D01*
X179904342Y-93538095D02*
X179999580Y-93585714D01*
X179999580Y-93585714D02*
X180047200Y-93633333D01*
X180047200Y-93633333D02*
X180094819Y-93728571D01*
X180094819Y-93728571D02*
X180094819Y-93966666D01*
X180094819Y-93966666D02*
X180047200Y-94061904D01*
X180047200Y-94061904D02*
X179999580Y-94109523D01*
X149079580Y-100766666D02*
X149127200Y-100814285D01*
X149127200Y-100814285D02*
X149174819Y-100957142D01*
X149174819Y-100957142D02*
X149174819Y-101052380D01*
X149174819Y-101052380D02*
X149127200Y-101195237D01*
X149127200Y-101195237D02*
X149031961Y-101290475D01*
X149031961Y-101290475D02*
X148936723Y-101338094D01*
X148936723Y-101338094D02*
X148746247Y-101385713D01*
X148746247Y-101385713D02*
X148603390Y-101385713D01*
X148603390Y-101385713D02*
X148412914Y-101338094D01*
X148412914Y-101338094D02*
X148317676Y-101290475D01*
X148317676Y-101290475D02*
X148222438Y-101195237D01*
X148222438Y-101195237D02*
X148174819Y-101052380D01*
X148174819Y-101052380D02*
X148174819Y-100957142D01*
X148174819Y-100957142D02*
X148222438Y-100814285D01*
X148222438Y-100814285D02*
X148270057Y-100766666D01*
X148174819Y-100433332D02*
X148174819Y-99766666D01*
X148174819Y-99766666D02*
X149174819Y-100195237D01*
X199909523Y-84659700D02*
X199861904Y-84707320D01*
X199861904Y-84707320D02*
X199719047Y-84754939D01*
X199719047Y-84754939D02*
X199623809Y-84754939D01*
X199623809Y-84754939D02*
X199480952Y-84707320D01*
X199480952Y-84707320D02*
X199385714Y-84612081D01*
X199385714Y-84612081D02*
X199338095Y-84516843D01*
X199338095Y-84516843D02*
X199290476Y-84326367D01*
X199290476Y-84326367D02*
X199290476Y-84183510D01*
X199290476Y-84183510D02*
X199338095Y-83993034D01*
X199338095Y-83993034D02*
X199385714Y-83897796D01*
X199385714Y-83897796D02*
X199480952Y-83802558D01*
X199480952Y-83802558D02*
X199623809Y-83754939D01*
X199623809Y-83754939D02*
X199719047Y-83754939D01*
X199719047Y-83754939D02*
X199861904Y-83802558D01*
X199861904Y-83802558D02*
X199909523Y-83850177D01*
X200338095Y-84754939D02*
X200338095Y-83754939D01*
X200338095Y-83754939D02*
X200909523Y-84754939D01*
X200909523Y-84754939D02*
X200909523Y-83754939D01*
X201338095Y-83850177D02*
X201385714Y-83802558D01*
X201385714Y-83802558D02*
X201480952Y-83754939D01*
X201480952Y-83754939D02*
X201719047Y-83754939D01*
X201719047Y-83754939D02*
X201814285Y-83802558D01*
X201814285Y-83802558D02*
X201861904Y-83850177D01*
X201861904Y-83850177D02*
X201909523Y-83945415D01*
X201909523Y-83945415D02*
X201909523Y-84040653D01*
X201909523Y-84040653D02*
X201861904Y-84183510D01*
X201861904Y-84183510D02*
X201290476Y-84754939D01*
X201290476Y-84754939D02*
X201909523Y-84754939D01*
D11*
X200195383Y-80361697D02*
X200195383Y-78815031D01*
X199945383Y-91411697D02*
X199945383Y-89865031D01*
X200718716Y-90638364D02*
X199172050Y-90638364D01*
D10*
X159878333Y-91154819D02*
X159402143Y-91154819D01*
X159402143Y-91154819D02*
X159402143Y-90154819D01*
X160164048Y-90250057D02*
X160211667Y-90202438D01*
X160211667Y-90202438D02*
X160306905Y-90154819D01*
X160306905Y-90154819D02*
X160545000Y-90154819D01*
X160545000Y-90154819D02*
X160640238Y-90202438D01*
X160640238Y-90202438D02*
X160687857Y-90250057D01*
X160687857Y-90250057D02*
X160735476Y-90345295D01*
X160735476Y-90345295D02*
X160735476Y-90440533D01*
X160735476Y-90440533D02*
X160687857Y-90583390D01*
X160687857Y-90583390D02*
X160116429Y-91154819D01*
X160116429Y-91154819D02*
X160735476Y-91154819D01*
X170254580Y-88366666D02*
X170302200Y-88414285D01*
X170302200Y-88414285D02*
X170349819Y-88557142D01*
X170349819Y-88557142D02*
X170349819Y-88652380D01*
X170349819Y-88652380D02*
X170302200Y-88795237D01*
X170302200Y-88795237D02*
X170206961Y-88890475D01*
X170206961Y-88890475D02*
X170111723Y-88938094D01*
X170111723Y-88938094D02*
X169921247Y-88985713D01*
X169921247Y-88985713D02*
X169778390Y-88985713D01*
X169778390Y-88985713D02*
X169587914Y-88938094D01*
X169587914Y-88938094D02*
X169492676Y-88890475D01*
X169492676Y-88890475D02*
X169397438Y-88795237D01*
X169397438Y-88795237D02*
X169349819Y-88652380D01*
X169349819Y-88652380D02*
X169349819Y-88557142D01*
X169349819Y-88557142D02*
X169397438Y-88414285D01*
X169397438Y-88414285D02*
X169445057Y-88366666D01*
X169349819Y-87509523D02*
X169349819Y-87699999D01*
X169349819Y-87699999D02*
X169397438Y-87795237D01*
X169397438Y-87795237D02*
X169445057Y-87842856D01*
X169445057Y-87842856D02*
X169587914Y-87938094D01*
X169587914Y-87938094D02*
X169778390Y-87985713D01*
X169778390Y-87985713D02*
X170159342Y-87985713D01*
X170159342Y-87985713D02*
X170254580Y-87938094D01*
X170254580Y-87938094D02*
X170302200Y-87890475D01*
X170302200Y-87890475D02*
X170349819Y-87795237D01*
X170349819Y-87795237D02*
X170349819Y-87604761D01*
X170349819Y-87604761D02*
X170302200Y-87509523D01*
X170302200Y-87509523D02*
X170254580Y-87461904D01*
X170254580Y-87461904D02*
X170159342Y-87414285D01*
X170159342Y-87414285D02*
X169921247Y-87414285D01*
X169921247Y-87414285D02*
X169826009Y-87461904D01*
X169826009Y-87461904D02*
X169778390Y-87509523D01*
X169778390Y-87509523D02*
X169730771Y-87604761D01*
X169730771Y-87604761D02*
X169730771Y-87795237D01*
X169730771Y-87795237D02*
X169778390Y-87890475D01*
X169778390Y-87890475D02*
X169826009Y-87938094D01*
X169826009Y-87938094D02*
X169921247Y-87985713D01*
X166584580Y-87841666D02*
X166632200Y-87889285D01*
X166632200Y-87889285D02*
X166679819Y-88032142D01*
X166679819Y-88032142D02*
X166679819Y-88127380D01*
X166679819Y-88127380D02*
X166632200Y-88270237D01*
X166632200Y-88270237D02*
X166536961Y-88365475D01*
X166536961Y-88365475D02*
X166441723Y-88413094D01*
X166441723Y-88413094D02*
X166251247Y-88460713D01*
X166251247Y-88460713D02*
X166108390Y-88460713D01*
X166108390Y-88460713D02*
X165917914Y-88413094D01*
X165917914Y-88413094D02*
X165822676Y-88365475D01*
X165822676Y-88365475D02*
X165727438Y-88270237D01*
X165727438Y-88270237D02*
X165679819Y-88127380D01*
X165679819Y-88127380D02*
X165679819Y-88032142D01*
X165679819Y-88032142D02*
X165727438Y-87889285D01*
X165727438Y-87889285D02*
X165775057Y-87841666D01*
X165679819Y-86936904D02*
X165679819Y-87413094D01*
X165679819Y-87413094D02*
X166156009Y-87460713D01*
X166156009Y-87460713D02*
X166108390Y-87413094D01*
X166108390Y-87413094D02*
X166060771Y-87317856D01*
X166060771Y-87317856D02*
X166060771Y-87079761D01*
X166060771Y-87079761D02*
X166108390Y-86984523D01*
X166108390Y-86984523D02*
X166156009Y-86936904D01*
X166156009Y-86936904D02*
X166251247Y-86889285D01*
X166251247Y-86889285D02*
X166489342Y-86889285D01*
X166489342Y-86889285D02*
X166584580Y-86936904D01*
X166584580Y-86936904D02*
X166632200Y-86984523D01*
X166632200Y-86984523D02*
X166679819Y-87079761D01*
X166679819Y-87079761D02*
X166679819Y-87317856D01*
X166679819Y-87317856D02*
X166632200Y-87413094D01*
X166632200Y-87413094D02*
X166584580Y-87460713D01*
X162961905Y-93054819D02*
X162961905Y-93864342D01*
X162961905Y-93864342D02*
X163009524Y-93959580D01*
X163009524Y-93959580D02*
X163057143Y-94007200D01*
X163057143Y-94007200D02*
X163152381Y-94054819D01*
X163152381Y-94054819D02*
X163342857Y-94054819D01*
X163342857Y-94054819D02*
X163438095Y-94007200D01*
X163438095Y-94007200D02*
X163485714Y-93959580D01*
X163485714Y-93959580D02*
X163533333Y-93864342D01*
X163533333Y-93864342D02*
X163533333Y-93054819D01*
X163961905Y-93150057D02*
X164009524Y-93102438D01*
X164009524Y-93102438D02*
X164104762Y-93054819D01*
X164104762Y-93054819D02*
X164342857Y-93054819D01*
X164342857Y-93054819D02*
X164438095Y-93102438D01*
X164438095Y-93102438D02*
X164485714Y-93150057D01*
X164485714Y-93150057D02*
X164533333Y-93245295D01*
X164533333Y-93245295D02*
X164533333Y-93340533D01*
X164533333Y-93340533D02*
X164485714Y-93483390D01*
X164485714Y-93483390D02*
X163914286Y-94054819D01*
X163914286Y-94054819D02*
X164533333Y-94054819D01*
X165152381Y-93054819D02*
X165247619Y-93054819D01*
X165247619Y-93054819D02*
X165342857Y-93102438D01*
X165342857Y-93102438D02*
X165390476Y-93150057D01*
X165390476Y-93150057D02*
X165438095Y-93245295D01*
X165438095Y-93245295D02*
X165485714Y-93435771D01*
X165485714Y-93435771D02*
X165485714Y-93673866D01*
X165485714Y-93673866D02*
X165438095Y-93864342D01*
X165438095Y-93864342D02*
X165390476Y-93959580D01*
X165390476Y-93959580D02*
X165342857Y-94007200D01*
X165342857Y-94007200D02*
X165247619Y-94054819D01*
X165247619Y-94054819D02*
X165152381Y-94054819D01*
X165152381Y-94054819D02*
X165057143Y-94007200D01*
X165057143Y-94007200D02*
X165009524Y-93959580D01*
X165009524Y-93959580D02*
X164961905Y-93864342D01*
X164961905Y-93864342D02*
X164914286Y-93673866D01*
X164914286Y-93673866D02*
X164914286Y-93435771D01*
X164914286Y-93435771D02*
X164961905Y-93245295D01*
X164961905Y-93245295D02*
X165009524Y-93150057D01*
X165009524Y-93150057D02*
X165057143Y-93102438D01*
X165057143Y-93102438D02*
X165152381Y-93054819D01*
X181254819Y-74438094D02*
X182064342Y-74438094D01*
X182064342Y-74438094D02*
X182159580Y-74390475D01*
X182159580Y-74390475D02*
X182207200Y-74342856D01*
X182207200Y-74342856D02*
X182254819Y-74247618D01*
X182254819Y-74247618D02*
X182254819Y-74057142D01*
X182254819Y-74057142D02*
X182207200Y-73961904D01*
X182207200Y-73961904D02*
X182159580Y-73914285D01*
X182159580Y-73914285D02*
X182064342Y-73866666D01*
X182064342Y-73866666D02*
X181254819Y-73866666D01*
X182254819Y-72866666D02*
X182254819Y-73438094D01*
X182254819Y-73152380D02*
X181254819Y-73152380D01*
X181254819Y-73152380D02*
X181397676Y-73247618D01*
X181397676Y-73247618D02*
X181492914Y-73342856D01*
X181492914Y-73342856D02*
X181540533Y-73438094D01*
X181254819Y-72533332D02*
X181254819Y-71866666D01*
X181254819Y-71866666D02*
X182254819Y-72295237D01*
X161054819Y-74425594D02*
X161864342Y-74425594D01*
X161864342Y-74425594D02*
X161959580Y-74377975D01*
X161959580Y-74377975D02*
X162007200Y-74330356D01*
X162007200Y-74330356D02*
X162054819Y-74235118D01*
X162054819Y-74235118D02*
X162054819Y-74044642D01*
X162054819Y-74044642D02*
X162007200Y-73949404D01*
X162007200Y-73949404D02*
X161959580Y-73901785D01*
X161959580Y-73901785D02*
X161864342Y-73854166D01*
X161864342Y-73854166D02*
X161054819Y-73854166D01*
X162054819Y-72854166D02*
X162054819Y-73425594D01*
X162054819Y-73139880D02*
X161054819Y-73139880D01*
X161054819Y-73139880D02*
X161197676Y-73235118D01*
X161197676Y-73235118D02*
X161292914Y-73330356D01*
X161292914Y-73330356D02*
X161340533Y-73425594D01*
X161054819Y-71997023D02*
X161054819Y-72187499D01*
X161054819Y-72187499D02*
X161102438Y-72282737D01*
X161102438Y-72282737D02*
X161150057Y-72330356D01*
X161150057Y-72330356D02*
X161292914Y-72425594D01*
X161292914Y-72425594D02*
X161483390Y-72473213D01*
X161483390Y-72473213D02*
X161864342Y-72473213D01*
X161864342Y-72473213D02*
X161959580Y-72425594D01*
X161959580Y-72425594D02*
X162007200Y-72377975D01*
X162007200Y-72377975D02*
X162054819Y-72282737D01*
X162054819Y-72282737D02*
X162054819Y-72092261D01*
X162054819Y-72092261D02*
X162007200Y-71997023D01*
X162007200Y-71997023D02*
X161959580Y-71949404D01*
X161959580Y-71949404D02*
X161864342Y-71901785D01*
X161864342Y-71901785D02*
X161626247Y-71901785D01*
X161626247Y-71901785D02*
X161531009Y-71949404D01*
X161531009Y-71949404D02*
X161483390Y-71997023D01*
X161483390Y-71997023D02*
X161435771Y-72092261D01*
X161435771Y-72092261D02*
X161435771Y-72282737D01*
X161435771Y-72282737D02*
X161483390Y-72377975D01*
X161483390Y-72377975D02*
X161531009Y-72425594D01*
X161531009Y-72425594D02*
X161626247Y-72473213D01*
X144054819Y-74495594D02*
X144864342Y-74495594D01*
X144864342Y-74495594D02*
X144959580Y-74447975D01*
X144959580Y-74447975D02*
X145007200Y-74400356D01*
X145007200Y-74400356D02*
X145054819Y-74305118D01*
X145054819Y-74305118D02*
X145054819Y-74114642D01*
X145054819Y-74114642D02*
X145007200Y-74019404D01*
X145007200Y-74019404D02*
X144959580Y-73971785D01*
X144959580Y-73971785D02*
X144864342Y-73924166D01*
X144864342Y-73924166D02*
X144054819Y-73924166D01*
X145054819Y-72924166D02*
X145054819Y-73495594D01*
X145054819Y-73209880D02*
X144054819Y-73209880D01*
X144054819Y-73209880D02*
X144197676Y-73305118D01*
X144197676Y-73305118D02*
X144292914Y-73400356D01*
X144292914Y-73400356D02*
X144340533Y-73495594D01*
X144054819Y-72019404D02*
X144054819Y-72495594D01*
X144054819Y-72495594D02*
X144531009Y-72543213D01*
X144531009Y-72543213D02*
X144483390Y-72495594D01*
X144483390Y-72495594D02*
X144435771Y-72400356D01*
X144435771Y-72400356D02*
X144435771Y-72162261D01*
X144435771Y-72162261D02*
X144483390Y-72067023D01*
X144483390Y-72067023D02*
X144531009Y-72019404D01*
X144531009Y-72019404D02*
X144626247Y-71971785D01*
X144626247Y-71971785D02*
X144864342Y-71971785D01*
X144864342Y-71971785D02*
X144959580Y-72019404D01*
X144959580Y-72019404D02*
X145007200Y-72067023D01*
X145007200Y-72067023D02*
X145054819Y-72162261D01*
X145054819Y-72162261D02*
X145054819Y-72400356D01*
X145054819Y-72400356D02*
X145007200Y-72495594D01*
X145007200Y-72495594D02*
X144959580Y-72543213D01*
X172179819Y-68563094D02*
X172989342Y-68563094D01*
X172989342Y-68563094D02*
X173084580Y-68515475D01*
X173084580Y-68515475D02*
X173132200Y-68467856D01*
X173132200Y-68467856D02*
X173179819Y-68372618D01*
X173179819Y-68372618D02*
X173179819Y-68182142D01*
X173179819Y-68182142D02*
X173132200Y-68086904D01*
X173132200Y-68086904D02*
X173084580Y-68039285D01*
X173084580Y-68039285D02*
X172989342Y-67991666D01*
X172989342Y-67991666D02*
X172179819Y-67991666D01*
X173179819Y-66991666D02*
X173179819Y-67563094D01*
X173179819Y-67277380D02*
X172179819Y-67277380D01*
X172179819Y-67277380D02*
X172322676Y-67372618D01*
X172322676Y-67372618D02*
X172417914Y-67467856D01*
X172417914Y-67467856D02*
X172465533Y-67563094D01*
X172275057Y-66610713D02*
X172227438Y-66563094D01*
X172227438Y-66563094D02*
X172179819Y-66467856D01*
X172179819Y-66467856D02*
X172179819Y-66229761D01*
X172179819Y-66229761D02*
X172227438Y-66134523D01*
X172227438Y-66134523D02*
X172275057Y-66086904D01*
X172275057Y-66086904D02*
X172370295Y-66039285D01*
X172370295Y-66039285D02*
X172465533Y-66039285D01*
X172465533Y-66039285D02*
X172608390Y-66086904D01*
X172608390Y-66086904D02*
X173179819Y-66658332D01*
X173179819Y-66658332D02*
X173179819Y-66039285D01*
X181054819Y-69638094D02*
X181864342Y-69638094D01*
X181864342Y-69638094D02*
X181959580Y-69590475D01*
X181959580Y-69590475D02*
X182007200Y-69542856D01*
X182007200Y-69542856D02*
X182054819Y-69447618D01*
X182054819Y-69447618D02*
X182054819Y-69257142D01*
X182054819Y-69257142D02*
X182007200Y-69161904D01*
X182007200Y-69161904D02*
X181959580Y-69114285D01*
X181959580Y-69114285D02*
X181864342Y-69066666D01*
X181864342Y-69066666D02*
X181054819Y-69066666D01*
X182054819Y-68066666D02*
X182054819Y-68638094D01*
X182054819Y-68352380D02*
X181054819Y-68352380D01*
X181054819Y-68352380D02*
X181197676Y-68447618D01*
X181197676Y-68447618D02*
X181292914Y-68542856D01*
X181292914Y-68542856D02*
X181340533Y-68638094D01*
X182054819Y-67114285D02*
X182054819Y-67685713D01*
X182054819Y-67399999D02*
X181054819Y-67399999D01*
X181054819Y-67399999D02*
X181197676Y-67495237D01*
X181197676Y-67495237D02*
X181292914Y-67590475D01*
X181292914Y-67590475D02*
X181340533Y-67685713D01*
X160854819Y-68638094D02*
X161664342Y-68638094D01*
X161664342Y-68638094D02*
X161759580Y-68590475D01*
X161759580Y-68590475D02*
X161807200Y-68542856D01*
X161807200Y-68542856D02*
X161854819Y-68447618D01*
X161854819Y-68447618D02*
X161854819Y-68257142D01*
X161854819Y-68257142D02*
X161807200Y-68161904D01*
X161807200Y-68161904D02*
X161759580Y-68114285D01*
X161759580Y-68114285D02*
X161664342Y-68066666D01*
X161664342Y-68066666D02*
X160854819Y-68066666D01*
X161854819Y-67066666D02*
X161854819Y-67638094D01*
X161854819Y-67352380D02*
X160854819Y-67352380D01*
X160854819Y-67352380D02*
X160997676Y-67447618D01*
X160997676Y-67447618D02*
X161092914Y-67542856D01*
X161092914Y-67542856D02*
X161140533Y-67638094D01*
X160854819Y-66447618D02*
X160854819Y-66352380D01*
X160854819Y-66352380D02*
X160902438Y-66257142D01*
X160902438Y-66257142D02*
X160950057Y-66209523D01*
X160950057Y-66209523D02*
X161045295Y-66161904D01*
X161045295Y-66161904D02*
X161235771Y-66114285D01*
X161235771Y-66114285D02*
X161473866Y-66114285D01*
X161473866Y-66114285D02*
X161664342Y-66161904D01*
X161664342Y-66161904D02*
X161759580Y-66209523D01*
X161759580Y-66209523D02*
X161807200Y-66257142D01*
X161807200Y-66257142D02*
X161854819Y-66352380D01*
X161854819Y-66352380D02*
X161854819Y-66447618D01*
X161854819Y-66447618D02*
X161807200Y-66542856D01*
X161807200Y-66542856D02*
X161759580Y-66590475D01*
X161759580Y-66590475D02*
X161664342Y-66638094D01*
X161664342Y-66638094D02*
X161473866Y-66685713D01*
X161473866Y-66685713D02*
X161235771Y-66685713D01*
X161235771Y-66685713D02*
X161045295Y-66638094D01*
X161045295Y-66638094D02*
X160950057Y-66590475D01*
X160950057Y-66590475D02*
X160902438Y-66542856D01*
X160902438Y-66542856D02*
X160854819Y-66447618D01*
X143654819Y-67961904D02*
X144464342Y-67961904D01*
X144464342Y-67961904D02*
X144559580Y-67914285D01*
X144559580Y-67914285D02*
X144607200Y-67866666D01*
X144607200Y-67866666D02*
X144654819Y-67771428D01*
X144654819Y-67771428D02*
X144654819Y-67580952D01*
X144654819Y-67580952D02*
X144607200Y-67485714D01*
X144607200Y-67485714D02*
X144559580Y-67438095D01*
X144559580Y-67438095D02*
X144464342Y-67390476D01*
X144464342Y-67390476D02*
X143654819Y-67390476D01*
X144654819Y-66866666D02*
X144654819Y-66676190D01*
X144654819Y-66676190D02*
X144607200Y-66580952D01*
X144607200Y-66580952D02*
X144559580Y-66533333D01*
X144559580Y-66533333D02*
X144416723Y-66438095D01*
X144416723Y-66438095D02*
X144226247Y-66390476D01*
X144226247Y-66390476D02*
X143845295Y-66390476D01*
X143845295Y-66390476D02*
X143750057Y-66438095D01*
X143750057Y-66438095D02*
X143702438Y-66485714D01*
X143702438Y-66485714D02*
X143654819Y-66580952D01*
X143654819Y-66580952D02*
X143654819Y-66771428D01*
X143654819Y-66771428D02*
X143702438Y-66866666D01*
X143702438Y-66866666D02*
X143750057Y-66914285D01*
X143750057Y-66914285D02*
X143845295Y-66961904D01*
X143845295Y-66961904D02*
X144083390Y-66961904D01*
X144083390Y-66961904D02*
X144178628Y-66914285D01*
X144178628Y-66914285D02*
X144226247Y-66866666D01*
X144226247Y-66866666D02*
X144273866Y-66771428D01*
X144273866Y-66771428D02*
X144273866Y-66580952D01*
X144273866Y-66580952D02*
X144226247Y-66485714D01*
X144226247Y-66485714D02*
X144178628Y-66438095D01*
X144178628Y-66438095D02*
X144083390Y-66390476D01*
X125099819Y-98212024D02*
X125909342Y-98212024D01*
X125909342Y-98212024D02*
X126004580Y-98164405D01*
X126004580Y-98164405D02*
X126052200Y-98116786D01*
X126052200Y-98116786D02*
X126099819Y-98021548D01*
X126099819Y-98021548D02*
X126099819Y-97831072D01*
X126099819Y-97831072D02*
X126052200Y-97735834D01*
X126052200Y-97735834D02*
X126004580Y-97688215D01*
X126004580Y-97688215D02*
X125909342Y-97640596D01*
X125909342Y-97640596D02*
X125099819Y-97640596D01*
X125528390Y-97021548D02*
X125480771Y-97116786D01*
X125480771Y-97116786D02*
X125433152Y-97164405D01*
X125433152Y-97164405D02*
X125337914Y-97212024D01*
X125337914Y-97212024D02*
X125290295Y-97212024D01*
X125290295Y-97212024D02*
X125195057Y-97164405D01*
X125195057Y-97164405D02*
X125147438Y-97116786D01*
X125147438Y-97116786D02*
X125099819Y-97021548D01*
X125099819Y-97021548D02*
X125099819Y-96831072D01*
X125099819Y-96831072D02*
X125147438Y-96735834D01*
X125147438Y-96735834D02*
X125195057Y-96688215D01*
X125195057Y-96688215D02*
X125290295Y-96640596D01*
X125290295Y-96640596D02*
X125337914Y-96640596D01*
X125337914Y-96640596D02*
X125433152Y-96688215D01*
X125433152Y-96688215D02*
X125480771Y-96735834D01*
X125480771Y-96735834D02*
X125528390Y-96831072D01*
X125528390Y-96831072D02*
X125528390Y-97021548D01*
X125528390Y-97021548D02*
X125576009Y-97116786D01*
X125576009Y-97116786D02*
X125623628Y-97164405D01*
X125623628Y-97164405D02*
X125718866Y-97212024D01*
X125718866Y-97212024D02*
X125909342Y-97212024D01*
X125909342Y-97212024D02*
X126004580Y-97164405D01*
X126004580Y-97164405D02*
X126052200Y-97116786D01*
X126052200Y-97116786D02*
X126099819Y-97021548D01*
X126099819Y-97021548D02*
X126099819Y-96831072D01*
X126099819Y-96831072D02*
X126052200Y-96735834D01*
X126052200Y-96735834D02*
X126004580Y-96688215D01*
X126004580Y-96688215D02*
X125909342Y-96640596D01*
X125909342Y-96640596D02*
X125718866Y-96640596D01*
X125718866Y-96640596D02*
X125623628Y-96688215D01*
X125623628Y-96688215D02*
X125576009Y-96735834D01*
X125576009Y-96735834D02*
X125528390Y-96831072D01*
X142677319Y-94549404D02*
X143486842Y-94549404D01*
X143486842Y-94549404D02*
X143582080Y-94501785D01*
X143582080Y-94501785D02*
X143629700Y-94454166D01*
X143629700Y-94454166D02*
X143677319Y-94358928D01*
X143677319Y-94358928D02*
X143677319Y-94168452D01*
X143677319Y-94168452D02*
X143629700Y-94073214D01*
X143629700Y-94073214D02*
X143582080Y-94025595D01*
X143582080Y-94025595D02*
X143486842Y-93977976D01*
X143486842Y-93977976D02*
X142677319Y-93977976D01*
X142677319Y-93073214D02*
X142677319Y-93263690D01*
X142677319Y-93263690D02*
X142724938Y-93358928D01*
X142724938Y-93358928D02*
X142772557Y-93406547D01*
X142772557Y-93406547D02*
X142915414Y-93501785D01*
X142915414Y-93501785D02*
X143105890Y-93549404D01*
X143105890Y-93549404D02*
X143486842Y-93549404D01*
X143486842Y-93549404D02*
X143582080Y-93501785D01*
X143582080Y-93501785D02*
X143629700Y-93454166D01*
X143629700Y-93454166D02*
X143677319Y-93358928D01*
X143677319Y-93358928D02*
X143677319Y-93168452D01*
X143677319Y-93168452D02*
X143629700Y-93073214D01*
X143629700Y-93073214D02*
X143582080Y-93025595D01*
X143582080Y-93025595D02*
X143486842Y-92977976D01*
X143486842Y-92977976D02*
X143248747Y-92977976D01*
X143248747Y-92977976D02*
X143153509Y-93025595D01*
X143153509Y-93025595D02*
X143105890Y-93073214D01*
X143105890Y-93073214D02*
X143058271Y-93168452D01*
X143058271Y-93168452D02*
X143058271Y-93358928D01*
X143058271Y-93358928D02*
X143105890Y-93454166D01*
X143105890Y-93454166D02*
X143153509Y-93501785D01*
X143153509Y-93501785D02*
X143248747Y-93549404D01*
X202778095Y-44647319D02*
X202778095Y-45456842D01*
X202778095Y-45456842D02*
X202825714Y-45552080D01*
X202825714Y-45552080D02*
X202873333Y-45599700D01*
X202873333Y-45599700D02*
X202968571Y-45647319D01*
X202968571Y-45647319D02*
X203159047Y-45647319D01*
X203159047Y-45647319D02*
X203254285Y-45599700D01*
X203254285Y-45599700D02*
X203301904Y-45552080D01*
X203301904Y-45552080D02*
X203349523Y-45456842D01*
X203349523Y-45456842D02*
X203349523Y-44647319D01*
X203730476Y-44647319D02*
X204349523Y-44647319D01*
X204349523Y-44647319D02*
X204016190Y-45028271D01*
X204016190Y-45028271D02*
X204159047Y-45028271D01*
X204159047Y-45028271D02*
X204254285Y-45075890D01*
X204254285Y-45075890D02*
X204301904Y-45123509D01*
X204301904Y-45123509D02*
X204349523Y-45218747D01*
X204349523Y-45218747D02*
X204349523Y-45456842D01*
X204349523Y-45456842D02*
X204301904Y-45552080D01*
X204301904Y-45552080D02*
X204254285Y-45599700D01*
X204254285Y-45599700D02*
X204159047Y-45647319D01*
X204159047Y-45647319D02*
X203873333Y-45647319D01*
X203873333Y-45647319D02*
X203778095Y-45599700D01*
X203778095Y-45599700D02*
X203730476Y-45552080D01*
X118063095Y-44334819D02*
X118063095Y-45144342D01*
X118063095Y-45144342D02*
X118110714Y-45239580D01*
X118110714Y-45239580D02*
X118158333Y-45287200D01*
X118158333Y-45287200D02*
X118253571Y-45334819D01*
X118253571Y-45334819D02*
X118444047Y-45334819D01*
X118444047Y-45334819D02*
X118539285Y-45287200D01*
X118539285Y-45287200D02*
X118586904Y-45239580D01*
X118586904Y-45239580D02*
X118634523Y-45144342D01*
X118634523Y-45144342D02*
X118634523Y-44334819D01*
X119063095Y-44430057D02*
X119110714Y-44382438D01*
X119110714Y-44382438D02*
X119205952Y-44334819D01*
X119205952Y-44334819D02*
X119444047Y-44334819D01*
X119444047Y-44334819D02*
X119539285Y-44382438D01*
X119539285Y-44382438D02*
X119586904Y-44430057D01*
X119586904Y-44430057D02*
X119634523Y-44525295D01*
X119634523Y-44525295D02*
X119634523Y-44620533D01*
X119634523Y-44620533D02*
X119586904Y-44763390D01*
X119586904Y-44763390D02*
X119015476Y-45334819D01*
X119015476Y-45334819D02*
X119634523Y-45334819D01*
X200757200Y-113133332D02*
X200804819Y-112990475D01*
X200804819Y-112990475D02*
X200804819Y-112752380D01*
X200804819Y-112752380D02*
X200757200Y-112657142D01*
X200757200Y-112657142D02*
X200709580Y-112609523D01*
X200709580Y-112609523D02*
X200614342Y-112561904D01*
X200614342Y-112561904D02*
X200519104Y-112561904D01*
X200519104Y-112561904D02*
X200423866Y-112609523D01*
X200423866Y-112609523D02*
X200376247Y-112657142D01*
X200376247Y-112657142D02*
X200328628Y-112752380D01*
X200328628Y-112752380D02*
X200281009Y-112942856D01*
X200281009Y-112942856D02*
X200233390Y-113038094D01*
X200233390Y-113038094D02*
X200185771Y-113085713D01*
X200185771Y-113085713D02*
X200090533Y-113133332D01*
X200090533Y-113133332D02*
X199995295Y-113133332D01*
X199995295Y-113133332D02*
X199900057Y-113085713D01*
X199900057Y-113085713D02*
X199852438Y-113038094D01*
X199852438Y-113038094D02*
X199804819Y-112942856D01*
X199804819Y-112942856D02*
X199804819Y-112704761D01*
X199804819Y-112704761D02*
X199852438Y-112561904D01*
X199804819Y-112228570D02*
X200804819Y-111990475D01*
X200804819Y-111990475D02*
X200090533Y-111799999D01*
X200090533Y-111799999D02*
X200804819Y-111609523D01*
X200804819Y-111609523D02*
X199804819Y-111371428D01*
X199804819Y-110561904D02*
X199804819Y-110752380D01*
X199804819Y-110752380D02*
X199852438Y-110847618D01*
X199852438Y-110847618D02*
X199900057Y-110895237D01*
X199900057Y-110895237D02*
X200042914Y-110990475D01*
X200042914Y-110990475D02*
X200233390Y-111038094D01*
X200233390Y-111038094D02*
X200614342Y-111038094D01*
X200614342Y-111038094D02*
X200709580Y-110990475D01*
X200709580Y-110990475D02*
X200757200Y-110942856D01*
X200757200Y-110942856D02*
X200804819Y-110847618D01*
X200804819Y-110847618D02*
X200804819Y-110657142D01*
X200804819Y-110657142D02*
X200757200Y-110561904D01*
X200757200Y-110561904D02*
X200709580Y-110514285D01*
X200709580Y-110514285D02*
X200614342Y-110466666D01*
X200614342Y-110466666D02*
X200376247Y-110466666D01*
X200376247Y-110466666D02*
X200281009Y-110514285D01*
X200281009Y-110514285D02*
X200233390Y-110561904D01*
X200233390Y-110561904D02*
X200185771Y-110657142D01*
X200185771Y-110657142D02*
X200185771Y-110847618D01*
X200185771Y-110847618D02*
X200233390Y-110942856D01*
X200233390Y-110942856D02*
X200281009Y-110990475D01*
X200281009Y-110990475D02*
X200376247Y-111038094D01*
X196307200Y-113133332D02*
X196354819Y-112990475D01*
X196354819Y-112990475D02*
X196354819Y-112752380D01*
X196354819Y-112752380D02*
X196307200Y-112657142D01*
X196307200Y-112657142D02*
X196259580Y-112609523D01*
X196259580Y-112609523D02*
X196164342Y-112561904D01*
X196164342Y-112561904D02*
X196069104Y-112561904D01*
X196069104Y-112561904D02*
X195973866Y-112609523D01*
X195973866Y-112609523D02*
X195926247Y-112657142D01*
X195926247Y-112657142D02*
X195878628Y-112752380D01*
X195878628Y-112752380D02*
X195831009Y-112942856D01*
X195831009Y-112942856D02*
X195783390Y-113038094D01*
X195783390Y-113038094D02*
X195735771Y-113085713D01*
X195735771Y-113085713D02*
X195640533Y-113133332D01*
X195640533Y-113133332D02*
X195545295Y-113133332D01*
X195545295Y-113133332D02*
X195450057Y-113085713D01*
X195450057Y-113085713D02*
X195402438Y-113038094D01*
X195402438Y-113038094D02*
X195354819Y-112942856D01*
X195354819Y-112942856D02*
X195354819Y-112704761D01*
X195354819Y-112704761D02*
X195402438Y-112561904D01*
X195354819Y-112228570D02*
X196354819Y-111990475D01*
X196354819Y-111990475D02*
X195640533Y-111799999D01*
X195640533Y-111799999D02*
X196354819Y-111609523D01*
X196354819Y-111609523D02*
X195354819Y-111371428D01*
X195354819Y-110514285D02*
X195354819Y-110990475D01*
X195354819Y-110990475D02*
X195831009Y-111038094D01*
X195831009Y-111038094D02*
X195783390Y-110990475D01*
X195783390Y-110990475D02*
X195735771Y-110895237D01*
X195735771Y-110895237D02*
X195735771Y-110657142D01*
X195735771Y-110657142D02*
X195783390Y-110561904D01*
X195783390Y-110561904D02*
X195831009Y-110514285D01*
X195831009Y-110514285D02*
X195926247Y-110466666D01*
X195926247Y-110466666D02*
X196164342Y-110466666D01*
X196164342Y-110466666D02*
X196259580Y-110514285D01*
X196259580Y-110514285D02*
X196307200Y-110561904D01*
X196307200Y-110561904D02*
X196354819Y-110657142D01*
X196354819Y-110657142D02*
X196354819Y-110895237D01*
X196354819Y-110895237D02*
X196307200Y-110990475D01*
X196307200Y-110990475D02*
X196259580Y-111038094D01*
X191857200Y-113133332D02*
X191904819Y-112990475D01*
X191904819Y-112990475D02*
X191904819Y-112752380D01*
X191904819Y-112752380D02*
X191857200Y-112657142D01*
X191857200Y-112657142D02*
X191809580Y-112609523D01*
X191809580Y-112609523D02*
X191714342Y-112561904D01*
X191714342Y-112561904D02*
X191619104Y-112561904D01*
X191619104Y-112561904D02*
X191523866Y-112609523D01*
X191523866Y-112609523D02*
X191476247Y-112657142D01*
X191476247Y-112657142D02*
X191428628Y-112752380D01*
X191428628Y-112752380D02*
X191381009Y-112942856D01*
X191381009Y-112942856D02*
X191333390Y-113038094D01*
X191333390Y-113038094D02*
X191285771Y-113085713D01*
X191285771Y-113085713D02*
X191190533Y-113133332D01*
X191190533Y-113133332D02*
X191095295Y-113133332D01*
X191095295Y-113133332D02*
X191000057Y-113085713D01*
X191000057Y-113085713D02*
X190952438Y-113038094D01*
X190952438Y-113038094D02*
X190904819Y-112942856D01*
X190904819Y-112942856D02*
X190904819Y-112704761D01*
X190904819Y-112704761D02*
X190952438Y-112561904D01*
X190904819Y-112228570D02*
X191904819Y-111990475D01*
X191904819Y-111990475D02*
X191190533Y-111799999D01*
X191190533Y-111799999D02*
X191904819Y-111609523D01*
X191904819Y-111609523D02*
X190904819Y-111371428D01*
X191238152Y-110561904D02*
X191904819Y-110561904D01*
X190857200Y-110799999D02*
X191571485Y-111038094D01*
X191571485Y-111038094D02*
X191571485Y-110419047D01*
X187407200Y-113133332D02*
X187454819Y-112990475D01*
X187454819Y-112990475D02*
X187454819Y-112752380D01*
X187454819Y-112752380D02*
X187407200Y-112657142D01*
X187407200Y-112657142D02*
X187359580Y-112609523D01*
X187359580Y-112609523D02*
X187264342Y-112561904D01*
X187264342Y-112561904D02*
X187169104Y-112561904D01*
X187169104Y-112561904D02*
X187073866Y-112609523D01*
X187073866Y-112609523D02*
X187026247Y-112657142D01*
X187026247Y-112657142D02*
X186978628Y-112752380D01*
X186978628Y-112752380D02*
X186931009Y-112942856D01*
X186931009Y-112942856D02*
X186883390Y-113038094D01*
X186883390Y-113038094D02*
X186835771Y-113085713D01*
X186835771Y-113085713D02*
X186740533Y-113133332D01*
X186740533Y-113133332D02*
X186645295Y-113133332D01*
X186645295Y-113133332D02*
X186550057Y-113085713D01*
X186550057Y-113085713D02*
X186502438Y-113038094D01*
X186502438Y-113038094D02*
X186454819Y-112942856D01*
X186454819Y-112942856D02*
X186454819Y-112704761D01*
X186454819Y-112704761D02*
X186502438Y-112561904D01*
X186454819Y-112228570D02*
X187454819Y-111990475D01*
X187454819Y-111990475D02*
X186740533Y-111799999D01*
X186740533Y-111799999D02*
X187454819Y-111609523D01*
X187454819Y-111609523D02*
X186454819Y-111371428D01*
X186454819Y-111085713D02*
X186454819Y-110466666D01*
X186454819Y-110466666D02*
X186835771Y-110799999D01*
X186835771Y-110799999D02*
X186835771Y-110657142D01*
X186835771Y-110657142D02*
X186883390Y-110561904D01*
X186883390Y-110561904D02*
X186931009Y-110514285D01*
X186931009Y-110514285D02*
X187026247Y-110466666D01*
X187026247Y-110466666D02*
X187264342Y-110466666D01*
X187264342Y-110466666D02*
X187359580Y-110514285D01*
X187359580Y-110514285D02*
X187407200Y-110561904D01*
X187407200Y-110561904D02*
X187454819Y-110657142D01*
X187454819Y-110657142D02*
X187454819Y-110942856D01*
X187454819Y-110942856D02*
X187407200Y-111038094D01*
X187407200Y-111038094D02*
X187359580Y-111085713D01*
X171007200Y-82133332D02*
X171054819Y-81990475D01*
X171054819Y-81990475D02*
X171054819Y-81752380D01*
X171054819Y-81752380D02*
X171007200Y-81657142D01*
X171007200Y-81657142D02*
X170959580Y-81609523D01*
X170959580Y-81609523D02*
X170864342Y-81561904D01*
X170864342Y-81561904D02*
X170769104Y-81561904D01*
X170769104Y-81561904D02*
X170673866Y-81609523D01*
X170673866Y-81609523D02*
X170626247Y-81657142D01*
X170626247Y-81657142D02*
X170578628Y-81752380D01*
X170578628Y-81752380D02*
X170531009Y-81942856D01*
X170531009Y-81942856D02*
X170483390Y-82038094D01*
X170483390Y-82038094D02*
X170435771Y-82085713D01*
X170435771Y-82085713D02*
X170340533Y-82133332D01*
X170340533Y-82133332D02*
X170245295Y-82133332D01*
X170245295Y-82133332D02*
X170150057Y-82085713D01*
X170150057Y-82085713D02*
X170102438Y-82038094D01*
X170102438Y-82038094D02*
X170054819Y-81942856D01*
X170054819Y-81942856D02*
X170054819Y-81704761D01*
X170054819Y-81704761D02*
X170102438Y-81561904D01*
X170054819Y-81228570D02*
X171054819Y-80990475D01*
X171054819Y-80990475D02*
X170340533Y-80799999D01*
X170340533Y-80799999D02*
X171054819Y-80609523D01*
X171054819Y-80609523D02*
X170054819Y-80371428D01*
X170150057Y-80038094D02*
X170102438Y-79990475D01*
X170102438Y-79990475D02*
X170054819Y-79895237D01*
X170054819Y-79895237D02*
X170054819Y-79657142D01*
X170054819Y-79657142D02*
X170102438Y-79561904D01*
X170102438Y-79561904D02*
X170150057Y-79514285D01*
X170150057Y-79514285D02*
X170245295Y-79466666D01*
X170245295Y-79466666D02*
X170340533Y-79466666D01*
X170340533Y-79466666D02*
X170483390Y-79514285D01*
X170483390Y-79514285D02*
X171054819Y-80085713D01*
X171054819Y-80085713D02*
X171054819Y-79466666D01*
X174507200Y-83733332D02*
X174554819Y-83590475D01*
X174554819Y-83590475D02*
X174554819Y-83352380D01*
X174554819Y-83352380D02*
X174507200Y-83257142D01*
X174507200Y-83257142D02*
X174459580Y-83209523D01*
X174459580Y-83209523D02*
X174364342Y-83161904D01*
X174364342Y-83161904D02*
X174269104Y-83161904D01*
X174269104Y-83161904D02*
X174173866Y-83209523D01*
X174173866Y-83209523D02*
X174126247Y-83257142D01*
X174126247Y-83257142D02*
X174078628Y-83352380D01*
X174078628Y-83352380D02*
X174031009Y-83542856D01*
X174031009Y-83542856D02*
X173983390Y-83638094D01*
X173983390Y-83638094D02*
X173935771Y-83685713D01*
X173935771Y-83685713D02*
X173840533Y-83733332D01*
X173840533Y-83733332D02*
X173745295Y-83733332D01*
X173745295Y-83733332D02*
X173650057Y-83685713D01*
X173650057Y-83685713D02*
X173602438Y-83638094D01*
X173602438Y-83638094D02*
X173554819Y-83542856D01*
X173554819Y-83542856D02*
X173554819Y-83304761D01*
X173554819Y-83304761D02*
X173602438Y-83161904D01*
X173554819Y-82828570D02*
X174554819Y-82590475D01*
X174554819Y-82590475D02*
X173840533Y-82399999D01*
X173840533Y-82399999D02*
X174554819Y-82209523D01*
X174554819Y-82209523D02*
X173554819Y-81971428D01*
X174554819Y-81066666D02*
X174554819Y-81638094D01*
X174554819Y-81352380D02*
X173554819Y-81352380D01*
X173554819Y-81352380D02*
X173697676Y-81447618D01*
X173697676Y-81447618D02*
X173792914Y-81542856D01*
X173792914Y-81542856D02*
X173840533Y-81638094D01*
X133469819Y-98305477D02*
X132993628Y-98638810D01*
X133469819Y-98876905D02*
X132469819Y-98876905D01*
X132469819Y-98876905D02*
X132469819Y-98495953D01*
X132469819Y-98495953D02*
X132517438Y-98400715D01*
X132517438Y-98400715D02*
X132565057Y-98353096D01*
X132565057Y-98353096D02*
X132660295Y-98305477D01*
X132660295Y-98305477D02*
X132803152Y-98305477D01*
X132803152Y-98305477D02*
X132898390Y-98353096D01*
X132898390Y-98353096D02*
X132946009Y-98400715D01*
X132946009Y-98400715D02*
X132993628Y-98495953D01*
X132993628Y-98495953D02*
X132993628Y-98876905D01*
X132565057Y-97924524D02*
X132517438Y-97876905D01*
X132517438Y-97876905D02*
X132469819Y-97781667D01*
X132469819Y-97781667D02*
X132469819Y-97543572D01*
X132469819Y-97543572D02*
X132517438Y-97448334D01*
X132517438Y-97448334D02*
X132565057Y-97400715D01*
X132565057Y-97400715D02*
X132660295Y-97353096D01*
X132660295Y-97353096D02*
X132755533Y-97353096D01*
X132755533Y-97353096D02*
X132898390Y-97400715D01*
X132898390Y-97400715D02*
X133469819Y-97972143D01*
X133469819Y-97972143D02*
X133469819Y-97353096D01*
X132898390Y-96781667D02*
X132850771Y-96876905D01*
X132850771Y-96876905D02*
X132803152Y-96924524D01*
X132803152Y-96924524D02*
X132707914Y-96972143D01*
X132707914Y-96972143D02*
X132660295Y-96972143D01*
X132660295Y-96972143D02*
X132565057Y-96924524D01*
X132565057Y-96924524D02*
X132517438Y-96876905D01*
X132517438Y-96876905D02*
X132469819Y-96781667D01*
X132469819Y-96781667D02*
X132469819Y-96591191D01*
X132469819Y-96591191D02*
X132517438Y-96495953D01*
X132517438Y-96495953D02*
X132565057Y-96448334D01*
X132565057Y-96448334D02*
X132660295Y-96400715D01*
X132660295Y-96400715D02*
X132707914Y-96400715D01*
X132707914Y-96400715D02*
X132803152Y-96448334D01*
X132803152Y-96448334D02*
X132850771Y-96495953D01*
X132850771Y-96495953D02*
X132898390Y-96591191D01*
X132898390Y-96591191D02*
X132898390Y-96781667D01*
X132898390Y-96781667D02*
X132946009Y-96876905D01*
X132946009Y-96876905D02*
X132993628Y-96924524D01*
X132993628Y-96924524D02*
X133088866Y-96972143D01*
X133088866Y-96972143D02*
X133279342Y-96972143D01*
X133279342Y-96972143D02*
X133374580Y-96924524D01*
X133374580Y-96924524D02*
X133422200Y-96876905D01*
X133422200Y-96876905D02*
X133469819Y-96781667D01*
X133469819Y-96781667D02*
X133469819Y-96591191D01*
X133469819Y-96591191D02*
X133422200Y-96495953D01*
X133422200Y-96495953D02*
X133374580Y-96448334D01*
X133374580Y-96448334D02*
X133279342Y-96400715D01*
X133279342Y-96400715D02*
X133088866Y-96400715D01*
X133088866Y-96400715D02*
X132993628Y-96448334D01*
X132993628Y-96448334D02*
X132946009Y-96495953D01*
X132946009Y-96495953D02*
X132898390Y-96591191D01*
X174357142Y-89924819D02*
X174023809Y-89448628D01*
X173785714Y-89924819D02*
X173785714Y-88924819D01*
X173785714Y-88924819D02*
X174166666Y-88924819D01*
X174166666Y-88924819D02*
X174261904Y-88972438D01*
X174261904Y-88972438D02*
X174309523Y-89020057D01*
X174309523Y-89020057D02*
X174357142Y-89115295D01*
X174357142Y-89115295D02*
X174357142Y-89258152D01*
X174357142Y-89258152D02*
X174309523Y-89353390D01*
X174309523Y-89353390D02*
X174261904Y-89401009D01*
X174261904Y-89401009D02*
X174166666Y-89448628D01*
X174166666Y-89448628D02*
X173785714Y-89448628D01*
X175309523Y-89924819D02*
X174738095Y-89924819D01*
X175023809Y-89924819D02*
X175023809Y-88924819D01*
X175023809Y-88924819D02*
X174928571Y-89067676D01*
X174928571Y-89067676D02*
X174833333Y-89162914D01*
X174833333Y-89162914D02*
X174738095Y-89210533D01*
X175690476Y-89020057D02*
X175738095Y-88972438D01*
X175738095Y-88972438D02*
X175833333Y-88924819D01*
X175833333Y-88924819D02*
X176071428Y-88924819D01*
X176071428Y-88924819D02*
X176166666Y-88972438D01*
X176166666Y-88972438D02*
X176214285Y-89020057D01*
X176214285Y-89020057D02*
X176261904Y-89115295D01*
X176261904Y-89115295D02*
X176261904Y-89210533D01*
X176261904Y-89210533D02*
X176214285Y-89353390D01*
X176214285Y-89353390D02*
X175642857Y-89924819D01*
X175642857Y-89924819D02*
X176261904Y-89924819D01*
X148261428Y-113054819D02*
X148451904Y-113054819D01*
X148451904Y-113054819D02*
X148547142Y-113102438D01*
X148547142Y-113102438D02*
X148642380Y-113197676D01*
X148642380Y-113197676D02*
X148689999Y-113388152D01*
X148689999Y-113388152D02*
X148689999Y-113721485D01*
X148689999Y-113721485D02*
X148642380Y-113911961D01*
X148642380Y-113911961D02*
X148547142Y-114007200D01*
X148547142Y-114007200D02*
X148451904Y-114054819D01*
X148451904Y-114054819D02*
X148261428Y-114054819D01*
X148261428Y-114054819D02*
X148166190Y-114007200D01*
X148166190Y-114007200D02*
X148070952Y-113911961D01*
X148070952Y-113911961D02*
X148023333Y-113721485D01*
X148023333Y-113721485D02*
X148023333Y-113388152D01*
X148023333Y-113388152D02*
X148070952Y-113197676D01*
X148070952Y-113197676D02*
X148166190Y-113102438D01*
X148166190Y-113102438D02*
X148261428Y-113054819D01*
X149594761Y-114054819D02*
X149118571Y-114054819D01*
X149118571Y-114054819D02*
X149118571Y-113054819D01*
X149928095Y-113531009D02*
X150261428Y-113531009D01*
X150404285Y-114054819D02*
X149928095Y-114054819D01*
X149928095Y-114054819D02*
X149928095Y-113054819D01*
X149928095Y-113054819D02*
X150404285Y-113054819D01*
X150832857Y-114054819D02*
X150832857Y-113054819D01*
X150832857Y-113054819D02*
X151070952Y-113054819D01*
X151070952Y-113054819D02*
X151213809Y-113102438D01*
X151213809Y-113102438D02*
X151309047Y-113197676D01*
X151309047Y-113197676D02*
X151356666Y-113292914D01*
X151356666Y-113292914D02*
X151404285Y-113483390D01*
X151404285Y-113483390D02*
X151404285Y-113626247D01*
X151404285Y-113626247D02*
X151356666Y-113816723D01*
X151356666Y-113816723D02*
X151309047Y-113911961D01*
X151309047Y-113911961D02*
X151213809Y-114007200D01*
X151213809Y-114007200D02*
X151070952Y-114054819D01*
X151070952Y-114054819D02*
X150832857Y-114054819D01*
X152356666Y-114054819D02*
X151785238Y-114054819D01*
X152070952Y-114054819D02*
X152070952Y-113054819D01*
X152070952Y-113054819D02*
X151975714Y-113197676D01*
X151975714Y-113197676D02*
X151880476Y-113292914D01*
X151880476Y-113292914D02*
X151785238Y-113340533D01*
D11*
X156421755Y-109758716D02*
X155261755Y-109758716D01*
X155841755Y-109758716D02*
X155841755Y-107728716D01*
X155841755Y-107728716D02*
X155648422Y-108018716D01*
X155648422Y-108018716D02*
X155455089Y-108212050D01*
X155455089Y-108212050D02*
X155261755Y-108308716D01*
D10*
X186833333Y-102224819D02*
X186357143Y-102224819D01*
X186357143Y-102224819D02*
X186357143Y-101224819D01*
X187642857Y-101224819D02*
X187166667Y-101224819D01*
X187166667Y-101224819D02*
X187119048Y-101701009D01*
X187119048Y-101701009D02*
X187166667Y-101653390D01*
X187166667Y-101653390D02*
X187261905Y-101605771D01*
X187261905Y-101605771D02*
X187500000Y-101605771D01*
X187500000Y-101605771D02*
X187595238Y-101653390D01*
X187595238Y-101653390D02*
X187642857Y-101701009D01*
X187642857Y-101701009D02*
X187690476Y-101796247D01*
X187690476Y-101796247D02*
X187690476Y-102034342D01*
X187690476Y-102034342D02*
X187642857Y-102129580D01*
X187642857Y-102129580D02*
X187595238Y-102177200D01*
X187595238Y-102177200D02*
X187500000Y-102224819D01*
X187500000Y-102224819D02*
X187261905Y-102224819D01*
X187261905Y-102224819D02*
X187166667Y-102177200D01*
X187166667Y-102177200D02*
X187119048Y-102129580D01*
X199534819Y-47316666D02*
X199534819Y-47792856D01*
X199534819Y-47792856D02*
X198534819Y-47792856D01*
X198868152Y-46554761D02*
X199534819Y-46554761D01*
X198487200Y-46792856D02*
X199201485Y-47030951D01*
X199201485Y-47030951D02*
X199201485Y-46411904D01*
X140245833Y-91042319D02*
X139769643Y-91042319D01*
X139769643Y-91042319D02*
X139769643Y-90042319D01*
X140483929Y-90042319D02*
X141102976Y-90042319D01*
X141102976Y-90042319D02*
X140769643Y-90423271D01*
X140769643Y-90423271D02*
X140912500Y-90423271D01*
X140912500Y-90423271D02*
X141007738Y-90470890D01*
X141007738Y-90470890D02*
X141055357Y-90518509D01*
X141055357Y-90518509D02*
X141102976Y-90613747D01*
X141102976Y-90613747D02*
X141102976Y-90851842D01*
X141102976Y-90851842D02*
X141055357Y-90947080D01*
X141055357Y-90947080D02*
X141007738Y-90994700D01*
X141007738Y-90994700D02*
X140912500Y-91042319D01*
X140912500Y-91042319D02*
X140626786Y-91042319D01*
X140626786Y-91042319D02*
X140531548Y-90994700D01*
X140531548Y-90994700D02*
X140483929Y-90947080D01*
X127374819Y-47316666D02*
X127374819Y-47792856D01*
X127374819Y-47792856D02*
X126374819Y-47792856D01*
X127374819Y-46459523D02*
X127374819Y-47030951D01*
X127374819Y-46745237D02*
X126374819Y-46745237D01*
X126374819Y-46745237D02*
X126517676Y-46840475D01*
X126517676Y-46840475D02*
X126612914Y-46935713D01*
X126612914Y-46935713D02*
X126660533Y-47030951D01*
X126309523Y-74809580D02*
X126261904Y-74857200D01*
X126261904Y-74857200D02*
X126119047Y-74904819D01*
X126119047Y-74904819D02*
X126023809Y-74904819D01*
X126023809Y-74904819D02*
X125880952Y-74857200D01*
X125880952Y-74857200D02*
X125785714Y-74761961D01*
X125785714Y-74761961D02*
X125738095Y-74666723D01*
X125738095Y-74666723D02*
X125690476Y-74476247D01*
X125690476Y-74476247D02*
X125690476Y-74333390D01*
X125690476Y-74333390D02*
X125738095Y-74142914D01*
X125738095Y-74142914D02*
X125785714Y-74047676D01*
X125785714Y-74047676D02*
X125880952Y-73952438D01*
X125880952Y-73952438D02*
X126023809Y-73904819D01*
X126023809Y-73904819D02*
X126119047Y-73904819D01*
X126119047Y-73904819D02*
X126261904Y-73952438D01*
X126261904Y-73952438D02*
X126309523Y-74000057D01*
X126738095Y-74904819D02*
X126738095Y-73904819D01*
X126738095Y-73904819D02*
X127309523Y-74904819D01*
X127309523Y-74904819D02*
X127309523Y-73904819D01*
X128309523Y-74904819D02*
X127738095Y-74904819D01*
X128023809Y-74904819D02*
X128023809Y-73904819D01*
X128023809Y-73904819D02*
X127928571Y-74047676D01*
X127928571Y-74047676D02*
X127833333Y-74142914D01*
X127833333Y-74142914D02*
X127738095Y-74190533D01*
D11*
X127965383Y-79635088D02*
X127965383Y-78088422D01*
X128738716Y-78861755D02*
X127192050Y-78861755D01*
X127715383Y-90685088D02*
X127715383Y-89138422D01*
D10*
X121594580Y-98272977D02*
X121642200Y-98320596D01*
X121642200Y-98320596D02*
X121689819Y-98463453D01*
X121689819Y-98463453D02*
X121689819Y-98558691D01*
X121689819Y-98558691D02*
X121642200Y-98701548D01*
X121642200Y-98701548D02*
X121546961Y-98796786D01*
X121546961Y-98796786D02*
X121451723Y-98844405D01*
X121451723Y-98844405D02*
X121261247Y-98892024D01*
X121261247Y-98892024D02*
X121118390Y-98892024D01*
X121118390Y-98892024D02*
X120927914Y-98844405D01*
X120927914Y-98844405D02*
X120832676Y-98796786D01*
X120832676Y-98796786D02*
X120737438Y-98701548D01*
X120737438Y-98701548D02*
X120689819Y-98558691D01*
X120689819Y-98558691D02*
X120689819Y-98463453D01*
X120689819Y-98463453D02*
X120737438Y-98320596D01*
X120737438Y-98320596D02*
X120785057Y-98272977D01*
X121023152Y-97415834D02*
X121689819Y-97415834D01*
X120642200Y-97653929D02*
X121356485Y-97892024D01*
X121356485Y-97892024D02*
X121356485Y-97272977D01*
X120689819Y-96463453D02*
X120689819Y-96653929D01*
X120689819Y-96653929D02*
X120737438Y-96749167D01*
X120737438Y-96749167D02*
X120785057Y-96796786D01*
X120785057Y-96796786D02*
X120927914Y-96892024D01*
X120927914Y-96892024D02*
X121118390Y-96939643D01*
X121118390Y-96939643D02*
X121499342Y-96939643D01*
X121499342Y-96939643D02*
X121594580Y-96892024D01*
X121594580Y-96892024D02*
X121642200Y-96844405D01*
X121642200Y-96844405D02*
X121689819Y-96749167D01*
X121689819Y-96749167D02*
X121689819Y-96558691D01*
X121689819Y-96558691D02*
X121642200Y-96463453D01*
X121642200Y-96463453D02*
X121594580Y-96415834D01*
X121594580Y-96415834D02*
X121499342Y-96368215D01*
X121499342Y-96368215D02*
X121261247Y-96368215D01*
X121261247Y-96368215D02*
X121166009Y-96415834D01*
X121166009Y-96415834D02*
X121118390Y-96463453D01*
X121118390Y-96463453D02*
X121070771Y-96558691D01*
X121070771Y-96558691D02*
X121070771Y-96749167D01*
X121070771Y-96749167D02*
X121118390Y-96844405D01*
X121118390Y-96844405D02*
X121166009Y-96892024D01*
X121166009Y-96892024D02*
X121261247Y-96939643D01*
X123754580Y-100692977D02*
X123802200Y-100740596D01*
X123802200Y-100740596D02*
X123849819Y-100883453D01*
X123849819Y-100883453D02*
X123849819Y-100978691D01*
X123849819Y-100978691D02*
X123802200Y-101121548D01*
X123802200Y-101121548D02*
X123706961Y-101216786D01*
X123706961Y-101216786D02*
X123611723Y-101264405D01*
X123611723Y-101264405D02*
X123421247Y-101312024D01*
X123421247Y-101312024D02*
X123278390Y-101312024D01*
X123278390Y-101312024D02*
X123087914Y-101264405D01*
X123087914Y-101264405D02*
X122992676Y-101216786D01*
X122992676Y-101216786D02*
X122897438Y-101121548D01*
X122897438Y-101121548D02*
X122849819Y-100978691D01*
X122849819Y-100978691D02*
X122849819Y-100883453D01*
X122849819Y-100883453D02*
X122897438Y-100740596D01*
X122897438Y-100740596D02*
X122945057Y-100692977D01*
X123183152Y-99835834D02*
X123849819Y-99835834D01*
X122802200Y-100073929D02*
X123516485Y-100312024D01*
X123516485Y-100312024D02*
X123516485Y-99692977D01*
X122849819Y-98835834D02*
X122849819Y-99312024D01*
X122849819Y-99312024D02*
X123326009Y-99359643D01*
X123326009Y-99359643D02*
X123278390Y-99312024D01*
X123278390Y-99312024D02*
X123230771Y-99216786D01*
X123230771Y-99216786D02*
X123230771Y-98978691D01*
X123230771Y-98978691D02*
X123278390Y-98883453D01*
X123278390Y-98883453D02*
X123326009Y-98835834D01*
X123326009Y-98835834D02*
X123421247Y-98788215D01*
X123421247Y-98788215D02*
X123659342Y-98788215D01*
X123659342Y-98788215D02*
X123754580Y-98835834D01*
X123754580Y-98835834D02*
X123802200Y-98883453D01*
X123802200Y-98883453D02*
X123849819Y-98978691D01*
X123849819Y-98978691D02*
X123849819Y-99216786D01*
X123849819Y-99216786D02*
X123802200Y-99312024D01*
X123802200Y-99312024D02*
X123754580Y-99359643D01*
X144379642Y-98067080D02*
X144332023Y-98114700D01*
X144332023Y-98114700D02*
X144189166Y-98162319D01*
X144189166Y-98162319D02*
X144093928Y-98162319D01*
X144093928Y-98162319D02*
X143951071Y-98114700D01*
X143951071Y-98114700D02*
X143855833Y-98019461D01*
X143855833Y-98019461D02*
X143808214Y-97924223D01*
X143808214Y-97924223D02*
X143760595Y-97733747D01*
X143760595Y-97733747D02*
X143760595Y-97590890D01*
X143760595Y-97590890D02*
X143808214Y-97400414D01*
X143808214Y-97400414D02*
X143855833Y-97305176D01*
X143855833Y-97305176D02*
X143951071Y-97209938D01*
X143951071Y-97209938D02*
X144093928Y-97162319D01*
X144093928Y-97162319D02*
X144189166Y-97162319D01*
X144189166Y-97162319D02*
X144332023Y-97209938D01*
X144332023Y-97209938D02*
X144379642Y-97257557D01*
X145236785Y-97495652D02*
X145236785Y-98162319D01*
X144998690Y-97114700D02*
X144760595Y-97828985D01*
X144760595Y-97828985D02*
X145379642Y-97828985D01*
X146189166Y-97495652D02*
X146189166Y-98162319D01*
X145951071Y-97114700D02*
X145712976Y-97828985D01*
X145712976Y-97828985D02*
X146332023Y-97828985D01*
X174247142Y-85889580D02*
X174199523Y-85937200D01*
X174199523Y-85937200D02*
X174056666Y-85984819D01*
X174056666Y-85984819D02*
X173961428Y-85984819D01*
X173961428Y-85984819D02*
X173818571Y-85937200D01*
X173818571Y-85937200D02*
X173723333Y-85841961D01*
X173723333Y-85841961D02*
X173675714Y-85746723D01*
X173675714Y-85746723D02*
X173628095Y-85556247D01*
X173628095Y-85556247D02*
X173628095Y-85413390D01*
X173628095Y-85413390D02*
X173675714Y-85222914D01*
X173675714Y-85222914D02*
X173723333Y-85127676D01*
X173723333Y-85127676D02*
X173818571Y-85032438D01*
X173818571Y-85032438D02*
X173961428Y-84984819D01*
X173961428Y-84984819D02*
X174056666Y-84984819D01*
X174056666Y-84984819D02*
X174199523Y-85032438D01*
X174199523Y-85032438D02*
X174247142Y-85080057D01*
X174580476Y-84984819D02*
X175199523Y-84984819D01*
X175199523Y-84984819D02*
X174866190Y-85365771D01*
X174866190Y-85365771D02*
X175009047Y-85365771D01*
X175009047Y-85365771D02*
X175104285Y-85413390D01*
X175104285Y-85413390D02*
X175151904Y-85461009D01*
X175151904Y-85461009D02*
X175199523Y-85556247D01*
X175199523Y-85556247D02*
X175199523Y-85794342D01*
X175199523Y-85794342D02*
X175151904Y-85889580D01*
X175151904Y-85889580D02*
X175104285Y-85937200D01*
X175104285Y-85937200D02*
X175009047Y-85984819D01*
X175009047Y-85984819D02*
X174723333Y-85984819D01*
X174723333Y-85984819D02*
X174628095Y-85937200D01*
X174628095Y-85937200D02*
X174580476Y-85889580D01*
X176056666Y-84984819D02*
X175866190Y-84984819D01*
X175866190Y-84984819D02*
X175770952Y-85032438D01*
X175770952Y-85032438D02*
X175723333Y-85080057D01*
X175723333Y-85080057D02*
X175628095Y-85222914D01*
X175628095Y-85222914D02*
X175580476Y-85413390D01*
X175580476Y-85413390D02*
X175580476Y-85794342D01*
X175580476Y-85794342D02*
X175628095Y-85889580D01*
X175628095Y-85889580D02*
X175675714Y-85937200D01*
X175675714Y-85937200D02*
X175770952Y-85984819D01*
X175770952Y-85984819D02*
X175961428Y-85984819D01*
X175961428Y-85984819D02*
X176056666Y-85937200D01*
X176056666Y-85937200D02*
X176104285Y-85889580D01*
X176104285Y-85889580D02*
X176151904Y-85794342D01*
X176151904Y-85794342D02*
X176151904Y-85556247D01*
X176151904Y-85556247D02*
X176104285Y-85461009D01*
X176104285Y-85461009D02*
X176056666Y-85413390D01*
X176056666Y-85413390D02*
X175961428Y-85365771D01*
X175961428Y-85365771D02*
X175770952Y-85365771D01*
X175770952Y-85365771D02*
X175675714Y-85413390D01*
X175675714Y-85413390D02*
X175628095Y-85461009D01*
X175628095Y-85461009D02*
X175580476Y-85556247D01*
X150622080Y-88730357D02*
X150669700Y-88777976D01*
X150669700Y-88777976D02*
X150717319Y-88920833D01*
X150717319Y-88920833D02*
X150717319Y-89016071D01*
X150717319Y-89016071D02*
X150669700Y-89158928D01*
X150669700Y-89158928D02*
X150574461Y-89254166D01*
X150574461Y-89254166D02*
X150479223Y-89301785D01*
X150479223Y-89301785D02*
X150288747Y-89349404D01*
X150288747Y-89349404D02*
X150145890Y-89349404D01*
X150145890Y-89349404D02*
X149955414Y-89301785D01*
X149955414Y-89301785D02*
X149860176Y-89254166D01*
X149860176Y-89254166D02*
X149764938Y-89158928D01*
X149764938Y-89158928D02*
X149717319Y-89016071D01*
X149717319Y-89016071D02*
X149717319Y-88920833D01*
X149717319Y-88920833D02*
X149764938Y-88777976D01*
X149764938Y-88777976D02*
X149812557Y-88730357D01*
X149812557Y-88349404D02*
X149764938Y-88301785D01*
X149764938Y-88301785D02*
X149717319Y-88206547D01*
X149717319Y-88206547D02*
X149717319Y-87968452D01*
X149717319Y-87968452D02*
X149764938Y-87873214D01*
X149764938Y-87873214D02*
X149812557Y-87825595D01*
X149812557Y-87825595D02*
X149907795Y-87777976D01*
X149907795Y-87777976D02*
X150003033Y-87777976D01*
X150003033Y-87777976D02*
X150145890Y-87825595D01*
X150145890Y-87825595D02*
X150717319Y-88397023D01*
X150717319Y-88397023D02*
X150717319Y-87777976D01*
X149717319Y-87444642D02*
X149717319Y-86825595D01*
X149717319Y-86825595D02*
X150098271Y-87158928D01*
X150098271Y-87158928D02*
X150098271Y-87016071D01*
X150098271Y-87016071D02*
X150145890Y-86920833D01*
X150145890Y-86920833D02*
X150193509Y-86873214D01*
X150193509Y-86873214D02*
X150288747Y-86825595D01*
X150288747Y-86825595D02*
X150526842Y-86825595D01*
X150526842Y-86825595D02*
X150622080Y-86873214D01*
X150622080Y-86873214D02*
X150669700Y-86920833D01*
X150669700Y-86920833D02*
X150717319Y-87016071D01*
X150717319Y-87016071D02*
X150717319Y-87301785D01*
X150717319Y-87301785D02*
X150669700Y-87397023D01*
X150669700Y-87397023D02*
X150622080Y-87444642D01*
X146952080Y-88205357D02*
X146999700Y-88252976D01*
X146999700Y-88252976D02*
X147047319Y-88395833D01*
X147047319Y-88395833D02*
X147047319Y-88491071D01*
X147047319Y-88491071D02*
X146999700Y-88633928D01*
X146999700Y-88633928D02*
X146904461Y-88729166D01*
X146904461Y-88729166D02*
X146809223Y-88776785D01*
X146809223Y-88776785D02*
X146618747Y-88824404D01*
X146618747Y-88824404D02*
X146475890Y-88824404D01*
X146475890Y-88824404D02*
X146285414Y-88776785D01*
X146285414Y-88776785D02*
X146190176Y-88729166D01*
X146190176Y-88729166D02*
X146094938Y-88633928D01*
X146094938Y-88633928D02*
X146047319Y-88491071D01*
X146047319Y-88491071D02*
X146047319Y-88395833D01*
X146047319Y-88395833D02*
X146094938Y-88252976D01*
X146094938Y-88252976D02*
X146142557Y-88205357D01*
X146142557Y-87824404D02*
X146094938Y-87776785D01*
X146094938Y-87776785D02*
X146047319Y-87681547D01*
X146047319Y-87681547D02*
X146047319Y-87443452D01*
X146047319Y-87443452D02*
X146094938Y-87348214D01*
X146094938Y-87348214D02*
X146142557Y-87300595D01*
X146142557Y-87300595D02*
X146237795Y-87252976D01*
X146237795Y-87252976D02*
X146333033Y-87252976D01*
X146333033Y-87252976D02*
X146475890Y-87300595D01*
X146475890Y-87300595D02*
X147047319Y-87872023D01*
X147047319Y-87872023D02*
X147047319Y-87252976D01*
X146142557Y-86872023D02*
X146094938Y-86824404D01*
X146094938Y-86824404D02*
X146047319Y-86729166D01*
X146047319Y-86729166D02*
X146047319Y-86491071D01*
X146047319Y-86491071D02*
X146094938Y-86395833D01*
X146094938Y-86395833D02*
X146142557Y-86348214D01*
X146142557Y-86348214D02*
X146237795Y-86300595D01*
X146237795Y-86300595D02*
X146333033Y-86300595D01*
X146333033Y-86300595D02*
X146475890Y-86348214D01*
X146475890Y-86348214D02*
X147047319Y-86919642D01*
X147047319Y-86919642D02*
X147047319Y-86300595D01*
X122594580Y-95692977D02*
X122642200Y-95740596D01*
X122642200Y-95740596D02*
X122689819Y-95883453D01*
X122689819Y-95883453D02*
X122689819Y-95978691D01*
X122689819Y-95978691D02*
X122642200Y-96121548D01*
X122642200Y-96121548D02*
X122546961Y-96216786D01*
X122546961Y-96216786D02*
X122451723Y-96264405D01*
X122451723Y-96264405D02*
X122261247Y-96312024D01*
X122261247Y-96312024D02*
X122118390Y-96312024D01*
X122118390Y-96312024D02*
X121927914Y-96264405D01*
X121927914Y-96264405D02*
X121832676Y-96216786D01*
X121832676Y-96216786D02*
X121737438Y-96121548D01*
X121737438Y-96121548D02*
X121689819Y-95978691D01*
X121689819Y-95978691D02*
X121689819Y-95883453D01*
X121689819Y-95883453D02*
X121737438Y-95740596D01*
X121737438Y-95740596D02*
X121785057Y-95692977D01*
X122689819Y-94740596D02*
X122689819Y-95312024D01*
X122689819Y-95026310D02*
X121689819Y-95026310D01*
X121689819Y-95026310D02*
X121832676Y-95121548D01*
X121832676Y-95121548D02*
X121927914Y-95216786D01*
X121927914Y-95216786D02*
X121975533Y-95312024D01*
X122689819Y-93788215D02*
X122689819Y-94359643D01*
X122689819Y-94073929D02*
X121689819Y-94073929D01*
X121689819Y-94073929D02*
X121832676Y-94169167D01*
X121832676Y-94169167D02*
X121927914Y-94264405D01*
X121927914Y-94264405D02*
X121975533Y-94359643D01*
X125954580Y-95492977D02*
X126002200Y-95540596D01*
X126002200Y-95540596D02*
X126049819Y-95683453D01*
X126049819Y-95683453D02*
X126049819Y-95778691D01*
X126049819Y-95778691D02*
X126002200Y-95921548D01*
X126002200Y-95921548D02*
X125906961Y-96016786D01*
X125906961Y-96016786D02*
X125811723Y-96064405D01*
X125811723Y-96064405D02*
X125621247Y-96112024D01*
X125621247Y-96112024D02*
X125478390Y-96112024D01*
X125478390Y-96112024D02*
X125287914Y-96064405D01*
X125287914Y-96064405D02*
X125192676Y-96016786D01*
X125192676Y-96016786D02*
X125097438Y-95921548D01*
X125097438Y-95921548D02*
X125049819Y-95778691D01*
X125049819Y-95778691D02*
X125049819Y-95683453D01*
X125049819Y-95683453D02*
X125097438Y-95540596D01*
X125097438Y-95540596D02*
X125145057Y-95492977D01*
X126049819Y-94540596D02*
X126049819Y-95112024D01*
X126049819Y-94826310D02*
X125049819Y-94826310D01*
X125049819Y-94826310D02*
X125192676Y-94921548D01*
X125192676Y-94921548D02*
X125287914Y-95016786D01*
X125287914Y-95016786D02*
X125335533Y-95112024D01*
X125049819Y-93921548D02*
X125049819Y-93826310D01*
X125049819Y-93826310D02*
X125097438Y-93731072D01*
X125097438Y-93731072D02*
X125145057Y-93683453D01*
X125145057Y-93683453D02*
X125240295Y-93635834D01*
X125240295Y-93635834D02*
X125430771Y-93588215D01*
X125430771Y-93588215D02*
X125668866Y-93588215D01*
X125668866Y-93588215D02*
X125859342Y-93635834D01*
X125859342Y-93635834D02*
X125954580Y-93683453D01*
X125954580Y-93683453D02*
X126002200Y-93731072D01*
X126002200Y-93731072D02*
X126049819Y-93826310D01*
X126049819Y-93826310D02*
X126049819Y-93921548D01*
X126049819Y-93921548D02*
X126002200Y-94016786D01*
X126002200Y-94016786D02*
X125954580Y-94064405D01*
X125954580Y-94064405D02*
X125859342Y-94112024D01*
X125859342Y-94112024D02*
X125668866Y-94159643D01*
X125668866Y-94159643D02*
X125430771Y-94159643D01*
X125430771Y-94159643D02*
X125240295Y-94112024D01*
X125240295Y-94112024D02*
X125145057Y-94064405D01*
X125145057Y-94064405D02*
X125097438Y-94016786D01*
X125097438Y-94016786D02*
X125049819Y-93921548D01*
X144855833Y-92987080D02*
X144808214Y-93034700D01*
X144808214Y-93034700D02*
X144665357Y-93082319D01*
X144665357Y-93082319D02*
X144570119Y-93082319D01*
X144570119Y-93082319D02*
X144427262Y-93034700D01*
X144427262Y-93034700D02*
X144332024Y-92939461D01*
X144332024Y-92939461D02*
X144284405Y-92844223D01*
X144284405Y-92844223D02*
X144236786Y-92653747D01*
X144236786Y-92653747D02*
X144236786Y-92510890D01*
X144236786Y-92510890D02*
X144284405Y-92320414D01*
X144284405Y-92320414D02*
X144332024Y-92225176D01*
X144332024Y-92225176D02*
X144427262Y-92129938D01*
X144427262Y-92129938D02*
X144570119Y-92082319D01*
X144570119Y-92082319D02*
X144665357Y-92082319D01*
X144665357Y-92082319D02*
X144808214Y-92129938D01*
X144808214Y-92129938D02*
X144855833Y-92177557D01*
X145712976Y-92415652D02*
X145712976Y-93082319D01*
X145474881Y-92034700D02*
X145236786Y-92748985D01*
X145236786Y-92748985D02*
X145855833Y-92748985D01*
X172454819Y-74438094D02*
X173264342Y-74438094D01*
X173264342Y-74438094D02*
X173359580Y-74390475D01*
X173359580Y-74390475D02*
X173407200Y-74342856D01*
X173407200Y-74342856D02*
X173454819Y-74247618D01*
X173454819Y-74247618D02*
X173454819Y-74057142D01*
X173454819Y-74057142D02*
X173407200Y-73961904D01*
X173407200Y-73961904D02*
X173359580Y-73914285D01*
X173359580Y-73914285D02*
X173264342Y-73866666D01*
X173264342Y-73866666D02*
X172454819Y-73866666D01*
X173454819Y-72866666D02*
X173454819Y-73438094D01*
X173454819Y-73152380D02*
X172454819Y-73152380D01*
X172454819Y-73152380D02*
X172597676Y-73247618D01*
X172597676Y-73247618D02*
X172692914Y-73342856D01*
X172692914Y-73342856D02*
X172740533Y-73438094D01*
X172883390Y-72295237D02*
X172835771Y-72390475D01*
X172835771Y-72390475D02*
X172788152Y-72438094D01*
X172788152Y-72438094D02*
X172692914Y-72485713D01*
X172692914Y-72485713D02*
X172645295Y-72485713D01*
X172645295Y-72485713D02*
X172550057Y-72438094D01*
X172550057Y-72438094D02*
X172502438Y-72390475D01*
X172502438Y-72390475D02*
X172454819Y-72295237D01*
X172454819Y-72295237D02*
X172454819Y-72104761D01*
X172454819Y-72104761D02*
X172502438Y-72009523D01*
X172502438Y-72009523D02*
X172550057Y-71961904D01*
X172550057Y-71961904D02*
X172645295Y-71914285D01*
X172645295Y-71914285D02*
X172692914Y-71914285D01*
X172692914Y-71914285D02*
X172788152Y-71961904D01*
X172788152Y-71961904D02*
X172835771Y-72009523D01*
X172835771Y-72009523D02*
X172883390Y-72104761D01*
X172883390Y-72104761D02*
X172883390Y-72295237D01*
X172883390Y-72295237D02*
X172931009Y-72390475D01*
X172931009Y-72390475D02*
X172978628Y-72438094D01*
X172978628Y-72438094D02*
X173073866Y-72485713D01*
X173073866Y-72485713D02*
X173264342Y-72485713D01*
X173264342Y-72485713D02*
X173359580Y-72438094D01*
X173359580Y-72438094D02*
X173407200Y-72390475D01*
X173407200Y-72390475D02*
X173454819Y-72295237D01*
X173454819Y-72295237D02*
X173454819Y-72104761D01*
X173454819Y-72104761D02*
X173407200Y-72009523D01*
X173407200Y-72009523D02*
X173359580Y-71961904D01*
X173359580Y-71961904D02*
X173264342Y-71914285D01*
X173264342Y-71914285D02*
X173073866Y-71914285D01*
X173073866Y-71914285D02*
X172978628Y-71961904D01*
X172978628Y-71961904D02*
X172931009Y-72009523D01*
X172931009Y-72009523D02*
X172883390Y-72104761D01*
X175657142Y-91159580D02*
X175609523Y-91207200D01*
X175609523Y-91207200D02*
X175466666Y-91254819D01*
X175466666Y-91254819D02*
X175371428Y-91254819D01*
X175371428Y-91254819D02*
X175228571Y-91207200D01*
X175228571Y-91207200D02*
X175133333Y-91111961D01*
X175133333Y-91111961D02*
X175085714Y-91016723D01*
X175085714Y-91016723D02*
X175038095Y-90826247D01*
X175038095Y-90826247D02*
X175038095Y-90683390D01*
X175038095Y-90683390D02*
X175085714Y-90492914D01*
X175085714Y-90492914D02*
X175133333Y-90397676D01*
X175133333Y-90397676D02*
X175228571Y-90302438D01*
X175228571Y-90302438D02*
X175371428Y-90254819D01*
X175371428Y-90254819D02*
X175466666Y-90254819D01*
X175466666Y-90254819D02*
X175609523Y-90302438D01*
X175609523Y-90302438D02*
X175657142Y-90350057D01*
X176038095Y-90350057D02*
X176085714Y-90302438D01*
X176085714Y-90302438D02*
X176180952Y-90254819D01*
X176180952Y-90254819D02*
X176419047Y-90254819D01*
X176419047Y-90254819D02*
X176514285Y-90302438D01*
X176514285Y-90302438D02*
X176561904Y-90350057D01*
X176561904Y-90350057D02*
X176609523Y-90445295D01*
X176609523Y-90445295D02*
X176609523Y-90540533D01*
X176609523Y-90540533D02*
X176561904Y-90683390D01*
X176561904Y-90683390D02*
X175990476Y-91254819D01*
X175990476Y-91254819D02*
X176609523Y-91254819D01*
X177180952Y-90683390D02*
X177085714Y-90635771D01*
X177085714Y-90635771D02*
X177038095Y-90588152D01*
X177038095Y-90588152D02*
X176990476Y-90492914D01*
X176990476Y-90492914D02*
X176990476Y-90445295D01*
X176990476Y-90445295D02*
X177038095Y-90350057D01*
X177038095Y-90350057D02*
X177085714Y-90302438D01*
X177085714Y-90302438D02*
X177180952Y-90254819D01*
X177180952Y-90254819D02*
X177371428Y-90254819D01*
X177371428Y-90254819D02*
X177466666Y-90302438D01*
X177466666Y-90302438D02*
X177514285Y-90350057D01*
X177514285Y-90350057D02*
X177561904Y-90445295D01*
X177561904Y-90445295D02*
X177561904Y-90492914D01*
X177561904Y-90492914D02*
X177514285Y-90588152D01*
X177514285Y-90588152D02*
X177466666Y-90635771D01*
X177466666Y-90635771D02*
X177371428Y-90683390D01*
X177371428Y-90683390D02*
X177180952Y-90683390D01*
X177180952Y-90683390D02*
X177085714Y-90731009D01*
X177085714Y-90731009D02*
X177038095Y-90778628D01*
X177038095Y-90778628D02*
X176990476Y-90873866D01*
X176990476Y-90873866D02*
X176990476Y-91064342D01*
X176990476Y-91064342D02*
X177038095Y-91159580D01*
X177038095Y-91159580D02*
X177085714Y-91207200D01*
X177085714Y-91207200D02*
X177180952Y-91254819D01*
X177180952Y-91254819D02*
X177371428Y-91254819D01*
X177371428Y-91254819D02*
X177466666Y-91207200D01*
X177466666Y-91207200D02*
X177514285Y-91159580D01*
X177514285Y-91159580D02*
X177561904Y-91064342D01*
X177561904Y-91064342D02*
X177561904Y-90873866D01*
X177561904Y-90873866D02*
X177514285Y-90778628D01*
X177514285Y-90778628D02*
X177466666Y-90731009D01*
X177466666Y-90731009D02*
X177371428Y-90683390D01*
D12*
%TO.C,J1*%
X207960000Y-103500000D02*
X209960000Y-103500000D01*
X211860000Y-103500000D02*
X213760000Y-103500000D01*
X213760000Y-103500000D02*
X213760000Y-94100000D01*
X207960000Y-94100000D02*
X209960000Y-94100000D01*
X211860000Y-94100000D02*
X213760000Y-94100000D01*
%TO.C,C56*%
X185340000Y-65111252D02*
X185340000Y-63688748D01*
X188060000Y-65111252D02*
X188060000Y-63688748D01*
%TO.C,C55*%
X176811252Y-79160000D02*
X175388748Y-79160000D01*
X176811252Y-76440000D02*
X175388748Y-76440000D01*
%TO.C,C54*%
X149588748Y-76940000D02*
X151011252Y-76940000D01*
X149588748Y-79660000D02*
X151011252Y-79660000D01*
%TO.C,C53*%
X136340000Y-65736252D02*
X136340000Y-64313748D01*
X139060000Y-65736252D02*
X139060000Y-64313748D01*
%TO.C,C52*%
X140940000Y-65786252D02*
X140940000Y-64363748D01*
X143660000Y-65786252D02*
X143660000Y-64363748D01*
%TO.C,C51*%
X181540000Y-65236252D02*
X181540000Y-63813748D01*
X184260000Y-65236252D02*
X184260000Y-63813748D01*
D13*
%TO.C,C50*%
X212200000Y-66800000D02*
G75*
G02*
X196200000Y-66800000I-8000000J0D01*
G01*
X196200000Y-66800000D02*
G75*
G02*
X212200000Y-66800000I8000000J0D01*
G01*
X198330000Y-66500000D02*
X196650000Y-66500000D01*
X197440000Y-67330000D02*
X197440000Y-65610000D01*
%TO.C,C47*%
X129760000Y-67470000D02*
X129760000Y-69190000D01*
X128870000Y-68300000D02*
X130550000Y-68300000D01*
X131000000Y-68000000D02*
G75*
G02*
X115000000Y-68000000I-8000000J0D01*
G01*
X115000000Y-68000000D02*
G75*
G02*
X131000000Y-68000000I8000000J0D01*
G01*
D12*
%TO.C,R37*%
X149336359Y-106420000D02*
X149643641Y-106420000D01*
X149336359Y-107180000D02*
X149643641Y-107180000D01*
%TO.C,R36*%
X149643641Y-107420000D02*
X149336359Y-107420000D01*
X149643641Y-108180000D02*
X149336359Y-108180000D01*
%TO.C,R27*%
X134575000Y-92186479D02*
X134575000Y-92493761D01*
X133815000Y-92186479D02*
X133815000Y-92493761D01*
%TO.C,R26*%
X134930000Y-88423056D02*
X134930000Y-88877184D01*
X133460000Y-88423056D02*
X133460000Y-88877184D01*
%TO.C,R23*%
X167846359Y-94420000D02*
X168153641Y-94420000D01*
X167846359Y-95180000D02*
X168153641Y-95180000D01*
%TO.C,R22*%
X167936359Y-98020000D02*
X168243641Y-98020000D01*
X167936359Y-98780000D02*
X168243641Y-98780000D01*
%TO.C,R21*%
X167846359Y-95620000D02*
X168153641Y-95620000D01*
X167846359Y-96380000D02*
X168153641Y-96380000D01*
%TO.C,R20*%
X167846359Y-96820000D02*
X168153641Y-96820000D01*
X167846359Y-97580000D02*
X168153641Y-97580000D01*
%TO.C,R19*%
X161020000Y-101463641D02*
X161020000Y-101156359D01*
X161780000Y-101463641D02*
X161780000Y-101156359D01*
%TO.C,R16*%
X200043641Y-98380000D02*
X199736359Y-98380000D01*
X200043641Y-97620000D02*
X199736359Y-97620000D01*
%TO.C,R15*%
X200043641Y-99580000D02*
X199736359Y-99580000D01*
X200043641Y-98820000D02*
X199736359Y-98820000D01*
%TO.C,R14*%
X203695000Y-96433641D02*
X203695000Y-96126359D01*
X204455000Y-96433641D02*
X204455000Y-96126359D01*
%TO.C,R13*%
X204455000Y-100926359D02*
X204455000Y-101233641D01*
X203695000Y-100926359D02*
X203695000Y-101233641D01*
%TO.C,R5*%
X143827064Y-100735000D02*
X143372936Y-100735000D01*
X143827064Y-99265000D02*
X143372936Y-99265000D01*
%TO.C,R4*%
X147627064Y-100735000D02*
X147172936Y-100735000D01*
X147627064Y-99265000D02*
X147172936Y-99265000D01*
%TO.C,C43*%
X175587836Y-97960000D02*
X175372164Y-97960000D01*
X175587836Y-97240000D02*
X175372164Y-97240000D01*
%TO.C,C42*%
X179587836Y-99960000D02*
X179372164Y-99960000D01*
X179587836Y-99240000D02*
X179372164Y-99240000D01*
%TO.C,C41*%
X177787836Y-95040000D02*
X177572164Y-95040000D01*
X177787836Y-95760000D02*
X177572164Y-95760000D01*
%TO.C,C40*%
X178107836Y-97140000D02*
X177892164Y-97140000D01*
X178107836Y-97860000D02*
X177892164Y-97860000D01*
%TO.C,C39*%
X187360000Y-97772164D02*
X187360000Y-97987836D01*
X186640000Y-97772164D02*
X186640000Y-97987836D01*
%TO.C,C38*%
X185507836Y-97360000D02*
X185292164Y-97360000D01*
X185507836Y-96640000D02*
X185292164Y-96640000D01*
%TO.C,C37*%
X185640000Y-92907836D02*
X185640000Y-92692164D01*
X186360000Y-92907836D02*
X186360000Y-92692164D01*
%TO.C,C35*%
X180440000Y-94907836D02*
X180440000Y-94692164D01*
X181160000Y-94907836D02*
X181160000Y-94692164D01*
%TO.C,C31*%
X188892164Y-100240000D02*
X189107836Y-100240000D01*
X188892164Y-100960000D02*
X189107836Y-100960000D01*
%TO.C,C7*%
X149665000Y-100861252D02*
X149665000Y-100338748D01*
X151135000Y-100861252D02*
X151135000Y-100338748D01*
D13*
%TO.C,CN2*%
X195680000Y-78240120D02*
G75*
G02*
X199711973Y-76547905I4180000J-4310000D01*
G01*
X199662545Y-92052095D02*
G75*
G02*
X195640000Y-90360120I157459J6001985D01*
G01*
X195640000Y-90360120D02*
X195640000Y-88740120D01*
X195650000Y-87040120D02*
X195680000Y-81620120D01*
X195690000Y-79760120D02*
X195700000Y-78310120D01*
X213770000Y-76550120D02*
X199600000Y-76550120D01*
X213770000Y-76550120D02*
X213770000Y-92050120D01*
X213770000Y-92050120D02*
X199600000Y-92050120D01*
D10*
%TO.C,L2*%
X163195000Y-92020000D02*
X157045000Y-92020000D01*
X163195000Y-86180000D02*
X157045000Y-86180000D01*
X157045000Y-92020000D02*
X157045000Y-92020000D01*
X157045000Y-86180000D02*
X157045000Y-86180000D01*
D12*
%TO.C,C6*%
X168955000Y-87488748D02*
X168955000Y-88911252D01*
X167135000Y-87488748D02*
X167135000Y-88911252D01*
%TO.C,C5*%
X165305000Y-87534420D02*
X165305000Y-87815580D01*
X164285000Y-87534420D02*
X164285000Y-87815580D01*
D10*
%TO.C,U20*%
X162620000Y-98420000D02*
X165720000Y-98420000D01*
X165720000Y-101520000D02*
X165720000Y-98420000D01*
X162620000Y-101510000D02*
X165720000Y-101510000D01*
X162600000Y-98420000D02*
X162600000Y-99250000D01*
X162600000Y-100680000D02*
X162600000Y-101510000D01*
D11*
X162780000Y-101930000D02*
G75*
G02*
X162580000Y-101930000I-100000J0D01*
G01*
X162580000Y-101930000D02*
G75*
G02*
X162780000Y-101930000I100000J0D01*
G01*
D10*
X162594759Y-99278449D02*
G75*
G02*
X162600000Y-100680000I-204759J-701551D01*
G01*
%TO.C,U17*%
X180330000Y-75502500D02*
X180330000Y-75712500D01*
X180330000Y-74232500D02*
X180330000Y-74542500D01*
X180330000Y-72962500D02*
X180330000Y-73272500D01*
X180330000Y-71692500D02*
X180330000Y-72002500D01*
X174430000Y-70732500D02*
X174430000Y-70512500D01*
X174430000Y-70512500D02*
X180330000Y-70512500D01*
X180330000Y-70512500D02*
X180330000Y-70732500D01*
X174430000Y-72002500D02*
X174430000Y-71692500D01*
X174430000Y-73272500D02*
X174430000Y-72962500D01*
X174430000Y-74542500D02*
X174430000Y-74232500D01*
X180330000Y-75712500D02*
X174430000Y-75712500D01*
X174430000Y-75712500D02*
X174430000Y-75502500D01*
D14*
X174170000Y-70412500D02*
G75*
G02*
X173870000Y-70412500I-150000J0D01*
G01*
X173870000Y-70412500D02*
G75*
G02*
X174170000Y-70412500I150000J0D01*
G01*
D10*
%TO.C,U16*%
X154380000Y-70797500D02*
X154380000Y-70587500D01*
X154380000Y-72067500D02*
X154380000Y-71757500D01*
X154380000Y-73337500D02*
X154380000Y-73027500D01*
X154380000Y-74607500D02*
X154380000Y-74297500D01*
X160280000Y-75567500D02*
X160280000Y-75787500D01*
X160280000Y-75787500D02*
X154380000Y-75787500D01*
X154380000Y-75787500D02*
X154380000Y-75567500D01*
X160280000Y-74297500D02*
X160280000Y-74607500D01*
X160280000Y-73027500D02*
X160280000Y-73337500D01*
X160280000Y-71757500D02*
X160280000Y-72067500D01*
X154380000Y-70587500D02*
X160280000Y-70587500D01*
X160280000Y-70587500D02*
X160280000Y-70797500D01*
D14*
X160840000Y-75887500D02*
G75*
G02*
X160540000Y-75887500I-150000J0D01*
G01*
X160540000Y-75887500D02*
G75*
G02*
X160840000Y-75887500I150000J0D01*
G01*
%TO.C,U15*%
X152160000Y-75957500D02*
G75*
G02*
X151860000Y-75957500I-150000J0D01*
G01*
X151860000Y-75957500D02*
G75*
G02*
X152160000Y-75957500I150000J0D01*
G01*
D10*
X151600000Y-70657500D02*
X151600000Y-70867500D01*
X145700000Y-70657500D02*
X151600000Y-70657500D01*
X151600000Y-71827500D02*
X151600000Y-72137500D01*
X151600000Y-73097500D02*
X151600000Y-73407500D01*
X151600000Y-74367500D02*
X151600000Y-74677500D01*
X145700000Y-75857500D02*
X145700000Y-75637500D01*
X151600000Y-75857500D02*
X145700000Y-75857500D01*
X151600000Y-75637500D02*
X151600000Y-75857500D01*
X145700000Y-74677500D02*
X145700000Y-74367500D01*
X145700000Y-73407500D02*
X145700000Y-73097500D01*
X145700000Y-72137500D02*
X145700000Y-71827500D01*
X145700000Y-70867500D02*
X145700000Y-70657500D01*
D14*
%TO.C,U12*%
X165280000Y-64650000D02*
G75*
G02*
X164980000Y-64650000I-150000J0D01*
G01*
X164980000Y-64650000D02*
G75*
G02*
X165280000Y-64650000I150000J0D01*
G01*
D10*
X165540000Y-69950000D02*
X165540000Y-69740000D01*
X171440000Y-69950000D02*
X165540000Y-69950000D01*
X165540000Y-68780000D02*
X165540000Y-68470000D01*
X165540000Y-67510000D02*
X165540000Y-67200000D01*
X165540000Y-66240000D02*
X165540000Y-65930000D01*
X171440000Y-64750000D02*
X171440000Y-64970000D01*
X165540000Y-64750000D02*
X171440000Y-64750000D01*
X165540000Y-64970000D02*
X165540000Y-64750000D01*
X171440000Y-65930000D02*
X171440000Y-66240000D01*
X171440000Y-67200000D02*
X171440000Y-67510000D01*
X171440000Y-68470000D02*
X171440000Y-68780000D01*
X171440000Y-69740000D02*
X171440000Y-69950000D01*
%TO.C,U11*%
X180320000Y-69740000D02*
X180320000Y-69950000D01*
X180320000Y-68470000D02*
X180320000Y-68780000D01*
X180320000Y-67200000D02*
X180320000Y-67510000D01*
X180320000Y-65930000D02*
X180320000Y-66240000D01*
X174420000Y-64970000D02*
X174420000Y-64750000D01*
X174420000Y-64750000D02*
X180320000Y-64750000D01*
X180320000Y-64750000D02*
X180320000Y-64970000D01*
X174420000Y-66240000D02*
X174420000Y-65930000D01*
X174420000Y-67510000D02*
X174420000Y-67200000D01*
X174420000Y-68780000D02*
X174420000Y-68470000D01*
X180320000Y-69950000D02*
X174420000Y-69950000D01*
X174420000Y-69950000D02*
X174420000Y-69740000D01*
D14*
X174160000Y-64650000D02*
G75*
G02*
X173860000Y-64650000I-150000J0D01*
G01*
X173860000Y-64650000D02*
G75*
G02*
X174160000Y-64650000I150000J0D01*
G01*
D10*
%TO.C,U10*%
X154390000Y-65060000D02*
X154390000Y-64850000D01*
X154390000Y-66330000D02*
X154390000Y-66020000D01*
X154390000Y-67600000D02*
X154390000Y-67290000D01*
X154390000Y-68870000D02*
X154390000Y-68560000D01*
X160290000Y-69830000D02*
X160290000Y-70050000D01*
X160290000Y-70050000D02*
X154390000Y-70050000D01*
X154390000Y-70050000D02*
X154390000Y-69830000D01*
X160290000Y-68560000D02*
X160290000Y-68870000D01*
X160290000Y-67290000D02*
X160290000Y-67600000D01*
X160290000Y-66020000D02*
X160290000Y-66330000D01*
X154390000Y-64850000D02*
X160290000Y-64850000D01*
X160290000Y-64850000D02*
X160290000Y-65060000D01*
D14*
X160850000Y-70150000D02*
G75*
G02*
X160550000Y-70150000I-150000J0D01*
G01*
X160550000Y-70150000D02*
G75*
G02*
X160850000Y-70150000I150000J0D01*
G01*
%TO.C,U9*%
X152155000Y-70202500D02*
G75*
G02*
X151855000Y-70202500I-150000J0D01*
G01*
X151855000Y-70202500D02*
G75*
G02*
X152155000Y-70202500I150000J0D01*
G01*
D10*
X151595000Y-64902500D02*
X151595000Y-65112500D01*
X145695000Y-64902500D02*
X151595000Y-64902500D01*
X151595000Y-66072500D02*
X151595000Y-66382500D01*
X151595000Y-67342500D02*
X151595000Y-67652500D01*
X151595000Y-68612500D02*
X151595000Y-68922500D01*
X145695000Y-70102500D02*
X145695000Y-69882500D01*
X151595000Y-70102500D02*
X145695000Y-70102500D01*
X151595000Y-69882500D02*
X151595000Y-70102500D01*
X145695000Y-68922500D02*
X145695000Y-68612500D01*
X145695000Y-67652500D02*
X145695000Y-67342500D01*
X145695000Y-66382500D02*
X145695000Y-66072500D01*
X145695000Y-65112500D02*
X145695000Y-64902500D01*
D13*
%TO.C,U8*%
X124375001Y-96180120D02*
X124375001Y-96180120D01*
X124375001Y-96180120D01*
X124375001Y-96180120D01*
X124375001Y-96180120D01*
X124375001Y-96180120D01*
X124375001Y-96180121D01*
X124375001Y-96180121D01*
X124375001Y-96180121D01*
X124375001Y-96180121D01*
X124375001Y-96180121D01*
X124375001Y-96180121D01*
X124375001Y-96180121D01*
X124375000Y-96180121D01*
X124375000Y-96180121D01*
X124375000Y-96180121D01*
X124375000Y-96180121D01*
X124375000Y-96180121D01*
X124375000Y-96180121D01*
X124375000Y-96180121D01*
X124375000Y-96180121D01*
X124375000Y-96180121D01*
X124375000Y-96180121D01*
X124375000Y-96180121D01*
X124375000Y-96180121D01*
X124374999Y-96180121D01*
X124374999Y-96180121D01*
X124374999Y-96180121D01*
X124374999Y-96180121D01*
X124374999Y-96180121D01*
X124374999Y-96180121D01*
X124374999Y-96180120D01*
X124374999Y-96180120D01*
X124374999Y-96180120D01*
X124374999Y-96180120D01*
X124374999Y-96180120D01*
X124374999Y-96180120D01*
X124374999Y-96180120D02*
X124374999Y-96180120D01*
X124374999Y-96180120D01*
X124374999Y-96180120D01*
X124374999Y-96180120D01*
X124374999Y-96180120D01*
X124374999Y-96180120D01*
X124374999Y-96180119D01*
X124374999Y-96180119D01*
X124374999Y-96180119D01*
X124374999Y-96180119D01*
X124374999Y-96180119D01*
X124375000Y-96180119D01*
X124375000Y-96180119D01*
X124375000Y-96180119D01*
X124375000Y-96180119D01*
X124375000Y-96180119D01*
X124375000Y-96180119D01*
X124375000Y-96180119D01*
X124375000Y-96180119D01*
X124375000Y-96180119D01*
X124375000Y-96180119D01*
X124375000Y-96180119D01*
X124375000Y-96180119D01*
X124375001Y-96180119D01*
X124375001Y-96180119D01*
X124375001Y-96180119D01*
X124375001Y-96180119D01*
X124375001Y-96180119D01*
X124375001Y-96180119D01*
X124375001Y-96180120D01*
X124375001Y-96180120D01*
X124375001Y-96180120D01*
X124375001Y-96180120D01*
X124375001Y-96180120D01*
X124375001Y-96180120D01*
X124375001Y-96180120D01*
D12*
X125065000Y-96360120D02*
X126235000Y-96360120D01*
X125065000Y-96370120D02*
X125065000Y-96360120D01*
X125065000Y-98550120D02*
X125065000Y-96370120D01*
X125075000Y-98550120D02*
X125065000Y-98550120D01*
X126235000Y-98550120D02*
X125075000Y-98550120D01*
X126235000Y-96360120D02*
X126235000Y-98550120D01*
D10*
%TO.C,U6*%
X151052500Y-95737500D02*
X149902500Y-95737500D01*
X151052500Y-93077500D02*
X151052500Y-95737500D01*
X146392500Y-95737500D02*
X147542500Y-95737500D01*
X146392500Y-93077500D02*
X146392500Y-95737500D01*
D12*
%TO.C,U3*%
X209760000Y-46272500D02*
X209760000Y-58012500D01*
X200920000Y-58012500D02*
X209760000Y-58012500D01*
X200920000Y-46272500D02*
X209760000Y-46272500D01*
X200920000Y-46272500D02*
X200920000Y-58012500D01*
X200540000Y-48892500D02*
X200540000Y-45892500D01*
X200540000Y-45892500D02*
X203540000Y-45892500D01*
%TO.C,U2*%
X115825000Y-45580000D02*
X118825000Y-45580000D01*
X115825000Y-48580000D02*
X115825000Y-45580000D01*
X116205000Y-45960000D02*
X116205000Y-57700000D01*
X116205000Y-45960000D02*
X125045000Y-45960000D01*
X116205000Y-57700000D02*
X125045000Y-57700000D01*
X125045000Y-45960000D02*
X125045000Y-57700000D01*
%TO.C,SW6*%
X204170000Y-109730000D02*
X204170000Y-113870000D01*
X203870000Y-109730000D02*
X204170000Y-109730000D01*
X201030000Y-109730000D02*
X201330000Y-109730000D01*
X204170000Y-113870000D02*
X203870000Y-113870000D01*
X201330000Y-113870000D02*
X201030000Y-113870000D01*
X201030000Y-113870000D02*
X201030000Y-109730000D01*
%TO.C,SW5*%
X199720000Y-109730000D02*
X199720000Y-113870000D01*
X199420000Y-109730000D02*
X199720000Y-109730000D01*
X196580000Y-109730000D02*
X196880000Y-109730000D01*
X199720000Y-113870000D02*
X199420000Y-113870000D01*
X196880000Y-113870000D02*
X196580000Y-113870000D01*
X196580000Y-113870000D02*
X196580000Y-109730000D01*
%TO.C,SW4*%
X195270000Y-109730000D02*
X195270000Y-113870000D01*
X194970000Y-109730000D02*
X195270000Y-109730000D01*
X192130000Y-109730000D02*
X192430000Y-109730000D01*
X195270000Y-113870000D02*
X194970000Y-113870000D01*
X192430000Y-113870000D02*
X192130000Y-113870000D01*
X192130000Y-113870000D02*
X192130000Y-109730000D01*
%TO.C,SW3*%
X190820000Y-109730000D02*
X190820000Y-113870000D01*
X190520000Y-109730000D02*
X190820000Y-109730000D01*
X187680000Y-109730000D02*
X187980000Y-109730000D01*
X190820000Y-113870000D02*
X190520000Y-113870000D01*
X187980000Y-113870000D02*
X187680000Y-113870000D01*
X187680000Y-113870000D02*
X187680000Y-109730000D01*
%TO.C,SW2*%
X172170000Y-78730000D02*
X172170000Y-82870000D01*
X171870000Y-78730000D02*
X172170000Y-78730000D01*
X169030000Y-78730000D02*
X169330000Y-78730000D01*
X172170000Y-82870000D02*
X171870000Y-82870000D01*
X169330000Y-82870000D02*
X169030000Y-82870000D01*
X169030000Y-82870000D02*
X169030000Y-78730000D01*
%TO.C,SW1*%
X175670000Y-80330000D02*
X175670000Y-84470000D01*
X175370000Y-80330000D02*
X175670000Y-80330000D01*
X172530000Y-80330000D02*
X172830000Y-80330000D01*
X175670000Y-84470000D02*
X175370000Y-84470000D01*
X172830000Y-84470000D02*
X172530000Y-84470000D01*
X172530000Y-84470000D02*
X172530000Y-80330000D01*
%TO.C,R28*%
X132105000Y-95485556D02*
X132105000Y-99839684D01*
X128685000Y-95485556D02*
X128685000Y-99839684D01*
%TO.C,R12*%
X175153641Y-88680000D02*
X174846359Y-88680000D01*
X175153641Y-87920000D02*
X174846359Y-87920000D01*
D13*
%TO.C,OLED1*%
X167890000Y-111600000D02*
X132490000Y-111600000D01*
X132490000Y-111600000D02*
X132490000Y-78100000D01*
X132490000Y-78100000D02*
X167890000Y-78100000D01*
X167890000Y-78100000D02*
X167890000Y-111600000D01*
%TO.C,L4*%
X189850000Y-44610000D02*
G75*
G02*
X189851347Y-49688551I-2730000J-2540000D01*
G01*
X184900000Y-49690000D02*
G75*
G02*
X184898653Y-44611449I2730000J2540000D01*
G01*
X193970000Y-40900000D02*
G75*
G02*
X196210670Y-43922315I-5420000J-6360000D01*
G01*
X196270000Y-50460000D02*
G75*
G02*
X194048655Y-53553106I-7720000J3200000D01*
G01*
X180650000Y-53530000D02*
G75*
G02*
X180568410Y-40880315I5410000J6360000D01*
G01*
X193280000Y-52230000D02*
X189850000Y-49690000D01*
X195060000Y-55280000D02*
X193280000Y-52230000D01*
X197220000Y-55280000D02*
X195060000Y-55280000D01*
X197220000Y-61120000D02*
X197220000Y-55280000D01*
X177400000Y-61120000D02*
X197220000Y-61120000D01*
X177400000Y-33180000D02*
X177400000Y-61120000D01*
X197220000Y-33180000D02*
X177400000Y-33180000D01*
X193280000Y-42070000D02*
X189850000Y-44610000D01*
X195060000Y-39020000D02*
X193280000Y-42070000D01*
X197220000Y-39020000D02*
X195060000Y-39020000D01*
X197220000Y-33180000D02*
X197220000Y-39020000D01*
X181470000Y-42070000D02*
X184900000Y-44610000D01*
X179690000Y-39020000D02*
X181470000Y-42070000D01*
X177530000Y-39020000D02*
X179690000Y-39020000D01*
X181470000Y-52230000D02*
X184900000Y-49690000D01*
X179690000Y-55280000D02*
X181470000Y-52230000D01*
X177530000Y-55280000D02*
X179690000Y-55280000D01*
X175880000Y-43850000D02*
X177400000Y-43850000D01*
X175880000Y-40020000D02*
X175880000Y-43850000D01*
X177400000Y-40020000D02*
X175880000Y-40020000D01*
X175880000Y-50450000D02*
X175880000Y-54280000D01*
X177400000Y-50450000D02*
X175880000Y-50450000D01*
X175880000Y-54280000D02*
X177400000Y-54280000D01*
D10*
%TO.C,L3*%
X143562500Y-91907500D02*
X137412500Y-91907500D01*
X137412500Y-91907500D02*
X137412500Y-91907500D01*
X143562500Y-86067500D02*
X137412500Y-86067500D01*
X137412500Y-86067500D02*
X137412500Y-86067500D01*
D13*
%TO.C,L1*%
X136150000Y-49690000D02*
G75*
G02*
X136148653Y-44611449I2730000J2540000D01*
G01*
X141100000Y-44610000D02*
G75*
G02*
X141101347Y-49688551I-2730000J-2540000D01*
G01*
X132030000Y-53400000D02*
G75*
G02*
X129789330Y-50377685I5420000J6360000D01*
G01*
X129730000Y-43840000D02*
G75*
G02*
X131951345Y-40746894I7720000J-3200000D01*
G01*
X145350000Y-40770000D02*
G75*
G02*
X145431590Y-53419685I-5410000J-6360000D01*
G01*
X132720000Y-42070000D02*
X136150000Y-44610000D01*
X130940000Y-39020000D02*
X132720000Y-42070000D01*
X128780000Y-39020000D02*
X130940000Y-39020000D01*
X128780000Y-33180000D02*
X128780000Y-39020000D01*
X148600000Y-33180000D02*
X128780000Y-33180000D01*
X148600000Y-61120000D02*
X148600000Y-33180000D01*
X128780000Y-61120000D02*
X148600000Y-61120000D01*
X132720000Y-52230000D02*
X136150000Y-49690000D01*
X130940000Y-55280000D02*
X132720000Y-52230000D01*
X128780000Y-55280000D02*
X130940000Y-55280000D01*
X128780000Y-61120000D02*
X128780000Y-55280000D01*
X144530000Y-52230000D02*
X141100000Y-49690000D01*
X146310000Y-55280000D02*
X144530000Y-52230000D01*
X148470000Y-55280000D02*
X146310000Y-55280000D01*
X144530000Y-42070000D02*
X141100000Y-44610000D01*
X146310000Y-39020000D02*
X144530000Y-42070000D01*
X148470000Y-39020000D02*
X146310000Y-39020000D01*
X150120000Y-50450000D02*
X148600000Y-50450000D01*
X150120000Y-54280000D02*
X150120000Y-50450000D01*
X148600000Y-54280000D02*
X150120000Y-54280000D01*
X150120000Y-43850000D02*
X150120000Y-40020000D01*
X148600000Y-43850000D02*
X150120000Y-43850000D01*
X150120000Y-40020000D02*
X148600000Y-40020000D01*
%TO.C,CN1*%
X131920000Y-91260000D02*
G75*
G02*
X127888027Y-92952215I-4180000J4310000D01*
G01*
X127937455Y-77448025D02*
G75*
G02*
X131960000Y-79140000I-157455J-6001975D01*
G01*
X131960000Y-79140000D02*
X131960000Y-80760000D01*
X131950000Y-82460000D02*
X131920000Y-87880000D01*
X131910000Y-89740000D02*
X131900000Y-91190000D01*
X113830000Y-92950000D02*
X113830000Y-77450000D01*
X113830000Y-77450000D02*
X128000000Y-77450000D01*
X113830000Y-92950000D02*
X128000000Y-92950000D01*
D12*
%TO.C,C46*%
X122035000Y-97737956D02*
X122035000Y-97522284D01*
X122755000Y-97737956D02*
X122755000Y-97522284D01*
%TO.C,C45*%
X123035000Y-97737956D02*
X123035000Y-97522284D01*
X123755000Y-97737956D02*
X123755000Y-97522284D01*
%TO.C,C44*%
X145283752Y-95292500D02*
X144761248Y-95292500D01*
X145283752Y-96762500D02*
X144761248Y-96762500D01*
%TO.C,C36*%
X174736359Y-86320000D02*
X175043641Y-86320000D01*
X174736359Y-87080000D02*
X175043641Y-87080000D01*
%TO.C,C34*%
X189459420Y-101490000D02*
X189740580Y-101490000D01*
X189459420Y-102510000D02*
X189740580Y-102510000D01*
%TO.C,C30*%
X188292164Y-99240000D02*
X188507836Y-99240000D01*
X188292164Y-99960000D02*
X188507836Y-99960000D01*
%TO.C,C29*%
X186292164Y-99240000D02*
X186507836Y-99240000D01*
X186292164Y-99960000D02*
X186507836Y-99960000D01*
%TO.C,C23*%
X149322500Y-87376248D02*
X149322500Y-88798752D01*
X147502500Y-87376248D02*
X147502500Y-88798752D01*
%TO.C,C22*%
X145672500Y-87421920D02*
X145672500Y-87703080D01*
X144652500Y-87421920D02*
X144652500Y-87703080D01*
%TO.C,C11*%
X123035000Y-95537956D02*
X123035000Y-95322284D01*
X123755000Y-95537956D02*
X123755000Y-95322284D01*
%TO.C,C10*%
X124035000Y-95557956D02*
X124035000Y-95342284D01*
X124755000Y-95557956D02*
X124755000Y-95342284D01*
%TO.C,C4*%
X145233752Y-93292500D02*
X144711248Y-93292500D01*
X145233752Y-94762500D02*
X144711248Y-94762500D01*
D10*
%TO.C,U18*%
X171410000Y-75620000D02*
X171410000Y-75830000D01*
X171410000Y-74350000D02*
X171410000Y-74660000D01*
X171410000Y-73080000D02*
X171410000Y-73390000D01*
X171410000Y-71810000D02*
X171410000Y-72120000D01*
X165510000Y-70850000D02*
X165510000Y-70630000D01*
X165510000Y-70630000D02*
X171410000Y-70630000D01*
X171410000Y-70630000D02*
X171410000Y-70850000D01*
X165510000Y-72120000D02*
X165510000Y-71810000D01*
X165510000Y-73390000D02*
X165510000Y-73080000D01*
X165510000Y-74660000D02*
X165510000Y-74350000D01*
X171410000Y-75830000D02*
X165510000Y-75830000D01*
X165510000Y-75830000D02*
X165510000Y-75620000D01*
D14*
X165250000Y-70530000D02*
G75*
G02*
X164950000Y-70530000I-150000J0D01*
G01*
X164950000Y-70530000D02*
G75*
G02*
X165250000Y-70530000I150000J0D01*
G01*
D12*
%TO.C,C28*%
X178627836Y-91260000D02*
X178412164Y-91260000D01*
X178627836Y-90540000D02*
X178412164Y-90540000D01*
%TD*%
M02*
